<svg id="Layer_1" data-name="Layer 1" xmlns="http://www.w3.org/2000/svg" viewBox="0 0 390 844"><defs><style>.cls-1,.cls-3,.cls-4{fill:#fff;}.cls-1{stroke:#fff;stroke-width:3.71px;}.cls-1,.cls-6{stroke-miterlimit:10;}.cls-1,.cls-2,.cls-4,.cls-6{opacity:0.8;}.cls-5{fill:#55809a;}.cls-6{fill:none;stroke:#55809a;stroke-width:2px;}</style></defs><rect class="cls-1" x="26" y="217.5" width="345" height="244.5" rx="21.54"/><g class="cls-2"><rect class="cls-3" x="59.8" y="32.22" width="6.11" height="23"/><rect class="cls-3" x="49.91" y="37.53" width="6.23" height="17.69"/><rect class="cls-3" x="39.9" y="42.84" width="6.34" height="12.38"/><rect class="cls-3" x="29.79" y="48.15" width="6.45" height="7.08"/></g><polygon class="cls-4" points="41.41 123.35 58.76 106 59.59 106.84 43.08 123.35 59.59 139.87 58.76 140.71 41.41 123.35"/><g class="cls-2"><path class="cls-5" d="M149.52,259.81H134.9v39.61h-3.6V259.81H116.71v-3.05h32.81Z"/><path class="cls-5" d="M175.29,299.42a16.31,16.31,0,0,1-.68-4.42,12.26,12.26,0,0,1-4.7,3.7,14.4,14.4,0,0,1-6,1.3,10.63,10.63,0,0,1-7.4-2.54,8.33,8.33,0,0,1-2.83-6.45,8.47,8.47,0,0,1,3.86-7.32q3.84-2.7,10.73-2.7h6.36v-3.6a7,7,0,0,0-2.09-5.35,8.67,8.67,0,0,0-6.11-2,9.6,9.6,0,0,0-6.07,1.88,5.57,5.57,0,0,0-2.4,4.51l-3.51,0a8.17,8.17,0,0,1,3.51-6.55,13.59,13.59,0,0,1,8.64-2.77q5.31,0,8.37,2.66a9.5,9.5,0,0,1,3.15,7.39v15a18.52,18.52,0,0,0,1,6.89v.35Zm-11-2.52a11.78,11.78,0,0,0,6.28-1.7,10,10,0,0,0,4-4.54v-7h-6.27c-3.49,0-6.23.68-8.2,1.92a5.76,5.76,0,0,0-3,5.11,5.65,5.65,0,0,0,2,4.42A7.46,7.46,0,0,0,164.27,296.9Z"/><path class="cls-5" d="M200.38,280.58l8.55-12.86h4.16l-10.75,15.56,11.22,16.14h-4.13l-9-13.42-9,13.42h-4.13l11.19-16.14-10.75-15.56h4.13Z"/><path class="cls-5" d="M234.28,300a13.76,13.76,0,0,1-7.31-2,13.57,13.57,0,0,1-5.08-5.55,17.3,17.3,0,0,1-1.82-8v-1.26a18.52,18.52,0,0,1,1.78-8.23,14,14,0,0,1,4.93-5.76,12.17,12.17,0,0,1,6.86-2.1,11.44,11.44,0,0,1,9.15,3.94q3.39,3.94,3.39,10.77v2H223.56v.68a13.3,13.3,0,0,0,3.09,9,9.84,9.84,0,0,0,7.78,3.59,11.52,11.52,0,0,0,5-1,11.13,11.13,0,0,0,3.91-3.28l2.19,1.67Q241.65,300,234.28,300Zm-.64-29.88A8.79,8.79,0,0,0,227,273a13.45,13.45,0,0,0-3.29,7.8h19v-.39a11.67,11.67,0,0,0-2.61-7.44A8.09,8.09,0,0,0,233.64,270.12Z"/><path class="cls-5" d="M275,291.36a5,5,0,0,0-2.1-4.19,16.1,16.1,0,0,0-6.31-2.47,28.8,28.8,0,0,1-6.55-2.05,8.72,8.72,0,0,1-3.45-2.83,7,7,0,0,1-1.13-4,7.54,7.54,0,0,1,3.13-6.2,12.68,12.68,0,0,1,8-2.45,13,13,0,0,1,8.51,2.63,8.39,8.39,0,0,1,3.21,6.84h-3.52a5.65,5.65,0,0,0-2.33-4.63,10.49,10.49,0,0,0-11.42-.31,4.75,4.75,0,0,0-2.1,4,4.32,4.32,0,0,0,1.75,3.68q1.74,1.31,6.35,2.38A30.33,30.33,0,0,1,274,284a8.89,8.89,0,0,1,3.41,3,8.14,8.14,0,0,1-2.12,10.6,13.86,13.86,0,0,1-8.46,2.4,14.2,14.2,0,0,1-9-2.68,8.24,8.24,0,0,1-3.44-6.78h3.52a6.08,6.08,0,0,0,2.59,4.79,10.62,10.62,0,0,0,6.31,1.72,9.9,9.9,0,0,0,5.92-1.62A4.82,4.82,0,0,0,275,291.36Z"/><path class="cls-5" d="M135.69,404.83H95.9v-5.75h39.79Z"/><path class="cls-5" d="M185.08,407.58H174.65c.11,3.4,1,5.94,2.56,7.62s3.87,2.52,6.84,2.52a18.34,18.34,0,0,0,6-1l.82,6a31.24,31.24,0,0,1-7.27.85q-7.5,0-11.81-4.22t-4.54-11.78h-5v-4.13h5V399.7h-5v-4.13h5.07q.39-7.47,4.78-11.62t11.81-4.14a31.45,31.45,0,0,1,7,.9l-.82,6a18.9,18.9,0,0,0-5.95-1,8.89,8.89,0,0,0-6.8,2.52q-2.37,2.52-2.63,7.33h10.4v4.13H174.65v3.75h10.43Z"/><path class="cls-5" d="M208,398.44h4.33a7.78,7.78,0,0,0,5.2-1.7,6,6,0,0,0,1.92-4.83,6.64,6.64,0,0,0-1.59-4.74,6.45,6.45,0,0,0-4.88-1.68,6.77,6.77,0,0,0-4.72,1.66,5.52,5.52,0,0,0-1.84,4.32H199.3a10.8,10.8,0,0,1,1.74-6,11.62,11.62,0,0,1,4.86-4.2,15.79,15.79,0,0,1,7-1.51q6.39,0,10,3.2t3.65,8.93a9.06,9.06,0,0,1-1.83,5.4,11.49,11.49,0,0,1-4.73,3.82,10.59,10.59,0,0,1,5.35,3.78,10.36,10.36,0,0,1,1.83,6.16,11.49,11.49,0,0,1-3.94,9.14q-3.94,3.39-10.36,3.39a15.18,15.18,0,0,1-10.08-3.28,10.8,10.8,0,0,1-3.92-8.73H206a5.94,5.94,0,0,0,1.89,4.57,7.12,7.12,0,0,0,5.08,1.76,7.34,7.34,0,0,0,5.21-1.76,6.58,6.58,0,0,0,1.91-5.09,6.69,6.69,0,0,0-2-5.19c-1.33-1.21-3.31-1.82-5.92-1.82H208Z"/><path class="cls-5" d="M261,407.81h5.3v5.72H261V423h-7.12v-9.49H235.4l-.2-4.34,18.4-28.83H261Zm-18.28,0h11.16V390l-.53.94Z"/><path class="cls-5" d="M301.77,405.06q0,9.19-3.44,13.87t-10.47,4.67q-6.92,0-10.42-4.55t-3.59-13.49v-7.38q0-9.21,3.44-13.8t10.51-4.6c4.66,0,8.15,1.49,10.44,4.48s3.47,7.46,3.53,13.42Zm-7.12-8c0-4-.54-6.94-1.64-8.8a6.27,6.27,0,0,0-10.34-.15q-1.64,2.66-1.73,8.28v9.67q0,6,1.67,8.9a5.61,5.61,0,0,0,5.25,2.93,5.49,5.49,0,0,0,5.06-2.71c1.1-1.8,1.67-4.63,1.73-8.48Z"/></g><rect class="cls-1" x="22.37" y="708" width="349.63" height="69" rx="34.5"/><g class="cls-2"><path class="cls-5" d="M162.65,747.14v11.41h-3.84V729.4h10.75a10.8,10.8,0,0,1,7.5,2.45,8.3,8.3,0,0,1,2.71,6.46,8.21,8.21,0,0,1-2.65,6.54c-1.77,1.53-4.31,2.29-7.6,2.29Zm0-3.14h6.91a6.89,6.89,0,0,0,4.72-1.46,5.28,5.28,0,0,0,1.64-4.2,5.48,5.48,0,0,0-1.64-4.17,6.46,6.46,0,0,0-4.5-1.62h-7.13Z"/><path class="cls-5" d="M201.29,750.93H189.07l-2.74,7.62h-4L193.5,729.4h3.36L208,758.55h-3.94Zm-11-3.15h9.9l-5-13.63Z"/><path class="cls-5" d="M222.22,744l7.61-14.64h4.37l-10,18.28v10.87H220.3V747.68L210.25,729.4h4.41Z"/></g><g class="cls-2"><path class="cls-3" d="M121.69,137.09V108h8.61q4.68,0,7.11,1.93a6.87,6.87,0,0,1,2.42,5.7,6.43,6.43,0,0,1-1.23,3.93,6.72,6.72,0,0,1-3.37,2.4,7.06,7.06,0,0,1,5.64,7,7.57,7.57,0,0,1-2.49,6,10.2,10.2,0,0,1-6.94,2.17ZM124.16,121h6.72a7.56,7.56,0,0,0,4.78-1.46,5,5,0,0,0,1.69-4.06,4.89,4.89,0,0,0-1.75-4.14,8.71,8.71,0,0,0-5.3-1.33h-6.14Zm0,2.08V135h7.38a7.37,7.37,0,0,0,5-1.61,5.61,5.61,0,0,0,1.85-4.46,5.42,5.42,0,0,0-1.77-4.27,7.11,7.11,0,0,0-4.9-1.57Z"/><path class="cls-3" d="M161.57,137.09a11.41,11.41,0,0,1-.46-3,8.25,8.25,0,0,1-3.21,2.53,9.75,9.75,0,0,1-4.14.89,7.26,7.26,0,0,1-5-1.74,5.66,5.66,0,0,1-1.93-4.4,5.79,5.79,0,0,1,2.63-5,12.7,12.7,0,0,1,7.34-1.84h4.34V122a4.74,4.74,0,0,0-1.43-3.65,5.91,5.91,0,0,0-4.18-1.34,6.52,6.52,0,0,0-4.14,1.29,3.81,3.81,0,0,0-1.64,3.08l-2.4,0a5.6,5.6,0,0,1,2.4-4.48,9.26,9.26,0,0,1,5.91-1.89,8.46,8.46,0,0,1,5.71,1.81,6.53,6.53,0,0,1,2.15,5.06v10.25a12.71,12.71,0,0,0,.66,4.7v.24ZM154,135.37a8,8,0,0,0,4.3-1.16,6.81,6.81,0,0,0,2.75-3.1v-4.77h-4.28a10.86,10.86,0,0,0-5.61,1.31,3.94,3.94,0,0,0-2,3.5,3.87,3.87,0,0,0,1.35,3A5.09,5.09,0,0,0,154,135.37Z"/><path class="cls-3" d="M173.78,115.43l.08,3.71a8.57,8.57,0,0,1,3-3.06,8,8,0,0,1,4-1,6.51,6.51,0,0,1,5.18,2q1.71,2,1.72,5.89v14.21h-2.38V122.86a6.55,6.55,0,0,0-1.23-4.32,4.82,4.82,0,0,0-3.87-1.43,6.07,6.07,0,0,0-3.94,1.4,8.1,8.1,0,0,0-2.53,3.75v14.83H171.5V115.43Z"/><path class="cls-3" d="M200.81,126.18l-2.75,2.65v8.26h-2.4V106.34h2.4V126l2.27-2.44,8.28-8.15h3l-9.19,9.13,10,12.53h-2.87Z"/><path class="cls-3" d="M217.24,109.18a1.63,1.63,0,0,1,.44-1.15,1.58,1.58,0,0,1,1.2-.47,1.58,1.58,0,0,1,1.66,1.62,1.54,1.54,0,0,1-.45,1.13,1.6,1.6,0,0,1-1.21.46,1.54,1.54,0,0,1-1.64-1.59Zm2.82,27.91h-2.4V115.43h2.4Z"/><path class="cls-3" d="M230.49,115.43l.08,3.71a8.59,8.59,0,0,1,3.05-3.06,7.88,7.88,0,0,1,4-1,6.51,6.51,0,0,1,5.18,2q1.71,2,1.72,5.89v14.21h-2.38V122.86a6.55,6.55,0,0,0-1.23-4.32,4.82,4.82,0,0,0-3.87-1.43,6.09,6.09,0,0,0-3.94,1.4,8.1,8.1,0,0,0-2.53,3.75v14.83h-2.38V115.43Z"/><path class="cls-3" d="M251.41,126.06a13.07,13.07,0,0,1,2.25-8.06,7.27,7.27,0,0,1,6.12-3,7.52,7.52,0,0,1,6.72,3.53l.12-3.13h2.25v21.22a9.19,9.19,0,0,1-2.34,6.63,8.39,8.39,0,0,1-6.35,2.44,9.72,9.72,0,0,1-4.32-1,8.42,8.42,0,0,1-3.23-2.69l1.34-1.44a7.6,7.6,0,0,0,6,3.12,6.14,6.14,0,0,0,4.68-1.77,7.12,7.12,0,0,0,1.75-4.92v-2.72a7.75,7.75,0,0,1-6.71,3.2,7.23,7.23,0,0,1-6.05-3,13.08,13.08,0,0,1-2.28-8.11Zm2.42.42a11.34,11.34,0,0,0,1.66,6.54,5.39,5.39,0,0,0,4.69,2.39,6.41,6.41,0,0,0,6.27-4V121.38a6.81,6.81,0,0,0-2.43-3.17,6.5,6.5,0,0,0-3.8-1.1,5.45,5.45,0,0,0-4.71,2.38Q253.83,121.86,253.83,126.48Z"/></g><line class="cls-6" x1="39.9" y1="338.75" x2="355.65" y2="340.75"/><g class="cls-2"><rect class="cls-3" x="315.48" y="36.67" width="4.7" height="14.1" rx="1.45"/><rect class="cls-3" x="322.53" y="36.67" width="4.7" height="14.1" rx="1.45"/><rect class="cls-3" x="329.59" y="36.67" width="4.7" height="14.1" rx="1.45"/><rect class="cls-3" x="336.64" y="36.67" width="4.7" height="14.1" rx="1.45"/><rect class="cls-3" x="343.69" y="36.67" width="4.7" height="14.1" rx="1.45"/><path class="cls-3" d="M346.77,34a4.43,4.43,0,0,1,4.42,4.43V49a4.42,4.42,0,0,1-4.42,4.42H317.1A4.42,4.42,0,0,1,312.68,49V38.42A4.43,4.43,0,0,1,317.1,34h29.67m0-1.68H317.1a6.11,6.11,0,0,0-6.1,6.11V49a6.1,6.1,0,0,0,6.1,6.1h29.67a6.1,6.1,0,0,0,6.1-6.1V38.42a6.11,6.11,0,0,0-6.1-6.11Z"/><path class="cls-3" d="M355.65,39v9.4A2.35,2.35,0,0,0,358,46.07v-4.7A2.35,2.35,0,0,0,355.65,39Z"/></g></svg>