<svg viewBox="0 0 390 844" xmlns="http://www.w3.org/2000/svg"><g fill="#fff" opacity=".8"><rect height="69.81" rx="11.59" width="350" x="21" y="217"/><rect height="69.81" rx="11.59" width="350" x="21" y="293"/><rect height="69.81" rx="11.59" width="350" x="21" y="369"/><rect height="69.81" rx="11.59" width="350" x="21" y="445"/><rect height="69.81" rx="11.59" width="350" x="21" y="521"/><rect height="69.81" rx="11.59" width="350" x="21" y="597"/></g><g fill="#fff" opacity=".8"><path d="m25.56 195.6h-1.27v-14.93h1.27z"/><path d="m31.54 184.51v1.9a4.43 4.43 0 0 1 1.56-1.57 4 4 0 0 1 2.06-.54 3.35 3.35 0 0 1 2.66 1 4.54 4.54 0 0 1 .88 3v7.28h-1.18v-7.29a3.41 3.41 0 0 0 -.63-2.21 2.48 2.48 0 0 0 -2-.73 3.1 3.1 0 0 0 -2 .71 4.19 4.19 0 0 0 -1.3 1.92v7.6h-1.22v-11.07z"/><path d="m51.89 190.17a6.74 6.74 0 0 1 -1.15 4.12 3.69 3.69 0 0 1 -3.09 1.52 4 4 0 0 1 -3.51-1.72v1.51h-1.14v-15.75h1.22v6.27a3.85 3.85 0 0 1 3.46-1.82 3.7 3.7 0 0 1 3.11 1.5 6.74 6.74 0 0 1 1.1 4.2zm-1.23-.17a5.78 5.78 0 0 0 -.86-3.39 2.76 2.76 0 0 0 -2.39-1.19 3.33 3.33 0 0 0 -2 .58 3.5 3.5 0 0 0 -1.24 1.7v5a3.29 3.29 0 0 0 3.26 2.09 2.75 2.75 0 0 0 2.37-1.2 6.17 6.17 0 0 0 .86-3.59z"/><path d="m55 189.89a6.41 6.41 0 0 1 .62-2.88 4.68 4.68 0 0 1 4.32-2.71 4.56 4.56 0 0 1 3.59 1.56 6 6 0 0 1 1.34 4.14v.26a6.53 6.53 0 0 1 -.62 2.9 4.57 4.57 0 0 1 -1.75 2 4.74 4.74 0 0 1 -2.57.7 4.55 4.55 0 0 1 -3.58-1.56 5.94 5.94 0 0 1 -1.35-4.16zm1.23.34a5 5 0 0 0 1 3.27 3.49 3.49 0 0 0 5.39 0 5.21 5.21 0 0 0 1-3.37v-.24a5.74 5.74 0 0 0 -.47-2.33 3.78 3.78 0 0 0 -1.32-1.63 3.37 3.37 0 0 0 -2-.58 3.29 3.29 0 0 0 -2.68 1.29 5.18 5.18 0 0 0 -1 3.36z"/><path d="m71.73 189 3-4.5h1.46l-3.78 5.5 3.93 5.65h-1.45l-3.15-4.69-3.16 4.69h-1.45l3.92-5.65-3.76-5.44h1.44z"/></g><g fill="#55809a"><g opacity=".8"><path d="m47.49 240.11a4 4 0 0 1 -1.82 1.29 7.22 7.22 0 0 1 -2.63.44 5.15 5.15 0 0 1 -2.69-.69 4.49 4.49 0 0 1 -1.81-2 7 7 0 0 1 -.66-3v-.95a6.44 6.44 0 0 1 1.31-4.2 4.58 4.58 0 0 1 3.66-1.54 4.87 4.87 0 0 1 3.21 1 4.33 4.33 0 0 1 1.42 2.88h-2a2.33 2.33 0 0 0 -2.54-2.18 2.49 2.49 0 0 0 -2.14 1 5.16 5.16 0 0 0 -.76 3v.84a4.91 4.91 0 0 0 .82 3 2.73 2.73 0 0 0 2.3 1.09 3.05 3.05 0 0 0 2.29-.73v-2.37h-2.54v-1.59h4.58z"/><path d="m52.6 241.68h-2v-12.75h2z"/><path d="m61 241.68a3.18 3.18 0 0 1 -.23-.84 3.14 3.14 0 0 1 -2.36 1 3.17 3.17 0 0 1 -2.21-.77 2.46 2.46 0 0 1 -.85-1.91 2.52 2.52 0 0 1 1.07-2.2 5.16 5.16 0 0 1 3-.77h1.23v-.59a1.59 1.59 0 0 0 -.39-1.12 1.53 1.53 0 0 0 -1.18-.42 1.77 1.77 0 0 0 -1.13.35 1 1 0 0 0 -.44.88h-2a2.23 2.23 0 0 1 .49-1.39 3.34 3.34 0 0 1 1.33-1 4.74 4.74 0 0 1 1.88-.36 3.78 3.78 0 0 1 2.52.79 2.85 2.85 0 0 1 1 2.23v4a4.59 4.59 0 0 0 .34 1.94v.14zm-2.21-1.46a2.2 2.2 0 0 0 1.12-.29 1.86 1.86 0 0 0 .79-.78v-1.69h-1.07a3 3 0 0 0 -1.69.39 1.25 1.25 0 0 0 -.56 1.1 1.21 1.21 0 0 0 .38.93 1.52 1.52 0 0 0 1.04.34z"/><path d="m67.56 232.7.06 1a3.25 3.25 0 0 1 2.62-1.2q2.81 0 2.85 3.21v5.94h-2v-5.82a1.91 1.91 0 0 0 -.37-1.27 1.58 1.58 0 0 0 -1.21-.41 2 2 0 0 0 -1.82 1.11v6.39h-2v-9z"/><path d="m75.62 237.12a5.33 5.33 0 0 1 1-3.33 3.09 3.09 0 0 1 2.58-1.26 2.9 2.9 0 0 1 2.31 1v-4.6h2v12.75h-1.85l-.1-.93a3 3 0 0 1 -2.41 1.09 3.06 3.06 0 0 1 -2.55-1.27 5.51 5.51 0 0 1 -.98-3.45zm2 .17a3.74 3.74 0 0 0 .52 2.14 1.74 1.74 0 0 0 1.5.77 1.9 1.9 0 0 0 1.81-1.1v-3.84a1.88 1.88 0 0 0 -1.79-1.08 1.72 1.72 0 0 0 -1.51.78 4.08 4.08 0 0 0 -.51 2.33z"/><path d="m89.59 238.79 1.82-6.09h2.15l-3.56 10.3a2.9 2.9 0 0 1 -2.79 2.26 3.65 3.65 0 0 1 -1-.15v-1.56h.38a1.91 1.91 0 0 0 1.15-.28 1.78 1.78 0 0 0 .61-.93l.29-.77-3.15-8.93h2.17z"/><path d="m100.6 239.24a.92.92 0 0 0 -.44-.83 5 5 0 0 0 -1.47-.49 7.92 7.92 0 0 1 -1.72-.55 2.29 2.29 0 0 1 -1.51-2.12 2.37 2.37 0 0 1 1-1.94 3.86 3.86 0 0 1 2.49-.78 4 4 0 0 1 2.6.8 2.52 2.52 0 0 1 1 2.06h-2a1.22 1.22 0 0 0 -.43-1 1.63 1.63 0 0 0 -1.14-.39 1.76 1.76 0 0 0 -1.09.31 1 1 0 0 0 -.42.82.81.81 0 0 0 .39.72 5.43 5.43 0 0 0 1.58.52 7.54 7.54 0 0 1 1.87.62 2.62 2.62 0 0 1 1 .87 2.22 2.22 0 0 1 .33 1.23 2.34 2.34 0 0 1 -1 2 4.27 4.27 0 0 1 -2.63.75 4.62 4.62 0 0 1 -2-.4 3.23 3.23 0 0 1 -1.34-1.09 2.62 2.62 0 0 1 -.48-1.5h2a1.45 1.45 0 0 0 .54 1.1 2.13 2.13 0 0 0 1.32.38 2.06 2.06 0 0 0 1.21-.3.93.93 0 0 0 .34-.79z"/><path d="m110.47 241.68v-12.09h4.14a5 5 0 0 1 3.12.82 2.89 2.89 0 0 1 1.08 2.45 2.65 2.65 0 0 1 -.45 1.5 2.89 2.89 0 0 1 -1.31 1 2.74 2.74 0 0 1 1.51 1 2.93 2.93 0 0 1 .54 1.77 3.21 3.21 0 0 1 -1.1 2.61 4.7 4.7 0 0 1 -3.12.92zm2.1-7h2.06a2.42 2.42 0 0 0 1.53-.44 1.53 1.53 0 0 0 .55-1.26 1.56 1.56 0 0 0 -.51-1.3 2.61 2.61 0 0 0 -1.59-.4h-2zm0 1.54v3.78h2.33a2.25 2.25 0 0 0 1.55-.49 1.94 1.94 0 0 0 -1.37-3.29z"/><path d="m126.55 234.54a4.39 4.39 0 0 0 -.82-.07 1.88 1.88 0 0 0 -1.87 1.06v6.15h-2v-9h1.92v1a2.28 2.28 0 0 1 2-1.17 1.81 1.81 0 0 1 .71.12z"/><path d="m128 237.1a5.43 5.43 0 0 1 .52-2.38 3.85 3.85 0 0 1 1.48-1.62 4.15 4.15 0 0 1 2.18-.57 3.93 3.93 0 0 1 3 1.17 4.56 4.56 0 0 1 1.22 3.1v.48a5.35 5.35 0 0 1 -.51 2.37 3.77 3.77 0 0 1 -1.46 1.62 4.16 4.16 0 0 1 -2.19.57 3.92 3.92 0 0 1 -3.05-1.26 4.87 4.87 0 0 1 -1.19-3.38zm2 .18a3.65 3.65 0 0 0 .57 2.17 1.86 1.86 0 0 0 1.6.78 1.81 1.81 0 0 0 1.58-.79 4 4 0 0 0 .57-2.34 3.61 3.61 0 0 0 -.58-2.16 2 2 0 0 0 -3.16 0 3.94 3.94 0 0 0 -.58 2.34z"/><path d="m146.8 238.9 1.43-6.2h2l-2.45 9h-1.66l-1.92-6.17-1.89 6.17h-1.66l-2.46-9h2l1.45 6.13 1.84-6.13h1.52z"/><path d="m154.26 232.7.06 1a3.25 3.25 0 0 1 2.62-1.2q2.81 0 2.85 3.21v5.94h-2v-5.82a1.91 1.91 0 0 0 -.37-1.27 1.58 1.58 0 0 0 -1.21-.41 1.94 1.94 0 0 0 -1.82 1.11v6.39h-2v-9z"/></g><g opacity=".8"><path d="m40.76 270.91.37 1.88.46-1.79 2.62-8.91h.92l2.59 8.91.45 1.81.4-1.9 2.18-8.82h1l-3.1 12.09h-1l-2.65-9.46-.31-1.19-.3 1.19-2.81 9.46h-1l-3.08-12.09h1z"/><path d="m53.58 269.55a5.35 5.35 0 0 1 .5-2.33 3.84 3.84 0 0 1 1.42-1.61 3.79 3.79 0 0 1 2.08-.58 3.71 3.71 0 0 1 2.91 1.26 4.84 4.84 0 0 1 1.11 3.33v.21a5.36 5.36 0 0 1 -.5 2.34 3.79 3.79 0 0 1 -1.42 1.61 3.93 3.93 0 0 1 -2.08.56 3.69 3.69 0 0 1 -2.9-1.26 4.78 4.78 0 0 1 -1.12-3.33zm1 .28a4 4 0 0 0 .83 2.64 2.83 2.83 0 0 0 4.37 0 4.25 4.25 0 0 0 .83-2.73v-.19a4.64 4.64 0 0 0 -.38-1.88 3.16 3.16 0 0 0 -1.07-1.33 2.76 2.76 0 0 0 -1.58-.46 2.65 2.65 0 0 0 -2.17 1 4.24 4.24 0 0 0 -.83 2.72z"/><path d="m68.65 266a3.63 3.63 0 0 0 -.65 0 2.48 2.48 0 0 0 -1.58.52 2.83 2.83 0 0 0 -.91 1.51v6.17h-1v-9h1v1.42a2.64 2.64 0 0 1 2.49-1.62 1.65 1.65 0 0 1 .65.11z"/><path d="m73.2 269.65-1.14 1.1v3.43h-1v-12.75h1v8.16l.94-1 3.44-3.37h1.25l-3.81 3.78 4.14 5.2h-1.18z"/><path d="m86.13 265.2v1.46a3.22 3.22 0 0 1 1.24-1.22 3.43 3.43 0 0 1 1.66-.41 2.52 2.52 0 0 1 2.7 1.74 3.38 3.38 0 0 1 1.28-1.29 3.59 3.59 0 0 1 1.78-.45q2.9 0 3 3.15v6h-1v-5.92a2.67 2.67 0 0 0 -.52-1.79 2.13 2.13 0 0 0 -1.66-.58 2.59 2.59 0 0 0 -1.81.7 2.43 2.43 0 0 0 -.82 1.64v5.95h-.98v-6a2.41 2.41 0 0 0 -.54-1.72 2.17 2.17 0 0 0 -1.65-.57 2.49 2.49 0 0 0 -1.61.54 3.14 3.14 0 0 0 -1 1.59v6.16h-1v-9z"/><path d="m104.62 274.34a4 4 0 0 1 -2.07-.56 3.83 3.83 0 0 1 -1.44-1.57 5 5 0 0 1 -.51-2.27v-.35a5.25 5.25 0 0 1 .5-2.34 4 4 0 0 1 1.4-1.63 3.46 3.46 0 0 1 1.94-.59 3.22 3.22 0 0 1 2.59 1.12 4.51 4.51 0 0 1 1 3.05v.55h-6.41v.19a3.8 3.8 0 0 0 .88 2.55 2.77 2.77 0 0 0 2.2 1 3.17 3.17 0 0 0 1.41-.29 3 3 0 0 0 1.11-.93l.62.48a3.64 3.64 0 0 1 -3.22 1.59zm-.18-8.46a2.47 2.47 0 0 0 -1.89.82 3.8 3.8 0 0 0 -.93 2.21h5.38v-.11a3.26 3.26 0 0 0 -.73-2.11 2.31 2.31 0 0 0 -1.83-.81z"/><path d="m114.25 274.34a3.84 3.84 0 0 1 -3.51-2.13 5 5 0 0 1 -.51-2.27v-.35a5.39 5.39 0 0 1 .5-2.34 4 4 0 0 1 1.4-1.63 3.48 3.48 0 0 1 1.94-.59 3.24 3.24 0 0 1 2.6 1.12 4.56 4.56 0 0 1 1 3.05v.55h-6.4v.19a3.79 3.79 0 0 0 .87 2.55 2.78 2.78 0 0 0 2.2 1 3.15 3.15 0 0 0 1.41-.29 3 3 0 0 0 1.11-.93l.62.48a3.64 3.64 0 0 1 -3.23 1.59zm-.18-8.46a2.49 2.49 0 0 0 -1.89.82 3.8 3.8 0 0 0 -.93 2.21h5.39v-.11a3.32 3.32 0 0 0 -.74-2.11 2.31 2.31 0 0 0 -1.83-.81z"/><path d="m122 262.9v2.3h1.86v.8h-1.86v6a1.85 1.85 0 0 0 .27 1.11 1 1 0 0 0 .9.37 7.08 7.08 0 0 0 .81-.08v.8a3.09 3.09 0 0 1 -1.06.14 1.77 1.77 0 0 1 -1.49-.59 2.81 2.81 0 0 1 -.43-1.75v-6h-1.7v-.81h1.7v-2.3z"/><path d="m126.66 262.6a.66.66 0 0 1 .18-.47.67.67 0 0 1 .5-.2.65.65 0 0 1 .5.2.68.68 0 0 1 0 .94.65.65 0 0 1 -.5.19.64.64 0 0 1 -.68-.66zm1.17 11.58h-1v-9h1z"/><path d="m132.33 265.2v1.53a3.73 3.73 0 0 1 1.26-1.27 3.27 3.27 0 0 1 1.67-.43 2.7 2.7 0 0 1 2.15.81 3.66 3.66 0 0 1 .71 2.44v5.9h-1v-5.91a2.81 2.81 0 0 0 -.51-1.79 2 2 0 0 0 -1.61-.59 2.47 2.47 0 0 0 -1.63.58 3.23 3.23 0 0 0 -1 1.56v6.15h-1v-9z"/><path d="m141.17 269.6a5.43 5.43 0 0 1 .93-3.34 3 3 0 0 1 2.54-1.23 3.14 3.14 0 0 1 2.79 1.46v-1.29h.93v8.8a3.83 3.83 0 0 1 -1 2.75 3.47 3.47 0 0 1 -2.63 1 4 4 0 0 1 -1.79-.42 3.35 3.35 0 0 1 -1.34-1.11l.55-.6a3.18 3.18 0 0 0 2.51 1.3 2.54 2.54 0 0 0 1.94-.74 2.88 2.88 0 0 0 .72-2v-1.18a3.19 3.19 0 0 1 -2.78 1.33 3 3 0 0 1 -2.5-1.24 5.43 5.43 0 0 1 -1-3.36zm1 .18a4.69 4.69 0 0 0 .69 2.71 2.24 2.24 0 0 0 1.95 1 2.65 2.65 0 0 0 2.59-1.64v-4.18a2.82 2.82 0 0 0 -1-1.32 2.72 2.72 0 0 0 -1.58-.45 2.26 2.26 0 0 0 -1.95 1 5 5 0 0 0 -.7 2.88z"/><path d="m165.39 262.09v8.25a4.29 4.29 0 0 1 -.54 2.13 3.54 3.54 0 0 1 -1.5 1.39 4.9 4.9 0 0 1 -2.22.48 4.37 4.37 0 0 1 -3.06-1 3.83 3.83 0 0 1 -1.19-2.88v-8.33h1v8.18a3.11 3.11 0 0 0 .88 2.37 3.24 3.24 0 0 0 2.36.84 3.21 3.21 0 0 0 2.36-.85 3.12 3.12 0 0 0 .87-2.35v-8.19z"/><path d="m173.6 269.14h-3.51v5h-1v-12.05h3.91a4.44 4.44 0 0 1 3 .94 3.29 3.29 0 0 1 1.09 2.62 3.33 3.33 0 0 1 -.68 2.05 3.49 3.49 0 0 1 -1.83 1.22l3 5.15v.11h-1.09zm-3.51-.87h3.13a2.89 2.89 0 0 0 2.07-.73 2.75 2.75 0 0 0 0-3.88 3.36 3.36 0 0 0 -2.29-.66h-2.88z"/><path d="m189.45 272.74a3.42 3.42 0 0 1 -1.66 1.18 7.28 7.28 0 0 1 -2.54.42 4.64 4.64 0 0 1 -2.52-.68 4.44 4.44 0 0 1 -1.71-1.92 6.68 6.68 0 0 1 -.62-2.86v-1.53a5.88 5.88 0 0 1 1.27-4 4.32 4.32 0 0 1 3.42-1.46 4.5 4.5 0 0 1 3 1 3.87 3.87 0 0 1 1.35 2.61h-1a3.12 3.12 0 0 0 -1.08-2 3.47 3.47 0 0 0 -2.25-.69 3.29 3.29 0 0 0 -2.68 1.2 5.24 5.24 0 0 0 -1 3.4v1.43a6 6 0 0 0 .46 2.44 3.85 3.85 0 0 0 1.35 1.64 3.51 3.51 0 0 0 2 .58 5.58 5.58 0 0 0 2.27-.42 2.43 2.43 0 0 0 .91-.63v-3.15h-3.24v-.86h4.26z"/><path d="m199.87 268.38h-5.65v4.93h6.5v.87h-7.52v-12.09h7.48v.91h-6.46v4.57h5.65z"/><path d="m212.72 274.18h-1l-6.95-10.35v10.35h-1v-12.09h1l7 10.35v-10.35h1z"/><path d="m224.6 263h-4.14v11.23h-1v-11.23h-4.16v-.86h9.3z"/><path d="m227.14 273.59a.65.65 0 0 1 .19-.48.63.63 0 0 1 .49-.19.64.64 0 0 1 .69.67.66.66 0 0 1 -.18.47.72.72 0 0 1 -.51.18.66.66 0 0 1 -.49-.18.63.63 0 0 1 -.19-.47zm1.09-2.78h-.92l-.05-8.72h1z"/><path d="m231.83 273.59a.68.68 0 0 1 .18-.48.75.75 0 0 1 1 0 .69.69 0 0 1 .19.48.67.67 0 0 1 -.19.47.78.78 0 0 1 -1 0 .66.66 0 0 1 -.18-.47zm1.09-2.78h-.92l-.05-8.72h1z"/><path d="m236.51 273.59a.65.65 0 0 1 .19-.48.63.63 0 0 1 .49-.19.64.64 0 0 1 .69.67.66.66 0 0 1 -.18.47.72.72 0 0 1 -.51.18.66.66 0 0 1 -.49-.18.63.63 0 0 1 -.19-.47zm1.09-2.78h-.92l-.05-8.72h1z"/></g><g opacity=".8"><path d="m41 305.59 3.49 9.26 3.48-9.26h2.71v12.09h-2.14v-4l.21-5.33-3.57 9.32h-1.51l-3.56-9.31.21 5.32v4h-2.09v-12.09z"/><path d="m53.39 313.1a5.3 5.3 0 0 1 .52-2.38 3.85 3.85 0 0 1 1.47-1.62 4.15 4.15 0 0 1 2.18-.57 3.93 3.93 0 0 1 2.95 1.17 4.61 4.61 0 0 1 1.22 3.1v.48a5.35 5.35 0 0 1 -.51 2.37 3.77 3.77 0 0 1 -1.46 1.62 4.22 4.22 0 0 1 -2.2.57 3.91 3.91 0 0 1 -3-1.26 4.87 4.87 0 0 1 -1.14-3.38zm2 .18a3.65 3.65 0 0 0 .57 2.17 2 2 0 0 0 3.18 0 4 4 0 0 0 .57-2.34 3.61 3.61 0 0 0 -.58-2.16 2 2 0 0 0 -3.16 0 3.94 3.94 0 0 0 -.56 2.33z"/><path d="m66.19 308.7.06.93a3.24 3.24 0 0 1 2.59-1.1 2.5 2.5 0 0 1 2.47 1.38 3.18 3.18 0 0 1 2.75-1.38 2.78 2.78 0 0 1 2.21.82 3.59 3.59 0 0 1 .75 2.42v5.91h-2.02v-5.85a1.78 1.78 0 0 0 -.37-1.25 1.64 1.64 0 0 0 -1.24-.4 1.67 1.67 0 0 0 -1.13.37 2 2 0 0 0 -.61 1v6.16h-2v-5.91a1.44 1.44 0 0 0 -1.65-1.62 1.78 1.78 0 0 0 -1.72 1v6.51h-2v-9z"/></g><g opacity=".8"><path d="m47.09 346.41a4.36 4.36 0 0 1 -1.37 2.92 4.48 4.48 0 0 1 -3.08 1 4.25 4.25 0 0 1 -2.38-.67 4.41 4.41 0 0 1 -1.6-1.9 6.7 6.7 0 0 1 -.57-2.82v-1.57a7 7 0 0 1 .56-2.86 4.39 4.39 0 0 1 1.62-1.92 4.46 4.46 0 0 1 2.44-.68 4.32 4.32 0 0 1 3.07 1.09 4.42 4.42 0 0 1 1.31 2.9h-1c-.26-2.06-1.37-3.08-3.35-3.08a3.18 3.18 0 0 0 -2.65 1.18 5.33 5.33 0 0 0 -1 3.4v1.47a5.32 5.32 0 0 0 1 3.34 3.06 3.06 0 0 0 2.57 1.25 3.4 3.4 0 0 0 2.41-.77 3.7 3.7 0 0 0 1-2.3z"/><path d="m51.17 342.71a3.56 3.56 0 0 1 1.26-1.24 3.3 3.3 0 0 1 1.66-.44 2.69 2.69 0 0 1 2.15.81 3.72 3.72 0 0 1 .72 2.44v5.9h-.96v-5.91a2.81 2.81 0 0 0 -.51-1.79 2 2 0 0 0 -1.61-.59 2.5 2.5 0 0 0 -1.63.58 3.38 3.38 0 0 0 -1 1.56v6.15h-1v-12.75h1z"/><path d="m63.84 350.34a3.84 3.84 0 0 1 -3.51-2.13 5 5 0 0 1 -.51-2.27v-.35a5.25 5.25 0 0 1 .5-2.34 4 4 0 0 1 1.4-1.63 3.48 3.48 0 0 1 1.94-.59 3.21 3.21 0 0 1 2.59 1.12 4.51 4.51 0 0 1 1 3.05v.55h-6.45v.19a3.8 3.8 0 0 0 .88 2.55 2.77 2.77 0 0 0 2.2 1 3.15 3.15 0 0 0 1.41-.29 3 3 0 0 0 1.11-.93l.62.48a3.64 3.64 0 0 1 -3.18 1.59zm-.18-8.46a2.47 2.47 0 0 0 -1.89.82 3.8 3.8 0 0 0 -.93 2.21h5.39v-.11a3.32 3.32 0 0 0 -.74-2.11 2.31 2.31 0 0 0 -1.83-.81z"/><path d="m73.32 349.5a2.63 2.63 0 0 0 1.74-.58 2.1 2.1 0 0 0 .76-1.52h1a2.87 2.87 0 0 1 -.51 1.5 3.26 3.26 0 0 1 -1.31 1.1 3.7 3.7 0 0 1 -1.68.38 3.46 3.46 0 0 1 -2.8-1.23 4.94 4.94 0 0 1 -1-3.3v-.3a5.63 5.63 0 0 1 .47-2.35 3.55 3.55 0 0 1 1.33-1.57 3.6 3.6 0 0 1 2-.56 3.47 3.47 0 0 1 2.44.88 3.23 3.23 0 0 1 1 2.32h-1a2.59 2.59 0 0 0 -4.6-1.38 4.4 4.4 0 0 0 -.74 2.72v.29a4.31 4.31 0 0 0 .74 2.68 2.51 2.51 0 0 0 2.16.92z"/><path d="m81.74 345.65-1.14 1.1v3.43h-1v-12.75h1v8.16l.94-1 3.46-3.39h1.26l-3.84 3.8 4.14 5.2h-1.19z"/><path d="m93.22 345.55a5.21 5.21 0 0 1 .5-2.33 3.79 3.79 0 0 1 3.5-2.19 3.69 3.69 0 0 1 2.9 1.26 4.84 4.84 0 0 1 1.11 3.33v.21a5.22 5.22 0 0 1 -.5 2.34 3.7 3.7 0 0 1 -1.41 1.61 4 4 0 0 1 -2.09.56 3.7 3.7 0 0 1 -2.9-1.26 4.82 4.82 0 0 1 -1.11-3.33zm1 .28a4.05 4.05 0 0 0 .84 2.64 2.82 2.82 0 0 0 4.36 0 4.2 4.2 0 0 0 .84-2.73v-.19a4.64 4.64 0 0 0 -.38-1.88 3.18 3.18 0 0 0 -1.08-1.33 2.73 2.73 0 0 0 -1.57-.46 2.64 2.64 0 0 0 -2.17 1 4.19 4.19 0 0 0 -.84 2.72z"/><path d="m109.91 349a3.22 3.22 0 0 1 -2.86 1.3 2.78 2.78 0 0 1 -2.18-.83 3.65 3.65 0 0 1 -.77-2.47v-5.8h1v5.71c0 1.71.69 2.57 2.08 2.57a2.56 2.56 0 0 0 2.73-1.79v-6.49h1v9h-1z"/><path d="m115.87 338.9v2.3h1.86v.8h-1.86v6a1.85 1.85 0 0 0 .27 1.11 1 1 0 0 0 .9.37 7.18 7.18 0 0 0 .8-.08v.8a3.05 3.05 0 0 1 -1.06.14 1.75 1.75 0 0 1 -1.48-.59 2.81 2.81 0 0 1 -.47-1.75v-6h-1.65v-.81h1.65v-2.3z"/><path d="m127.16 338.9v2.3h1.84v.8h-1.86v6a1.85 1.85 0 0 0 .27 1.11 1 1 0 0 0 .9.37 7.08 7.08 0 0 0 .81-.08v.8a3.05 3.05 0 0 1 -1.06.14 1.77 1.77 0 0 1 -1.49-.59 2.81 2.81 0 0 1 -.46-1.75v-6h-1.65v-.81h1.65v-2.3z"/><path d="m132.92 342.71a3.53 3.53 0 0 1 1.25-1.24 3.33 3.33 0 0 1 1.67-.44 2.7 2.7 0 0 1 2.15.81 3.72 3.72 0 0 1 .72 2.44v5.9h-1v-5.91a2.81 2.81 0 0 0 -.51-1.79 2 2 0 0 0 -1.61-.59 2.49 2.49 0 0 0 -1.63.58 3.38 3.38 0 0 0 -1.05 1.56v6.15h-1v-12.75h1z"/><path d="m142.05 338.6a.63.63 0 0 1 .19-.47.63.63 0 0 1 .49-.2.69.69 0 0 1 .51.2.7.7 0 0 1 0 .94.69.69 0 0 1 -.51.19.65.65 0 0 1 -.68-.66zm1.17 11.58h-1v-9h1z"/><path d="m152.15 347.89a1.42 1.42 0 0 0 -.59-1.18 4.51 4.51 0 0 0 -1.79-.7 8 8 0 0 1 -1.86-.59 2.41 2.41 0 0 1 -1-.8 2 2 0 0 1 -.32-1.14 2.15 2.15 0 0 1 .89-1.76 3.6 3.6 0 0 1 2.28-.69 3.73 3.73 0 0 1 2.41.74 2.41 2.41 0 0 1 .91 1.94h-1a1.6 1.6 0 0 0 -.66-1.31 2.57 2.57 0 0 0 -1.66-.52 2.62 2.62 0 0 0 -1.58.43 1.36 1.36 0 0 0 -.59 1.13 1.24 1.24 0 0 0 .49 1.05 5.29 5.29 0 0 0 1.8.67 8.6 8.6 0 0 1 2 .66 2.46 2.46 0 0 1 1 .84 2.12 2.12 0 0 1 .32 1.18 2.15 2.15 0 0 1 -.92 1.82 3.88 3.88 0 0 1 -2.4.68 4 4 0 0 1 -2.54-.76 2.33 2.33 0 0 1 -1-1.92h1a1.73 1.73 0 0 0 .66 1.34 3.06 3.06 0 0 0 1.79.48 2.85 2.85 0 0 0 1.68-.45 1.37 1.37 0 0 0 .68-1.14z"/><path d="m161.93 350.18v-8.18h-1.49v-.81h1.49v-1.09a3 3 0 0 1 .7-2.12 2.58 2.58 0 0 1 2-.74 4 4 0 0 1 1.06.14l-.08.83a3.65 3.65 0 0 0 -.9-.1 1.62 1.62 0 0 0 -1.28.51 2.12 2.12 0 0 0 -.46 1.45v1.12h2.14v.81h-2.14v8.17z"/><path d="m173.47 349a3.23 3.23 0 0 1 -2.87 1.3 2.8 2.8 0 0 1 -2.18-.83 3.65 3.65 0 0 1 -.76-2.47v-5.8h1v5.71c0 1.71.69 2.57 2.07 2.57a2.54 2.54 0 0 0 2.73-1.79v-6.49h1v9h-1z"/><path d="m178.83 341.2v1.53a3.73 3.73 0 0 1 1.26-1.27 3.27 3.27 0 0 1 1.67-.43 2.7 2.7 0 0 1 2.15.81 3.66 3.66 0 0 1 .71 2.44v5.9h-1v-5.91a2.75 2.75 0 0 0 -.52-1.79 2 2 0 0 0 -1.6-.59 2.47 2.47 0 0 0 -1.63.58 3.23 3.23 0 0 0 -1 1.56v6.15h-1v-9z"/><path d="m189 341.2v1.53a3.57 3.57 0 0 1 1.26-1.27 3.27 3.27 0 0 1 1.74-.46 2.7 2.7 0 0 1 2.15.81 3.66 3.66 0 0 1 .71 2.44v5.9h-1v-5.91a2.69 2.69 0 0 0 -.51-1.79 2 2 0 0 0 -1.6-.59 2.47 2.47 0 0 0 -1.63.58 3.32 3.32 0 0 0 -1.06 1.56v6.15h-1v-9z"/><path d="m201.1 348.75 2.63-7.55h1.07l-3.8 10.5-.2.47a2.4 2.4 0 0 1 -2.28 1.63 2.64 2.64 0 0 1 -.76-.11v-.82l.51.05a1.82 1.82 0 0 0 1.19-.37 2.72 2.72 0 0 0 .76-1.24l.44-1.21-3.38-8.9h1.08z"/><path d="m213.07 341.2v1.46a3.31 3.31 0 0 1 1.25-1.22 3.43 3.43 0 0 1 1.68-.44 2.52 2.52 0 0 1 2.7 1.74 3.38 3.38 0 0 1 1.28-1.29 3.59 3.59 0 0 1 1.78-.45q2.89 0 2.95 3.15v6h-1v-5.92a2.67 2.67 0 0 0 -.52-1.79 2.13 2.13 0 0 0 -1.66-.58 2.59 2.59 0 0 0 -1.81.7 2.43 2.43 0 0 0 -.82 1.64v5.95h-1v-6a2.46 2.46 0 0 0 -.54-1.72 2.17 2.17 0 0 0 -1.65-.57 2.49 2.49 0 0 0 -1.61.54 3.14 3.14 0 0 0 -1 1.59v6.16h-1v-9z"/><path d="m231.56 350.34a4 4 0 0 1 -2.07-.56 3.83 3.83 0 0 1 -1.44-1.57 5 5 0 0 1 -.51-2.27v-.35a5.25 5.25 0 0 1 .5-2.34 4 4 0 0 1 1.4-1.63 3.46 3.46 0 0 1 1.94-.59 3.22 3.22 0 0 1 2.59 1.12 4.51 4.51 0 0 1 1 3.05v.55h-6.41v.19a3.75 3.75 0 0 0 .88 2.55 2.77 2.77 0 0 0 2.2 1 3.17 3.17 0 0 0 1.41-.29 3 3 0 0 0 1.11-.93l.62.48a3.64 3.64 0 0 1 -3.22 1.59zm-.18-8.46a2.47 2.47 0 0 0 -1.89.82 3.8 3.8 0 0 0 -.93 2.21h5.38v-.11a3.21 3.21 0 0 0 -.74-2.11 2.28 2.28 0 0 0 -1.82-.81z"/><path d="m238.62 341.2v1.46a3.24 3.24 0 0 1 1.25-1.22 3.43 3.43 0 0 1 1.66-.41 2.53 2.53 0 0 1 2.7 1.74 3.38 3.38 0 0 1 1.28-1.29 3.59 3.59 0 0 1 1.78-.45c1.92 0 2.91 1.05 3 3.15v6h-1v-5.92a2.73 2.73 0 0 0 -.52-1.79 2.13 2.13 0 0 0 -1.66-.58 2.59 2.59 0 0 0 -1.81.7 2.39 2.39 0 0 0 -.82 1.64v5.95h-1v-6a2.46 2.46 0 0 0 -.55-1.72 2.13 2.13 0 0 0 -1.64-.57 2.49 2.49 0 0 0 -1.61.54 3.14 3.14 0 0 0 -1 1.59v6.16h-1v-9z"/><path d="m257.11 350.34a3.92 3.92 0 0 1 -2.07-.56 3.83 3.83 0 0 1 -1.44-1.57 4.86 4.86 0 0 1 -.52-2.27v-.35a5.39 5.39 0 0 1 .5-2.34 4.13 4.13 0 0 1 1.4-1.63 3.51 3.51 0 0 1 2-.59 3.22 3.22 0 0 1 2.59 1.12 4.51 4.51 0 0 1 1 3.05v.55h-6.41v.19a3.75 3.75 0 0 0 .88 2.55 2.75 2.75 0 0 0 2.2 1 2.95 2.95 0 0 0 2.52-1.22l.62.48a3.64 3.64 0 0 1 -3.27 1.59zm-.18-8.46a2.47 2.47 0 0 0 -1.89.82 3.8 3.8 0 0 0 -.94 2.21h5.39v-.11a3.27 3.27 0 0 0 -.74-2.11 2.28 2.28 0 0 0 -1.82-.81z"/><path d="m269.51 349.31h6v.87h-7v-12.09h1z"/><path d="m286.68 344.79a6.9 6.9 0 0 1 -.58 2.93 4.32 4.32 0 0 1 -1.65 1.94 4.45 4.45 0 0 1 -2.47.68 4.29 4.29 0 0 1 -3.42-1.51 6 6 0 0 1 -1.3-4.09v-1.25a6.92 6.92 0 0 1 .58-2.92 4.52 4.52 0 0 1 8.23-.07 6.87 6.87 0 0 1 .61 2.85zm-1-1.31a5.32 5.32 0 0 0 -1-3.42 3.55 3.55 0 0 0 -5.39 0 5.37 5.37 0 0 0 -1 3.47v1.26a5.38 5.38 0 0 0 1 3.41 3.57 3.57 0 0 0 5.42 0 5.51 5.51 0 0 0 1-3.45z"/><path d="m291.13 349.31h6v.87h-7v-12.09h1z"/></g><g opacity=".8"><path d="m47.45 389.74a4.36 4.36 0 0 1 -1.43 3 4.87 4.87 0 0 1 -3.31 1.08 4.75 4.75 0 0 1 -2.54-.68 4.5 4.5 0 0 1 -1.7-2 6.9 6.9 0 0 1 -.62-2.93v-1.13a7.12 7.12 0 0 1 .6-3 4.64 4.64 0 0 1 1.74-2 4.87 4.87 0 0 1 2.62-.71 4.68 4.68 0 0 1 3.19 1.14 4.52 4.52 0 0 1 1.42 3.07h-2.06a3 3 0 0 0 -.76-1.88 2.49 2.49 0 0 0 -1.79-.58 2.44 2.44 0 0 0 -2.1 1 5 5 0 0 0 -.75 2.94v1.07a5.29 5.29 0 0 0 .7 3 2.31 2.31 0 0 0 2.05 1 2.7 2.7 0 0 0 1.86-.56 2.85 2.85 0 0 0 .79-1.85z"/><path d="m57.24 388.28h-5v3.72h5.8v1.68h-7.9v-12.09h7.86v1.69h-5.72v3.34h5z"/><path d="m70.29 388a7.46 7.46 0 0 1 -.62 3.12 4.55 4.55 0 0 1 -1.76 2.05 5.13 5.13 0 0 1 -5.24 0 4.68 4.68 0 0 1 -1.78-2 7.09 7.09 0 0 1 -.63-3.06v-.69a7.52 7.52 0 0 1 .62-3.12 4.75 4.75 0 0 1 1.77-2.07 4.82 4.82 0 0 1 2.62-.72 4.87 4.87 0 0 1 2.62.71 4.67 4.67 0 0 1 1.76 2.05 7.3 7.3 0 0 1 .64 3.1zm-2.11-.63a5.33 5.33 0 0 0 -.75-3.08 2.69 2.69 0 0 0 -4.29 0 5.22 5.22 0 0 0 -.78 3v.7a5.31 5.31 0 0 0 .77 3.08 2.52 2.52 0 0 0 2.16 1.09 2.46 2.46 0 0 0 2.14-1.07 5.33 5.33 0 0 0 .75-3.1z"/><path d="m83.26 381.59h2.09v8.48a3.61 3.61 0 0 1 -1.08 2.75 4 4 0 0 1 -2.86 1 4.18 4.18 0 0 1 -2.93-.95 3.47 3.47 0 0 1 -1-2.66h2.09a2 2 0 0 0 .47 1.45 1.88 1.88 0 0 0 1.39.49 1.71 1.71 0 0 0 1.34-.56 2.23 2.23 0 0 0 .51-1.55z"/><path d="m93.77 393.68a2.83 2.83 0 0 1 -.23-.84 3.41 3.41 0 0 1 -4.57.23 2.46 2.46 0 0 1 -.85-1.91 2.54 2.54 0 0 1 1.06-2.2 5.18 5.18 0 0 1 3-.77h1.24v-.59a1.59 1.59 0 0 0 -.39-1.12 1.55 1.55 0 0 0 -1.19-.42 1.79 1.79 0 0 0 -1.13.35 1.08 1.08 0 0 0 -.44.88h-2a2.23 2.23 0 0 1 .49-1.39 3.27 3.27 0 0 1 1.33-1 4.74 4.74 0 0 1 1.88-.36 3.74 3.74 0 0 1 2.51.79 2.83 2.83 0 0 1 1 2.23v4.05a4.59 4.59 0 0 0 .34 1.94v.14zm-2.22-1.46a2.24 2.24 0 0 0 1.13-.29 1.92 1.92 0 0 0 .79-.78v-1.69h-1.09a3 3 0 0 0 -1.68.39 1.26 1.26 0 0 0 -.57 1.1 1.18 1.18 0 0 0 .39.93 1.49 1.49 0 0 0 1.03.34z"/><path d="m100.35 384.7.05.93a3.27 3.27 0 0 1 2.59-1.1 2.48 2.48 0 0 1 2.47 1.38 3.18 3.18 0 0 1 2.76-1.38 2.8 2.8 0 0 1 2.21.82 3.64 3.64 0 0 1 .74 2.42v5.91h-2v-5.85a1.78 1.78 0 0 0 -.37-1.25 1.62 1.62 0 0 0 -1.24-.4 1.65 1.65 0 0 0 -1.12.37 1.93 1.93 0 0 0 -.61 1v6.16h-2v-5.91a1.44 1.44 0 0 0 -1.62-1.59 1.78 1.78 0 0 0 -1.72 1v6.51h-2v-9z"/><path d="m118.05 393.84a4.15 4.15 0 0 1 -3.11-1.21 4.33 4.33 0 0 1 -1.19-3.21v-.25a5.29 5.29 0 0 1 .52-2.4 3.85 3.85 0 0 1 3.54-2.24 3.53 3.53 0 0 1 2.84 1.17 4.92 4.92 0 0 1 1 3.31v.82h-5.87a2.69 2.69 0 0 0 .74 1.75 2.21 2.21 0 0 0 1.64.65 2.72 2.72 0 0 0 2.26-1.12l1.09 1a3.64 3.64 0 0 1 -1.44 1.25 4.6 4.6 0 0 1 -2.02.48zm-.24-7.69a1.68 1.68 0 0 0 -1.34.58 3.08 3.08 0 0 0 -.66 1.62h3.85v-.15a2.49 2.49 0 0 0 -.54-1.53 1.67 1.67 0 0 0 -1.31-.52z"/><path d="m129.1 391.24a.93.93 0 0 0 -.45-.83 4.75 4.75 0 0 0 -1.47-.49 8.11 8.11 0 0 1 -1.72-.55 2.3 2.3 0 0 1 -1.51-2.12 2.4 2.4 0 0 1 1-1.94 3.86 3.86 0 0 1 2.49-.78 4 4 0 0 1 2.6.8 2.51 2.51 0 0 1 1 2.06h-2a1.22 1.22 0 0 0 -.43-1 1.65 1.65 0 0 0 -1.15-.39 1.75 1.75 0 0 0 -1.08.31 1 1 0 0 0 -.42.82.81.81 0 0 0 .39.72 5.31 5.31 0 0 0 1.58.52 7.3 7.3 0 0 1 1.86.62 2.55 2.55 0 0 1 1 .87 2.22 2.22 0 0 1 .33 1.23 2.33 2.33 0 0 1 -1 2 4.29 4.29 0 0 1 -2.63.75 4.56 4.56 0 0 1 -2-.4 3.27 3.27 0 0 1 -1.35-1.09 2.62 2.62 0 0 1 -.48-1.5h2a1.45 1.45 0 0 0 .54 1.1 2.13 2.13 0 0 0 1.32.38 2 2 0 0 0 1.21-.3.94.94 0 0 0 .37-.79z"/><path d="m143.91 381.59h2.09v8.48a3.61 3.61 0 0 1 -1.09 2.75 4 4 0 0 1 -2.86 1 4.17 4.17 0 0 1 -2.92-.95 3.47 3.47 0 0 1 -1-2.66h2.09a2 2 0 0 0 .48 1.45 1.87 1.87 0 0 0 1.38.49 1.72 1.72 0 0 0 1.35-.56 2.22 2.22 0 0 0 .5-1.55z"/><path d="m153 393.84a4.15 4.15 0 0 1 -3.11-1.21 4.34 4.34 0 0 1 -1.2-3.21v-.25a5.43 5.43 0 0 1 .52-2.4 4 4 0 0 1 1.46-1.65 3.88 3.88 0 0 1 2.09-.59 3.53 3.53 0 0 1 2.84 1.17 5 5 0 0 1 1 3.31v.82h-5.87a2.69 2.69 0 0 0 .74 1.75 2.21 2.21 0 0 0 1.64.65 2.72 2.72 0 0 0 2.26-1.12l1.09 1a3.64 3.64 0 0 1 -1.46 1.29 4.6 4.6 0 0 1 -2 .44zm-.25-7.69a1.69 1.69 0 0 0 -1.34.58 3.08 3.08 0 0 0 -.65 1.62h3.84v-.15a2.43 2.43 0 0 0 -.53-1.53 1.7 1.7 0 0 0 -1.3-.52z"/><path d="m159.74 393.68v-7.49h-1.37v-1.49h1.37v-.83a3.09 3.09 0 0 1 .83-2.3 3.15 3.15 0 0 1 2.33-.82 4.69 4.69 0 0 1 1.13.15l-.05 1.58a3.64 3.64 0 0 0 -.78-.07 1.3 1.3 0 0 0 -1.44 1.49v.8h1.83v1.49h-1.83v7.49z"/><path d="m166.62 393.68v-7.49h-1.37v-1.49h1.37v-.83a3 3 0 0 1 .83-2.3 3.14 3.14 0 0 1 2.32-.82 4.63 4.63 0 0 1 1.13.15l-.05 1.58a3.55 3.55 0 0 0 -.77-.07 1.3 1.3 0 0 0 -1.45 1.49v.8h1.83v1.49h-1.83v7.49z"/><path d="m176.54 393.84a4.17 4.17 0 0 1 -3.11-1.21 4.37 4.37 0 0 1 -1.19-3.21v-.25a5.29 5.29 0 0 1 .52-2.4 3.91 3.91 0 0 1 1.46-1.65 3.86 3.86 0 0 1 2.09-.59 3.51 3.51 0 0 1 2.83 1.17 4.92 4.92 0 0 1 1 3.31v.82h-5.86a2.64 2.64 0 0 0 .74 1.75 2.19 2.19 0 0 0 1.64.65 2.74 2.74 0 0 0 2.26-1.12l1.08 1a3.64 3.64 0 0 1 -1.44 1.25 4.57 4.57 0 0 1 -2.02.48zm-.24-7.69a1.69 1.69 0 0 0 -1.34.58 3 3 0 0 0 -.65 1.62h3.84v-.15a2.37 2.37 0 0 0 -.54-1.53 1.66 1.66 0 0 0 -1.31-.52z"/><path d="m187.26 386.54a4.39 4.39 0 0 0 -.82-.07 1.86 1.86 0 0 0 -1.87 1.06v6.15h-2v-9h1.93l.05 1a2.27 2.27 0 0 1 2-1.17 1.87 1.87 0 0 1 .72.12z"/><path d="m194.42 391.24a.94.94 0 0 0 -.44-.83 4.93 4.93 0 0 0 -1.48-.49 8.11 8.11 0 0 1 -1.72-.55 2.3 2.3 0 0 1 -1.51-2.12 2.4 2.4 0 0 1 1-1.94 3.9 3.9 0 0 1 2.49-.78 4 4 0 0 1 2.6.8 2.51 2.51 0 0 1 1 2.06h-2a1.22 1.22 0 0 0 -.43-1 1.65 1.65 0 0 0 -1.15-.39 1.75 1.75 0 0 0 -1.08.31 1 1 0 0 0 -.42.82.81.81 0 0 0 .39.72 5.31 5.31 0 0 0 1.58.52 7.3 7.3 0 0 1 1.86.62 2.66 2.66 0 0 1 1 .87 2.3 2.3 0 0 1 .32 1.23 2.33 2.33 0 0 1 -1 2 4.29 4.29 0 0 1 -2.63.75 4.59 4.59 0 0 1 -2-.4 3.17 3.17 0 0 1 -1.34-1.09 2.56 2.56 0 0 1 -.49-1.5h2a1.45 1.45 0 0 0 .54 1.1 2.13 2.13 0 0 0 1.32.38 2 2 0 0 0 1.17-.33.94.94 0 0 0 .42-.76z"/><path d="m198.63 389.1a5.43 5.43 0 0 1 .52-2.38 3.85 3.85 0 0 1 1.47-1.62 4.15 4.15 0 0 1 2.18-.57 3.93 3.93 0 0 1 2.95 1.17 4.61 4.61 0 0 1 1.22 3.1v.48a5.35 5.35 0 0 1 -.51 2.37 3.77 3.77 0 0 1 -1.46 1.62 4.19 4.19 0 0 1 -2.2.57 3.91 3.91 0 0 1 -3-1.26 4.87 4.87 0 0 1 -1.14-3.38zm2 .18a3.65 3.65 0 0 0 .57 2.17 1.86 1.86 0 0 0 1.59.78 1.82 1.82 0 0 0 1.59-.79 4 4 0 0 0 .57-2.34 3.61 3.61 0 0 0 -.58-2.16 2 2 0 0 0 -3.16 0 3.94 3.94 0 0 0 -.56 2.34z"/><path d="m211.41 384.7.06 1a3.22 3.22 0 0 1 2.61-1.2q2.8 0 2.86 3.21v5.94h-2v-5.82a1.85 1.85 0 0 0 -.37-1.27 1.58 1.58 0 0 0 -1.21-.41 1.93 1.93 0 0 0 -1.81 1.11v6.39h-2v-9z"/></g><g opacity=".8"><path d="m45.37 423.21a2 2 0 0 0 -.71-1.59 7.4 7.4 0 0 0 -2.58-1.12 9 9 0 0 1 -2.74-1.15 2.79 2.79 0 0 1 -.09-4.56 4.69 4.69 0 0 1 2.92-.87 4.89 4.89 0 0 1 2.16.47 3.56 3.56 0 0 1 1.47 1.29 3.41 3.41 0 0 1 .52 1.86h-1a2.55 2.55 0 0 0 -.84-2 3.33 3.33 0 0 0 -2.28-.75 3.56 3.56 0 0 0 -2.21.62 1.94 1.94 0 0 0 -.82 1.61 1.84 1.84 0 0 0 .74 1.51 6.83 6.83 0 0 0 2.37 1 10.77 10.77 0 0 1 2.46.92 3.52 3.52 0 0 1 1.26 1.17 2.8 2.8 0 0 1 .43 1.57 2.72 2.72 0 0 1 -1.15 2.29 4.81 4.81 0 0 1 -3 .86 6 6 0 0 1 -2.35-.45 3.63 3.63 0 0 1 -1.62-1.28 3.3 3.3 0 0 1 -.55-1.89h1a2.4 2.4 0 0 0 1 2 4 4 0 0 0 2.54.74 3.78 3.78 0 0 0 2.26-.62 2 2 0 0 0 .81-1.63z"/><path d="m54.88 426.18a4.85 4.85 0 0 1 -.19-1.26 3.35 3.35 0 0 1 -1.33 1.08 4 4 0 0 1 -1.71.37 3 3 0 0 1 -2.1-.72 2.36 2.36 0 0 1 -.8-1.83 2.39 2.39 0 0 1 1.09-2.07 5.24 5.24 0 0 1 3-.76h1.8v-1a1.94 1.94 0 0 0 -.59-1.51 2.43 2.43 0 0 0 -1.73-.55 2.69 2.69 0 0 0 -1.72.53 1.58 1.58 0 0 0 -.68 1.28h-.92a2.35 2.35 0 0 1 1-1.86 3.84 3.84 0 0 1 2.45-.78 3.51 3.51 0 0 1 2.37.75 2.67 2.67 0 0 1 .89 2.1v4.25a5.09 5.09 0 0 0 .28 1.95v.1zm-3.12-.72a3.32 3.32 0 0 0 1.78-.48 2.74 2.74 0 0 0 1.14-1.29v-2h-1.77a4.48 4.48 0 0 0 -2.33.54 1.63 1.63 0 0 0 -.83 1.45 1.58 1.58 0 0 0 .56 1.25 2 2 0 0 0 1.45.53z"/><path d="m60.28 426.18h-1v-12.75h1z"/><path d="m69.5 426.18a4.85 4.85 0 0 1 -.19-1.26 3.35 3.35 0 0 1 -1.31 1.08 4 4 0 0 1 -1.72.37 3 3 0 0 1 -2.09-.72 2.33 2.33 0 0 1 -.8-1.83 2.39 2.39 0 0 1 1.09-2.07 5.22 5.22 0 0 1 3-.76h1.8v-1a2 2 0 0 0 -.59-1.51 2.46 2.46 0 0 0 -1.73-.55 2.66 2.66 0 0 0 -1.72.53 1.56 1.56 0 0 0 -.68 1.28h-1a2.32 2.32 0 0 1 1-1.86 3.84 3.84 0 0 1 2.44-.88 3.46 3.46 0 0 1 2.36.75 2.71 2.71 0 0 1 .9 2.1v4.25a5.33 5.33 0 0 0 .27 1.95v.1zm-3.12-.72a3.37 3.37 0 0 0 1.78-.48 2.85 2.85 0 0 0 1.14-1.29v-2h-1.78a4.44 4.44 0 0 0 -2.32.54 1.64 1.64 0 0 0 -.84 1.45 1.61 1.61 0 0 0 .56 1.25 2.07 2.07 0 0 0 1.46.53z"/><path d="m77.94 418a3.66 3.66 0 0 0 -.68-.06 2.45 2.45 0 0 0 -1.57.52 2.9 2.9 0 0 0 -.92 1.51v6.17h-1v-9h1v1.42a2.65 2.65 0 0 1 2.53-1.56 1.67 1.67 0 0 1 .66.11z"/><path d="m83.35 424.75 2.65-7.55h1l-3.83 10.5-.2.47a2.4 2.4 0 0 1 -2.28 1.63 2.75 2.75 0 0 1 -.77-.11v-.82l.51.05a1.77 1.77 0 0 0 1.18-.37 2.64 2.64 0 0 0 .77-1.24l.44-1.21-3.39-8.9h1.09z"/><path d="m94 421.6a5.44 5.44 0 0 1 .93-3.33 3 3 0 0 1 2.56-1.27 3.12 3.12 0 0 1 2.77 1.44v-5h1v12.75h-.93v-1.2a3.22 3.22 0 0 1 -2.81 1.36 3 3 0 0 1 -2.5-1.25 5.38 5.38 0 0 1 -1-3.37zm1 .18a4.69 4.69 0 0 0 .69 2.71 2.23 2.23 0 0 0 1.94 1 2.68 2.68 0 0 0 2.61-1.62v-4.22a2.67 2.67 0 0 0 -2.59-1.75 2.24 2.24 0 0 0 -2 1 4.94 4.94 0 0 0 -.65 2.88z"/><path d="m108.19 426.34a3.94 3.94 0 0 1 -2.07-.56 3.83 3.83 0 0 1 -1.44-1.57 4.86 4.86 0 0 1 -.52-2.27v-.35a5.25 5.25 0 0 1 .51-2.34 4 4 0 0 1 1.39-1.63 3.51 3.51 0 0 1 2-.59 3.22 3.22 0 0 1 2.59 1.12 4.51 4.51 0 0 1 1 3.05v.55h-6.41v.19a3.75 3.75 0 0 0 .88 2.55 2.77 2.77 0 0 0 2.2 1 2.95 2.95 0 0 0 2.52-1.22l.62.48a3.64 3.64 0 0 1 -3.27 1.59zm-.18-8.46a2.47 2.47 0 0 0 -1.89.82 3.8 3.8 0 0 0 -.94 2.21h5.39v-.11a3.27 3.27 0 0 0 -.74-2.11 2.28 2.28 0 0 0 -1.83-.81z"/><path d="m114 421.6a5.44 5.44 0 0 1 .93-3.33 3 3 0 0 1 2.53-1.24 3.13 3.13 0 0 1 2.78 1.44v-5h1v12.75h-.92v-1.2a3.19 3.19 0 0 1 -2.8 1.36 3 3 0 0 1 -2.51-1.25 5.44 5.44 0 0 1 -.94-3.37zm1 .18a4.69 4.69 0 0 0 .69 2.71 2.23 2.23 0 0 0 1.94 1 2.69 2.69 0 0 0 2.61-1.62v-4.22a2.67 2.67 0 0 0 -2.59-1.75 2.24 2.24 0 0 0 -1.95 1 4.94 4.94 0 0 0 -.7 2.88z"/><path d="m130.42 425a3.23 3.23 0 0 1 -2.87 1.3 2.8 2.8 0 0 1 -2.18-.83 3.65 3.65 0 0 1 -.76-2.47v-5.8h1v5.71c0 1.71.7 2.57 2.08 2.57a2.54 2.54 0 0 0 2.73-1.79v-6.49h1v9h-1z"/><path d="m138.15 425.5a2.63 2.63 0 0 0 1.74-.58 2.07 2.07 0 0 0 .76-1.52h.95a2.87 2.87 0 0 1 -.51 1.5 3.26 3.26 0 0 1 -1.26 1.06 3.7 3.7 0 0 1 -1.68.38 3.46 3.46 0 0 1 -2.8-1.23 4.94 4.94 0 0 1 -1-3.3v-.3a5.63 5.63 0 0 1 .47-2.35 3.55 3.55 0 0 1 1.33-1.57 3.62 3.62 0 0 1 2-.56 3.47 3.47 0 0 1 2.44.88 3.2 3.2 0 0 1 1 2.32h-.95a2.5 2.5 0 0 0 -.76-1.71 2.73 2.73 0 0 0 -3.84.33 4.4 4.4 0 0 0 -.74 2.72v.29a4.31 4.31 0 0 0 .74 2.68 2.51 2.51 0 0 0 2.11.96z"/><path d="m146 414.9v2.3h1.86v.8h-1.86v6a1.85 1.85 0 0 0 .27 1.11 1 1 0 0 0 .9.37 7.3 7.3 0 0 0 .81-.08v.8a3.11 3.11 0 0 1 -1.07.14 1.75 1.75 0 0 1 -1.48-.59 2.81 2.81 0 0 1 -.43-1.75v-6h-1.65v-.81h1.65v-2.3z"/><path d="m150.69 414.6a.69.69 0 0 1 1.18-.47.68.68 0 0 1 0 .94.75.75 0 0 1 -1 0 .66.66 0 0 1 -.18-.47zm1.17 11.58h-1v-9h1z"/><path d="m154.86 421.55a5.35 5.35 0 0 1 .5-2.33 3.84 3.84 0 0 1 1.42-1.61 3.79 3.79 0 0 1 2.08-.58 3.71 3.71 0 0 1 2.91 1.26 4.84 4.84 0 0 1 1.11 3.33v.21a5.36 5.36 0 0 1 -.5 2.34 3.79 3.79 0 0 1 -1.42 1.61 3.93 3.93 0 0 1 -2.08.56 3.69 3.69 0 0 1 -2.9-1.26 4.78 4.78 0 0 1 -1.12-3.33zm1 .28a4 4 0 0 0 .83 2.64 2.83 2.83 0 0 0 4.37 0 4.25 4.25 0 0 0 .83-2.73v-.19a4.64 4.64 0 0 0 -.38-1.88 3.16 3.16 0 0 0 -1.07-1.33 2.76 2.76 0 0 0 -1.58-.46 2.64 2.64 0 0 0 -2.17 1 4.19 4.19 0 0 0 -.83 2.72z"/><path d="m166.72 417.2v1.53a3.73 3.73 0 0 1 1.26-1.27 3.27 3.27 0 0 1 1.67-.43 2.7 2.7 0 0 1 2.15.81 3.66 3.66 0 0 1 .71 2.44v5.9h-1v-5.91a2.69 2.69 0 0 0 -.51-1.79 2 2 0 0 0 -1.6-.59 2.47 2.47 0 0 0 -1.63.58 3.23 3.23 0 0 0 -1 1.56v6.15h-1v-9z"/></g><g opacity=".8"><path d="m40.33 465.19v4.49h-2.1v-12.09h4.62a4.67 4.67 0 0 1 3.22 1.06 3.55 3.55 0 0 1 1.19 2.79 3.44 3.44 0 0 1 -1.17 2.77 4.92 4.92 0 0 1 -3.26 1zm0-1.69h2.52a2.43 2.43 0 0 0 1.71-.53 1.91 1.91 0 0 0 .59-1.52 2.08 2.08 0 0 0 -.6-1.56 2.32 2.32 0 0 0 -1.64-.61h-2.58z"/><path d="m54.45 462.54a4.39 4.39 0 0 0 -.82-.07 1.87 1.87 0 0 0 -1.87 1.06v6.15h-2v-9h1.92v1a2.28 2.28 0 0 1 2-1.17 1.85 1.85 0 0 1 .71.12z"/><path d="m56.58 458.36a1.06 1.06 0 0 1 .3-.77 1.11 1.11 0 0 1 .84-.31 1.12 1.12 0 0 1 .84.31 1.06 1.06 0 0 1 .3.77 1 1 0 0 1 -.3.76 1.12 1.12 0 0 1 -.84.31 1.11 1.11 0 0 1 -.84-.31 1 1 0 0 1 -.3-.76zm2.14 11.32h-2v-9h2z"/><path d="m63.64 460.7.06 1a3.22 3.22 0 0 1 2.61-1.2q2.81 0 2.86 3.21v5.94h-2v-5.82a1.85 1.85 0 0 0 -.37-1.27 1.58 1.58 0 0 0 -1.21-.41 2 2 0 0 0 -1.82 1.11v6.39h-2v-9z"/><path d="m75.76 468.23a1.79 1.79 0 0 0 1.25-.44 1.49 1.49 0 0 0 .54-1.08h1.9a3 3 0 0 1 -.53 1.56 3.44 3.44 0 0 1 -1.32 1.15 4 4 0 0 1 -1.81.42 3.8 3.8 0 0 1 -3-1.22 4.81 4.81 0 0 1 -1.11-3.37v-.25a4.76 4.76 0 0 1 1.1-3.28 3.8 3.8 0 0 1 3-1.23 3.69 3.69 0 0 1 2.61.93 3.4 3.4 0 0 1 1.06 2.46h-1.9a1.87 1.87 0 0 0 -.53-1.27 1.67 1.67 0 0 0 -1.26-.5 1.76 1.76 0 0 0 -1.51.71 3.67 3.67 0 0 0 -.54 2.15v.33a3.65 3.65 0 0 0 .53 2.17 1.77 1.77 0 0 0 1.52.76z"/><path d="m85.78 469.84a4.15 4.15 0 0 1 -3.11-1.21 4.33 4.33 0 0 1 -1.19-3.21v-.25a5.43 5.43 0 0 1 .51-2.4 4 4 0 0 1 1.46-1.65 3.88 3.88 0 0 1 2.09-.59 3.53 3.53 0 0 1 2.84 1.17 5 5 0 0 1 1 3.31v.82h-5.87a2.69 2.69 0 0 0 .74 1.75 2.21 2.21 0 0 0 1.64.65 2.72 2.72 0 0 0 2.26-1.12l1.09 1a3.64 3.64 0 0 1 -1.44 1.25 4.6 4.6 0 0 1 -2.02.48zm-.24-7.69a1.71 1.71 0 0 0 -1.35.58 3.08 3.08 0 0 0 -.65 1.62h3.85v-.15a2.49 2.49 0 0 0 -.54-1.53 1.69 1.69 0 0 0 -1.31-.52z"/><path d="m96.5 465.1a5.3 5.3 0 0 1 .52-2.38 3.85 3.85 0 0 1 1.47-1.62 4.15 4.15 0 0 1 2.18-.57 3.93 3.93 0 0 1 3 1.17 4.61 4.61 0 0 1 1.22 3.1v.48a5.35 5.35 0 0 1 -.51 2.37 3.77 3.77 0 0 1 -1.46 1.62 4.22 4.22 0 0 1 -2.2.57 3.91 3.91 0 0 1 -3-1.26 4.87 4.87 0 0 1 -1.14-3.38zm2 .18a3.65 3.65 0 0 0 .57 2.17 2 2 0 0 0 3.18 0 4 4 0 0 0 .57-2.34 3.54 3.54 0 0 0 -.59-2.16 2 2 0 0 0 -3.15 0 3.94 3.94 0 0 0 -.56 2.33z"/><path d="m108.11 469.68v-7.49h-1.37v-1.49h1.37v-.83a3.09 3.09 0 0 1 .83-2.3 3.17 3.17 0 0 1 2.33-.82 4.69 4.69 0 0 1 1.13.15l-.05 1.58a3.55 3.55 0 0 0 -.77-.07 1.3 1.3 0 0 0 -1.45 1.49v.8h1.87v1.49h-1.83v7.49z"/><path d="m126.62 464.28h-5v3.72h5.8v1.68h-7.9v-12.09h7.84v1.69h-5.74v3.34h5z"/><path d="m129.29 465.11a5.3 5.3 0 0 1 1-3.34 3.14 3.14 0 0 1 2.61-1.24 2.93 2.93 0 0 1 2.38 1.05l.12-.88h1.79v12.43h-2v-4.22a3 3 0 0 1 -2.29.93 3.1 3.1 0 0 1 -2.58-1.26 5.57 5.57 0 0 1 -1.03-3.47zm2 .18a3.79 3.79 0 0 0 .54 2.16 1.74 1.74 0 0 0 1.51.78 1.89 1.89 0 0 0 1.77-1v-4.08a1.88 1.88 0 0 0 -1.75-1 1.77 1.77 0 0 0 -1.52.77 4.06 4.06 0 0 0 -.53 2.37z"/><path d="m145.61 468.8a3.14 3.14 0 0 1 -2.52 1 2.79 2.79 0 0 1 -2.21-.85 3.66 3.66 0 0 1 -.75-2.48v-5.77h2v5.79c0 1.14.48 1.71 1.42 1.71a2 2 0 0 0 2-1.05v-6.45h2v9h-1.9z"/><path d="m155.84 469.68a3.11 3.11 0 0 1 -.24-.84 3.39 3.39 0 0 1 -4.56.23 2.47 2.47 0 0 1 -.86-1.91 2.54 2.54 0 0 1 1.07-2.2 5.18 5.18 0 0 1 3.05-.77h1.24v-.59a1.59 1.59 0 0 0 -.39-1.12 1.55 1.55 0 0 0 -1.19-.42 1.77 1.77 0 0 0 -1.13.35 1.08 1.08 0 0 0 -.44.88h-2a2.29 2.29 0 0 1 .49-1.39 3.31 3.31 0 0 1 1.34-1 4.7 4.7 0 0 1 1.88-.36 3.76 3.76 0 0 1 2.51.79 2.79 2.79 0 0 1 1 2.23v4.05a4.75 4.75 0 0 0 .34 1.94v.14zm-2.22-1.46a2.2 2.2 0 0 0 1.12-.29 1.88 1.88 0 0 0 .8-.78v-1.69h-1.09a3 3 0 0 0 -1.69.39 1.27 1.27 0 0 0 -.56 1.1 1.18 1.18 0 0 0 .39.93 1.47 1.47 0 0 0 1.03.34z"/><path d="m160.14 465.12a5.33 5.33 0 0 1 1-3.33 3.08 3.08 0 0 1 2.58-1.26 2.93 2.93 0 0 1 2.31 1v-4.6h2v12.75h-1.83l-.1-.93a3 3 0 0 1 -2.41 1.09 3.07 3.07 0 0 1 -2.56-1.27 5.5 5.5 0 0 1 -.99-3.45zm2 .17a3.74 3.74 0 0 0 .52 2.14 1.71 1.71 0 0 0 1.5.77 1.9 1.9 0 0 0 1.81-1.1v-3.84a1.88 1.88 0 0 0 -1.79-1.08 1.71 1.71 0 0 0 -1.51.78 4.08 4.08 0 0 0 -.51 2.33z"/><path d="m170.58 465.1a5.3 5.3 0 0 1 .53-2.38 3.85 3.85 0 0 1 1.47-1.62 4.11 4.11 0 0 1 2.17-.57 3.92 3.92 0 0 1 2.95 1.17 4.57 4.57 0 0 1 1.23 3.1v.48a5.36 5.36 0 0 1 -.52 2.37 3.71 3.71 0 0 1 -1.46 1.62 4.16 4.16 0 0 1 -2.19.57 3.89 3.89 0 0 1 -3-1.26 4.83 4.83 0 0 1 -1.15-3.38zm2 .18a3.65 3.65 0 0 0 .57 2.17 1.89 1.89 0 0 0 1.6.78 1.84 1.84 0 0 0 1.59-.79 4 4 0 0 0 .57-2.34 3.61 3.61 0 0 0 -.59-2.16 2 2 0 0 0 -3.16 0 3.94 3.94 0 0 0 -.56 2.34z"/><path d="m186.19 462.54a4.39 4.39 0 0 0 -.82-.07 1.87 1.87 0 0 0 -1.87 1.06v6.15h-2v-9h1.92l.05 1a2.28 2.28 0 0 1 2-1.17 1.81 1.81 0 0 1 .71.12z"/></g><g opacity=".8"><path d="m42.07 496.68 3.7-6.59h1.17l-4.36 7.54v4.55h-1v-4.55l-4.36-7.54h1.21z"/><path d="m48.23 497.55a5.21 5.21 0 0 1 .51-2.33 3.71 3.71 0 0 1 1.42-1.61 3.77 3.77 0 0 1 2.08-.58 3.69 3.69 0 0 1 2.9 1.26 4.84 4.84 0 0 1 1.11 3.33v.21a5.22 5.22 0 0 1 -.5 2.34 3.76 3.76 0 0 1 -1.41 1.61 4 4 0 0 1 -2.09.56 3.7 3.7 0 0 1 -2.9-1.26 4.82 4.82 0 0 1 -1.12-3.33zm1 .28a4.11 4.11 0 0 0 .83 2.64 2.68 2.68 0 0 0 2.19 1 2.65 2.65 0 0 0 2.18-1 4.2 4.2 0 0 0 .84-2.73v-.19a4.49 4.49 0 0 0 -.39-1.88 3.09 3.09 0 0 0 -1.07-1.33 2.73 2.73 0 0 0 -1.57-.46 2.64 2.64 0 0 0 -2.17 1 4.19 4.19 0 0 0 -.84 2.72z"/><path d="m64.93 501a3.22 3.22 0 0 1 -2.86 1.3 2.81 2.81 0 0 1 -2.19-.83 3.7 3.7 0 0 1 -.76-2.47v-5.8h1v5.71c0 1.71.69 2.57 2.07 2.57a2.54 2.54 0 0 0 2.73-1.79v-6.49h1v9h-.92z"/><path d="m76.79 498.91.37 1.88.46-1.79 2.62-8.91h.93l2.58 8.91.45 1.81.4-1.9 2.19-8.82h1l-3.1 12.09h-1l-2.69-9.46-.31-1.19-.3 1.19-2.81 9.46h-1l-3.08-12.09h1z"/><path d="m99.58 496.79a6.9 6.9 0 0 1 -.58 2.93 4.36 4.36 0 0 1 -1.64 1.94 4.48 4.48 0 0 1 -2.48.68 4.29 4.29 0 0 1 -3.42-1.51 6 6 0 0 1 -1.3-4.09v-1.25a6.92 6.92 0 0 1 .58-2.92 4.52 4.52 0 0 1 1.66-2 4.46 4.46 0 0 1 2.47-.69 4.52 4.52 0 0 1 2.46.68 4.36 4.36 0 0 1 1.67 1.94 6.87 6.87 0 0 1 .61 2.85zm-1-1.31a5.32 5.32 0 0 0 -1-3.42 3.55 3.55 0 0 0 -5.39 0 5.37 5.37 0 0 0 -1 3.47v1.26a5.32 5.32 0 0 0 1 3.41 3.56 3.56 0 0 0 5.41 0 5.51 5.51 0 0 0 1-3.45z"/><path d="m112 502.18h-1l-7-10.35v10.35h-1v-12.09h1l7 10.35v-10.35h1z"/><path d="m128.09 502.18h-7.57v-.77l4.14-4.7a11.59 11.59 0 0 0 1.43-1.95 3.36 3.36 0 0 0 .39-1.51 2.44 2.44 0 0 0 -.67-1.81 2.49 2.49 0 0 0 -1.85-.67 2.61 2.61 0 0 0 -2 .78 2.81 2.81 0 0 0 -.75 2h-1a3.77 3.77 0 0 1 .46-1.86 3.39 3.39 0 0 1 1.33-1.29 3.9 3.9 0 0 1 1.94-.48 3.64 3.64 0 0 1 2.59.88 3.06 3.06 0 0 1 .94 2.37 4.07 4.07 0 0 1 -.47 1.83 13.81 13.81 0 0 1 -1.85 2.51l-3.37 3.81h6.35z"/><path d="m130.85 501.58a.76.76 0 0 1 .19-.5.78.78 0 0 1 1 0 .71.71 0 0 1 .19.5.65.65 0 0 1 -.19.48.84.84 0 0 1 -1 0 .69.69 0 0 1 -.19-.48z"/><path d="m143 497.14a6.74 6.74 0 0 1 -.93 3.88 3.55 3.55 0 0 1 -5.51 0 6.41 6.41 0 0 1 -1-3.78v-2.14a6.56 6.56 0 0 1 .95-3.86 3.57 3.57 0 0 1 5.5-.05 6.24 6.24 0 0 1 1 3.73zm-1-2.14a5.93 5.93 0 0 0 -.68-3.14 2.5 2.5 0 0 0 -4.07 0 5.72 5.72 0 0 0 -.7 3.06v2.38a6 6 0 0 0 .7 3.16 2.28 2.28 0 0 0 2 1.09 2.21 2.21 0 0 0 2-1.07 5.9 5.9 0 0 0 .7-3.13z"/><path d="m153.26 497.14a6.73 6.73 0 0 1 -.94 3.88 3.55 3.55 0 0 1 -5.51 0 6.34 6.34 0 0 1 -1-3.78v-2.14a6.56 6.56 0 0 1 .94-3.86 3.58 3.58 0 0 1 5.51-.05 6.39 6.39 0 0 1 1 3.73zm-1-2.17a5.93 5.93 0 0 0 -.68-3.14 2.5 2.5 0 0 0 -4.07 0 5.81 5.81 0 0 0 -.7 3.06v2.38a5.87 5.87 0 0 0 .71 3.16 2.44 2.44 0 0 0 4 0 6 6 0 0 0 .69-3.13z"/><path d="m163.53 497.14a6.73 6.73 0 0 1 -.94 3.88 3.55 3.55 0 0 1 -5.51 0 6.41 6.41 0 0 1 -1-3.78v-2.14a6.56 6.56 0 0 1 .94-3.86 3.58 3.58 0 0 1 5.51-.05 6.31 6.31 0 0 1 1 3.73zm-1-2.17a5.94 5.94 0 0 0 -.67-3.14 2.51 2.51 0 0 0 -4.08 0 5.72 5.72 0 0 0 -.69 3.06v2.38a5.88 5.88 0 0 0 .7 3.16 2.25 2.25 0 0 0 2 1.09 2.23 2.23 0 0 0 2-1.07 5.9 5.9 0 0 0 .69-3.13z"/><path d="m166.58 501.58a.75.75 0 0 1 .18-.5.7.7 0 0 1 .52-.2.69.69 0 0 1 .52.2.72.72 0 0 1 .2.5.66.66 0 0 1 -.2.48.71.71 0 0 1 -.52.18.73.73 0 0 1 -.52-.18.68.68 0 0 1 -.18-.48z"/><path d="m178.71 497.14a6.73 6.73 0 0 1 -.94 3.88 3.55 3.55 0 0 1 -5.51 0 6.34 6.34 0 0 1 -1-3.78v-2.14a6.56 6.56 0 0 1 .94-3.86 3.58 3.58 0 0 1 5.51-.05 6.31 6.31 0 0 1 1 3.73zm-1-2.17a5.94 5.94 0 0 0 -.67-3.14 2.51 2.51 0 0 0 -4.08 0 5.72 5.72 0 0 0 -.69 3.06v2.38a5.88 5.88 0 0 0 .7 3.16 2.27 2.27 0 0 0 2 1.09 2.23 2.23 0 0 0 2-1.07 5.9 5.9 0 0 0 .69-3.13z"/><path d="m189 497.14a6.65 6.65 0 0 1 -1 3.86 3.55 3.55 0 0 1 -5.51 0 6.41 6.41 0 0 1 -1-3.78v-2.12a6.56 6.56 0 0 1 .95-3.86 3.18 3.18 0 0 1 2.76-1.32 3.22 3.22 0 0 1 2.74 1.27 6.31 6.31 0 0 1 1 3.73zm-1-2.14a5.94 5.94 0 0 0 -.67-3.14 2.51 2.51 0 0 0 -4.08 0 5.72 5.72 0 0 0 -.69 3.06v2.38a5.88 5.88 0 0 0 .7 3.16 2.28 2.28 0 0 0 2 1.09 2.23 2.23 0 0 0 2-1.07 5.81 5.81 0 0 0 .69-3.13z"/><path d="m199.25 497.14a6.65 6.65 0 0 1 -.94 3.88 3.16 3.16 0 0 1 -2.76 1.32 3.2 3.2 0 0 1 -2.75-1.3 6.41 6.41 0 0 1 -1-3.78v-2.16a6.56 6.56 0 0 1 1-3.86 3.18 3.18 0 0 1 2.76-1.32 3.22 3.22 0 0 1 2.74 1.27 6.31 6.31 0 0 1 1 3.73zm-1-2.17a5.94 5.94 0 0 0 -.67-3.14 2.27 2.27 0 0 0 -2.05-1.06 2.25 2.25 0 0 0 -2 1 5.63 5.63 0 0 0 -.7 3.06v2.38a5.88 5.88 0 0 0 .7 3.16 2.28 2.28 0 0 0 2 1.09 2.23 2.23 0 0 0 2-1.07 5.81 5.81 0 0 0 .69-3.13z"/><path d="m207.61 502.18v-12.09h3.39a5.24 5.24 0 0 1 2.66.68 4.6 4.6 0 0 1 1.84 1.94 6.07 6.07 0 0 1 .66 2.87v1.11a6 6 0 0 1 -.66 2.87 4.66 4.66 0 0 1 -1.84 1.94 5.49 5.49 0 0 1 -2.74.68zm1-11.23v10.36h2.29a4 4 0 0 0 3.06-1.26 4.91 4.91 0 0 0 1.16-3.43v-1.06a4.77 4.77 0 0 0 -1.14-3.34 3.89 3.89 0 0 0 -3-1.27z"/><path d="m228.52 496.79a6.9 6.9 0 0 1 -.58 2.93 4.36 4.36 0 0 1 -1.64 1.94 4.48 4.48 0 0 1 -2.48.68 4.29 4.29 0 0 1 -3.42-1.51 6 6 0 0 1 -1.3-4.09v-1.25a6.92 6.92 0 0 1 .58-2.92 4.52 4.52 0 0 1 1.66-2 4.78 4.78 0 0 1 4.93 0 4.36 4.36 0 0 1 1.64 1.9 6.87 6.87 0 0 1 .61 2.85zm-1-1.31a5.32 5.32 0 0 0 -1-3.42 3.55 3.55 0 0 0 -5.39 0 5.37 5.37 0 0 0 -1 3.47v1.26a5.32 5.32 0 0 0 1 3.41 3.56 3.56 0 0 0 5.41 0 5.45 5.45 0 0 0 1-3.45z"/><path d="m233 501.31h6v.87h-7v-12.09h1z"/><path d="m242.78 501.31h6v.87h-7v-12.09h1z"/><path d="m258.24 498.78h-5.49l-1.24 3.4h-1.07l4.56-12.09h1l4.57 12.09h-1.06zm-5.17-.86h4.85l-2.43-6.58z"/><path d="m267.7 497.14h-3.51v5h-1v-12.05h3.92a4.44 4.44 0 0 1 3 .94 3.26 3.26 0 0 1 1.09 2.62 3.33 3.33 0 0 1 -.68 2.05 3.41 3.41 0 0 1 -1.83 1.22l3 5.15v.11h-1.09zm-3.51-.87h3.12a2.89 2.89 0 0 0 2.07-.73 2.47 2.47 0 0 0 .78-1.89 2.49 2.49 0 0 0 -.81-2 3.38 3.38 0 0 0 -2.28-.71h-2.88z"/><path d="m281.66 499.21a2 2 0 0 0 -.7-1.59 7.49 7.49 0 0 0 -2.58-1.12 8.73 8.73 0 0 1 -2.74-1.15 2.79 2.79 0 0 1 -.09-4.56 4.67 4.67 0 0 1 2.92-.87 4.82 4.82 0 0 1 2.15.47 3.5 3.5 0 0 1 1.47 1.29 3.42 3.42 0 0 1 .53 1.86h-1a2.56 2.56 0 0 0 -.85-2 3.29 3.29 0 0 0 -2.27-.75 3.54 3.54 0 0 0 -2.21.62 1.92 1.92 0 0 0 -.82 1.61 1.82 1.82 0 0 0 .74 1.51 6.85 6.85 0 0 0 2.36 1 10.89 10.89 0 0 1 2.47.92 3.52 3.52 0 0 1 1.26 1.14 2.88 2.88 0 0 1 .42 1.57 2.74 2.74 0 0 1 -1.14 2.29 4.82 4.82 0 0 1 -3 .86 6 6 0 0 1 -2.34-.45 3.57 3.57 0 0 1 -1.62-1.28 3.3 3.3 0 0 1 -.55-1.89h1a2.42 2.42 0 0 0 .95 2 4.06 4.06 0 0 0 2.54.74 3.81 3.81 0 0 0 2.27-.62 2 2 0 0 0 .83-1.6z"/><path d="m285.48 501.59a.65.65 0 0 1 .19-.48.63.63 0 0 1 .49-.19.67.67 0 0 1 .51.19.68.68 0 0 1 .18.48.66.66 0 0 1 -.18.47.71.71 0 0 1 -.51.18.66.66 0 0 1 -.49-.18.63.63 0 0 1 -.19-.47zm1.09-2.78h-.92v-8.72h1z"/><path d="m290.17 501.59a.68.68 0 0 1 .18-.48.69.69 0 0 1 1.19.48.63.63 0 0 1 -.19.47.78.78 0 0 1 -1 0 .66.66 0 0 1 -.18-.47zm1.09-2.78h-.93v-8.72h1z"/><path d="m294.85 501.59a.69.69 0 0 1 .19-.48.63.63 0 0 1 .5-.19.66.66 0 0 1 .5.19.68.68 0 0 1 .18.48.66.66 0 0 1 -.18.47.7.7 0 0 1 -.5.18.64.64 0 0 1 -.69-.65zm1.09-2.78h-.94v-8.72h1z"/><path d="m299.54 501.59a.68.68 0 0 1 .18-.48.69.69 0 0 1 1.19.48.63.63 0 0 1 -.19.47.78.78 0 0 1 -1 0 .66.66 0 0 1 -.18-.47zm1.09-2.78h-.92l-.06-8.72h1z"/><path d="m304.22 501.59a.69.69 0 0 1 .19-.48.63.63 0 0 1 .49-.19.67.67 0 0 1 .51.19.68.68 0 0 1 .18.48.66.66 0 0 1 -.18.47.71.71 0 0 1 -.51.18.66.66 0 0 1 -.49-.18.67.67 0 0 1 -.19-.47zm1.09-2.78h-.92l-.05-8.72h1z"/></g><g opacity=".8"><path d="m41 533.59 3.49 9.26 3.48-9.26h2.71v12.09h-2.14v-4l.21-5.33-3.57 9.32h-1.51l-3.56-9.31.21 5.32v4h-2.09v-12.09z"/><path d="m53.39 541.1a5.3 5.3 0 0 1 .52-2.38 3.85 3.85 0 0 1 1.47-1.62 4.15 4.15 0 0 1 2.18-.57 3.93 3.93 0 0 1 2.95 1.17 4.61 4.61 0 0 1 1.22 3.1v.48a5.35 5.35 0 0 1 -.51 2.37 3.77 3.77 0 0 1 -1.46 1.62 4.22 4.22 0 0 1 -2.2.57 3.91 3.91 0 0 1 -3-1.26 4.87 4.87 0 0 1 -1.14-3.38zm2 .18a3.65 3.65 0 0 0 .57 2.17 2 2 0 0 0 3.18 0 4 4 0 0 0 .57-2.34 3.61 3.61 0 0 0 -.58-2.16 2 2 0 0 0 -3.16 0 3.94 3.94 0 0 0 -.56 2.33z"/><path d="m66.19 536.7.06.93a3.24 3.24 0 0 1 2.59-1.1 2.5 2.5 0 0 1 2.47 1.38 3.18 3.18 0 0 1 2.75-1.38 2.78 2.78 0 0 1 2.21.82 3.59 3.59 0 0 1 .75 2.42v5.91h-2.02v-5.85a1.78 1.78 0 0 0 -.37-1.25 1.64 1.64 0 0 0 -1.24-.4 1.67 1.67 0 0 0 -1.13.37 2 2 0 0 0 -.61 1v6.16h-2v-5.91a1.44 1.44 0 0 0 -1.65-1.62 1.78 1.78 0 0 0 -1.72 1v6.51h-2v-9z"/></g><g opacity=".8"><path d="m47.48 578.18h-1v-5.8h-6.93v5.8h-1v-12.09h1v5.43h6.91v-5.43h1z"/><path d="m56.84 578.18a4.85 4.85 0 0 1 -.19-1.26 3.35 3.35 0 0 1 -1.33 1.08 4 4 0 0 1 -1.71.37 3 3 0 0 1 -2.1-.72 2.33 2.33 0 0 1 -.8-1.83 2.39 2.39 0 0 1 1.09-2.07 5.24 5.24 0 0 1 3-.76h1.8v-1a1.94 1.94 0 0 0 -.59-1.51 2.45 2.45 0 0 0 -1.73-.55 2.67 2.67 0 0 0 -1.72.53 1.58 1.58 0 0 0 -.68 1.28h-1a2.35 2.35 0 0 1 1-1.86 3.84 3.84 0 0 1 2.45-.78 3.51 3.51 0 0 1 2.37.75 2.7 2.7 0 0 1 .89 2.1v4.25a5.33 5.33 0 0 0 .27 2v.1zm-3.12-.72a3.34 3.34 0 0 0 1.78-.46 2.79 2.79 0 0 0 1.14-1.29v-2h-1.77a4.48 4.48 0 0 0 -2.33.54 1.64 1.64 0 0 0 -.84 1.45 1.61 1.61 0 0 0 .56 1.25 2.09 2.09 0 0 0 1.46.51z"/><path d="m62.12 570.71a3.45 3.45 0 0 1 1.25-1.24 3.33 3.33 0 0 1 1.63-.47 2.7 2.7 0 0 1 2.15.81 3.66 3.66 0 0 1 .71 2.44v5.9h-1v-5.91a2.69 2.69 0 0 0 -.51-1.79 2 2 0 0 0 -1.6-.59 2.47 2.47 0 0 0 -1.63.58 3.23 3.23 0 0 0 -1 1.56v6.15h-1v-12.72h1z"/><path d="m77 578.18a4.46 4.46 0 0 1 -.19-1.26 3.42 3.42 0 0 1 -1.35 1.08 4.06 4.06 0 0 1 -1.72.37 3 3 0 0 1 -2.1-.72 2.36 2.36 0 0 1 -.8-1.83 2.4 2.4 0 0 1 1.1-2.07 5.22 5.22 0 0 1 3-.76h1.8v-1a2 2 0 0 0 -.59-1.51 2.46 2.46 0 0 0 -1.73-.55 2.66 2.66 0 0 0 -1.72.53 1.56 1.56 0 0 0 -.68 1.28h-1a2.32 2.32 0 0 1 1-1.86 3.83 3.83 0 0 1 2.48-.88 3.47 3.47 0 0 1 2.37.75 2.71 2.71 0 0 1 .9 2.1v4.25a5.33 5.33 0 0 0 .27 2v.1zm-3.12-.72a3.37 3.37 0 0 0 1.78-.48 2.85 2.85 0 0 0 1.14-1.29v-2h-1.8a4.44 4.44 0 0 0 -2.32.54 1.64 1.64 0 0 0 -.84 1.45 1.61 1.61 0 0 0 .56 1.32 2.07 2.07 0 0 0 1.46.46z"/><path d="m82.25 570.71a3.56 3.56 0 0 1 1.26-1.24 3.3 3.3 0 0 1 1.66-.44 2.69 2.69 0 0 1 2.15.81 3.72 3.72 0 0 1 .72 2.44v5.9h-1v-5.91a2.75 2.75 0 0 0 -.51-1.79 2 2 0 0 0 -1.61-.59 2.5 2.5 0 0 0 -1.63.58 3.38 3.38 0 0 0 -1 1.56v6.15h-1v-12.75h1z"/><path d="m97.11 578.18a4.85 4.85 0 0 1 -.19-1.26 3.35 3.35 0 0 1 -1.33 1.08 4 4 0 0 1 -1.71.37 3 3 0 0 1 -2.1-.72 2.36 2.36 0 0 1 -.8-1.83 2.39 2.39 0 0 1 1.09-2.07 5.24 5.24 0 0 1 3-.76h1.81v-1a2 2 0 0 0 -.6-1.51 2.43 2.43 0 0 0 -1.73-.55 2.69 2.69 0 0 0 -1.72.53 1.58 1.58 0 0 0 -.68 1.28h-1a2.34 2.34 0 0 1 1-1.86 3.86 3.86 0 0 1 2.45-.78 3.51 3.51 0 0 1 2.37.75 2.67 2.67 0 0 1 .89 2.1v4.25a5.09 5.09 0 0 0 .28 2v.1zm-3.11-.72a3.32 3.32 0 0 0 1.78-.48 2.81 2.81 0 0 0 1.15-1.29v-2h-1.79a4.48 4.48 0 0 0 -2.33.54 1.65 1.65 0 0 0 -.83 1.45 1.58 1.58 0 0 0 .56 1.25 2.06 2.06 0 0 0 1.46.53z"/><path d="m102.39 570.71a3.45 3.45 0 0 1 1.25-1.24 3.33 3.33 0 0 1 1.67-.44 2.7 2.7 0 0 1 2.15.81 3.66 3.66 0 0 1 .71 2.44v5.9h-1v-5.91a2.81 2.81 0 0 0 -.51-1.79 2 2 0 0 0 -1.61-.59 2.49 2.49 0 0 0 -1.63.58 3.3 3.3 0 0 0 -1 1.56v6.15h-1v-12.75h1z"/><path d="m122.23 578.18a4.85 4.85 0 0 1 -.19-1.26 3.35 3.35 0 0 1 -1.33 1.05 4 4 0 0 1 -1.71.37 3 3 0 0 1 -2.1-.72 2.36 2.36 0 0 1 -.8-1.83 2.39 2.39 0 0 1 1.09-2.07 5.24 5.24 0 0 1 3-.76h1.81v-1a2 2 0 0 0 -.6-1.51 2.45 2.45 0 0 0 -1.73-.55 2.69 2.69 0 0 0 -1.72.53 1.58 1.58 0 0 0 -.68 1.28h-1a2.34 2.34 0 0 1 1-1.86 3.86 3.86 0 0 1 2.45-.78 3.51 3.51 0 0 1 2.37.75 2.67 2.67 0 0 1 .89 2.1v4.25a5.09 5.09 0 0 0 .28 2v.1zm-3.12-.72a3.32 3.32 0 0 0 1.78-.48 2.81 2.81 0 0 0 1.15-1.29v-2h-1.78a4.48 4.48 0 0 0 -2.33.54 1.65 1.65 0 0 0 -.83 1.45 1.58 1.58 0 0 0 .56 1.25 2.06 2.06 0 0 0 1.45.53z"/><path d="m127.51 570.71a3.45 3.45 0 0 1 1.25-1.24 3.33 3.33 0 0 1 1.67-.44 2.7 2.7 0 0 1 2.15.81 3.66 3.66 0 0 1 .71 2.44v5.9h-1v-5.91a2.81 2.81 0 0 0 -.51-1.79 2 2 0 0 0 -1.61-.59 2.49 2.49 0 0 0 -1.63.58 3.3 3.3 0 0 0 -1 1.56v6.15h-1v-12.75h1z"/><path d="m142.37 578.18a4.85 4.85 0 0 1 -.19-1.26 3.35 3.35 0 0 1 -1.33 1.05 4 4 0 0 1 -1.72.37 3 3 0 0 1 -2.09-.72 2.33 2.33 0 0 1 -.8-1.83 2.39 2.39 0 0 1 1.09-2.07 5.22 5.22 0 0 1 3-.76h1.8v-1a2 2 0 0 0 -.59-1.51 2.45 2.45 0 0 0 -1.73-.55 2.66 2.66 0 0 0 -1.72.53 1.56 1.56 0 0 0 -.68 1.28h-1a2.32 2.32 0 0 1 1-1.86 3.84 3.84 0 0 1 2.45-.78 3.51 3.51 0 0 1 2.37.75 2.74 2.74 0 0 1 .89 2.1v4.25a5.33 5.33 0 0 0 .27 2v.1zm-3.12-.72a3.34 3.34 0 0 0 1.75-.46 2.85 2.85 0 0 0 1.14-1.29v-2h-1.78a4.44 4.44 0 0 0 -2.32.54 1.64 1.64 0 0 0 -.84 1.45 1.61 1.61 0 0 0 .56 1.25 2.09 2.09 0 0 0 1.49.51z"/><path d="m147.64 570.71a3.56 3.56 0 0 1 1.26-1.24 3.31 3.31 0 0 1 1.67-.44 2.7 2.7 0 0 1 2.15.81 3.72 3.72 0 0 1 .71 2.44v5.9h-1v-5.91a2.69 2.69 0 0 0 -.51-1.79 2 2 0 0 0 -1.6-.59 2.47 2.47 0 0 0 -1.63.58 3.32 3.32 0 0 0 -1.06 1.56v6.15h-1v-12.75h1z"/><path d="m162.51 578.18a4.46 4.46 0 0 1 -.19-1.26 3.38 3.38 0 0 1 -1.32 1.08 4 4 0 0 1 -1.71.37 3 3 0 0 1 -2.1-.72 2.36 2.36 0 0 1 -.8-1.83 2.42 2.42 0 0 1 1.09-2.07 5.27 5.27 0 0 1 3-.76h1.8v-1a2 2 0 0 0 -.6-1.51 2.43 2.43 0 0 0 -1.73-.55 2.69 2.69 0 0 0 -1.72.53 1.58 1.58 0 0 0 -.68 1.28h-1a2.34 2.34 0 0 1 1-1.86 3.86 3.86 0 0 1 2.45-.88 3.51 3.51 0 0 1 2.37.75 2.67 2.67 0 0 1 .89 2.1v4.25a5.29 5.29 0 0 0 .28 2v.1zm-3.13-.72a3.38 3.38 0 0 0 1.79-.48 2.85 2.85 0 0 0 1.14-1.29v-2h-1.78a4.44 4.44 0 0 0 -2.32.54 1.64 1.64 0 0 0 -.84 1.45 1.58 1.58 0 0 0 .56 1.25 2.06 2.06 0 0 0 1.45.53z"/><path d="m167.78 570.71a3.53 3.53 0 0 1 1.25-1.24 3.33 3.33 0 0 1 1.67-.44 2.69 2.69 0 0 1 2.15.81 3.72 3.72 0 0 1 .72 2.44v5.9h-1v-5.91a2.81 2.81 0 0 0 -.51-1.79 2 2 0 0 0 -1.61-.59 2.49 2.49 0 0 0 -1.63.58 3.38 3.38 0 0 0 -1.05 1.56v6.15h-1v-12.75h1z"/><path d="m182.64 578.18a4.85 4.85 0 0 1 -.19-1.26 3.35 3.35 0 0 1 -1.33 1.05 4 4 0 0 1 -1.72.37 3 3 0 0 1 -2.09-.72 2.36 2.36 0 0 1 -.8-1.83 2.39 2.39 0 0 1 1.09-2.07 5.24 5.24 0 0 1 3-.76h1.8v-1a1.94 1.94 0 0 0 -.59-1.51 2.45 2.45 0 0 0 -1.73-.55 2.67 2.67 0 0 0 -1.72.53 1.58 1.58 0 0 0 -.68 1.28h-1a2.35 2.35 0 0 1 1-1.86 3.84 3.84 0 0 1 2.45-.78 3.51 3.51 0 0 1 2.37.75 2.7 2.7 0 0 1 .89 2.1v4.25a5.09 5.09 0 0 0 .28 2v.1zm-3.12-.72a3.32 3.32 0 0 0 1.78-.48 2.79 2.79 0 0 0 1.14-1.29v-2h-1.77a4.48 4.48 0 0 0 -2.33.54 1.64 1.64 0 0 0 -.84 1.45 1.61 1.61 0 0 0 .56 1.25 2.09 2.09 0 0 0 1.46.53z"/><path d="m187.92 570.71a3.45 3.45 0 0 1 1.25-1.24 3.33 3.33 0 0 1 1.67-.44 2.7 2.7 0 0 1 2.15.81 3.66 3.66 0 0 1 .71 2.44v5.9h-1v-5.91a2.69 2.69 0 0 0 -.51-1.79 2 2 0 0 0 -1.6-.59 2.47 2.47 0 0 0 -1.63.58 3.23 3.23 0 0 0 -1.05 1.56v6.15h-1v-12.75h1z"/><path d="m202.78 578.18a4.85 4.85 0 0 1 -.19-1.26 3.42 3.42 0 0 1 -1.33 1.05 4.1 4.1 0 0 1 -1.72.37 3 3 0 0 1 -2.09-.72 2.34 2.34 0 0 1 -.81-1.83 2.4 2.4 0 0 1 1.1-2.07 5.22 5.22 0 0 1 3-.76h1.8v-1a2 2 0 0 0 -.59-1.51 2.47 2.47 0 0 0 -1.74-.55 2.65 2.65 0 0 0 -1.71.53 1.56 1.56 0 0 0 -.68 1.28h-1a2.32 2.32 0 0 1 1-1.86 3.83 3.83 0 0 1 2.44-.78 3.47 3.47 0 0 1 2.37.75 2.71 2.71 0 0 1 .9 2.1v4.25a5.33 5.33 0 0 0 .27 2v.1zm-3.12-.72a3.37 3.37 0 0 0 1.78-.48 2.85 2.85 0 0 0 1.14-1.29v-2h-1.78a4.44 4.44 0 0 0 -2.32.54 1.64 1.64 0 0 0 -.84 1.45 1.61 1.61 0 0 0 .56 1.25 2.07 2.07 0 0 0 1.46.53z"/><path d="m221.21 572.79a6.9 6.9 0 0 1 -.58 2.93 4.36 4.36 0 0 1 -1.64 1.94 4.48 4.48 0 0 1 -2.48.68 4.29 4.29 0 0 1 -3.42-1.51 6.1 6.1 0 0 1 -1.3-4.09v-1.25a6.92 6.92 0 0 1 .59-2.92 4.61 4.61 0 0 1 6.58-2 4.45 4.45 0 0 1 1.65 1.9 6.87 6.87 0 0 1 .6 2.85zm-1-1.31a5.32 5.32 0 0 0 -1-3.42 3.55 3.55 0 0 0 -5.39 0 5.43 5.43 0 0 0 -1 3.47v1.26a5.32 5.32 0 0 0 1 3.41 3.56 3.56 0 0 0 5.41 0 5.45 5.45 0 0 0 1-3.45z"/><path d="m226 566.09 4.46 10.67 4.47-10.67h1.36v12.09h-1v-5.27l.08-5.39-4.5 10.66h-.78l-4.49-10.62.09 5.32v5.3h-1v-12.09z"/><path d="m248.92 576.74a3.45 3.45 0 0 1 -1.67 1.18 7.22 7.22 0 0 1 -2.53.42 4.62 4.62 0 0 1 -2.52-.68 4.44 4.44 0 0 1 -1.71-1.92 6.54 6.54 0 0 1 -.62-2.86v-1.53a5.83 5.83 0 0 1 1.27-4 4.3 4.3 0 0 1 3.41-1.46 4.51 4.51 0 0 1 3 1 3.87 3.87 0 0 1 1.35 2.61h-1a3.12 3.12 0 0 0 -1.08-2 3.49 3.49 0 0 0 -2.25-.69 3.29 3.29 0 0 0 -2.68 1.2 5.24 5.24 0 0 0 -1 3.4v1.43a6 6 0 0 0 .47 2.44 3.72 3.72 0 0 0 1.35 1.64 3.51 3.51 0 0 0 2 .58 5.53 5.53 0 0 0 2.26-.42 2.47 2.47 0 0 0 .92-.63v-3.15h-3.25v-.86h4.27z"/></g><g opacity=".8"><path d="m47.45 617.74a4.36 4.36 0 0 1 -1.43 3 4.87 4.87 0 0 1 -3.31 1.08 4.75 4.75 0 0 1 -2.54-.68 4.5 4.5 0 0 1 -1.7-1.95 6.9 6.9 0 0 1 -.62-2.93v-1.13a7.12 7.12 0 0 1 .6-3 4.64 4.64 0 0 1 1.74-2 4.87 4.87 0 0 1 2.62-.71 4.68 4.68 0 0 1 3.19 1.09 4.52 4.52 0 0 1 1.42 3.07h-2.06a3 3 0 0 0 -.76-1.88 2.49 2.49 0 0 0 -1.79-.58 2.44 2.44 0 0 0 -2.1 1 5 5 0 0 0 -.75 2.94v1.07a5.29 5.29 0 0 0 .7 3 2.31 2.31 0 0 0 2.05 1 2.7 2.7 0 0 0 1.86-.56 2.85 2.85 0 0 0 .79-1.85z"/><path d="m57.14 616.56h-4.86v5.12h-2.1v-12.09h7.68v1.69h-5.58v3.6h4.86z"/><path d="m70 616a7.46 7.46 0 0 1 -.61 3.12 4.61 4.61 0 0 1 -1.76 2 5.15 5.15 0 0 1 -5.25 0 4.72 4.72 0 0 1 -1.77-2 7.24 7.24 0 0 1 -.61-3.12v-.69a7.37 7.37 0 0 1 .63-3.12 4.64 4.64 0 0 1 4.37-2.77 4.9 4.9 0 0 1 2.62.71 4.73 4.73 0 0 1 1.76 2 7.3 7.3 0 0 1 .63 3.1zm-2.1-.63a5.25 5.25 0 0 0 -.76-3.08 2.68 2.68 0 0 0 -4.28 0 5.22 5.22 0 0 0 -.79 3v.7a5.23 5.23 0 0 0 .78 3.08 2.52 2.52 0 0 0 2.15 1.05 2.48 2.48 0 0 0 2.15-1.07 5.33 5.33 0 0 0 .75-3.1z"/></g><g opacity=".8"><path d="m43 649.14h-3.47v5h-1v-12.05h3.93a4.46 4.46 0 0 1 3 .94 3.26 3.26 0 0 1 1.09 2.62 3.33 3.33 0 0 1 -.68 2.05 3.49 3.49 0 0 1 -1.87 1.22l3 5.15v.11h-1zm-3.51-.87h3.13a2.89 2.89 0 0 0 2.07-.73 2.47 2.47 0 0 0 .78-1.89 2.49 2.49 0 0 0 -.81-2 3.41 3.41 0 0 0 -2.29-.71h-2.84z"/><path d="m53.41 654.34a3.84 3.84 0 0 1 -3.51-2.13 5 5 0 0 1 -.51-2.27v-.35a5.39 5.39 0 0 1 .5-2.34 4 4 0 0 1 1.4-1.63 3.48 3.48 0 0 1 1.94-.59 3.24 3.24 0 0 1 2.6 1.12 4.56 4.56 0 0 1 1 3.05v.55h-6.4v.19a3.79 3.79 0 0 0 .87 2.55 2.79 2.79 0 0 0 2.21 1 3.1 3.1 0 0 0 1.4-.29 3 3 0 0 0 1.11-.93l.62.48a3.64 3.64 0 0 1 -3.23 1.59zm-.18-8.46a2.49 2.49 0 0 0 -1.89.82 3.8 3.8 0 0 0 -.93 2.21h5.39v-.11a3.32 3.32 0 0 0 -.74-2.11 2.31 2.31 0 0 0 -1.83-.81z"/><path d="m59.17 649.6a5.43 5.43 0 0 1 .93-3.34 3.05 3.05 0 0 1 2.56-1.26 3.12 3.12 0 0 1 2.76 1.39v-1.22h.93v12.43h-1v-4.57a3.25 3.25 0 0 1 -2.76 1.28 3 3 0 0 1 -2.52-1.24 5.43 5.43 0 0 1 -.95-3.36zm1 .18a4.64 4.64 0 0 0 .71 2.73 2.23 2.23 0 0 0 1.94 1 2.68 2.68 0 0 0 2.58-1.51v-4.4a3 3 0 0 0 -1-1.24 2.71 2.71 0 0 0 -1.53-.43 2.27 2.27 0 0 0 -2 1 5 5 0 0 0 -.7 2.85z"/><path d="m75.67 653a3.21 3.21 0 0 1 -2.86 1.3 2.79 2.79 0 0 1 -2.18-.83 3.7 3.7 0 0 1 -.77-2.47v-5.8h1v5.71c0 1.71.69 2.57 2.08 2.57a2.54 2.54 0 0 0 2.73-1.79v-6.49h1v9h-1z"/><path d="m80 642.6a.69.69 0 0 1 1.18-.47.68.68 0 0 1 0 .94.75.75 0 0 1 -1 0 .66.66 0 0 1 -.18-.47zm1.17 11.58h-1v-9h1z"/><path d="m88.9 646a3.66 3.66 0 0 0 -.68-.06 2.45 2.45 0 0 0 -1.57.52 2.9 2.9 0 0 0 -.92 1.51v6.17h-1v-9h1v1.42a2.65 2.65 0 0 1 2.54-1.56 1.65 1.65 0 0 1 .65.11z"/><path d="m94.64 654.34a3.84 3.84 0 0 1 -3.52-2.13 5 5 0 0 1 -.51-2.27v-.35a5.39 5.39 0 0 1 .5-2.34 4.06 4.06 0 0 1 1.4-1.63 3.51 3.51 0 0 1 1.94-.59 3.24 3.24 0 0 1 2.6 1.12 4.51 4.51 0 0 1 1 3.05v.55h-6.45v.19a3.79 3.79 0 0 0 .87 2.55 2.79 2.79 0 0 0 2.21 1 3.1 3.1 0 0 0 1.4-.29 3 3 0 0 0 1.11-.93l.62.48a3.62 3.62 0 0 1 -3.17 1.59zm-.19-8.46a2.5 2.5 0 0 0 -1.89.82 3.8 3.8 0 0 0 -.93 2.21h5.37v-.11a3.32 3.32 0 0 0 -.74-2.11 2.3 2.3 0 0 0 -1.81-.81z"/><path d="m106.17 651.89a1.42 1.42 0 0 0 -.59-1.18 4.51 4.51 0 0 0 -1.79-.7 8 8 0 0 1 -1.86-.59 2.41 2.41 0 0 1 -1-.8 2 2 0 0 1 -.32-1.14 2.15 2.15 0 0 1 .89-1.76 3.59 3.59 0 0 1 2.27-.69 3.74 3.74 0 0 1 2.42.74 2.41 2.41 0 0 1 .91 1.94h-1a1.6 1.6 0 0 0 -.66-1.31 3 3 0 0 0 -3.24-.09 1.36 1.36 0 0 0 -.59 1.13 1.24 1.24 0 0 0 .49 1 5.29 5.29 0 0 0 1.8.67 8.78 8.78 0 0 1 2 .66 2.46 2.46 0 0 1 1 .84 2.12 2.12 0 0 1 .32 1.18 2.15 2.15 0 0 1 -.92 1.82 3.88 3.88 0 0 1 -2.4.68 4 4 0 0 1 -2.54-.76 2.33 2.33 0 0 1 -1-1.92h1a1.73 1.73 0 0 0 .73 1.36 3.06 3.06 0 0 0 1.79.48 2.88 2.88 0 0 0 1.68-.45 1.37 1.37 0 0 0 .61-1.11z"/><path d="m115.17 642.6a.63.63 0 0 1 .19-.47.63.63 0 0 1 .49-.2.69.69 0 0 1 .51.2.7.7 0 0 1 0 .94.69.69 0 0 1 -.51.19.65.65 0 0 1 -.68-.66zm1.17 11.58h-1v-9h1z"/><path d="m120.8 645.2v1.46a3.29 3.29 0 0 1 1.24-1.22 3.46 3.46 0 0 1 1.66-.41 2.52 2.52 0 0 1 2.7 1.74 3.33 3.33 0 0 1 1.29-1.29 3.59 3.59 0 0 1 1.78-.45q2.88 0 2.94 3.15v6h-1v-5.92a2.73 2.73 0 0 0 -.52-1.79 2.15 2.15 0 0 0 -1.67-.58 2.63 2.63 0 0 0 -1.81.7 2.47 2.47 0 0 0 -.82 1.64v5.95h-1v-6a2.46 2.46 0 0 0 -.55-1.72 2.14 2.14 0 0 0 -1.65-.57 2.5 2.5 0 0 0 -1.61.54 3.13 3.13 0 0 0 -1 1.59v6.16h-1v-9z"/><path d="m136.71 645.2v1.46a3.22 3.22 0 0 1 1.24-1.22 3.43 3.43 0 0 1 1.66-.41 2.52 2.52 0 0 1 2.7 1.74 3.38 3.38 0 0 1 1.28-1.29 3.59 3.59 0 0 1 1.78-.45q2.9 0 3 3.15v6h-1v-5.92a2.67 2.67 0 0 0 -.52-1.79 2.13 2.13 0 0 0 -1.66-.58 2.59 2.59 0 0 0 -1.81.7 2.43 2.43 0 0 0 -.82 1.64v5.95h-1v-6a2.41 2.41 0 0 0 -.54-1.72 2.17 2.17 0 0 0 -1.65-.57 2.49 2.49 0 0 0 -1.61.54 3.14 3.14 0 0 0 -1 1.59v6.16h-1v-9z"/><path d="m155.2 654.34a4 4 0 0 1 -2.07-.56 3.83 3.83 0 0 1 -1.44-1.57 5 5 0 0 1 -.51-2.27v-.35a5.25 5.25 0 0 1 .5-2.34 4 4 0 0 1 1.4-1.63 3.46 3.46 0 0 1 1.92-.62 3.22 3.22 0 0 1 2.59 1.12 4.51 4.51 0 0 1 1 3.05v.55h-6.41v.19a3.8 3.8 0 0 0 .88 2.55 2.77 2.77 0 0 0 2.2 1 3.17 3.17 0 0 0 1.41-.29 3 3 0 0 0 1.11-.93l.62.48a3.64 3.64 0 0 1 -3.2 1.62zm-.18-8.46a2.47 2.47 0 0 0 -1.89.82 3.8 3.8 0 0 0 -.93 2.21h5.38v-.11a3.26 3.26 0 0 0 -.73-2.11 2.31 2.31 0 0 0 -1.85-.81z"/><path d="m161 649.6a5.44 5.44 0 0 1 .93-3.33 3 3 0 0 1 2.54-1.24 3.12 3.12 0 0 1 2.77 1.44v-5h1v12.75h-.93v-1.2a3.22 3.22 0 0 1 -2.81 1.36 3 3 0 0 1 -2.5-1.25 5.38 5.38 0 0 1 -.95-3.37zm1 .18a4.69 4.69 0 0 0 .69 2.71 2.23 2.23 0 0 0 1.94 1 2.68 2.68 0 0 0 2.61-1.62v-4.22a2.67 2.67 0 0 0 -2.59-1.75 2.24 2.24 0 0 0 -2 1 4.94 4.94 0 0 0 -.65 2.88z"/><path d="m171.59 642.6a.63.63 0 0 1 .19-.47.63.63 0 0 1 .49-.2.69.69 0 0 1 .51.2.7.7 0 0 1 0 .94.69.69 0 0 1 -.51.19.65.65 0 0 1 -.68-.66zm1.17 11.58h-1v-9h1z"/><path d="m182 654.18a4.85 4.85 0 0 1 -.19-1.26 3.35 3.35 0 0 1 -1.33 1.05 4 4 0 0 1 -1.72.37 3 3 0 0 1 -2.09-.72 2.33 2.33 0 0 1 -.8-1.83 2.39 2.39 0 0 1 1.09-2.07 5.24 5.24 0 0 1 3-.76h1.8v-1a2 2 0 0 0 -.59-1.51 2.45 2.45 0 0 0 -1.73-.55 2.67 2.67 0 0 0 -1.72.53 1.58 1.58 0 0 0 -.68 1.28h-1a2.32 2.32 0 0 1 1-1.86 3.84 3.84 0 0 1 2.45-.78 3.51 3.51 0 0 1 2.37.75 2.7 2.7 0 0 1 .89 2.1v4.25a5.33 5.33 0 0 0 .27 2v.1zm-3.12-.72a3.34 3.34 0 0 0 1.78-.48 2.85 2.85 0 0 0 1.14-1.29v-2h-1.8a4.48 4.48 0 0 0 -2.33.54 1.64 1.64 0 0 0 -.84 1.45 1.61 1.61 0 0 0 .56 1.25 2.09 2.09 0 0 0 1.47.53z"/><path d="m187.81 642.9v2.3h1.86v.8h-1.86v6a1.85 1.85 0 0 0 .27 1.11 1 1 0 0 0 .9.37 7.08 7.08 0 0 0 .81-.08v.8a3.09 3.09 0 0 1 -1.06.14 1.77 1.77 0 0 1 -1.49-.59 2.81 2.81 0 0 1 -.46-1.75v-6h-1.66v-.81h1.66v-2.3z"/><path d="m196.06 654.34a3.92 3.92 0 0 1 -2.07-.56 3.83 3.83 0 0 1 -1.44-1.57 4.86 4.86 0 0 1 -.52-2.27v-.35a5.39 5.39 0 0 1 .5-2.34 4.13 4.13 0 0 1 1.4-1.63 3.51 3.51 0 0 1 1.95-.59 3.22 3.22 0 0 1 2.59 1.12 4.51 4.51 0 0 1 1 3.05v.55h-6.47v.19a3.75 3.75 0 0 0 .88 2.55 2.75 2.75 0 0 0 2.2 1 2.95 2.95 0 0 0 2.52-1.22l.62.48a3.64 3.64 0 0 1 -3.16 1.59zm-.18-8.46a2.47 2.47 0 0 0 -1.89.82 3.74 3.74 0 0 0 -.94 2.21h5.39v-.11a3.27 3.27 0 0 0 -.74-2.11 2.28 2.28 0 0 0 -1.82-.81z"/><path d="m211.35 646a3.66 3.66 0 0 0 -.68-.06 2.45 2.45 0 0 0 -1.57.52 2.9 2.9 0 0 0 -.92 1.51v6.17h-1v-9h1v1.42a2.65 2.65 0 0 1 2.53-1.59 1.67 1.67 0 0 1 .66.11z"/><path d="m217.09 654.34a3.84 3.84 0 0 1 -3.52-2.13 5 5 0 0 1 -.51-2.27v-.35a5.39 5.39 0 0 1 .5-2.34 4.06 4.06 0 0 1 1.4-1.63 3.51 3.51 0 0 1 1.94-.59 3.24 3.24 0 0 1 2.6 1.12 4.51 4.51 0 0 1 1 3.05v.55h-6.41v.19a3.79 3.79 0 0 0 .87 2.55 2.79 2.79 0 0 0 2.21 1 3.1 3.1 0 0 0 1.4-.29 3 3 0 0 0 1.11-.93l.62.48a3.63 3.63 0 0 1 -3.21 1.59zm-.19-8.46a2.5 2.5 0 0 0 -1.89.82 3.8 3.8 0 0 0 -.93 2.21h5.39v-.11a3.32 3.32 0 0 0 -.74-2.11 2.3 2.3 0 0 0 -1.83-.81z"/><path d="m228.62 651.89a1.42 1.42 0 0 0 -.59-1.18 4.51 4.51 0 0 0 -1.79-.7 8 8 0 0 1 -1.86-.59 2.41 2.41 0 0 1 -1-.8 2 2 0 0 1 -.32-1.14 2.15 2.15 0 0 1 .89-1.76 3.59 3.59 0 0 1 2.27-.69 3.74 3.74 0 0 1 2.42.74 2.4 2.4 0 0 1 .9 1.94h-1a1.6 1.6 0 0 0 -.66-1.31 3 3 0 0 0 -3.24-.09 1.36 1.36 0 0 0 -.59 1.13 1.24 1.24 0 0 0 .49 1 5.29 5.29 0 0 0 1.8.67 8.78 8.78 0 0 1 2 .66 2.46 2.46 0 0 1 1 .84 2.12 2.12 0 0 1 .32 1.18 2.15 2.15 0 0 1 -.92 1.82 3.88 3.88 0 0 1 -2.4.68 4 4 0 0 1 -2.54-.76 2.33 2.33 0 0 1 -1-1.92h1a1.73 1.73 0 0 0 .73 1.36 3 3 0 0 0 1.79.48 2.88 2.88 0 0 0 1.68-.45 1.37 1.37 0 0 0 .62-1.11z"/><path d="m239.92 649.78a5.4 5.4 0 0 1 -.93 3.33 3 3 0 0 1 -2.49 1.23 3.32 3.32 0 0 1 -2.82-1.29v4.58h-1v-12.43h.92v1.27a3.19 3.19 0 0 1 2.81-1.44 3 3 0 0 1 2.53 1.22 5.53 5.53 0 0 1 .92 3.39zm-1-.18a4.61 4.61 0 0 0 -.7-2.71 2.27 2.27 0 0 0 -2-1 2.61 2.61 0 0 0 -2.57 1.72v4.31a2.69 2.69 0 0 0 1 1.18 2.93 2.93 0 0 0 1.57.4 2.25 2.25 0 0 0 1.95-1 5 5 0 0 0 .75-2.9z"/><path d="m242.42 649.55a5.35 5.35 0 0 1 .5-2.33 3.84 3.84 0 0 1 1.42-1.61 3.79 3.79 0 0 1 2.08-.58 3.69 3.69 0 0 1 2.91 1.26 4.84 4.84 0 0 1 1.11 3.33v.21a5.36 5.36 0 0 1 -.5 2.34 3.79 3.79 0 0 1 -1.42 1.61 3.93 3.93 0 0 1 -2.08.56 3.69 3.69 0 0 1 -2.9-1.26 4.78 4.78 0 0 1 -1.12-3.33zm1 .28a4.11 4.11 0 0 0 .83 2.64 2.83 2.83 0 0 0 4.37 0 4.25 4.25 0 0 0 .83-2.73v-.19a4.64 4.64 0 0 0 -.38-1.88 3.09 3.09 0 0 0 -1.07-1.33 2.76 2.76 0 0 0 -1.58-.46 2.62 2.62 0 0 0 -2.16 1 4.19 4.19 0 0 0 -.84 2.72z"/><path d="m254.29 645.2v1.53a3.73 3.73 0 0 1 1.26-1.27 3.27 3.27 0 0 1 1.67-.43 2.7 2.7 0 0 1 2.15.81 3.66 3.66 0 0 1 .71 2.44v5.9h-1v-5.91a2.75 2.75 0 0 0 -.5-1.79 2 2 0 0 0 -1.61-.59 2.47 2.47 0 0 0 -1.63.58 3.23 3.23 0 0 0 -1 1.56v6.15h-1v-9z"/><path d="m268.91 651.89a1.4 1.4 0 0 0 -.6-1.18 4.39 4.39 0 0 0 -1.78-.7 8 8 0 0 1 -1.86-.59 2.35 2.35 0 0 1 -1-.8 2 2 0 0 1 -.32-1.14 2.15 2.15 0 0 1 .89-1.76 3.59 3.59 0 0 1 2.27-.69 3.69 3.69 0 0 1 2.41.74 2.38 2.38 0 0 1 .91 1.94h-1a1.6 1.6 0 0 0 -.66-1.31 3 3 0 0 0 -3.24-.09 1.33 1.33 0 0 0 -.59 1.13 1.24 1.24 0 0 0 .49 1 5.29 5.29 0 0 0 1.8.67 8.78 8.78 0 0 1 2 .66 2.53 2.53 0 0 1 1 .84 2.12 2.12 0 0 1 .31 1.18 2.15 2.15 0 0 1 -.91 1.82 3.88 3.88 0 0 1 -2.4.68 4 4 0 0 1 -2.54-.76 2.33 2.33 0 0 1 -1-1.92h1a1.73 1.73 0 0 0 .73 1.36 3 3 0 0 0 1.79.48 2.88 2.88 0 0 0 1.68-.45 1.4 1.4 0 0 0 .62-1.11z"/><path d="m276.46 654.34a3.84 3.84 0 0 1 -3.51-2.13 5 5 0 0 1 -.51-2.27v-.35a5.39 5.39 0 0 1 .5-2.34 4.06 4.06 0 0 1 1.4-1.63 3.48 3.48 0 0 1 1.94-.59 3.24 3.24 0 0 1 2.6 1.12 4.56 4.56 0 0 1 .95 3.05v.55h-6.4v.19a3.79 3.79 0 0 0 .87 2.55 2.79 2.79 0 0 0 2.21 1 3.1 3.1 0 0 0 1.4-.29 3 3 0 0 0 1.11-.93l.62.48a3.64 3.64 0 0 1 -3.18 1.59zm-.18-8.46a2.5 2.5 0 0 0 -1.89.82 3.8 3.8 0 0 0 -.93 2.21h5.39v-.11a3.32 3.32 0 0 0 -.74-2.11 2.31 2.31 0 0 0 -1.83-.81z"/></g></g><g fill="none" opacity=".8" stroke="#55809a" stroke-miterlimit="10" stroke-width=".84"><path d="m37.5 251.9h317" opacity=".5"/><path d="m37.5 327.9h317" opacity=".5"/><path d="m37.5 403.9h317" opacity=".5"/><path d="m37.5 479.9h317" opacity=".5"/><path d="m37.5 555.9h317" opacity=".5"/><path d="m37.5 631.9h317" opacity=".5"/></g><g fill="#fff" opacity=".8"><rect height="14.1" rx="1.45" width="4.7" x="315.48" y="36.67"/><rect height="14.1" rx="1.45" width="4.7" x="322.53" y="36.67"/><rect height="14.1" rx="1.45" width="4.7" x="329.59" y="36.67"/><rect height="14.1" rx="1.45" width="4.7" x="336.64" y="36.67"/><rect height="14.1" rx="1.45" width="4.7" x="343.69" y="36.67"/><path d="m346.77 34a4.43 4.43 0 0 1 4.42 4.43v10.57a4.42 4.42 0 0 1 -4.42 4.42h-29.67a4.42 4.42 0 0 1 -4.42-4.42v-10.58a4.43 4.43 0 0 1 4.42-4.42zm0-1.68h-29.67a6.11 6.11 0 0 0 -6.1 6.11v10.57a6.1 6.1 0 0 0 6.1 6.1h29.67a6.1 6.1 0 0 0 6.1-6.1v-10.58a6.11 6.11 0 0 0 -6.1-6.11z"/><path d="m355.65 39v9.4a2.35 2.35 0 0 0 2.35-2.33v-4.7a2.35 2.35 0 0 0 -2.35-2.37z"/></g><g fill="#fff" opacity=".8"><path d="m59.8 32.22h6.11v23h-6.11z"/><path d="m49.91 37.53h6.23v17.69h-6.23z"/><path d="m39.9 42.84h6.34v12.38h-6.34z"/><path d="m29.79 48.15h6.45v7.08h-6.45z"/></g><path d="m41.41 123.35 17.35-17.35.83.84-16.51 16.51 16.51 16.52-.83.84z" fill="#fff" opacity=".8"/><g fill="#fff" opacity=".8"><path d="m161.5 123.12h-13.63v11.88h15.67v2.08h-18.14v-29.08h18v2h-15.53v11h13.63z"/><path d="m172 115.43.08 3.53a8.06 8.06 0 0 1 3-2.95 8.29 8.29 0 0 1 4-1q5.11 0 6.5 4.21a8.18 8.18 0 0 1 3.11-3.12 8.65 8.65 0 0 1 4.31-1.1q7 0 7.11 7.61v14.45h-2.41v-14.24a6.41 6.41 0 0 0 -1.25-4.3 5.07 5.07 0 0 0 -4-1.41 6.41 6.41 0 0 0 -4.37 1.68 5.94 5.94 0 0 0 -2 4v14.33h-2.4v-14.48a5.9 5.9 0 0 0 -1.31-4.15 5.2 5.2 0 0 0 -4-1.38 6 6 0 0 0 -3.89 1.3 7.54 7.54 0 0 0 -2.4 3.83v14.85h-2.4v-21.66z"/><path d="m221.46 137.09a10.63 10.63 0 0 1 -.46-3 8.36 8.36 0 0 1 -3.22 2.53 9.74 9.74 0 0 1 -4.13.89 7.29 7.29 0 0 1 -5.06-1.74 5.66 5.66 0 0 1 -1.93-4.4 5.82 5.82 0 0 1 2.63-5 12.72 12.72 0 0 1 7.34-1.84h4.37v-2.53a4.7 4.7 0 0 0 -1.43-3.65 5.89 5.89 0 0 0 -4.17-1.34 6.48 6.48 0 0 0 -4.14 1.29 3.79 3.79 0 0 0 -1.65 3.08h-2.4a5.6 5.6 0 0 1 2.4-4.48 9.28 9.28 0 0 1 5.91-1.89 8.49 8.49 0 0 1 5.72 1.81 6.53 6.53 0 0 1 2.15 5.06v10.25a12.71 12.71 0 0 0 .66 4.7v.24zm-7.53-1.72a8 8 0 0 0 4.29-1.16 6.81 6.81 0 0 0 2.75-3.1v-4.77h-4.28a10.8 10.8 0 0 0 -5.6 1.31 4 4 0 0 0 -2 3.5 3.85 3.85 0 0 0 1.36 3 5.09 5.09 0 0 0 3.48 1.22z"/><path d="m231.24 109.18a1.63 1.63 0 0 1 .44-1.15 1.6 1.6 0 0 1 1.2-.47 1.63 1.63 0 0 1 1.22.47 1.6 1.6 0 0 1 .45 1.15 1.54 1.54 0 0 1 -.45 1.13 1.62 1.62 0 0 1 -1.22.46 1.59 1.59 0 0 1 -1.2-.46 1.57 1.57 0 0 1 -.44-1.13zm2.83 27.91h-2.41v-21.66h2.41z"/><path d="m244.9 137.09h-2.41v-30.75h2.41z"/></g><path d="m234 742.43a39 39 0 1 0 -39 39 39 39 0 0 0 39-39zm-25.21 0-22 22-1.06-1.06 20.91-20.92-20.91-20.92 1.06-1.06z" fill="#fff" opacity=".8"/></svg>