<svg id="Layer_1" data-name="Layer 1" xmlns="http://www.w3.org/2000/svg" viewBox="0 0 390 844"><defs><style>.cls-1,.cls-4{fill:#fff;}.cls-1,.cls-2,.cls-5,.cls-6{opacity:0.8;}.cls-3,.cls-5{fill:#55809a;}.cls-6{fill:none;stroke:#55809a;stroke-miterlimit:10;stroke-width:1.1px;}</style></defs><rect class="cls-1" x="49" y="135" width="139" height="139" rx="34.89"/><rect class="cls-1" x="203" y="135" width="139" height="139" rx="34.89"/><rect class="cls-1" x="49" y="331" width="139" height="139" rx="34.89"/><rect class="cls-1" x="203" y="331" width="139" height="139" rx="34.89"/><rect class="cls-1" x="49" y="521" width="139" height="139" rx="34.89"/><rect class="cls-1" x="203" y="521" width="139" height="139" rx="34.89"/><g class="cls-2"><rect class="cls-3" x="114.43" y="193.05" width="21.15" height="1.19"/><rect class="cls-3" x="114.43" y="205.54" width="21.15" height="1.19"/><rect class="cls-3" x="114.43" y="218.03" width="21.15" height="1.19"/><path class="cls-3" d="M105.36,188.77a4.51,4.51,0,1,0,4.5,4.5A4.51,4.51,0,0,0,105.36,188.77Zm0,8a3.5,3.5,0,1,1,3.49-3.5A3.5,3.5,0,0,1,105.36,196.77Z"/><path class="cls-3" d="M105.36,201.26a4.5,4.5,0,1,0,4.5,4.5A4.51,4.51,0,0,0,105.36,201.26Zm0,8a3.5,3.5,0,1,1,3.49-3.5A3.5,3.5,0,0,1,105.36,209.26Z"/><path class="cls-3" d="M105.36,213.74a4.51,4.51,0,1,0,4.5,4.51A4.51,4.51,0,0,0,105.36,213.74Zm0,8a3.5,3.5,0,1,1,3.49-3.49A3.5,3.5,0,0,1,105.36,221.74Z"/><path class="cls-3" d="M138.74,170.34h-4.85v-2.09a.59.59,0,0,0-.6-.59.58.58,0,0,0-.59.59v2.09h-8.88v-2.09a.58.58,0,0,0-.59-.59.59.59,0,0,0-.6.59v2.09h-8.87v-2.09a.59.59,0,0,0-.6-.59.58.58,0,0,0-.59.59v2.09h-8.88v-2.09a.58.58,0,0,0-.59-.59.59.59,0,0,0-.6.59v2.09H97.65a6.59,6.59,0,0,0-6.58,6.58v55.92a6.59,6.59,0,0,0,6.58,6.58h41.09a6.59,6.59,0,0,0,6.58-6.58V176.92A6.59,6.59,0,0,0,138.74,170.34Zm5.39,62.5a5.4,5.4,0,0,1-5.39,5.4H97.65a5.4,5.4,0,0,1-5.39-5.4V176.92a5.4,5.4,0,0,1,5.39-5.39h4.85v4a.6.6,0,0,0,.6.6.59.59,0,0,0,.59-.6v-4h8.88v4a.59.59,0,0,0,.59.6.6.6,0,0,0,.6-.6v-4h8.87v4a.6.6,0,0,0,.6.6.59.59,0,0,0,.59-.6v-4h8.88v4a.59.59,0,0,0,.59.6.6.6,0,0,0,.6-.6v-4h4.85a5.4,5.4,0,0,1,5.39,5.39Z"/></g><g class="cls-2"><path class="cls-4" d="M102.08,300h-1.14L93.18,288.4V300H92v-13.5h1.15L101,298V286.45h1.13Z"/><path class="cls-4" d="M106.16,294.79a5.82,5.82,0,0,1,.57-2.61,4.22,4.22,0,0,1,3.91-2.45,4.12,4.12,0,0,1,3.24,1.41,5.4,5.4,0,0,1,1.25,3.72v.23a5.86,5.86,0,0,1-.57,2.62,4.15,4.15,0,0,1-1.58,1.8,4.33,4.33,0,0,1-2.33.63,4.12,4.12,0,0,1-3.24-1.41,5.38,5.38,0,0,1-1.25-3.72Zm1.12.3a4.58,4.58,0,0,0,.93,3,3.16,3.16,0,0,0,4.88,0A4.72,4.72,0,0,0,114,295v-.21a5.2,5.2,0,0,0-.42-2.11,3.49,3.49,0,0,0-1.2-1.48,3.06,3.06,0,0,0-1.76-.52,3,3,0,0,0-2.43,1.16,4.74,4.74,0,0,0-.93,3.05Z"/><path class="cls-4" d="M120.66,287.35v2.57h2.08v.91h-2.08v6.69a2.13,2.13,0,0,0,.3,1.25,1.19,1.19,0,0,0,1,.41,7.47,7.47,0,0,0,.9-.1l0,.9a3.48,3.48,0,0,1-1.19.16,2,2,0,0,1-1.66-.66,3.14,3.14,0,0,1-.52-2v-6.69H117.7v-.91h1.85v-2.57Z"/><path class="cls-4" d="M130.45,300.14a4.39,4.39,0,0,1-2.32-.63,4.33,4.33,0,0,1-1.6-1.76,5.39,5.39,0,0,1-.58-2.53v-.4a5.94,5.94,0,0,1,.56-2.6,4.51,4.51,0,0,1,1.56-1.83,3.9,3.9,0,0,1,2.18-.66,3.62,3.62,0,0,1,2.89,1.25,5,5,0,0,1,1.08,3.41V295h-7.17v.21a4.23,4.23,0,0,0,1,2.85,3.16,3.16,0,0,0,2.47,1.13,3.58,3.58,0,0,0,1.57-.32,3.52,3.52,0,0,0,1.24-1l.69.53A4,4,0,0,1,130.45,300.14Zm-.2-9.46a2.77,2.77,0,0,0-2.12.92,4.21,4.21,0,0,0-1,2.46h6v-.12a3.65,3.65,0,0,0-.82-2.35A2.55,2.55,0,0,0,130.25,290.68Z"/><path class="cls-4" d="M143.91,297.4a1.57,1.57,0,0,0-.66-1.32,5.1,5.1,0,0,0-2-.79,9,9,0,0,1-2.08-.65,2.75,2.75,0,0,1-1.09-.89,2.22,2.22,0,0,1-.36-1.28,2.38,2.38,0,0,1,1-2,4,4,0,0,1,2.55-.78,4.14,4.14,0,0,1,2.69.83,2.66,2.66,0,0,1,1,2.17h-1.12a1.8,1.8,0,0,0-.73-1.47,3.36,3.36,0,0,0-3.62-.1,1.53,1.53,0,0,0-.67,1.27,1.39,1.39,0,0,0,.56,1.17,5.94,5.94,0,0,0,2,.75,9.68,9.68,0,0,1,2.19.73,3,3,0,0,1,1.08.94,2.46,2.46,0,0,1,.35,1.33,2.41,2.41,0,0,1-1,2,4.39,4.39,0,0,1-2.68.76,4.45,4.45,0,0,1-2.84-.85,2.6,2.6,0,0,1-1.09-2.15h1.11a1.93,1.93,0,0,0,.82,1.52,3.38,3.38,0,0,0,2,.54,3.19,3.19,0,0,0,1.88-.51A1.54,1.54,0,0,0,143.91,297.4Z"/></g><g class="cls-2"><path class="cls-3" d="M286.65,189.17a19.38,19.38,0,0,0-13.64-6.9v22.18l3.75.83c8.84,2,13.63,5.32,13.63,12.73,0,7.79-5.76,13.71-17.23,13.79H273V239h-1.57v-7.27c-9-.52-14.84-5.47-17.31-10.26l1.35-1.28c2.4,5.1,8,9.44,16,10V205.73l-1.65-.38c-7-1.5-13.79-3.75-13.86-12,0-7.64,6.44-12.51,15.51-12.66v-7.42H273v7.5a20.7,20.7,0,0,1,14.61,7Zm-16.41,14.68,1.2.3v-22c-8.09.07-13.79,4.35-13.79,10.94S262.52,202.2,270.24,203.85ZM273,206.1v24.2h.3c10-.08,15.44-5,15.44-12.29,0-6.29-4.58-9.44-12.29-11.09Z"/></g><g class="cls-2"><path class="cls-4" d="M236,300v-13.5h4a5.22,5.22,0,0,1,3.29.89,3.18,3.18,0,0,1,1.13,2.64,3,3,0,0,1-.57,1.83,3.28,3.28,0,0,1-1.57,1.11,3.28,3.28,0,0,1,2.62,3.23,3.51,3.51,0,0,1-1.16,2.8,4.73,4.73,0,0,1-3.21,1Zm1.14-7.45h3.12a3.45,3.45,0,0,0,2.21-.67,2.31,2.31,0,0,0,.79-1.88,2.26,2.26,0,0,0-.81-1.92,4.07,4.07,0,0,0-2.46-.62h-2.85Zm0,1V299h3.43a3.41,3.41,0,0,0,2.32-.75,2.59,2.59,0,0,0,.86-2.07,2.51,2.51,0,0,0-.82-2,3.3,3.3,0,0,0-2.27-.73Z"/><path class="cls-4" d="M255.25,300a5.23,5.23,0,0,1-.21-1.4,3.93,3.93,0,0,1-1.49,1.18,4.63,4.63,0,0,1-1.92.41,3.36,3.36,0,0,1-2.34-.81,2.63,2.63,0,0,1-.9-2,2.68,2.68,0,0,1,1.23-2.32,5.83,5.83,0,0,1,3.4-.85h2V293a2.23,2.23,0,0,0-.66-1.7,2.77,2.77,0,0,0-1.94-.61,3.07,3.07,0,0,0-1.92.59,1.76,1.76,0,0,0-.76,1.43h-1.11a2.57,2.57,0,0,1,1.11-2.07,4.25,4.25,0,0,1,2.74-.88,3.87,3.87,0,0,1,2.64.84,3,3,0,0,1,1,2.34v4.75a5.75,5.75,0,0,0,.31,2.18V300Zm-3.49-.79a3.71,3.71,0,0,0,2-.54,3.18,3.18,0,0,0,1.28-1.44V295h-2a5.05,5.05,0,0,0-2.59.61,1.88,1.88,0,0,0-.32,3A2.37,2.37,0,0,0,251.76,299.16Z"/><path class="cls-4" d="M261.67,289.92l0,1.71a3.81,3.81,0,0,1,1.41-1.41,3.59,3.59,0,0,1,1.86-.49,3,3,0,0,1,2.4.91,4.06,4.06,0,0,1,.8,2.73V300h-1.1v-6.59a3.13,3.13,0,0,0-.57-2,2.27,2.27,0,0,0-1.8-.65,2.81,2.81,0,0,0-1.82.64,3.74,3.74,0,0,0-1.17,1.74V300h-1.11v-10Z"/><path class="cls-4" d="M275,294.9l-1.27,1.22V300h-1.11V285.7h1.11v9.12l1.05-1.13,3.84-3.77H280l-4.26,4.23,4.63,5.8H279Z"/><path class="cls-4" d="M283.33,287a.76.76,0,0,1,.2-.53.72.72,0,0,1,.56-.22.74.74,0,0,1,.77.75.7.7,0,0,1-.21.52.76.76,0,0,1-.56.21.75.75,0,0,1-.56-.21A.73.73,0,0,1,283.33,287ZM284.64,300h-1.12v-10h1.12Z"/><path class="cls-4" d="M290.23,289.92l0,1.71a3.81,3.81,0,0,1,1.41-1.41,3.59,3.59,0,0,1,1.86-.49,3,3,0,0,1,2.41.91,4.12,4.12,0,0,1,.79,2.73V300h-1.1v-6.59a3.13,3.13,0,0,0-.57-2,2.27,2.27,0,0,0-1.8-.65,2.81,2.81,0,0,0-1.82.64,3.74,3.74,0,0,0-1.17,1.74V300h-1.11v-10Z"/><path class="cls-4" d="M300.68,294.84a6,6,0,0,1,1.05-3.73,3.35,3.35,0,0,1,2.83-1.38,3.51,3.51,0,0,1,3.12,1.63l.05-1.44h1v9.83a4.26,4.26,0,0,1-1.08,3.07,3.88,3.88,0,0,1-2.94,1.13,4.36,4.36,0,0,1-2-.47,3.84,3.84,0,0,1-1.5-1.24l.62-.67a3.54,3.54,0,0,0,2.8,1.45,2.84,2.84,0,0,0,2.17-.83,3.25,3.25,0,0,0,.81-2.27v-1.26a3.59,3.59,0,0,1-3.11,1.48,3.35,3.35,0,0,1-2.8-1.39,6.1,6.1,0,0,1-1.06-3.76Zm1.13.2a5.19,5.19,0,0,0,.77,3,2.48,2.48,0,0,0,2.17,1.11,3,3,0,0,0,2.9-1.84v-4.67a3.18,3.18,0,0,0-1.12-1.47,3,3,0,0,0-1.76-.5,2.5,2.5,0,0,0-2.18,1.1A5.57,5.57,0,0,0,301.81,295Z"/></g><g class="cls-2"><path class="cls-4" d="M95.75,479.74l5,11.92,5-11.92h1.52v13.51h-1.14v-5.88l.1-6-5,11.91h-.88l-5-11.87.09,5.95v5.92H94.24V479.74Z"/><path class="cls-4" d="M118.28,493.25a4.86,4.86,0,0,1-.22-1.4,3.75,3.75,0,0,1-1.49,1.17,4.47,4.47,0,0,1-1.91.42,3.37,3.37,0,0,1-2.35-.81,2.65,2.65,0,0,1-.89-2,2.69,2.69,0,0,1,1.22-2.32,5.85,5.85,0,0,1,3.4-.86h2v-1.14a2.21,2.21,0,0,0-.66-1.69,2.75,2.75,0,0,0-1.93-.62,3,3,0,0,0-1.93.6,1.77,1.77,0,0,0-.76,1.43h-1.11a2.6,2.6,0,0,1,1.11-2.08,4.34,4.34,0,0,1,2.74-.87,3.92,3.92,0,0,1,2.65.84,3,3,0,0,1,1,2.34V491a6,6,0,0,0,.3,2.18v.11Zm-3.49-.8a3.74,3.74,0,0,0,2-.54,3.08,3.08,0,0,0,1.27-1.43v-2.21h-2a4.87,4.87,0,0,0-2.6.61,1.87,1.87,0,0,0-.31,3A2.37,2.37,0,0,0,114.79,492.45Z"/><path class="cls-4" d="M131.71,488.33a6.07,6.07,0,0,1-1,3.73,3.32,3.32,0,0,1-2.79,1.38,3.73,3.73,0,0,1-3.15-1.45v5.12h-1.1v-13.9h1l0,1.42a3.57,3.57,0,0,1,3.15-1.6,3.32,3.32,0,0,1,2.82,1.36,6.14,6.14,0,0,1,1,3.79Zm-1.12-.19a5.17,5.17,0,0,0-.79-3,2.52,2.52,0,0,0-2.19-1.11,3.16,3.16,0,0,0-1.76.49,3.12,3.12,0,0,0-1.12,1.43v4.82a3,3,0,0,0,1.14,1.31,3.24,3.24,0,0,0,1.75.46,2.51,2.51,0,0,0,2.19-1.12A5.64,5.64,0,0,0,130.59,488.14Z"/><path class="cls-4" d="M141.7,490.7a1.58,1.58,0,0,0-.67-1.33,5.14,5.14,0,0,0-2-.78,9.19,9.19,0,0,1-2.08-.65,2.69,2.69,0,0,1-1.09-.9,2.22,2.22,0,0,1-.36-1.28,2.39,2.39,0,0,1,1-2A4,4,0,0,1,139,483a4.11,4.11,0,0,1,2.7.83,2.64,2.64,0,0,1,1,2.16h-1.11a1.78,1.78,0,0,0-.74-1.46A2.9,2.9,0,0,0,139,484a2.84,2.84,0,0,0-1.75.49,1.49,1.49,0,0,0-.67,1.27,1.37,1.37,0,0,0,.55,1.16,5.77,5.77,0,0,0,2,.76,9.68,9.68,0,0,1,2.19.73,2.88,2.88,0,0,1,1.08.94,2.58,2.58,0,0,1-.67,3.35,4.39,4.39,0,0,1-2.68.77,4.51,4.51,0,0,1-2.84-.85,2.61,2.61,0,0,1-1.09-2.15h1.11a2,2,0,0,0,.82,1.52,3.36,3.36,0,0,0,2,.54A3.14,3.14,0,0,0,141,492,1.53,1.53,0,0,0,141.7,490.7Z"/></g><g class="cls-2"><path class="cls-4" d="M238,493.25h-1.14V479.74H238Z"/><path class="cls-4" d="M243.94,483.21l0,1.72a4.08,4.08,0,0,1,1.41-1.42,3.68,3.68,0,0,1,1.86-.48,3,3,0,0,1,2.41.91,4.12,4.12,0,0,1,.8,2.72v6.59h-1.11v-6.6a3,3,0,0,0-.57-2A2.22,2.22,0,0,0,247,484a2.83,2.83,0,0,0-1.83.65,3.74,3.74,0,0,0-1.17,1.74v6.87h-1.11v-10Z"/><path class="cls-4" d="M256.57,480.64v2.57h2.08v.91h-2.08v6.7a2.08,2.08,0,0,0,.3,1.24,1.18,1.18,0,0,0,1,.41,7.31,7.31,0,0,0,.9-.09l0,.9a3.71,3.71,0,0,1-1.19.16,2,2,0,0,1-1.66-.67,3.15,3.15,0,0,1-.51-1.95v-6.7h-1.85v-.91h1.85v-2.57Z"/><path class="cls-4" d="M266.35,493.44a4.34,4.34,0,0,1-3.92-2.39,5.57,5.57,0,0,1-.58-2.53v-.4a5.85,5.85,0,0,1,.57-2.61,4.41,4.41,0,0,1,1.56-1.82,3.87,3.87,0,0,1,2.17-.66,3.63,3.63,0,0,1,2.9,1.24,5.1,5.1,0,0,1,1.07,3.41v.63H263v.21a4.21,4.21,0,0,0,1,2.84,3.1,3.1,0,0,0,2.46,1.14,3.55,3.55,0,0,0,1.57-.33,3.34,3.34,0,0,0,1.24-1l.7.53A4,4,0,0,1,266.35,493.44Zm-.2-9.47a2.77,2.77,0,0,0-2.11.92,4.24,4.24,0,0,0-1,2.47h6v-.12a3.69,3.69,0,0,0-.83-2.36A2.58,2.58,0,0,0,266.15,484Z"/><path class="cls-4" d="M278.44,484.16a4.35,4.35,0,0,0-.75-.07,2.76,2.76,0,0,0-1.76.58,3.16,3.16,0,0,0-1,1.69v6.89H273.8v-10h1.09l0,1.6a2.94,2.94,0,0,1,2.83-1.78,1.85,1.85,0,0,1,.73.12Z"/><path class="cls-4" d="M282.77,483.21l0,1.72a4.08,4.08,0,0,1,1.41-1.42,3.68,3.68,0,0,1,1.86-.48,3,3,0,0,1,2.41.91,4.12,4.12,0,0,1,.8,2.72v6.59h-1.11v-6.6a3.12,3.12,0,0,0-.57-2,2.23,2.23,0,0,0-1.8-.66,2.82,2.82,0,0,0-1.82.65,3.74,3.74,0,0,0-1.17,1.74v6.87h-1.11v-10Z"/><path class="cls-4" d="M297.56,493.44a4.34,4.34,0,0,1-3.93-2.39,5.57,5.57,0,0,1-.57-2.53v-.4a6,6,0,0,1,.56-2.61,4.48,4.48,0,0,1,1.56-1.82,3.89,3.89,0,0,1,2.17-.66,3.62,3.62,0,0,1,2.9,1.24,5.05,5.05,0,0,1,1.08,3.41v.63h-7.17v.21a4.21,4.21,0,0,0,1,2.84,3.12,3.12,0,0,0,2.47,1.14,3.58,3.58,0,0,0,1.57-.33,3.5,3.5,0,0,0,1.24-1l.69.53A4,4,0,0,1,297.56,493.44Zm-.21-9.47a2.8,2.8,0,0,0-2.11.92,4.24,4.24,0,0,0-1,2.47h6v-.12a3.68,3.68,0,0,0-.82-2.36A2.58,2.58,0,0,0,297.35,484Z"/><path class="cls-4" d="M306.73,480.64v2.57h2.08v.91h-2.08v6.7a2.08,2.08,0,0,0,.3,1.24,1.18,1.18,0,0,0,1,.41,7,7,0,0,0,.9-.09l.05.9a3.75,3.75,0,0,1-1.19.16,2,2,0,0,1-1.66-.67,3.09,3.09,0,0,1-.52-1.95v-6.7h-1.85v-.91h1.85v-2.57Z"/></g><g class="cls-2"><path class="cls-4" d="M91.49,680.75v5.5H90.35V672.74H95a4.83,4.83,0,0,1,3.33,1.08,3.75,3.75,0,0,1,1.22,3,3.7,3.7,0,0,1-1.17,2.93,5,5,0,0,1-3.4,1Zm0-1H95a3.65,3.65,0,0,0,2.54-.79,2.81,2.81,0,0,0,.87-2.2,2.94,2.94,0,0,0-.87-2.23,3.44,3.44,0,0,0-2.46-.85H91.49Z"/><path class="cls-4" d="M104.42,677.91a3.88,3.88,0,0,1,1.4-1.39,3.62,3.62,0,0,1,1.86-.49,3,3,0,0,1,2.4.91,4,4,0,0,1,.8,2.72v6.59h-1.1v-6.6a3.12,3.12,0,0,0-.57-2,2.26,2.26,0,0,0-1.8-.66,2.82,2.82,0,0,0-1.82.65,3.74,3.74,0,0,0-1.17,1.74v6.87h-1.11V672h1.11Z"/><path class="cls-4" d="M114.65,681.08a5.8,5.8,0,0,1,.56-2.6,4.24,4.24,0,0,1,1.58-1.81,4.29,4.29,0,0,1,2.33-.64,4.15,4.15,0,0,1,3.25,1.4,5.47,5.47,0,0,1,1.24,3.73v.23a6,6,0,0,1-.56,2.62,4.19,4.19,0,0,1-1.58,1.79,4.27,4.27,0,0,1-2.33.64,4.15,4.15,0,0,1-3.25-1.41,5.41,5.41,0,0,1-1.24-3.72Zm1.11.31a4.55,4.55,0,0,0,.93,3,3.15,3.15,0,0,0,4.88,0,4.69,4.69,0,0,0,.93-3v-.22a5.15,5.15,0,0,0-.42-2.1,3.49,3.49,0,0,0-1.2-1.48,3,3,0,0,0-1.76-.53,3,3,0,0,0-2.42,1.17,4.66,4.66,0,0,0-.94,3Z"/><path class="cls-4" d="M128.48,676.21l0,1.72a3.92,3.92,0,0,1,1.41-1.42,3.68,3.68,0,0,1,1.86-.48,3,3,0,0,1,2.4.91,4.07,4.07,0,0,1,.8,2.72v6.59h-1.1v-6.6a3.12,3.12,0,0,0-.57-2,2.26,2.26,0,0,0-1.8-.66,2.8,2.8,0,0,0-1.82.65,3.83,3.83,0,0,0-1.18,1.74v6.87h-1.1v-10Z"/><path class="cls-4" d="M143.26,686.44a4.34,4.34,0,0,1-3.92-2.39,5.57,5.57,0,0,1-.57-2.53v-.4a5.85,5.85,0,0,1,.56-2.61,4.41,4.41,0,0,1,1.56-1.82,3.87,3.87,0,0,1,2.17-.66,3.62,3.62,0,0,1,2.9,1.24,5.1,5.1,0,0,1,1.07,3.41v.63h-7.16v.21a4.21,4.21,0,0,0,1,2.84,3.1,3.1,0,0,0,2.46,1.14,3.55,3.55,0,0,0,1.57-.33,3.34,3.34,0,0,0,1.24-1l.7.53A4,4,0,0,1,143.26,686.44Zm-.2-9.47a2.79,2.79,0,0,0-2.11.92,4.24,4.24,0,0,0-1,2.47h6v-.12a3.69,3.69,0,0,0-.83-2.36A2.58,2.58,0,0,0,143.06,677Z"/></g><g class="cls-2"><path class="cls-4" d="M255.22,679.77H248.9v5.52h7.27v1h-8.41V672.74h8.36v1H248.9v5.1h6.32Z"/><path class="cls-4" d="M260.84,676.21l0,1.63a3.69,3.69,0,0,1,1.39-1.36,3.81,3.81,0,0,1,1.85-.45,2.82,2.82,0,0,1,3,1.94,3.83,3.83,0,0,1,1.44-1.44,3.94,3.94,0,0,1,2-.5q3.22,0,3.3,3.52v6.7h-1.12v-6.61a3,3,0,0,0-.58-2,2.37,2.37,0,0,0-1.86-.65,2.91,2.91,0,0,0-2,.78,2.71,2.71,0,0,0-.92,1.84v6.64h-1.11v-6.7a2.74,2.74,0,0,0-.61-1.92,2.39,2.39,0,0,0-1.84-.64,2.79,2.79,0,0,0-1.8.6,3.5,3.5,0,0,0-1.11,1.78v6.88h-1.12v-10Z"/><path class="cls-4" d="M284.52,686.25a5.31,5.31,0,0,1-.21-1.4,3.82,3.82,0,0,1-1.49,1.17,4.48,4.48,0,0,1-1.92.42,3.36,3.36,0,0,1-2.34-.81,2.62,2.62,0,0,1-.89-2,2.67,2.67,0,0,1,1.22-2.32,5.83,5.83,0,0,1,3.4-.86h2v-1.14a2.21,2.21,0,0,0-.66-1.69,2.76,2.76,0,0,0-1.94-.62,3,3,0,0,0-1.92.6A1.77,1.77,0,0,0,279,679h-1.11A2.6,2.6,0,0,1,279,676.9a4.32,4.32,0,0,1,2.74-.87,3.92,3.92,0,0,1,2.65.84,3,3,0,0,1,1,2.34V684a6,6,0,0,0,.31,2.18v.11Zm-3.48-.8a3.68,3.68,0,0,0,2-.54,3.11,3.11,0,0,0,1.28-1.43v-2.21h-2a4.86,4.86,0,0,0-2.59.61,1.87,1.87,0,0,0-.31,3A2.35,2.35,0,0,0,281,685.45Z"/><path class="cls-4" d="M289.82,673.31a.78.78,0,0,1,.2-.53.75.75,0,0,1,.56-.21.76.76,0,0,1,.56.21.74.74,0,0,1,.21.53.72.72,0,0,1-.21.53.76.76,0,0,1-.56.21.75.75,0,0,1-.56-.21A.76.76,0,0,1,289.82,673.31Zm1.31,12.94H290v-10h1.12Z"/><path class="cls-4" d="M296.91,686.25h-1.12V672h1.12Z"/></g><path class="cls-5" d="M234.54,569.3V614H310V569.3Zm73.39,1.06L272.26,598.5,236.6,570.36ZM235.6,613V570.92l36.66,28.93,36.67-28.93V613Z"/><g class="cls-2"><path class="cls-3" d="M119,435.13h-1.55l0-.52C115.8,416,109.54,407.69,104.51,401c-3.94-5.25-7.34-9.79-7.34-17.54a20.78,20.78,0,0,1,20.76-20.76h.53a20.78,20.78,0,0,1,20.76,20.76c0,7.75-3.4,12.29-7.34,17.54-5,6.71-11.29,15-12.86,33.63Zm-1-71.33a19.66,19.66,0,0,0-19.64,19.64c0,7.38,3.14,11.57,7.12,16.87,4.84,6.45,10.8,14.4,12.79,31.26,2-16.86,7.94-24.81,12.78-31.26,4-5.3,7.12-9.49,7.12-16.87a19.66,19.66,0,0,0-19.64-19.64Z"/><path class="cls-3" d="M118.2,394.56A11.56,11.56,0,1,1,129.76,383,11.57,11.57,0,0,1,118.2,394.56Zm0-22A10.44,10.44,0,1,0,128.63,383,10.45,10.45,0,0,0,118.2,372.56Z"/></g><path class="cls-6" d="M131.69,606.14c-3-1.92-6,1-6,1a4.36,4.36,0,0,1-6.42-.09c-4.85-4.81-11.41-16.27-13.09-22.89a4.36,4.36,0,0,1,3.17-5.57s4-1.13,3.85-4.66l-1.14-12.36s-.38-4.74-4.9-5c-8.68-.52-15.18,9-15,17,.44,21,16.93,44.27,29.17,51,7,3.85,18.3,3.42,22.25-4.33,2-4-1.84-6.76-1.84-6.76Z"/><path class="cls-5" d="M289,406.1V389.9a15.11,15.11,0,1,0-1.12,0v16.2a15.11,15.11,0,0,0-12.5,7.52L261.07,406a15.08,15.08,0,1,0-13.61,8.55,15.22,15.22,0,0,0,4.46-.67,15,15,0,0,0,8.62-6.89l14.33,7.6a14.93,14.93,0,0,0-1.53,6.56A15.11,15.11,0,1,0,289,406.1Zm-37.42,6.74a14,14,0,1,1,8.25-6.82A13.93,13.93,0,0,1,251.59,412.84Zm22.88-38a14,14,0,1,1,14,14A14,14,0,0,1,274.47,374.82Zm14,60.35a14,14,0,1,1,14-14A14,14,0,0,1,288.45,435.17Z"/><g class="cls-2"><rect class="cls-4" x="315.48" y="36.67" width="4.7" height="14.1" rx="1.45"/><rect class="cls-4" x="322.53" y="36.67" width="4.7" height="14.1" rx="1.45"/><rect class="cls-4" x="329.59" y="36.67" width="4.7" height="14.1" rx="1.45"/><rect class="cls-4" x="336.64" y="36.67" width="4.7" height="14.1" rx="1.45"/><rect class="cls-4" x="343.69" y="36.67" width="4.7" height="14.1" rx="1.45"/><path class="cls-4" d="M346.77,34a4.43,4.43,0,0,1,4.42,4.43V49a4.42,4.42,0,0,1-4.42,4.42H317.1A4.42,4.42,0,0,1,312.68,49V38.42A4.43,4.43,0,0,1,317.1,34h29.67m0-1.68H317.1a6.11,6.11,0,0,0-6.1,6.11V49a6.1,6.1,0,0,0,6.1,6.1h29.67a6.1,6.1,0,0,0,6.1-6.1V38.42a6.11,6.11,0,0,0-6.1-6.11Z"/><path class="cls-4" d="M355.65,39v9.4A2.35,2.35,0,0,0,358,46.07v-4.7A2.35,2.35,0,0,0,355.65,39Z"/></g><g class="cls-2"><rect class="cls-4" x="59.8" y="32.22" width="6.11" height="23"/><rect class="cls-4" x="49.91" y="37.53" width="6.23" height="17.69"/><rect class="cls-4" x="39.9" y="42.84" width="6.34" height="12.38"/><rect class="cls-4" x="29.79" y="48.15" width="6.45" height="7.08"/></g></svg>