<svg id="Layer_1" data-name="Layer 1" xmlns="http://www.w3.org/2000/svg" viewBox="0 0 390 844"><defs><style>.cls-1,.cls-3{opacity:0.8;}.cls-2,.cls-3{fill:#fff;}</style></defs><g class="cls-1"><rect class="cls-2" x="315.48" y="36.67" width="4.7" height="14.1" rx="1.45"/><rect class="cls-2" x="322.53" y="36.67" width="4.7" height="14.1" rx="1.45"/><rect class="cls-2" x="329.59" y="36.67" width="4.7" height="14.1" rx="1.45"/><rect class="cls-2" x="336.64" y="36.67" width="4.7" height="14.1" rx="1.45"/><rect class="cls-2" x="343.69" y="36.67" width="4.7" height="14.1" rx="1.45"/><path class="cls-2" d="M346.77,34a4.43,4.43,0,0,1,4.42,4.43V49a4.42,4.42,0,0,1-4.42,4.42H317.1A4.42,4.42,0,0,1,312.68,49V38.42A4.43,4.43,0,0,1,317.1,34h29.67m0-1.68H317.1a6.11,6.11,0,0,0-6.1,6.11V49a6.1,6.1,0,0,0,6.1,6.1h29.67a6.1,6.1,0,0,0,6.1-6.1V38.42a6.11,6.11,0,0,0-6.1-6.11Z"/><path class="cls-2" d="M355.65,39v9.4A2.35,2.35,0,0,0,358,46.07v-4.7A2.35,2.35,0,0,0,355.65,39Z"/></g><g class="cls-1"><rect class="cls-2" x="59.8" y="32.22" width="6.11" height="23"/><rect class="cls-2" x="49.91" y="37.53" width="6.23" height="17.69"/><rect class="cls-2" x="39.9" y="42.84" width="6.34" height="12.38"/><rect class="cls-2" x="29.79" y="48.15" width="6.45" height="7.08"/></g><polygon class="cls-3" points="41.41 123.35 58.76 106 59.59 106.84 43.08 123.35 59.59 139.87 58.76 140.71 41.41 123.35"/><g class="cls-1"><path class="cls-2" d="M126.72,137.09h-2.46V108h2.46Z"/><path class="cls-2" d="M138,115.43l.08,3.71a8.57,8.57,0,0,1,3-3.06,7.94,7.94,0,0,1,4-1,6.52,6.52,0,0,1,5.19,2q1.71,2,1.72,5.89v14.21h-2.38V122.86a6.55,6.55,0,0,0-1.23-4.32,4.83,4.83,0,0,0-3.88-1.43,6,6,0,0,0-3.93,1.4,8,8,0,0,0-2.53,3.75v14.83h-2.38V115.43Z"/><path class="cls-2" d="M163.59,109.89v5.54h4.49v2h-4.49v14.45a4.56,4.56,0,0,0,.65,2.69,2.52,2.52,0,0,0,2.17.88,14,14,0,0,0,2-.2l.1,1.95a8.06,8.06,0,0,1-2.57.33,4.25,4.25,0,0,1-3.58-1.43,6.71,6.71,0,0,1-1.12-4.21V117.39h-4v-2h4v-5.54Z"/><path class="cls-2" d="M183.07,137.49a9.41,9.41,0,0,1-5-1.36,9.29,9.29,0,0,1-3.47-3.79,11.8,11.8,0,0,1-1.24-5.46V126a12.7,12.7,0,0,1,1.21-5.62,9.7,9.7,0,0,1,3.37-3.94,8.37,8.37,0,0,1,4.69-1.43,7.82,7.82,0,0,1,6.25,2.69,10.9,10.9,0,0,1,2.32,7.36v1.34H175.74v.46a9.1,9.1,0,0,0,2.11,6.14,6.74,6.74,0,0,0,5.32,2.45,7.75,7.75,0,0,0,3.39-.7,7.52,7.52,0,0,0,2.67-2.24l1.51,1.14A8.75,8.75,0,0,1,183.07,137.49Zm-.44-20.42a6,6,0,0,0-4.56,2,9.18,9.18,0,0,0-2.25,5.32h13v-.26A7.89,7.89,0,0,0,187,119,5.52,5.52,0,0,0,182.63,117.07Z"/><path class="cls-2" d="M207.51,117.47a9.31,9.31,0,0,0-1.62-.14,5.8,5.8,0,0,0-3.79,1.26,6.79,6.79,0,0,0-2.22,3.63v14.87H197.5V115.43h2.34l0,3.45A6.37,6.37,0,0,1,206,115a4,4,0,0,1,1.58.26Z"/><path class="cls-2" d="M215.22,115.43l.08,3.71a8.49,8.49,0,0,1,3-3.06,7.91,7.91,0,0,1,4-1,6.53,6.53,0,0,1,5.19,2c1.13,1.31,1.71,3.27,1.72,5.89v14.21h-2.38V122.86a6.61,6.61,0,0,0-1.23-4.32,4.83,4.83,0,0,0-3.88-1.43,6,6,0,0,0-3.93,1.4,8,8,0,0,0-2.53,3.75v14.83h-2.38V115.43Z"/><path class="cls-2" d="M245.48,137.49a9.37,9.37,0,0,1-5-1.36,9.16,9.16,0,0,1-3.47-3.79,11.8,11.8,0,0,1-1.24-5.46V126A12.7,12.7,0,0,1,237,120.4a9.63,9.63,0,0,1,3.37-3.94A8.34,8.34,0,0,1,245,115a7.84,7.84,0,0,1,6.26,2.69,11,11,0,0,1,2.31,7.36v1.34H238.16v.46a9.05,9.05,0,0,0,2.11,6.14,6.73,6.73,0,0,0,5.31,2.45,7.76,7.76,0,0,0,3.4-.7,7.52,7.52,0,0,0,2.67-2.24l1.5,1.14A8.74,8.74,0,0,1,245.48,137.49ZM245,117.07a6,6,0,0,0-4.55,2,9.12,9.12,0,0,0-2.25,5.32h13v-.26a8,8,0,0,0-1.78-5.08A5.53,5.53,0,0,0,245,117.07Z"/><path class="cls-2" d="M263.64,109.89v5.54h4.48v2h-4.48v14.45a4.56,4.56,0,0,0,.65,2.69,2.51,2.51,0,0,0,2.17.88,14,14,0,0,0,2-.2l.1,1.95a8.06,8.06,0,0,1-2.57.33,4.25,4.25,0,0,1-3.58-1.43,6.71,6.71,0,0,1-1.12-4.21V117.39h-4v-2h4v-5.54Z"/></g><path class="cls-3" d="M234,742.43a39,39,0,1,0-39,39A39,39,0,0,0,234,742.43Zm-25.21,0-22,22-1.06-1.06,20.91-20.92-20.91-20.92,1.06-1.06Z"/></svg>