<svg id="Layer_1" data-name="Layer 1" xmlns="http://www.w3.org/2000/svg" viewBox="0 0 390 844"><defs><style>.cls-1{opacity:0.8;}.cls-2{fill:#fff;}</style></defs><g class="cls-1"><path class="cls-2" d="M164.5,184.12H150.87V196h15.67v2.08H148.41V169h18V171H150.87v11H164.5Z"/><path class="cls-2" d="M175.09,176.43l.08,3.71a8.65,8.65,0,0,1,3-3.06,8,8,0,0,1,4-1.05,6.51,6.51,0,0,1,5.18,2c1.14,1.31,1.71,3.27,1.73,5.89v14.21h-2.39V183.86a6.55,6.55,0,0,0-1.23-4.32,4.82,4.82,0,0,0-3.87-1.43,6.09,6.09,0,0,0-3.94,1.4,8.1,8.1,0,0,0-2.53,3.75v14.83h-2.38V176.43Z"/><path class="cls-2" d="M200.7,170.89v5.54h4.48v2H200.7v14.45a4.48,4.48,0,0,0,.65,2.69,2.5,2.5,0,0,0,2.17.88,13.73,13.73,0,0,0,1.94-.2l.1,1.95a8,8,0,0,1-2.56.33,4.27,4.27,0,0,1-3.59-1.43,6.77,6.77,0,0,1-1.12-4.21V178.39h-4v-2h4v-5.54Z"/><path class="cls-2" d="M220.17,198.49a9.37,9.37,0,0,1-5-1.36,9.16,9.16,0,0,1-3.47-3.79,11.8,11.8,0,0,1-1.25-5.46V187a12.84,12.84,0,0,1,1.21-5.62,9.72,9.72,0,0,1,3.38-3.94,8.34,8.34,0,0,1,4.68-1.43,7.84,7.84,0,0,1,6.26,2.69,11,11,0,0,1,2.31,7.36v1.34H212.85v.46A9.05,9.05,0,0,0,215,194a6.73,6.73,0,0,0,5.31,2.45,7.8,7.8,0,0,0,3.4-.7,7.52,7.52,0,0,0,2.67-2.24l1.5,1.14A8.74,8.74,0,0,1,220.17,198.49Zm-.44-20.42a6,6,0,0,0-4.55,2,9.05,9.05,0,0,0-2.25,5.32h13v-.26a8,8,0,0,0-1.78-5.08A5.53,5.53,0,0,0,219.73,178.07Z"/><path class="cls-2" d="M244.62,178.47a9.34,9.34,0,0,0-1.63-.14,5.81,5.81,0,0,0-3.79,1.26,6.84,6.84,0,0,0-2.21,3.63v14.87h-2.38V176.43H237l0,3.45a6.36,6.36,0,0,1,6.1-3.85,4,4,0,0,1,1.59.26Z"/><path class="cls-2" d="M121.66,232.68a13,13,0,0,1-2.24,8,7.14,7.14,0,0,1-6,3,8,8,0,0,1-6.81-3.12v11.05h-2.38v-30h2.22l.12,3.07a7.69,7.69,0,0,1,6.79-3.47,7.17,7.17,0,0,1,6.09,3c1.48,2,2.21,4.68,2.21,8.16Zm-2.4-.42a11.15,11.15,0,0,0-1.7-6.54,5.49,5.49,0,0,0-4.74-2.41,6.34,6.34,0,0,0-6.21,4.15v10.39a6.3,6.3,0,0,0,2.46,2.84,7.06,7.06,0,0,0,3.79,1,5.43,5.43,0,0,0,4.71-2.41Q119.27,236.85,119.26,232.26Z"/><path class="cls-2" d="M142.28,243.29a11.41,11.41,0,0,1-.46-3,8.25,8.25,0,0,1-3.21,2.53,9.75,9.75,0,0,1-4.14.89,7.26,7.26,0,0,1-5.05-1.74,5.66,5.66,0,0,1-1.93-4.4,5.82,5.82,0,0,1,2.63-5,12.72,12.72,0,0,1,7.34-1.84h4.34v-2.46a4.74,4.74,0,0,0-1.43-3.65,5.89,5.89,0,0,0-4.17-1.34,6.53,6.53,0,0,0-4.15,1.29,3.81,3.81,0,0,0-1.64,3.08l-2.4,0a5.6,5.6,0,0,1,2.4-4.48,9.26,9.26,0,0,1,5.91-1.89A8.46,8.46,0,0,1,142,223a6.5,6.5,0,0,1,2.15,5.06v10.25a12.47,12.47,0,0,0,.67,4.7v.24Zm-7.52-1.72a8,8,0,0,0,4.29-1.16,6.81,6.81,0,0,0,2.75-3.1v-4.77h-4.28a10.86,10.86,0,0,0-5.61,1.31,3.94,3.94,0,0,0-2,3.5,3.87,3.87,0,0,0,1.35,3A5.09,5.09,0,0,0,134.76,241.57Z"/><path class="cls-2" d="M165.18,237.79a3.39,3.39,0,0,0-1.43-2.86,11,11,0,0,0-4.31-1.7,19.07,19.07,0,0,1-4.48-1.4,5.88,5.88,0,0,1-2.36-1.93,4.84,4.84,0,0,1-.77-2.76A5.16,5.16,0,0,1,154,222.9a8.69,8.69,0,0,1,5.49-1.67,8.92,8.92,0,0,1,5.81,1.79,5.77,5.77,0,0,1,2.19,4.68h-2.4a3.87,3.87,0,0,0-1.59-3.16,7.14,7.14,0,0,0-7.81-.21,3.25,3.25,0,0,0-1.43,2.73,3,3,0,0,0,1.19,2.51,12.72,12.72,0,0,0,4.35,1.63,20.78,20.78,0,0,1,4.72,1.58,6,6,0,0,1,2.33,2,5.52,5.52,0,0,1-1.45,7.24,9.4,9.4,0,0,1-5.77,1.64,9.73,9.73,0,0,1-6.14-1.83,5.62,5.62,0,0,1-2.35-4.63h2.4a4.2,4.2,0,0,0,1.77,3.27,7.27,7.27,0,0,0,4.32,1.17,6.75,6.75,0,0,0,4-1.1A3.29,3.29,0,0,0,165.18,237.79Z"/><path class="cls-2" d="M187.58,237.79a3.39,3.39,0,0,0-1.43-2.86,11,11,0,0,0-4.31-1.7,19.07,19.07,0,0,1-4.48-1.4A5.88,5.88,0,0,1,175,229.9a4.84,4.84,0,0,1-.77-2.76,5.16,5.16,0,0,1,2.14-4.24,8.69,8.69,0,0,1,5.49-1.67,8.92,8.92,0,0,1,5.81,1.79,5.78,5.78,0,0,1,2.2,4.68h-2.41a3.87,3.87,0,0,0-1.59-3.16,7.14,7.14,0,0,0-7.81-.21,3.25,3.25,0,0,0-1.43,2.73,3,3,0,0,0,1.19,2.51,12.72,12.72,0,0,0,4.35,1.63,20.78,20.78,0,0,1,4.72,1.58,6,6,0,0,1,2.33,2,5.52,5.52,0,0,1-1.45,7.24,9.4,9.4,0,0,1-5.77,1.64,9.73,9.73,0,0,1-6.14-1.83,5.62,5.62,0,0,1-2.35-4.63h2.4a4.2,4.2,0,0,0,1.77,3.27,7.27,7.27,0,0,0,4.32,1.17,6.75,6.75,0,0,0,4-1.1A3.29,3.29,0,0,0,187.58,237.79Z"/><path class="cls-2" d="M202.2,238.31l.36,1.86.48-2,5.2-16.58h2l5.15,16.44.56,2.28.46-2.1,4.44-16.62h2.49l-6.31,21.66h-2l-5.57-17.17-.26-1.18-.26,1.2-5.46,17.15h-2l-6.29-21.66h2.46Z"/><path class="cls-2" d="M228.24,232.14a12.7,12.7,0,0,1,1.21-5.62,9.1,9.1,0,0,1,8.44-5.29,8.9,8.9,0,0,1,7,3,11.71,11.71,0,0,1,2.68,8v.5a12.84,12.84,0,0,1-1.21,5.66,9.08,9.08,0,0,1-3.41,3.87,9.36,9.36,0,0,1-5,1.36,8.94,8.94,0,0,1-7-3,11.68,11.68,0,0,1-2.69-8Zm2.4.66a9.84,9.84,0,0,0,2,6.38,6.81,6.81,0,0,0,10.53,0,10.1,10.1,0,0,0,2-6.58v-.46a11.06,11.06,0,0,0-.92-4.54,7.38,7.38,0,0,0-2.59-3.19,6.53,6.53,0,0,0-3.8-1.14,6.4,6.4,0,0,0-5.23,2.52,10.18,10.18,0,0,0-2,6.57Z"/><path class="cls-2" d="M264.17,223.67a9.22,9.22,0,0,0-1.62-.14,5.81,5.81,0,0,0-3.79,1.26,6.78,6.78,0,0,0-2.21,3.63v14.87h-2.39V221.63h2.35l0,3.45a6.35,6.35,0,0,1,6.1-3.85,4,4,0,0,1,1.58.26Z"/><path class="cls-2" d="M268.26,232.26a13,13,0,0,1,2.25-8,7.24,7.24,0,0,1,6.11-3,7.53,7.53,0,0,1,6.69,3.47V212.54h2.38v30.75h-2.24l-.1-2.88a7.73,7.73,0,0,1-6.77,3.28,7.22,7.22,0,0,1-6-3,13.11,13.11,0,0,1-2.29-8.14Zm2.42.42a11.26,11.26,0,0,0,1.66,6.54,5.38,5.38,0,0,0,4.68,2.39,6.45,6.45,0,0,0,6.29-3.9V227.54a6.4,6.4,0,0,0-6.25-4.23,5.45,5.45,0,0,0-4.7,2.38Q270.68,228.06,270.68,232.68Z"/></g><g class="cls-1"><path class="cls-2" d="M89.37,304a44.42,44.42,0,1,0,44.42,44.42A44.42,44.42,0,0,0,89.37,304Zm2.69,58.52H89.53V340.86c-1.28,1.29-3.85,1.7-6,1.7-.41,0-.86,0-1.32,0v-2.2h.66a7.87,7.87,0,0,0,4.81-1.2,5.81,5.81,0,0,0,2.15-4.8h2.24Z"/><path class="cls-2" d="M195,304a44.42,44.42,0,1,0,44.42,44.42A44.42,44.42,0,0,0,195,304Zm9.15,58.75h-18v-2.28c2.19-1.45,6.17-4.51,9.73-7.49,3-2.69,5.43-5.3,5.43-9.65s-2.94-7-6.59-7c-4.18,0-6.29,2.94-6.29,6.33a9.32,9.32,0,0,0,1.32,4.85l-3-.46a10.29,10.29,0,0,1-1-4.47c0-4.64,3.43-8.45,9-8.45,6.22,0,9.2,4.18,9.2,9.15,0,5.93-4.1,9.57-8.08,12.8a67.66,67.66,0,0,1-6.17,4.43h14.37Z"/><path class="cls-2" d="M300.63,392.84a44.42,44.42,0,1,0-44.42-44.42A44.42,44.42,0,0,0,300.63,392.84Zm3.65-43.22c-1.24-.62-2.49-.83-6.22-.83H296V346.6h1.78a14.4,14.4,0,0,0,6.3-1,4.62,4.62,0,0,0,2.65-4.44c0-2.77-2.11-5.17-6.09-5.17s-6.21,2.61-6.38,5.59l-2.4-.87c0-2.2,2.24-6.92,8.78-6.92,5.8,0,8.7,3.36,8.7,7.29a6,6,0,0,1-5.34,6.3,7.09,7.09,0,0,1,6.09,7.2c0,4.85-3.69,8.37-9.53,8.37-5.39,0-9.11-2.94-9.28-7.91l2.49-.79c.2,4.85,3.35,6.46,6.83,6.46s6.75-2.32,6.75-6.17A4.94,4.94,0,0,0,304.28,349.62Z"/><path class="cls-2" d="M89.37,409.63a44.43,44.43,0,1,0,44.42,44.42A44.42,44.42,0,0,0,89.37,409.63Zm8.07,51H92.31v7.58H89.78v-7.58h-13v-1.78l13.17-19h2.32v18.47h5.13Z"/><path class="cls-2" d="M86.47,448.84l-6.67,9.52h10V449c0-2.24,0-4.43.17-5.63h0A53.43,53.43,0,0,1,86.47,448.84Z"/><path class="cls-2" d="M195,409.63a44.43,44.43,0,1,0,44.42,44.42A44.42,44.42,0,0,0,195,409.63Zm-.19,58.75c-4.8,0-8.28-2.48-9.19-6.91l2.32-1.33a6.77,6.77,0,0,0,6.87,6c4.15,0,6.8-3,6.8-7.83,0-4-2.28-7.25-6.67-7.25-3.77,0-5.84,2.32-6.38,5.51l-2.24-.5.91-16.36h15.25V442H189.55l-.62,9.73a7.63,7.63,0,0,1,6.38-2.94c5.18,0,9.07,3.61,9.07,9.53C204.38,463.87,201,468.38,194.81,468.38Z"/><path class="cls-2" d="M300.63,409.63a44.43,44.43,0,1,0,44.42,44.42A44.42,44.42,0,0,0,300.63,409.63Zm.4,59c-5.93,0-10.11-4.39-10.11-14.45,0-9.24,3.65-14.7,10.52-14.7,5.67,0,7.79,4,8.16,6.5l-2.4.91c-.37-1.45-1.33-5.22-5.88-5.22-5.06,0-7.42,4.64-7.67,11.64a9.27,9.27,0,0,1,7.79-3.77c4.76,0,8.91,3.19,8.91,9.2C310.35,463.87,307,468.63,301,468.63Z"/><path class="cls-2" d="M301,451.82a8.11,8.11,0,0,0-7.29,4.47c.29,6.17,2.85,10.11,7.33,10.11,3.68,0,6.62-2.86,6.62-7.42C307.65,454.18,304.51,451.82,301,451.82Z"/><path class="cls-2" d="M89.37,515.27a44.42,44.42,0,1,0,44.42,44.42A44.41,44.41,0,0,0,89.37,515.27Zm9.44,32.45a66.8,66.8,0,0,0-6.09,11.43,55.11,55.11,0,0,0-3.6,14.62H86.26a50.43,50.43,0,0,1,4-15A81.27,81.27,0,0,1,96,547.88H82.28v6.42H79.92v-8.69H98.81Z"/><path class="cls-2" d="M195,560c-4.35,0-7,2.4-7,6,0,3.28,2.36,6,7,6s7-2.77,7-6C202,562.38,199.35,560,195,560Z"/><path class="cls-2" d="M195,515.27a44.42,44.42,0,1,0,44.42,44.42A44.42,44.42,0,0,0,195,515.27Zm0,59c-6.88,0-9.77-4.06-9.77-8.29,0-4.47,3.23-6.5,5.55-7.33a6.43,6.43,0,0,1-4.77-6.29c0-4.15,3.19-7.25,9-7.25s9,3.1,9,7.25a6.6,6.6,0,0,1-4.77,6.33c2.28.83,5.55,2.82,5.55,7.29C204.77,570.21,201.79,574.27,195,574.27Z"/><path class="cls-2" d="M201.34,552.48c0-3.15-2.49-5.22-6.34-5.22s-6.34,2.07-6.34,5.22c0,2.86,2.2,5.26,6.34,5.26S201.34,555.34,201.34,552.48Z"/><path class="cls-2" d="M195,620.9a44.42,44.42,0,1,0,44.42,44.42A44.42,44.42,0,0,0,195,620.9Zm0,59c-7.7,0-10.52-7-10.52-14.58,0-8.2,3.35-14.58,10.52-14.58s10.52,6.38,10.52,14.58C205.52,672.9,202.66,679.9,195,679.9Z"/><path class="cls-2" d="M195,653c-5.18,0-7.7,5.38-7.7,12.26,0,6.38,1.74,12.38,7.7,12.38s7.66-6,7.66-12.38C202.66,658.36,200.18,653,195,653Z"/><path class="cls-2" d="M300.24,547.3c-3.69,0-6.63,2.86-6.63,7.42,0,4.8,3.15,7.16,6.67,7.16a8.09,8.09,0,0,0,7.29-4.51C307.28,551.24,304.71,547.3,300.24,547.3Z"/><path class="cls-2" d="M300.63,515.27a44.42,44.42,0,1,0,44.42,44.42A44.42,44.42,0,0,0,300.63,515.27Zm-.81,59c-5.67,0-7.78-4-8.15-6.51l2.4-.91c.37,1.45,1.32,5.18,5.88,5.18,5.05,0,7.41-4.6,7.66-11.6a9.24,9.24,0,0,1-7.79,3.77c-4.76,0-8.9-3.19-8.9-9.19,0-5.14,3.36-9.9,9.32-9.9s10.11,4.39,10.11,14.45C310.35,568.8,306.7,574.27,299.82,574.27Z"/></g><g class="cls-1"><rect class="cls-2" x="315.48" y="36.67" width="4.7" height="14.1" rx="1.45"/><rect class="cls-2" x="322.53" y="36.67" width="4.7" height="14.1" rx="1.45"/><rect class="cls-2" x="329.59" y="36.67" width="4.7" height="14.1" rx="1.45"/><rect class="cls-2" x="336.64" y="36.67" width="4.7" height="14.1" rx="1.45"/><rect class="cls-2" x="343.69" y="36.67" width="4.7" height="14.1" rx="1.45"/><path class="cls-2" d="M346.77,34a4.43,4.43,0,0,1,4.42,4.43V49a4.42,4.42,0,0,1-4.42,4.42H317.1A4.42,4.42,0,0,1,312.68,49V38.42A4.43,4.43,0,0,1,317.1,34h29.67m0-1.68H317.1a6.11,6.11,0,0,0-6.1,6.11V49a6.1,6.1,0,0,0,6.1,6.1h29.67a6.1,6.1,0,0,0,6.1-6.1V38.42a6.11,6.11,0,0,0-6.1-6.11Z"/><path class="cls-2" d="M355.65,39v9.4A2.35,2.35,0,0,0,358,46.07v-4.7A2.35,2.35,0,0,0,355.65,39Z"/></g><g class="cls-1"><rect class="cls-2" x="59.8" y="32.22" width="6.11" height="23"/><rect class="cls-2" x="49.91" y="37.53" width="6.23" height="17.69"/><rect class="cls-2" x="39.9" y="42.84" width="6.34" height="12.38"/><rect class="cls-2" x="29.79" y="48.15" width="6.45" height="7.08"/></g></svg>