<svg id="Layer_1" data-name="Layer 1" xmlns="http://www.w3.org/2000/svg" viewBox="0 0 390 844"><defs><style>.cls-1,.cls-12{opacity:0.8;}.cls-11,.cls-12,.cls-2,.cls-3,.cls-4,.cls-6,.cls-7,.cls-8,.cls-9{fill:#fff;}.cls-10,.cls-2,.cls-3,.cls-4,.cls-6,.cls-7,.cls-8,.cls-9{stroke:#fff;stroke-miterlimit:10;}.cls-2{stroke-width:0.75px;}.cls-3{stroke-width:1.04px;}.cls-4{stroke-width:1.04px;}.cls-10,.cls-5{fill:none;}.cls-6{stroke-width:0.66px;}.cls-7{stroke-width:1.02px;}.cls-8{stroke-width:0.9px;}.cls-9{stroke-width:1.88px;}.cls-10{stroke-width:2px;}</style></defs><g class="cls-1"><rect class="cls-2" x="211" y="296.4" width="49" height="69.81" rx="3.52"/><rect class="cls-2" x="270" y="296.4" width="49" height="69.81" rx="3.52"/><rect class="cls-3" x="117" y="296.4" width="49" height="135.5" rx="4.9"/><rect class="cls-4" x="117" y="441.9" width="49" height="135" rx="4.9"/><path class="cls-5" d="M218.83,576.9a8.84,8.84,0,0,1-8.83-8.84V450.23a8.83,8.83,0,0,1,8.83-8.83H360.17a9.24,9.24,0,0,1,1.83.19V366.2H333.12a3.12,3.12,0,0,1-3.12-3.12V299.52a3.12,3.12,0,0,1,3.12-3.12H362v-9.2H333.12a3.12,3.12,0,0,1-3.12-3.12V222.4H319v61.28a3.52,3.52,0,0,1-3.52,3.52h-42a3.52,3.52,0,0,1-3.52-3.52V222.4H260v61.28a3.52,3.52,0,0,1-3.52,3.52h-42a3.52,3.52,0,0,1-3.52-3.52V222.4H166v61.28a3.52,3.52,0,0,1-3.52,3.52h-42a3.52,3.52,0,0,1-3.52-3.52V222.4H74v61.28a3.52,3.52,0,0,1-3.52,3.52h-42a3,3,0,0,1-.52-.05v9.63a4.85,4.85,0,0,1,1.9-.38H69.1a4.9,4.9,0,0,1,4.9,4.9V427a4.91,4.91,0,0,1-4.9,4.91H29.9a4.85,4.85,0,0,1-1.9-.39v10.27a4.85,4.85,0,0,1,1.9-.38H69.1a4.9,4.9,0,0,1,4.9,4.9V572a4.91,4.91,0,0,1-4.9,4.91H29.9a4.85,4.85,0,0,1-1.9-.39v10.24a4.88,4.88,0,0,1,1.79-.35H69.21A4.79,4.79,0,0,1,74,591.19V710.7h43V591.19a4.79,4.79,0,0,1,4.79-4.79h39.42a4.79,4.79,0,0,1,4.79,4.79V710.7h44V591.19a4.79,4.79,0,0,1,4.79-4.79h39.42a4.79,4.79,0,0,1,4.79,4.79V710.7h11V591.19a4.79,4.79,0,0,1,4.79-4.79h39.42a4.79,4.79,0,0,1,4.79,4.79V710.7h11V590.65a4.25,4.25,0,0,1,4.25-4.25H362v-9.7a8.55,8.55,0,0,1-1.83.2Z"/><path class="cls-2" d="M70.48,287.2A3.52,3.52,0,0,0,74,283.68V222.4H35.41A7.41,7.41,0,0,0,28,229.81v57.34a3,3,0,0,0,.52.05Z"/><path class="cls-2" d="M120.52,287.2h42a3.52,3.52,0,0,0,3.52-3.52V222.4H117v61.28A3.52,3.52,0,0,0,120.52,287.2Z"/><path class="cls-2" d="M214.52,287.2h42a3.52,3.52,0,0,0,3.52-3.52V222.4H211v61.28A3.52,3.52,0,0,0,214.52,287.2Z"/><path class="cls-6" d="M330,299.52v63.56a3.12,3.12,0,0,0,3.12,3.12H362V296.4H333.12A3.12,3.12,0,0,0,330,299.52Z"/><path class="cls-2" d="M273.52,287.2h42a3.52,3.52,0,0,0,3.52-3.52V222.4H270v61.28A3.52,3.52,0,0,0,273.52,287.2Z"/><path class="cls-6" d="M333.12,287.2H362V229.81a7.41,7.41,0,0,0-7.41-7.41H330v61.68A3.12,3.12,0,0,0,333.12,287.2Z"/><path class="cls-3" d="M69.1,431.9A4.91,4.91,0,0,0,74,427V301.3a4.9,4.9,0,0,0-4.9-4.9H29.9a4.85,4.85,0,0,0-1.9.38V431.51a4.85,4.85,0,0,0,1.9.39Z"/><path class="cls-3" d="M69.1,576.9A4.91,4.91,0,0,0,74,572V446.3a4.9,4.9,0,0,0-4.9-4.9H29.9a4.85,4.85,0,0,0-1.9.38V576.51a4.85,4.85,0,0,0,1.9.39Z"/><path class="cls-7" d="M69.21,586.4H29.79a4.88,4.88,0,0,0-1.79.35V703.3a7.41,7.41,0,0,0,7.41,7.4H74V591.19A4.79,4.79,0,0,0,69.21,586.4Z"/><path class="cls-7" d="M161.21,586.4H121.79a4.79,4.79,0,0,0-4.79,4.79V710.7h49V591.19A4.79,4.79,0,0,0,161.21,586.4Z"/><path class="cls-7" d="M254.21,586.4H214.79a4.79,4.79,0,0,0-4.79,4.79V710.7h49V591.19A4.79,4.79,0,0,0,254.21,586.4Z"/><path class="cls-7" d="M314.21,586.4H274.79a4.79,4.79,0,0,0-4.79,4.79V710.7h49V591.19A4.79,4.79,0,0,0,314.21,586.4Z"/><path class="cls-8" d="M330,590.65V710.7h24.59a7.41,7.41,0,0,0,7.41-7.4V586.4H334.25A4.25,4.25,0,0,0,330,590.65Z"/><path class="cls-9" d="M360.17,441.4H218.83a8.83,8.83,0,0,0-8.83,8.83V568.06a8.84,8.84,0,0,0,8.83,8.84H360.17a8.55,8.55,0,0,0,1.83-.2V441.59A9.24,9.24,0,0,0,360.17,441.4Z"/><rect class="cls-10" x="22.5" y="217.5" width="345" height="499.31" rx="12.91"/></g><g class="cls-1"><rect class="cls-11" x="59.8" y="32.22" width="6.11" height="23"/><rect class="cls-11" x="49.91" y="37.53" width="6.23" height="17.69"/><rect class="cls-11" x="39.9" y="42.84" width="6.34" height="12.38"/><rect class="cls-11" x="29.79" y="48.15" width="6.45" height="7.08"/></g><polygon class="cls-12" points="41.41 123.35 58.76 106 59.59 106.84 43.08 123.35 59.59 139.87 58.76 140.71 41.41 123.35"/><g class="cls-1"><path class="cls-11" d="M149,108l10.75,25.72L170.57,108h3.28v29.14h-2.46V124.4l.2-13-10.85,25.7h-1.9L148,111.49l.2,12.83v12.77h-2.47V108Z"/><path class="cls-11" d="M196,137.09a11.41,11.41,0,0,1-.46-3,8.25,8.25,0,0,1-3.21,2.53,9.75,9.75,0,0,1-4.14.89,7.26,7.26,0,0,1-5.05-1.74,5.66,5.66,0,0,1-1.93-4.4,5.79,5.79,0,0,1,2.63-5,12.7,12.7,0,0,1,7.34-1.84h4.34V122a4.74,4.74,0,0,0-1.43-3.65,5.92,5.92,0,0,0-4.17-1.34,6.53,6.53,0,0,0-4.15,1.29,3.81,3.81,0,0,0-1.64,3.08l-2.4,0a5.6,5.6,0,0,1,2.4-4.48A9.26,9.26,0,0,1,190,115a8.46,8.46,0,0,1,5.71,1.81,6.5,6.5,0,0,1,2.15,5.06v10.25a12.71,12.71,0,0,0,.66,4.7v.24Zm-7.53-1.72a8,8,0,0,0,4.3-1.16,6.81,6.81,0,0,0,2.75-3.1v-4.77h-4.28a10.86,10.86,0,0,0-5.61,1.31,3.94,3.94,0,0,0-2,3.5,3.87,3.87,0,0,0,1.35,3A5.09,5.09,0,0,0,188.46,135.37Z"/><path class="cls-11" d="M223.34,126.48a13,13,0,0,1-2.25,8,7.13,7.13,0,0,1-6,3,8,8,0,0,1-6.81-3.12v11H205.9v-30h2.22l.12,3.07A7.7,7.7,0,0,1,215,115a7.17,7.17,0,0,1,6.09,3q2.22,2.94,2.22,8.16Zm-2.41-.42a11.08,11.08,0,0,0-1.7-6.54,5.48,5.48,0,0,0-4.74-2.41,6.34,6.34,0,0,0-6.21,4.15v10.39a6.42,6.42,0,0,0,2.46,2.84,7.06,7.06,0,0,0,3.79,1,5.43,5.43,0,0,0,4.71-2.41Q220.94,130.64,220.93,126.06Z"/><path class="cls-11" d="M243.25,131.59a3.39,3.39,0,0,0-1.43-2.86,10.9,10.9,0,0,0-4.31-1.7,19,19,0,0,1-4.47-1.4,5.91,5.91,0,0,1-2.37-1.93,4.84,4.84,0,0,1-.77-2.76A5.19,5.19,0,0,1,232,116.7a8.69,8.69,0,0,1,5.49-1.67,8.92,8.92,0,0,1,5.81,1.79,5.75,5.75,0,0,1,2.2,4.68h-2.41a3.87,3.87,0,0,0-1.59-3.16,6.21,6.21,0,0,0-4-1.27,6.29,6.29,0,0,0-3.8,1.05,3.28,3.28,0,0,0-1.43,2.74,3,3,0,0,0,1.19,2.51,12.72,12.72,0,0,0,4.35,1.63,20.61,20.61,0,0,1,4.72,1.58,6.14,6.14,0,0,1,2.34,2,5.55,5.55,0,0,1-1.45,7.24,9.45,9.45,0,0,1-5.78,1.64,9.73,9.73,0,0,1-6.14-1.83,5.62,5.62,0,0,1-2.35-4.63h2.4a4.18,4.18,0,0,0,1.78,3.27,7.21,7.21,0,0,0,4.31,1.17,6.73,6.73,0,0,0,4-1.1A3.29,3.29,0,0,0,243.25,131.59Z"/></g><g class="cls-1"><rect class="cls-11" x="315.48" y="36.67" width="4.7" height="14.1" rx="1.45"/><rect class="cls-11" x="322.53" y="36.67" width="4.7" height="14.1" rx="1.45"/><rect class="cls-11" x="329.59" y="36.67" width="4.7" height="14.1" rx="1.45"/><rect class="cls-11" x="336.64" y="36.67" width="4.7" height="14.1" rx="1.45"/><rect class="cls-11" x="343.69" y="36.67" width="4.7" height="14.1" rx="1.45"/><path class="cls-11" d="M346.77,34a4.43,4.43,0,0,1,4.42,4.43V49a4.42,4.42,0,0,1-4.42,4.42H317.1A4.42,4.42,0,0,1,312.68,49V38.42A4.43,4.43,0,0,1,317.1,34h29.67m0-1.68H317.1a6.11,6.11,0,0,0-6.1,6.11V49a6.1,6.1,0,0,0,6.1,6.1h29.67a6.1,6.1,0,0,0,6.1-6.1V38.42a6.11,6.11,0,0,0-6.1-6.11Z"/><path class="cls-11" d="M355.65,39v9.4A2.35,2.35,0,0,0,358,46.07v-4.7A2.35,2.35,0,0,0,355.65,39Z"/></g></svg>