<svg viewBox="0 0 390 844" xmlns="http://www.w3.org/2000/svg"><g fill="#fff"><path d="m234 742.43a39 39 0 1 0 -39 39 39 39 0 0 0 39-39zm-25.21 0-22 22-1.06-1.06 20.91-20.92-20.91-20.92 1.06-1.06z" opacity=".8"/><g opacity=".8"><path d="m94.33 230.6h-1.27v-7.15h-8.53v7.15h-1.26v-14.93h1.26v6.71h8.53v-6.71h1.27z"/><path d="m105.89 230.6a5.78 5.78 0 0 1 -.23-1.55 4.24 4.24 0 0 1 -1.65 1.3 5 5 0 0 1 -2.12.46 3.75 3.75 0 0 1 -2.59-.89 2.92 2.92 0 0 1 -1-2.26 3 3 0 0 1 1.35-2.56 6.47 6.47 0 0 1 3.76-.95h2.23v-1.26a2.44 2.44 0 0 0 -.74-1.87 3 3 0 0 0 -2.13-.68 3.4 3.4 0 0 0 -2.13.65 2 2 0 0 0 -.84 1.58h-1.22a2.86 2.86 0 0 1 1.23-2.29 4.78 4.78 0 0 1 3-1 4.3 4.3 0 0 1 2.92.93 3.31 3.31 0 0 1 1.11 2.59v5.25a6.42 6.42 0 0 0 .34 2.41v.12zm-3.85-.88a4.19 4.19 0 0 0 2.2-.59 3.61 3.61 0 0 0 1.41-1.59v-2.44h-2.2a5.41 5.41 0 0 0 -2.87.67 2.06 2.06 0 0 0 -.34 3.34 2.6 2.6 0 0 0 1.76.61z"/><path d="m114.49 228.91 3.37-9.4h1.26l-4.12 11.09h-1l-4.17-11.09h1.27z"/><path d="m126.35 230.81a4.76 4.76 0 0 1 -2.56-.7 4.71 4.71 0 0 1 -1.78-1.94 6.11 6.11 0 0 1 -.64-2.8v-.44a6.61 6.61 0 0 1 .62-2.88 5 5 0 0 1 1.73-2 4.27 4.27 0 0 1 2.4-.74 4 4 0 0 1 3.21 1.38 5.6 5.6 0 0 1 1.18 3.77v.69h-7.92v.23a4.68 4.68 0 0 0 1.09 3.15 3.44 3.44 0 0 0 2.72 1.25 4 4 0 0 0 1.74-.36 3.85 3.85 0 0 0 1.37-1.15l.76.59a4.46 4.46 0 0 1 -3.92 1.95zm-.23-10.46a3.08 3.08 0 0 0 -2.33 1 4.75 4.75 0 0 0 -1.16 2.73h6.66v-.08a4.08 4.08 0 0 0 -.91-2.61 2.84 2.84 0 0 0 -2.26-1.04z"/><path d="m149 225.17a6.74 6.74 0 0 1 -1.15 4.12 3.69 3.69 0 0 1 -3.09 1.52 4 4 0 0 1 -3.51-1.72v1.51h-1.15v-15.75h1.22v6.27a3.85 3.85 0 0 1 3.46-1.82 3.7 3.7 0 0 1 3.11 1.5 6.74 6.74 0 0 1 1.11 4.2zm-1.23-.22a5.85 5.85 0 0 0 -.85-3.39 2.79 2.79 0 0 0 -2.4-1.19 3.33 3.33 0 0 0 -2 .58 3.5 3.5 0 0 0 -1.24 1.7v5a3.29 3.29 0 0 0 3.26 2.09 2.75 2.75 0 0 0 2.37-1.2 6.17 6.17 0 0 0 .9-3.54z"/><path d="m157.92 220.55a5.46 5.46 0 0 0 -.83-.07 3 3 0 0 0 -1.94.64 3.57 3.57 0 0 0 -1.15 1.88v7.62h-1.22v-11.11h1.22v1.76a3.28 3.28 0 0 1 3.13-2 2 2 0 0 1 .81.14z"/><path d="m165 230.81a4.77 4.77 0 0 1 -4.34-2.64 6.1 6.1 0 0 1 -.63-2.8v-.44a6.47 6.47 0 0 1 .62-2.88 4.92 4.92 0 0 1 1.73-2 4.22 4.22 0 0 1 2.4-.74 4 4 0 0 1 3.2 1.38 5.6 5.6 0 0 1 1.18 3.77v.69h-7.91v.23a4.67 4.67 0 0 0 1.08 3.15 3.46 3.46 0 0 0 2.72 1.25 4 4 0 0 0 1.74-.36 3.85 3.85 0 0 0 1.37-1.15l.77.59a4.47 4.47 0 0 1 -3.93 1.95zm-.22-10.46a3.09 3.09 0 0 0 -2.34 1 4.74 4.74 0 0 0 -1.15 2.73h6.71v-.08a4 4 0 0 0 -.91-2.61 2.82 2.82 0 0 0 -2.3-1.04z"/><path d="m179.62 230.6a5.34 5.34 0 0 1 -.24-1.55 4.24 4.24 0 0 1 -1.65 1.3 4.92 4.92 0 0 1 -2.11.46 3.74 3.74 0 0 1 -2.59-.89 2.92 2.92 0 0 1 -1-2.26 3 3 0 0 1 1.35-2.56 6.46 6.46 0 0 1 3.75-.95h2.23v-1.26a2.47 2.47 0 0 0 -.73-1.87 3.05 3.05 0 0 0 -2.14-.68 3.37 3.37 0 0 0 -2.12.65 2 2 0 0 0 -.84 1.58h-1.23a2.84 2.84 0 0 1 1.24-2.29 4.75 4.75 0 0 1 3-1 4.33 4.33 0 0 1 2.93.93 3.34 3.34 0 0 1 1.1 2.59v5.25a6.42 6.42 0 0 0 .34 2.41v.12zm-3.86-.88a4.19 4.19 0 0 0 2.2-.59 3.49 3.49 0 0 0 1.41-1.59v-2.44h-2.19a5.45 5.45 0 0 0 -2.88.67 2.08 2.08 0 0 0 -.34 3.34 2.6 2.6 0 0 0 1.8.61z"/><path d="m187.55 225-1.41 1.36v4.23h-1.23v-15.74h1.23v10.08l1.16-1.25 4.25-4.17h1.54l-4.7 4.67 5.11 6.42h-1.5z"/><path d="m197.13 230.6v-10.09h-1.84v-1h1.84v-1.35a3.68 3.68 0 0 1 .86-2.61 3.18 3.18 0 0 1 2.42-.91 4.92 4.92 0 0 1 1.3.17l-.09 1a4.41 4.41 0 0 0 -1.12-.13 2 2 0 0 0 -1.58.64 2.63 2.63 0 0 0 -.56 1.79v1.38h2.64v1h-2.64v10.11z"/><path d="m211.25 230.6a5.78 5.78 0 0 1 -.23-1.55 4.31 4.31 0 0 1 -1.65 1.3 5 5 0 0 1 -2.12.46 3.75 3.75 0 0 1 -2.59-.89 2.92 2.92 0 0 1 -1-2.26 3 3 0 0 1 1.34-2.56 6.47 6.47 0 0 1 3.76-.95h2.24v-1.26a2.44 2.44 0 0 0 -.74-1.87 3.05 3.05 0 0 0 -2.14-.68 3.39 3.39 0 0 0 -2.12.66 2 2 0 0 0 -.84 1.58h-1.23a2.86 2.86 0 0 1 1.23-2.29 4.78 4.78 0 0 1 3-1 4.3 4.3 0 0 1 2.92.93 3.31 3.31 0 0 1 1.11 2.59v5.25a6.67 6.67 0 0 0 .33 2.41v.12zm-3.85-.88a4.19 4.19 0 0 0 2.2-.59 3.61 3.61 0 0 0 1.41-1.59v-2.44h-2.2a5.41 5.41 0 0 0 -2.87.67 2 2 0 0 0 -1 1.79 2 2 0 0 0 .7 1.55 2.6 2.6 0 0 0 1.76.61z"/><path d="m223.19 227.78a1.73 1.73 0 0 0 -.73-1.46 5.7 5.7 0 0 0 -2.21-.87 9.87 9.87 0 0 1 -2.29-.72 3 3 0 0 1 -1.21-1 2.41 2.41 0 0 1 -.4-1.41 2.64 2.64 0 0 1 1.1-2.17 4.44 4.44 0 0 1 2.81-.86 4.57 4.57 0 0 1 3 .92 2.93 2.93 0 0 1 1.12 2.39h-1.23a2 2 0 0 0 -.82-1.62 3.67 3.67 0 0 0 -4-.1 1.66 1.66 0 0 0 -.74 1.4 1.52 1.52 0 0 0 .61 1.28 6.3 6.3 0 0 0 2.23.84 10.35 10.35 0 0 1 2.42.81 3.15 3.15 0 0 1 1.19 1 2.63 2.63 0 0 1 .39 1.46 2.67 2.67 0 0 1 -1.13 2.25 4.85 4.85 0 0 1 -3 .84 4.93 4.93 0 0 1 -3.14-.94 2.88 2.88 0 0 1 -1.16-2.32h1.23a2.13 2.13 0 0 0 .91 1.67 3.71 3.71 0 0 0 2.21.6 3.5 3.5 0 0 0 2.07-.56 1.69 1.69 0 0 0 .77-1.43z"/><path d="m230.14 216.67v2.84h2.29v1h-2.29v7.4a2.34 2.34 0 0 0 .33 1.38 1.29 1.29 0 0 0 1.11.45 7.25 7.25 0 0 0 1-.1v1a4.16 4.16 0 0 1 -1.31.17 2.2 2.2 0 0 1 -1.84-.74 3.43 3.43 0 0 1 -.57-2.15v-7.41h-2v-1h2v-2.84z"/></g><g opacity=".8"><path d="m91.72 285.93a2.4 2.4 0 0 0 -.87-2 9.38 9.38 0 0 0 -3.19-1.38 10.88 10.88 0 0 1 -3.39-1.42 3.45 3.45 0 0 1 -.1-5.63 5.81 5.81 0 0 1 3.6-1.07 6 6 0 0 1 2.66.57 4.37 4.37 0 0 1 1.82 1.6 4.24 4.24 0 0 1 .65 2.29h-1.28a3.15 3.15 0 0 0 -1-2.47 4.07 4.07 0 0 0 -2.81-.93 4.44 4.44 0 0 0 -2.73.77 2.41 2.41 0 0 0 -1 2 2.26 2.26 0 0 0 .91 1.86 8.34 8.34 0 0 0 2.92 1.26 14.12 14.12 0 0 1 3 1.14 4.49 4.49 0 0 1 1.56 1.48 3.63 3.63 0 0 1 .52 1.94 3.37 3.37 0 0 1 -1.41 2.83 6 6 0 0 1 -3.72 1.07 7.17 7.17 0 0 1 -2.89-.57 4.38 4.38 0 0 1 -2-1.57 4.07 4.07 0 0 1 -.69-2.33h1.26a3 3 0 0 0 1.18 2.49 5 5 0 0 0 3.14.91 4.6 4.6 0 0 0 2.8-.77 2.39 2.39 0 0 0 1.06-2.07z"/><path d="m95.79 283.89a6.58 6.58 0 0 1 .62-2.88 4.74 4.74 0 0 1 1.76-2 4.66 4.66 0 0 1 2.56-.72 4.54 4.54 0 0 1 3.59 1.56 5.94 5.94 0 0 1 1.38 4.15v.26a6.67 6.67 0 0 1 -.62 2.9 4.63 4.63 0 0 1 -4.32 2.68 4.57 4.57 0 0 1 -3.59-1.56 5.94 5.94 0 0 1 -1.38-4.11zm1.23.34a5.1 5.1 0 0 0 1 3.27 3.51 3.51 0 0 0 5.4 0 5.27 5.27 0 0 0 1-3.37v-.24a5.74 5.74 0 0 0 -.47-2.33 3.8 3.8 0 0 0 -1.33-1.63 3.32 3.32 0 0 0 -2-.58 3.27 3.27 0 0 0 -2.67 1.29 5.19 5.19 0 0 0 -.95 3.36z"/><path d="m114.41 279.55a5.46 5.46 0 0 0 -.83-.07 3 3 0 0 0 -2 .64 3.55 3.55 0 0 0 -1.08 1.88v7.62h-1.22v-11.11h1.2v1.76a3.27 3.27 0 0 1 3.13-2 2 2 0 0 1 .81.14z"/><path d="m119.82 275.67v2.84h2.29v1h-2.29v7.4a2.34 2.34 0 0 0 .33 1.38 1.29 1.29 0 0 0 1.11.45 7.25 7.25 0 0 0 1-.1v1a3.88 3.88 0 0 1 -1.32.18 2.17 2.17 0 0 1 -1.83-.74 3.42 3.42 0 0 1 -.58-2.15v-7.41h-2v-1h2v-2.84z"/><path d="m133 278.51v1.8a4 4 0 0 1 1.54-1.5 4.16 4.16 0 0 1 2.05-.51 3.11 3.11 0 0 1 3.33 2.16 4.21 4.21 0 0 1 1.59-1.6 4.44 4.44 0 0 1 2.2-.56c2.37 0 3.59 1.3 3.64 3.9v7.4h-1.24v-7.31a3.26 3.26 0 0 0 -.64-2.2 2.59 2.59 0 0 0 -2.05-.72 3.26 3.26 0 0 0 -2.24.86 3 3 0 0 0 -1 2v7.34h-1.18v-7.4a3.07 3.07 0 0 0 -.67-2.13 2.67 2.67 0 0 0 -2-.7 3.1 3.1 0 0 0 -2 .66 4 4 0 0 0 -1.23 2v7.61h-1.3v-11.1z"/><path d="m158.53 289.6a5.34 5.34 0 0 1 -.24-1.55 4.15 4.15 0 0 1 -1.65 1.3 4.92 4.92 0 0 1 -2.11.46 3.74 3.74 0 0 1 -2.59-.89 2.92 2.92 0 0 1 -1-2.26 3 3 0 0 1 1.35-2.56 6.46 6.46 0 0 1 3.75-1h2.23v-1.26a2.43 2.43 0 0 0 -.73-1.87 3.05 3.05 0 0 0 -2.14-.68 3.31 3.31 0 0 0 -2.12.66 1.93 1.93 0 0 0 -.84 1.57h-1.24a2.84 2.84 0 0 1 1.24-2.29 4.75 4.75 0 0 1 3-1 4.33 4.33 0 0 1 2.93.93 3.34 3.34 0 0 1 1.1 2.59v5.25a6.42 6.42 0 0 0 .34 2.41v.12zm-3.86-.88a4.19 4.19 0 0 0 2.2-.59 3.49 3.49 0 0 0 1.41-1.59v-2.44h-2.19a5.43 5.43 0 0 0 -2.88.67 2.08 2.08 0 0 0 -.34 3.34 2.6 2.6 0 0 0 1.8.61z"/><path d="m163.75 275.3a.86.86 0 0 1 1.46-.58.82.82 0 0 1 .23.58.78.78 0 0 1 -.23.58.92.92 0 0 1 -1.24 0 .78.78 0 0 1 -.22-.58zm1.45 14.3h-1.2v-11.09h1.24z"/><path d="m171 289.6h-1.23v-15.75h1.23z"/></g><g opacity=".8"><path d="m93.4 335.74h-5.12v13.86h-1.28v-13.86h-5.1v-1.07h11.5z"/><path d="m102.42 349.6a5.34 5.34 0 0 1 -.24-1.55 4.18 4.18 0 0 1 -1.64 1.3 5 5 0 0 1 -2.12.46 3.74 3.74 0 0 1 -2.59-.89 2.92 2.92 0 0 1 -1-2.26 3 3 0 0 1 1.35-2.56 6.47 6.47 0 0 1 3.76-1h2.22v-1.26a2.43 2.43 0 0 0 -.73-1.87 3.05 3.05 0 0 0 -2.14-.68 3.33 3.33 0 0 0 -2.12.66 1.93 1.93 0 0 0 -.84 1.57h-1.22a2.86 2.86 0 0 1 1.23-2.29 4.75 4.75 0 0 1 3-1 4.33 4.33 0 0 1 2.93.93 3.34 3.34 0 0 1 1.1 2.59v5.25a6.42 6.42 0 0 0 .34 2.41v.12zm-3.86-.88a4.19 4.19 0 0 0 2.2-.59 3.49 3.49 0 0 0 1.41-1.59v-2.44h-2.17a5.36 5.36 0 0 0 -2.87.67 2.07 2.07 0 0 0 -.35 3.34 2.6 2.6 0 0 0 1.78.61z"/><path d="m110.35 344-1.41 1.36v4.23h-1.23v-15.74h1.23v10.08l1.16-1.25 4.25-4.17h1.54l-4.7 4.67 5.11 6.42h-1.46z"/><path d="m123.14 349.81a4.76 4.76 0 0 1 -2.56-.7 4.71 4.71 0 0 1 -1.78-1.94 6.11 6.11 0 0 1 -.64-2.8v-.44a6.48 6.48 0 0 1 .63-2.88 4.9 4.9 0 0 1 1.72-2 4.27 4.27 0 0 1 2.4-.74 4 4 0 0 1 3.21 1.38 5.6 5.6 0 0 1 1.18 3.77v.69h-7.92v.23a4.68 4.68 0 0 0 1.09 3.15 3.46 3.46 0 0 0 2.72 1.25 4 4 0 0 0 1.74-.36 3.85 3.85 0 0 0 1.37-1.15l.76.59a4.46 4.46 0 0 1 -3.92 1.95zm-.23-10.46a3.08 3.08 0 0 0 -2.33 1 4.68 4.68 0 0 0 -1.15 2.73h6.65v-.08a4.08 4.08 0 0 0 -.91-2.61 2.84 2.84 0 0 0 -2.26-1.04z"/><path d="m145.82 344.17a6.74 6.74 0 0 1 -1.15 4.12 3.67 3.67 0 0 1 -3.08 1.52 4.11 4.11 0 0 1 -3.48-1.6v5.66h-1.22v-15.36h1.11l.07 1.57a3.91 3.91 0 0 1 3.47-1.78 3.69 3.69 0 0 1 3.12 1.51 6.81 6.81 0 0 1 1.14 4.18zm-1.23-.22a5.64 5.64 0 0 0 -.88-3.35 2.8 2.8 0 0 0 -2.42-1.23 3.23 3.23 0 0 0 -3.18 2.12v5.32a3.23 3.23 0 0 0 1.26 1.46 3.66 3.66 0 0 0 1.94.5 2.79 2.79 0 0 0 2.41-1.23 6.22 6.22 0 0 0 .87-3.54z"/><path d="m156.72 348.2a4 4 0 0 1 -3.54 1.61 3.44 3.44 0 0 1 -2.69-1 4.54 4.54 0 0 1 -1-3v-7.22h1.22v7.06c0 2.12.86 3.17 2.57 3.17a3.14 3.14 0 0 0 3.37-2.2v-8h1.23v10.98h-1.19z"/><path d="m171.1 344.17a6.67 6.67 0 0 1 -1.15 4.12 3.66 3.66 0 0 1 -3.08 1.52 4 4 0 0 1 -3.51-1.73l-.05 1.52h-1.15v-15.75h1.22v6.27a3.86 3.86 0 0 1 3.47-1.82 3.7 3.7 0 0 1 3.11 1.5 6.81 6.81 0 0 1 1.14 4.2zm-1.23-.22a5.78 5.78 0 0 0 -.85-3.39 2.79 2.79 0 0 0 -2.4-1.19 3.35 3.35 0 0 0 -2 .58 3.46 3.46 0 0 0 -1.24 1.7v5a3.29 3.29 0 0 0 3.26 2.09 2.78 2.78 0 0 0 2.38-1.2 6.18 6.18 0 0 0 .85-3.54z"/><path d="m176.23 349.6h-1.23v-15.75h1.23z"/><path d="m180.54 335.3a.82.82 0 0 1 .23-.58.79.79 0 0 1 .61-.24.81.81 0 0 1 .62.24.78.78 0 0 1 .24.58.75.75 0 0 1 -.24.58.81.81 0 0 1 -.62.24.8.8 0 0 1 -.84-.82zm1.46 14.3h-1.23v-11.09h1.23z"/><path d="m190.47 348.77a3.25 3.25 0 0 0 2.15-.72 2.55 2.55 0 0 0 .94-1.87h1.18a3.47 3.47 0 0 1 -.64 1.85 4 4 0 0 1 -1.55 1.31 4.76 4.76 0 0 1 -2.08.47 4.3 4.3 0 0 1 -3.46-1.52 6.13 6.13 0 0 1 -1.27-4.08v-.37a7 7 0 0 1 .57-2.9 4.4 4.4 0 0 1 1.69-1.94 4.51 4.51 0 0 1 2.5-.69 4.3 4.3 0 0 1 3 1.09 4 4 0 0 1 1.27 2.86h-1.18a3 3 0 0 0 -3.1-2.9 3.08 3.08 0 0 0 -2.58 1.2 5.43 5.43 0 0 0 -.91 3.36v.36a5.3 5.3 0 0 0 .91 3.31 3.08 3.08 0 0 0 2.56 1.18z"/><path d="m206.3 335.67v2.84h2.3v1h-2.3v7.4a2.26 2.26 0 0 0 .34 1.38 1.29 1.29 0 0 0 1.11.45 7.15 7.15 0 0 0 1-.1v1a3.81 3.81 0 0 1 -1.31.18 2.17 2.17 0 0 1 -1.83-.74 3.36 3.36 0 0 1 -.58-2.15v-7.41h-2v-1h2v-2.84z"/><path d="m217.32 339.55a5.46 5.46 0 0 0 -.83-.07 3 3 0 0 0 -1.94.64 3.57 3.57 0 0 0 -1.14 1.86v7.62h-1.22v-11.09h1.2v1.76a3.28 3.28 0 0 1 3.13-2 2 2 0 0 1 .81.14z"/><path d="m226.9 349.6a5.78 5.78 0 0 1 -.23-1.55 4.22 4.22 0 0 1 -1.65 1.3 5 5 0 0 1 -2.12.46 3.75 3.75 0 0 1 -2.59-.89 2.92 2.92 0 0 1 -1-2.26 3 3 0 0 1 1.35-2.56 6.47 6.47 0 0 1 3.76-1h2.23v-1.26a2.44 2.44 0 0 0 -.74-1.87 3.05 3.05 0 0 0 -2.14-.68 3.33 3.33 0 0 0 -2.12.66 1.93 1.93 0 0 0 -.84 1.57h-1.23a2.86 2.86 0 0 1 1.23-2.29 4.78 4.78 0 0 1 3-1 4.3 4.3 0 0 1 2.92.93 3.31 3.31 0 0 1 1.11 2.59v5.25a6.67 6.67 0 0 0 .33 2.41v.12zm-3.85-.88a4.19 4.19 0 0 0 2.2-.59 3.61 3.61 0 0 0 1.41-1.59v-2.44h-2.2a5.41 5.41 0 0 0 -2.87.67 2.06 2.06 0 0 0 -.34 3.34 2.6 2.6 0 0 0 1.8.61z"/><path d="m233.37 338.51v1.9a4.32 4.32 0 0 1 1.55-1.57 4.07 4.07 0 0 1 2.07-.54 3.33 3.33 0 0 1 2.65 1 4.49 4.49 0 0 1 .88 3v7.28h-1.22v-7.29a3.29 3.29 0 0 0 -.63-2.21 2.44 2.44 0 0 0 -2-.73 3.15 3.15 0 0 0 -2 .71 4.25 4.25 0 0 0 -1.29 1.92v7.6h-1.18v-11.07z"/><path d="m251.43 346.78a1.74 1.74 0 0 0 -.74-1.46 5.63 5.63 0 0 0 -2.21-.87 10 10 0 0 1 -2.29-.72 3.05 3.05 0 0 1 -1.21-1 2.48 2.48 0 0 1 -.39-1.41 2.63 2.63 0 0 1 1.09-2.17 4.46 4.46 0 0 1 2.81-.86 4.57 4.57 0 0 1 3 .92 3 3 0 0 1 1.13 2.4h-1.23a2 2 0 0 0 -.82-1.62 3.16 3.16 0 0 0 -2.06-.65 3.21 3.21 0 0 0 -1.94.54 1.65 1.65 0 0 0 -.73 1.4 1.49 1.49 0 0 0 .61 1.28 6.23 6.23 0 0 0 2.22.84 10 10 0 0 1 2.42.81 3.17 3.17 0 0 1 1.2 1 2.69 2.69 0 0 1 .39 1.47 2.66 2.66 0 0 1 -1.14 2.25 4.82 4.82 0 0 1 -3 .84 5 5 0 0 1 -3.15-.94 2.9 2.9 0 0 1 -1.2-2.37h1.23a2.13 2.13 0 0 0 .91 1.67 3.69 3.69 0 0 0 2.21.6 3.54 3.54 0 0 0 2.07-.56 1.71 1.71 0 0 0 .82-1.39z"/><path d="m265.39 344.17a6.74 6.74 0 0 1 -1.15 4.12 3.67 3.67 0 0 1 -3.08 1.52 4.1 4.1 0 0 1 -3.48-1.6v5.66h-1.22v-15.36h1.13l.06 1.57a3.94 3.94 0 0 1 3.48-1.78 3.69 3.69 0 0 1 3.12 1.51 6.81 6.81 0 0 1 1.14 4.18zm-1.23-.22a5.64 5.64 0 0 0 -.88-3.35 2.81 2.81 0 0 0 -2.43-1.23 3.23 3.23 0 0 0 -3.17 2.12v5.32a3.23 3.23 0 0 0 1.26 1.46 3.66 3.66 0 0 0 1.94.5 2.79 2.79 0 0 0 2.41-1.23 6.22 6.22 0 0 0 .87-3.54z"/><path d="m268.48 343.89a6.44 6.44 0 0 1 .62-2.88 4.68 4.68 0 0 1 4.32-2.71 4.56 4.56 0 0 1 3.59 1.56 6 6 0 0 1 1.37 4.11v.26a6.67 6.67 0 0 1 -.62 2.9 4.57 4.57 0 0 1 -1.75 2 4.74 4.74 0 0 1 -2.57.7 4.55 4.55 0 0 1 -3.58-1.56 5.94 5.94 0 0 1 -1.38-4.11zm1.23.34a5 5 0 0 0 1 3.27 3.49 3.49 0 0 0 5.39 0 5.21 5.21 0 0 0 1-3.37v-.24a5.74 5.74 0 0 0 -.47-2.33 3.78 3.78 0 0 0 -1.32-1.63 3.37 3.37 0 0 0 -1.95-.58 3.29 3.29 0 0 0 -2.68 1.29 5.18 5.18 0 0 0 -1 3.36z"/><path d="m287.09 339.55a5.46 5.46 0 0 0 -.83-.07 3 3 0 0 0 -1.94.64 3.49 3.49 0 0 0 -1.13 1.86v7.62h-1.19v-11.09h1.2v1.76a3.25 3.25 0 0 1 3.12-2 2 2 0 0 1 .81.14z"/><path d="m292.5 335.67v2.84h2.3v1h-2.3v7.4a2.34 2.34 0 0 0 .33 1.38 1.31 1.31 0 0 0 1.12.45 7.29 7.29 0 0 0 1-.1l.05 1a3.85 3.85 0 0 1 -1.31.18 2.21 2.21 0 0 1 -1.84-.74 3.43 3.43 0 0 1 -.57-2.15v-7.41h-2v-1h2v-2.84z"/></g><g opacity=".8"><path d="m91.72 406a2.42 2.42 0 0 0 -.87-2 9.22 9.22 0 0 0 -3.19-1.37 11.38 11.38 0 0 1 -3.39-1.42 3.45 3.45 0 0 1 -.1-5.64 5.81 5.81 0 0 1 3.6-1.07 5.88 5.88 0 0 1 2.66.58 4.31 4.31 0 0 1 1.82 1.6 4.18 4.18 0 0 1 .65 2.32h-1.28a3.12 3.12 0 0 0 -1-2.46 4.07 4.07 0 0 0 -2.81-.93 4.44 4.44 0 0 0 -2.73.76 2.41 2.41 0 0 0 -1 2 2.26 2.26 0 0 0 .91 1.86 8.51 8.51 0 0 0 2.92 1.27 13.14 13.14 0 0 1 3 1.14 4.31 4.31 0 0 1 1.56 1.41 3.58 3.58 0 0 1 .53 1.95 3.39 3.39 0 0 1 -1.41 2.83 6 6 0 0 1 -3.72 1.06 7.34 7.34 0 0 1 -2.89-.56 4.4 4.4 0 0 1 -2-1.58 4 4 0 0 1 -.69-2.33h1.26a3 3 0 0 0 1.18 2.49 5 5 0 0 0 3.14.92 4.67 4.67 0 0 0 2.8-.77 2.41 2.41 0 0 0 1.05-2.06z"/><path d="m98.38 395.74v2.84h2.29v1h-2.29v7.42a2.33 2.33 0 0 0 .33 1.37 1.26 1.26 0 0 0 1.11.46 7.7 7.7 0 0 0 1-.11l.05 1a4.16 4.16 0 0 1 -1.31.17 2.18 2.18 0 0 1 -1.84-.73 3.48 3.48 0 0 1 -.57-2.16v-7.4h-2v-1h2v-2.84z"/><path d="m111.27 409.68a6.21 6.21 0 0 1 -.24-1.55 4.37 4.37 0 0 1 -1.64 1.3 5.11 5.11 0 0 1 -2.12.45 3.75 3.75 0 0 1 -2.59-.89 2.92 2.92 0 0 1 -1-2.26 3 3 0 0 1 1.35-2.56 6.47 6.47 0 0 1 3.76-.94h2.21v-1.23a2.44 2.44 0 0 0 -.73-1.88 3.05 3.05 0 0 0 -2.14-.68 3.33 3.33 0 0 0 -2.12.66 2 2 0 0 0 -.84 1.58h-1.17a2.84 2.84 0 0 1 1.23-2.29 4.71 4.71 0 0 1 3-1 4.36 4.36 0 0 1 2.93.92 3.32 3.32 0 0 1 1.1 2.59v5.25a6.59 6.59 0 0 0 .34 2.41v.13zm-3.86-.89a4.07 4.07 0 0 0 2.2-.59 3.49 3.49 0 0 0 1.41-1.59v-2.44h-2.19a5.51 5.51 0 0 0 -2.87.67 2 2 0 0 0 -1 1.79 2 2 0 0 0 .7 1.55 2.59 2.59 0 0 0 1.75.61z"/><path d="m117.68 398.58v1.81a4.12 4.12 0 0 1 1.54-1.51 4.18 4.18 0 0 1 2-.5 3.1 3.1 0 0 1 3.33 2.15 4.19 4.19 0 0 1 1.59-1.59 4.37 4.37 0 0 1 2.2-.56q3.57 0 3.64 3.89v7.41h-1.23v-7.31a3.33 3.33 0 0 0 -.64-2.21 2.61 2.61 0 0 0 -2.06-.72 3.26 3.26 0 0 0 -2.23.86 3 3 0 0 0 -1 2v7.35h-1.23v-7.41a3 3 0 0 0 -.67-2.12 2.67 2.67 0 0 0 -2-.71 3.12 3.12 0 0 0 -2 .66 4 4 0 0 0 -1.23 2v7.61h-1.19v-11.1z"/><path d="m145.15 404.24a6.74 6.74 0 0 1 -1.15 4.12 3.67 3.67 0 0 1 -3.08 1.52 4.07 4.07 0 0 1 -3.48-1.6v5.66h-1.22v-15.36h1.13l.07 1.57a3.92 3.92 0 0 1 3.47-1.77 3.68 3.68 0 0 1 3.12 1.5 6.82 6.82 0 0 1 1.14 4.19zm-1.23-.21a5.65 5.65 0 0 0 -.88-3.36 2.8 2.8 0 0 0 -2.42-1.23 3.33 3.33 0 0 0 -1.94.55 3.37 3.37 0 0 0 -1.24 1.58v5.32a3.2 3.2 0 0 0 1.26 1.45 3.56 3.56 0 0 0 1.93.51 2.8 2.8 0 0 0 2.42-1.24 6.18 6.18 0 0 0 .87-3.61z"/><path d="m155 395.38a.79.79 0 0 1 .84-.83.81.81 0 0 1 .62.24.84.84 0 0 1 .23.59.82.82 0 0 1 -.23.58.85.85 0 0 1 -.62.23.86.86 0 0 1 -.62-.23.81.81 0 0 1 -.22-.58zm1.44 14.3h-1.23v-11.1h1.23z"/><path d="m162 398.58v1.9a4.17 4.17 0 0 1 1.56-1.56 4 4 0 0 1 2.06-.54 3.31 3.31 0 0 1 2.65 1 4.52 4.52 0 0 1 .88 3v7.28h-1.15v-7.29a3.32 3.32 0 0 0 -.63-2.22 2.47 2.47 0 0 0 -2-.73 3.11 3.11 0 0 0 -2 .72 4.14 4.14 0 0 0 -1.29 1.92v7.6h-1.22v-11.1z"/><path d="m186.57 409.68a5.85 5.85 0 0 1 -.23-1.55 4.33 4.33 0 0 1 -1.65 1.3 5.11 5.11 0 0 1 -2.12.45 3.75 3.75 0 0 1 -2.57-.88 2.91 2.91 0 0 1 -1-2.26 3 3 0 0 1 1.34-2.56 6.49 6.49 0 0 1 3.76-.94h2.23v-1.24a2.45 2.45 0 0 0 -.74-1.88 3 3 0 0 0 -2.13-.68 3.34 3.34 0 0 0 -2.13.66 2 2 0 0 0 -.84 1.58h-1.23a2.84 2.84 0 0 1 1.23-2.29 4.72 4.72 0 0 1 3-1 4.35 4.35 0 0 1 2.92.92 3.33 3.33 0 0 1 1.11 2.59v5.25a6.63 6.63 0 0 0 .33 2.41v.13zm-3.85-.89a4.1 4.1 0 0 0 2.2-.59 3.61 3.61 0 0 0 1.41-1.59v-2.44h-2.2a5.51 5.51 0 0 0 -2.87.67 2 2 0 0 0 -1 1.79 2 2 0 0 0 .69 1.55 2.6 2.6 0 0 0 1.77.61z"/><path d="m193.78 395.74v2.84h2.29v1h-2.29v7.42a2.33 2.33 0 0 0 .33 1.37 1.26 1.26 0 0 0 1.11.46 7.42 7.42 0 0 0 1-.11l.06 1a4.18 4.18 0 0 1 -1.32.17 2.17 2.17 0 0 1 -1.83-.73 3.48 3.48 0 0 1 -.58-2.16v-7.4h-2v-1h2v-2.84z"/><path d="m208.48 407.12.18 1 .25-1 2.66-8.49h1.05l2.63 8.42.29 1.17.24-1.08 2.27-8.51h1.28l-3.23 11.1h-1l-2.85-8.8-.13-.61-.14.62-2.8 8.79h-1l-3.22-11.1h1.26z"/><path d="m222 404a6.47 6.47 0 0 1 .62-2.88 4.65 4.65 0 0 1 4.32-2.7 4.55 4.55 0 0 1 3.59 1.55 6 6 0 0 1 1.37 4.12v.25a6.64 6.64 0 0 1 -.62 2.9 4.57 4.57 0 0 1 -1.75 2 4.74 4.74 0 0 1 -2.57.7 4.56 4.56 0 0 1 -3.58-1.55 6 6 0 0 1 -1.38-4.12zm1.23.34a5 5 0 0 0 1 3.27 3.48 3.48 0 0 0 5.39 0 5.18 5.18 0 0 0 1-3.37v-.24a5.69 5.69 0 0 0 -.47-2.32 3.81 3.81 0 0 0 -1.32-1.64 3.44 3.44 0 0 0 -1.95-.58 3.29 3.29 0 0 0 -2.68 1.29 5.21 5.21 0 0 0 -1 3.37z"/><path d="m240.64 399.63a4.35 4.35 0 0 0 -.83-.07 3 3 0 0 0 -1.94.64 3.49 3.49 0 0 0 -1.14 1.86v7.62h-1.22v-11.1h1.2v1.77a3.26 3.26 0 0 1 3.13-2 2 2 0 0 1 .81.13z"/><path d="m246.26 404.09-1.4 1.35v4.24h-1.23v-15.75h1.23v10.07l1.16-1.26 4.24-4.17h1.55l-4.7 4.68 5.11 6.42h-1.46z"/></g><g opacity=".8"><path d="m91.72 466a2.42 2.42 0 0 0 -.87-2 9.22 9.22 0 0 0 -3.19-1.37 11.38 11.38 0 0 1 -3.39-1.42 3.45 3.45 0 0 1 -.1-5.64 5.81 5.81 0 0 1 3.6-1.07 5.88 5.88 0 0 1 2.66.58 4.31 4.31 0 0 1 1.82 1.6 4.18 4.18 0 0 1 .65 2.32h-1.28a3.12 3.12 0 0 0 -1-2.46 4.07 4.07 0 0 0 -2.81-.93 4.44 4.44 0 0 0 -2.73.76 2.41 2.41 0 0 0 -1 2 2.26 2.26 0 0 0 .91 1.86 8.51 8.51 0 0 0 2.92 1.27 13.14 13.14 0 0 1 3 1.14 4.31 4.31 0 0 1 1.56 1.41 3.58 3.58 0 0 1 .53 1.95 3.39 3.39 0 0 1 -1.41 2.83 6 6 0 0 1 -3.72 1.06 7.34 7.34 0 0 1 -2.89-.56 4.4 4.4 0 0 1 -2-1.58 4 4 0 0 1 -.69-2.33h1.26a3 3 0 0 0 1.18 2.49 5 5 0 0 0 3.14.92 4.67 4.67 0 0 0 2.8-.77 2.41 2.41 0 0 0 1.05-2.06z"/><path d="m100.57 468.85a3.2 3.2 0 0 0 2.15-.73 2.53 2.53 0 0 0 .94-1.87h1.18a3.49 3.49 0 0 1 -.64 1.85 4 4 0 0 1 -1.55 1.31 4.76 4.76 0 0 1 -2.08.47 4.27 4.27 0 0 1 -3.46-1.52 6.13 6.13 0 0 1 -1.28-4.08v-.37a7 7 0 0 1 .58-2.9 4.44 4.44 0 0 1 1.64-1.95 4.62 4.62 0 0 1 2.51-.68 4.29 4.29 0 0 1 3 1.08 4 4 0 0 1 1.27 2.86h-1.18a3.2 3.2 0 0 0 -5.68-1.7 5.45 5.45 0 0 0 -.92 3.37v.35a5.35 5.35 0 0 0 .92 3.32 3.09 3.09 0 0 0 2.6 1.19z"/><path d="m109.56 460.46a4.24 4.24 0 0 1 1.55-1.54 4 4 0 0 1 2.06-.54 3.31 3.31 0 0 1 2.65 1 4.57 4.57 0 0 1 .89 3v7.28h-1.23v-7.29a3.32 3.32 0 0 0 -.63-2.22 2.47 2.47 0 0 0 -2-.73 3.06 3.06 0 0 0 -2 .72 4.09 4.09 0 0 0 -1.3 1.92v7.6h-1.22v-15.73h1.22z"/><path d="m125.21 469.88a4.78 4.78 0 0 1 -2.56-.7 4.71 4.71 0 0 1 -1.78-1.94 6.09 6.09 0 0 1 -.63-2.79v-.45a6.48 6.48 0 0 1 .62-2.89 5 5 0 0 1 1.72-2 4.26 4.26 0 0 1 2.4-.73 4 4 0 0 1 3.21 1.38 5.57 5.57 0 0 1 1.18 3.76v.69h-7.91v.24a4.64 4.64 0 0 0 1.08 3.14 3.44 3.44 0 0 0 2.72 1.26 4 4 0 0 0 1.74-.36 3.85 3.85 0 0 0 1.37-1.15l.77.58a4.49 4.49 0 0 1 -3.93 1.96zm-.21-10.46a3.06 3.06 0 0 0 -2.33 1 4.62 4.62 0 0 0 -1.15 2.73h6.65v-.15a4.07 4.07 0 0 0 -.91-2.6 2.83 2.83 0 0 0 -2.26-.98z"/><path d="m132.32 464a6.67 6.67 0 0 1 1.15-4.12 3.73 3.73 0 0 1 3.14-1.53 3.86 3.86 0 0 1 3.42 1.77v-6.22h1.22v15.75h-1.15v-1.48a4 4 0 0 1 -3.47 1.68 3.71 3.71 0 0 1 -3.09-1.54 6.75 6.75 0 0 1 -1.17-4.17zm1.24.21a5.77 5.77 0 0 0 .85 3.35 2.76 2.76 0 0 0 2.4 1.23 3.31 3.31 0 0 0 3.22-2v-5.21a3.28 3.28 0 0 0 -3.2-2.17 2.8 2.8 0 0 0 -2.41 1.22 6.2 6.2 0 0 0 -.86 3.61z"/><path d="m152.67 468.27a4 4 0 0 1 -3.54 1.61 3.44 3.44 0 0 1 -2.7-1 4.52 4.52 0 0 1 -.94-3.05v-7.22h1.22v7.07c0 2.11.85 3.17 2.56 3.17a3.16 3.16 0 0 0 3.38-2.21v-8h1.23v11.1h-1.19z"/><path d="m159.49 469.68h-1.23v-15.75h1.23z"/><path d="m168.17 469.88a4.77 4.77 0 0 1 -4.34-2.64 6.09 6.09 0 0 1 -.63-2.79v-.45a6.48 6.48 0 0 1 .62-2.89 5 5 0 0 1 1.72-2 4.26 4.26 0 0 1 2.4-.73 4 4 0 0 1 3.21 1.38 5.57 5.57 0 0 1 1.18 3.76v.69h-7.91v.24a4.64 4.64 0 0 0 1.08 3.14 3.44 3.44 0 0 0 2.72 1.26 4 4 0 0 0 1.74-.36 3.85 3.85 0 0 0 1.37-1.15l.77.58a4.49 4.49 0 0 1 -3.93 1.96zm-.23-10.46a3.06 3.06 0 0 0 -2.33 1 4.62 4.62 0 0 0 -1.15 2.73h6.65v-.15a4.07 4.07 0 0 0 -.91-2.6 2.85 2.85 0 0 0 -2.26-.98z"/><path d="m183 458.58.05 1.81a4.09 4.09 0 0 1 1.53-1.51 4.19 4.19 0 0 1 2.06-.5 3.1 3.1 0 0 1 3.33 2.15 4.05 4.05 0 0 1 1.59-1.59 4.3 4.3 0 0 1 2.19-.56q3.57 0 3.64 3.89v7.41h-1.19v-7.31a3.33 3.33 0 0 0 -.64-2.21 2.6 2.6 0 0 0 -2.06-.72 3.28 3.28 0 0 0 -2.23.86 3 3 0 0 0 -1 2v7.35h-1.27v-7.41a3 3 0 0 0 -.67-2.12 2.66 2.66 0 0 0 -2-.71 3.08 3.08 0 0 0 -2 .66 3.84 3.84 0 0 0 -1.23 2v7.61h-1.23v-11.1z"/><path d="m205.88 469.88a4.75 4.75 0 0 1 -2.55-.7 4.64 4.64 0 0 1 -1.78-1.94 6 6 0 0 1 -.64-2.79v-.45a6.62 6.62 0 0 1 .62-2.89 5 5 0 0 1 1.73-2 4.26 4.26 0 0 1 2.4-.73 4 4 0 0 1 3.2 1.38 5.58 5.58 0 0 1 1.19 3.76v.69h-7.92v.24a4.64 4.64 0 0 0 1.08 3.14 3.44 3.44 0 0 0 2.73 1.26 4 4 0 0 0 1.73-.36 3.77 3.77 0 0 0 1.37-1.15l.77.58a4.47 4.47 0 0 1 -3.93 1.96zm-.22-10.46a3.06 3.06 0 0 0 -2.33 1 4.63 4.63 0 0 0 -1.16 2.73h6.66v-.15a4.13 4.13 0 0 0 -.91-2.6 2.85 2.85 0 0 0 -2.26-.98z"/><path d="m217.78 469.88a4.81 4.81 0 0 1 -2.56-.7 4.69 4.69 0 0 1 -1.77-1.94 6 6 0 0 1 -.64-2.79v-.45a6.62 6.62 0 0 1 .62-2.89 4.92 4.92 0 0 1 1.73-2 4.26 4.26 0 0 1 2.4-.73 4 4 0 0 1 3.2 1.38 5.58 5.58 0 0 1 1.19 3.76v.69h-7.95v.24a4.64 4.64 0 0 0 1.08 3.14 3.44 3.44 0 0 0 2.72 1.26 4 4 0 0 0 1.74-.36 3.85 3.85 0 0 0 1.37-1.15l.77.58a4.47 4.47 0 0 1 -3.9 1.96zm-.22-10.46a3.08 3.08 0 0 0 -2.34 1 4.69 4.69 0 0 0 -1.15 2.73h6.66v-.15a4.08 4.08 0 0 0 -.92-2.6 2.81 2.81 0 0 0 -2.25-.98z"/><path d="m227.29 455.74v2.84h2.3v1h-2.3v7.42a2.25 2.25 0 0 0 .34 1.37 1.26 1.26 0 0 0 1.11.46 7.6 7.6 0 0 0 1-.11l.06 1a4.23 4.23 0 0 1 -1.32.17 2.17 2.17 0 0 1 -1.83-.73 3.41 3.41 0 0 1 -.58-2.16v-7.4h-2v-1h2v-2.84z"/><path d="m233.11 455.38a.84.84 0 0 1 .23-.59.79.79 0 0 1 .61-.24.81.81 0 0 1 .62.24.8.8 0 0 1 .23.59.78.78 0 0 1 -.23.58.85.85 0 0 1 -.62.23.79.79 0 0 1 -.84-.81zm1.45 14.3h-1.23v-11.1h1.23z"/><path d="m240.11 458.58v1.9a4.32 4.32 0 0 1 1.56-1.56 4 4 0 0 1 2.06-.54 3.31 3.31 0 0 1 2.65 1 4.52 4.52 0 0 1 .89 3v7.28h-1.22v-7.29a3.44 3.44 0 0 0 -.63-2.22 2.51 2.51 0 0 0 -2-.73 3.06 3.06 0 0 0 -2 .72 4.09 4.09 0 0 0 -1.3 1.92v7.6h-1.22v-11.1z"/><path d="m251 464a6.68 6.68 0 0 1 1.16-4.13 3.7 3.7 0 0 1 3.13-1.52 3.85 3.85 0 0 1 3.44 1.8l.07-1.6h1.2v10.87a4.68 4.68 0 0 1 -1.2 3.39 4.27 4.27 0 0 1 -3.25 1.26 5 5 0 0 1 -2.21-.52 4.33 4.33 0 0 1 -1.65-1.38l.69-.74a3.86 3.86 0 0 0 3.09 1.6 3.12 3.12 0 0 0 2.4-.91 3.56 3.56 0 0 0 .89-2.51v-1.4a4 4 0 0 1 -3.43 1.64 3.69 3.69 0 0 1 -3.1-1.54 6.68 6.68 0 0 1 -1.17-4.15zm1.24.21a5.85 5.85 0 0 0 .85 3.35 2.76 2.76 0 0 0 2.4 1.23 3.28 3.28 0 0 0 3.21-2v-5.16a3.51 3.51 0 0 0 -1.24-1.63 3.37 3.37 0 0 0 -2-.56 2.8 2.8 0 0 0 -2.41 1.22 6.2 6.2 0 0 0 -.78 3.58z"/></g><g opacity=".8"><path d="m84.94 514.75 5.51 13.17 5.55-13.17h1.68v14.93h-1.29v-6.5l.11-6.67-5.56 13.17h-.94l-5.53-13.12.1 6.57v6.55h-1.3v-14.93z"/><path d="m109.21 529.68a5.4 5.4 0 0 1 -.24-1.55 4.33 4.33 0 0 1 -1.65 1.3 5.06 5.06 0 0 1 -2.11.45 3.74 3.74 0 0 1 -2.59-.89 2.92 2.92 0 0 1 -1-2.26 3 3 0 0 1 1.35-2.56 6.44 6.44 0 0 1 3.75-.94h2.28v-1.23a2.48 2.48 0 0 0 -.73-1.88 3.07 3.07 0 0 0 -2.14-.68 3.36 3.36 0 0 0 -2.13.66 2 2 0 0 0 -.84 1.58h-1.23a2.84 2.84 0 0 1 1.23-2.29 4.72 4.72 0 0 1 3-1 4.38 4.38 0 0 1 2.93.92 3.36 3.36 0 0 1 1.1 2.59v5.25a6.38 6.38 0 0 0 .34 2.41v.13zm-3.86-.89a4.1 4.1 0 0 0 2.2-.59 3.61 3.61 0 0 0 1.41-1.59v-2.44h-2.2a5.51 5.51 0 0 0 -2.87.67 2 2 0 0 0 -1 1.79 2 2 0 0 0 .69 1.55 2.6 2.6 0 0 0 1.77.61z"/><path d="m117.13 524.09-1.4 1.35v4.24h-1.23v-15.75h1.23v10.07l1.16-1.26 4.24-4.17h1.55l-4.7 4.68 5.11 6.42h-1.46z"/><path d="m129.93 529.88a4.76 4.76 0 0 1 -2.56-.7 4.71 4.71 0 0 1 -1.78-1.94 6 6 0 0 1 -.64-2.79v-.45a6.62 6.62 0 0 1 .62-2.89 5 5 0 0 1 1.73-2 4.26 4.26 0 0 1 2.4-.73 4 4 0 0 1 3.2 1.38 5.58 5.58 0 0 1 1.19 3.76v.69h-7.92v.24a4.64 4.64 0 0 0 1.08 3.14 3.46 3.46 0 0 0 2.73 1.26 4 4 0 0 0 1.73-.36 3.77 3.77 0 0 0 1.37-1.15l.77.58a4.46 4.46 0 0 1 -3.92 1.96zm-.23-10.46a3.06 3.06 0 0 0 -2.33 1 4.63 4.63 0 0 0 -1.16 2.73h6.66v-.15a4.13 4.13 0 0 0 -.91-2.6 2.85 2.85 0 0 0 -2.26-.98z"/><path d="m147.79 528.85a3.18 3.18 0 0 0 2.14-.73 2.53 2.53 0 0 0 .94-1.87h1.18a3.4 3.4 0 0 1 -.63 1.85 3.92 3.92 0 0 1 -1.56 1.31 4.72 4.72 0 0 1 -2.07.47 4.26 4.26 0 0 1 -3.46-1.52 6.08 6.08 0 0 1 -1.28-4.08v-.37a7 7 0 0 1 .57-2.9 4.46 4.46 0 0 1 1.65-2 4.6 4.6 0 0 1 2.51-.68 4.31 4.31 0 0 1 3 1.08 4 4 0 0 1 1.26 2.86h-1.18a3.19 3.19 0 0 0 -5.67-1.7 5.38 5.38 0 0 0 -.92 3.37v.35a5.28 5.28 0 0 0 .92 3.32 3.08 3.08 0 0 0 2.6 1.24z"/><path d="m154.88 524a6.47 6.47 0 0 1 .62-2.88 4.65 4.65 0 0 1 4.32-2.7 4.56 4.56 0 0 1 3.59 1.55 6 6 0 0 1 1.37 4.12v.25a6.64 6.64 0 0 1 -.62 2.9 4.57 4.57 0 0 1 -1.75 2 4.74 4.74 0 0 1 -2.57.7 4.6 4.6 0 0 1 -3.59-1.55 6 6 0 0 1 -1.37-4.12zm1.23.34a5 5 0 0 0 1 3.27 3.48 3.48 0 0 0 5.39 0 5.18 5.18 0 0 0 1-3.37v-.24a5.69 5.69 0 0 0 -.47-2.32 3.88 3.88 0 0 0 -1.32-1.64 3.44 3.44 0 0 0 -2-.58 3.27 3.27 0 0 0 -2.68 1.29 5.21 5.21 0 0 0 -1 3.37z"/><path d="m169.25 529.68v-10.09h-1.84v-1h1.84v-1.34a3.65 3.65 0 0 1 .86-2.62 3.2 3.2 0 0 1 2.42-.91 4.92 4.92 0 0 1 1.3.17l-.09 1a5 5 0 0 0 -1.12-.12 2 2 0 0 0 -1.58.63 2.58 2.58 0 0 0 -.56 1.79v1.38h2.64v1h-2.64v10.09z"/><path d="m177.25 529.68v-10.09h-1.84v-1h1.84v-1.34a3.69 3.69 0 0 1 .86-2.62 3.22 3.22 0 0 1 2.42-.91 4.92 4.92 0 0 1 1.3.17l-.09 1a4.93 4.93 0 0 0 -1.12-.12 2 2 0 0 0 -1.58.63 2.63 2.63 0 0 0 -.56 1.79v1.38h2.64v1h-2.64v10.09z"/><path d="m188.42 529.88a4.76 4.76 0 0 1 -2.56-.7 4.71 4.71 0 0 1 -1.78-1.94 6.09 6.09 0 0 1 -.63-2.79v-.45a6.48 6.48 0 0 1 .62-2.89 4.9 4.9 0 0 1 1.72-2 4.26 4.26 0 0 1 2.4-.73 4 4 0 0 1 3.21 1.38 5.57 5.57 0 0 1 1.18 3.76v.69h-7.91v.24a4.64 4.64 0 0 0 1.08 3.14 3.44 3.44 0 0 0 2.72 1.26 4 4 0 0 0 1.74-.36 3.85 3.85 0 0 0 1.37-1.15l.77.58a4.49 4.49 0 0 1 -3.93 1.96zm-.23-10.46a3.06 3.06 0 0 0 -2.33 1 4.62 4.62 0 0 0 -1.15 2.73h6.65v-.15a4.07 4.07 0 0 0 -.91-2.6 2.83 2.83 0 0 0 -2.26-.98z"/><path d="m200.32 529.88a4.76 4.76 0 0 1 -2.56-.7 4.71 4.71 0 0 1 -1.78-1.94 6.1 6.1 0 0 1 -.64-2.79v-.45a6.62 6.62 0 0 1 .62-2.89 5 5 0 0 1 1.73-2 4.26 4.26 0 0 1 2.4-.73 4 4 0 0 1 3.21 1.38 5.63 5.63 0 0 1 1.18 3.76v.69h-7.92v.24a4.6 4.6 0 0 0 1.09 3.14 3.42 3.42 0 0 0 2.72 1.26 4 4 0 0 0 1.74-.36 3.83 3.83 0 0 0 1.36-1.15l.77.58a4.46 4.46 0 0 1 -3.92 1.96zm-.23-10.46a3.06 3.06 0 0 0 -2.33 1 4.62 4.62 0 0 0 -1.15 2.73h6.65v-.15a4.07 4.07 0 0 0 -.91-2.6 2.85 2.85 0 0 0 -2.26-.98z"/></g><g opacity=".8"><path d="m91.49 584.69h-7v7h-1.22v-14.94h9.25v1.06h-8v5.82h7z"/><path d="m95.77 577.38a.84.84 0 0 1 .23-.59.79.79 0 0 1 .61-.24.81.81 0 0 1 .62.24.8.8 0 0 1 .23.59.78.78 0 0 1 -.23.58.85.85 0 0 1 -.62.23.79.79 0 0 1 -.84-.81zm1.45 14.3h-1.22v-11.1h1.23z"/><path d="m103 591.68h-1.23v-15.75h1.23z"/><path d="m108.73 591.68h-1.23v-15.75h1.23z"/><path d="m119.2 577.38a.83.83 0 0 1 .22-.59.92.92 0 0 1 1.24 0 .84.84 0 0 1 .23.59.82.82 0 0 1 -.23.58 1 1 0 0 1 -1.24 0 .81.81 0 0 1 -.22-.58zm1.44 14.3h-1.23v-11.1h1.23z"/><path d="m126.2 580.58v1.9a4.22 4.22 0 0 1 1.55-1.56 4.07 4.07 0 0 1 2.07-.54 3.32 3.32 0 0 1 2.65 1 4.52 4.52 0 0 1 .88 3v7.28h-1.22v-7.29a3.32 3.32 0 0 0 -.63-2.22 2.47 2.47 0 0 0 -2-.73 3.11 3.11 0 0 0 -2 .72 4.14 4.14 0 0 0 -1.29 1.92v7.6h-1.21v-11.1z"/><path d="m144.65 591.68v-10.09h-1.84v-1h1.84v-1.34a3.65 3.65 0 0 1 .87-2.62 3.18 3.18 0 0 1 2.41-.91 4.87 4.87 0 0 1 1.3.17l-.09 1a4.87 4.87 0 0 0 -1.12-.12 2 2 0 0 0 -1.57.63 2.58 2.58 0 0 0 -.57 1.79v1.38h2.65v1h-2.65v10.09z"/><path d="m151.09 586a6.61 6.61 0 0 1 .62-2.88 4.74 4.74 0 0 1 1.76-2 4.66 4.66 0 0 1 2.57-.71 4.53 4.53 0 0 1 3.58 1.55 6 6 0 0 1 1.38 4.12v.25a6.64 6.64 0 0 1 -.62 2.9 4.64 4.64 0 0 1 -1.75 2 4.74 4.74 0 0 1 -2.57.7 4.6 4.6 0 0 1 -3.59-1.55 6 6 0 0 1 -1.38-4.12zm1.23.34a5 5 0 0 0 1 3.27 3.48 3.48 0 0 0 5.39 0 5.18 5.18 0 0 0 1-3.37v-.24a5.69 5.69 0 0 0 -.47-2.32 3.83 3.83 0 0 0 -1.24-1.68 3.39 3.39 0 0 0 -1.94-.58 3.27 3.27 0 0 0 -2.68 1.29 5.22 5.22 0 0 0 -1 3.37z"/><path d="m169.71 581.63a4.43 4.43 0 0 0 -.83-.07 3 3 0 0 0 -1.94.64 3.49 3.49 0 0 0 -1.14 1.86v7.62h-1.22v-11.1h1.2v1.77a3.25 3.25 0 0 1 3.13-2 2 2 0 0 1 .81.13z"/><path d="m173.81 580.58.05 1.81a4.09 4.09 0 0 1 1.53-1.51 4.18 4.18 0 0 1 2.05-.5 3.12 3.12 0 0 1 3.34 2.15 4.05 4.05 0 0 1 1.59-1.59 4.3 4.3 0 0 1 2.19-.56q3.57 0 3.64 3.89v7.41h-1.2v-7.31a3.33 3.33 0 0 0 -.64-2.21 2.61 2.61 0 0 0 -2.06-.72 3.28 3.28 0 0 0 -2.23.86 3 3 0 0 0 -1 2v7.35h-1.23v-7.41a3 3 0 0 0 -.67-2.12 2.66 2.66 0 0 0 -2-.71 3.08 3.08 0 0 0 -2 .66 3.84 3.84 0 0 0 -1.23 2v7.61h-1.24v-11.1z"/><path d="m199 588.86a1.75 1.75 0 0 0 -.73-1.47 5.7 5.7 0 0 0 -2.21-.87 9.6 9.6 0 0 1 -2.29-.71 3 3 0 0 1 -1.21-1 2.42 2.42 0 0 1 -.4-1.42 2.65 2.65 0 0 1 1.1-2.17 4.44 4.44 0 0 1 2.81-.85 4.57 4.57 0 0 1 3 .91 3 3 0 0 1 1.12 2.4h-1.23a2 2 0 0 0 -.82-1.62 3.65 3.65 0 0 0 -4-.11 1.67 1.67 0 0 0 -.74 1.4 1.55 1.55 0 0 0 .61 1.29 6.53 6.53 0 0 0 2.23.83 11.39 11.39 0 0 1 2.42.81 3.15 3.15 0 0 1 1.19 1 2.85 2.85 0 0 1 -.74 3.71 4.85 4.85 0 0 1 -3 .84 4.93 4.93 0 0 1 -3.14-.94 2.88 2.88 0 0 1 -1.21-2.37h1.24a2.17 2.17 0 0 0 .91 1.68 3.73 3.73 0 0 0 2.21.6 3.43 3.43 0 0 0 2.07-.57 1.67 1.67 0 0 0 .81-1.37z"/></g><g opacity=".8"><path d="m93.84 645a5.32 5.32 0 0 1 -1.69 3.61 5.59 5.59 0 0 1 -3.81 1.25 5.28 5.28 0 0 1 -2.93-.83 5.47 5.47 0 0 1 -2-2.35 8.54 8.54 0 0 1 -.71-3.48v-1.94a8.55 8.55 0 0 1 .7-3.53 5.77 5.77 0 0 1 8.81-1.92 5.47 5.47 0 0 1 1.61 3.58h-1.25c-.32-2.53-1.69-3.8-4.13-3.8a3.89 3.89 0 0 0 -3.24 1.52 6.59 6.59 0 0 0 -1.2 4.19v1.83a6.66 6.66 0 0 0 1.17 4.13 3.79 3.79 0 0 0 3.17 1.54 4.22 4.22 0 0 0 3-1 4.58 4.58 0 0 0 1.23-2.8z"/><path d="m99 649.68h-1.19v-15.75h1.19z"/><path d="m107.72 649.88a4.77 4.77 0 0 1 -4.34-2.64 6.09 6.09 0 0 1 -.63-2.79v-.45a6.62 6.62 0 0 1 .62-2.89 4.92 4.92 0 0 1 1.73-2 4.24 4.24 0 0 1 2.4-.73 4 4 0 0 1 3.2 1.38 5.57 5.57 0 0 1 1.18 3.76v.69h-7.88v.24a4.64 4.64 0 0 0 1.08 3.14 3.44 3.44 0 0 0 2.72 1.26 4 4 0 0 0 1.74-.36 3.85 3.85 0 0 0 1.37-1.15l.77.58a4.47 4.47 0 0 1 -3.96 1.96zm-.22-10.46a3.08 3.08 0 0 0 -2.34 1 4.69 4.69 0 0 0 -1.15 2.73h6.66v-.15a4.08 4.08 0 0 0 -.92-2.6 2.81 2.81 0 0 0 -2.25-.98z"/><path d="m122.33 649.68a6.21 6.21 0 0 1 -.24-1.55 4.37 4.37 0 0 1 -1.64 1.3 5.14 5.14 0 0 1 -2.12.45 3.74 3.74 0 0 1 -2.59-.89 2.92 2.92 0 0 1 -1-2.26 3 3 0 0 1 1.35-2.56 6.47 6.47 0 0 1 3.76-.94h2.22v-1.23a2.44 2.44 0 0 0 -.73-1.88 3.05 3.05 0 0 0 -2.14-.68 3.33 3.33 0 0 0 -2.12.66 2 2 0 0 0 -.84 1.58h-1.24a2.84 2.84 0 0 1 1.23-2.29 4.71 4.71 0 0 1 3-1 4.38 4.38 0 0 1 2.93.92 3.36 3.36 0 0 1 1.1 2.59v5.25a6.38 6.38 0 0 0 .34 2.41v.13zm-3.86-.89a4.07 4.07 0 0 0 2.2-.59 3.49 3.49 0 0 0 1.41-1.59v-2.44h-2.19a5.48 5.48 0 0 0 -2.87.67 2 2 0 0 0 -1 1.79 2 2 0 0 0 .69 1.55 2.6 2.6 0 0 0 1.76.61z"/><path d="m128.79 638.58v1.9a4.32 4.32 0 0 1 1.56-1.56 4 4 0 0 1 2.06-.54 3.33 3.33 0 0 1 2.66 1 4.57 4.57 0 0 1 .88 3v7.28h-1.22v-7.29a3.44 3.44 0 0 0 -.63-2.22 2.49 2.49 0 0 0 -2-.73 3.09 3.09 0 0 0 -2 .72 4.16 4.16 0 0 0 -1.3 1.92v7.6h-1.22v-11.1z"/><path d="m149.88 647.91 3.24-9.33h1.33l-4.74 13-.25.58a3 3 0 0 1 -2.82 2 3.28 3.28 0 0 1 -.94-.15v-1l.63.06a2.28 2.28 0 0 0 1.47-.45 3.32 3.32 0 0 0 .94-1.53l.55-1.5-4.19-11h1.35z"/><path d="m156.56 644a6.61 6.61 0 0 1 .62-2.88 4.74 4.74 0 0 1 1.76-2 4.65 4.65 0 0 1 2.56-.71 4.54 4.54 0 0 1 3.59 1.55 6 6 0 0 1 1.38 4.12v.25a6.64 6.64 0 0 1 -.62 2.9 4.64 4.64 0 0 1 -1.75 2 4.75 4.75 0 0 1 -2.58.7 4.58 4.58 0 0 1 -3.58-1.55 6 6 0 0 1 -1.38-4.12zm1.23.34a5.08 5.08 0 0 0 1 3.27 3.49 3.49 0 0 0 5.4 0 5.23 5.23 0 0 0 1-3.37v-.24a5.69 5.69 0 0 0 -.47-2.32 3.83 3.83 0 0 0 -1.33-1.64 3.42 3.42 0 0 0 -1.95-.58 3.27 3.27 0 0 0 -2.67 1.29 5.22 5.22 0 0 0 -1 3.37z"/><path d="m177.19 648.27a4 4 0 0 1 -3.54 1.61 3.44 3.44 0 0 1 -2.7-1 4.52 4.52 0 0 1 -.94-3.05v-7.22h1.22v7.07c0 2.11.85 3.17 2.56 3.17a3.16 3.16 0 0 0 3.38-2.21v-8h1.23v11.1h-1.19z"/><path d="m187.76 639.63a4.35 4.35 0 0 0 -.83-.07 3 3 0 0 0 -1.94.64 3.42 3.42 0 0 0 -1.13 1.86v7.62h-1.23v-11.1h1.2v1.77a3.24 3.24 0 0 1 3.12-2 2 2 0 0 1 .81.13z"/><path d="m196.41 644a6.67 6.67 0 0 1 1.16-4.12 3.71 3.71 0 0 1 3.13-1.53 3.84 3.84 0 0 1 3.42 1.77v-6.22h1.23v15.75h-1.15v-1.48a4 4 0 0 1 -3.47 1.68 3.69 3.69 0 0 1 -3.09-1.54 6.68 6.68 0 0 1 -1.18-4.17zm1.24.21a5.77 5.77 0 0 0 .86 3.35 2.73 2.73 0 0 0 2.4 1.23 3.29 3.29 0 0 0 3.21-2v-5.21a3.26 3.26 0 0 0 -3.19-2.17 2.78 2.78 0 0 0 -2.41 1.22 6.12 6.12 0 0 0 -.87 3.61z"/><path d="m213.92 649.88a4.77 4.77 0 0 1 -4.34-2.64 6.09 6.09 0 0 1 -.63-2.79v-.45a6.62 6.62 0 0 1 .62-2.89 4.92 4.92 0 0 1 1.73-2 4.24 4.24 0 0 1 2.4-.73 4 4 0 0 1 3.2 1.38 5.57 5.57 0 0 1 1.18 3.76v.69h-7.91v.24a4.64 4.64 0 0 0 1.08 3.14 3.44 3.44 0 0 0 2.72 1.26 4 4 0 0 0 1.74-.36 3.85 3.85 0 0 0 1.37-1.15l.77.58a4.47 4.47 0 0 1 -3.93 1.96zm-.22-10.46a3.08 3.08 0 0 0 -2.34 1 4.69 4.69 0 0 0 -1.15 2.73h6.66v-.15a4.08 4.08 0 0 0 -.92-2.6 2.81 2.81 0 0 0 -2.25-.98z"/><path d="m228.17 646.86a1.77 1.77 0 0 0 -.73-1.47 5.7 5.7 0 0 0 -2.21-.87 9.71 9.71 0 0 1 -2.3-.71 3.13 3.13 0 0 1 -1.21-1 2.49 2.49 0 0 1 -.39-1.42 2.65 2.65 0 0 1 1.1-2.17 4.42 4.42 0 0 1 2.81-.85 4.54 4.54 0 0 1 3 .91 3 3 0 0 1 1.13 2.4h-1.23a2 2 0 0 0 -.82-1.62 3.67 3.67 0 0 0 -4-.11 1.66 1.66 0 0 0 -.73 1.4 1.52 1.52 0 0 0 .61 1.29 6.55 6.55 0 0 0 2.22.83 11 11 0 0 1 2.42.81 3.19 3.19 0 0 1 1.2 1 2.63 2.63 0 0 1 .39 1.46 2.67 2.67 0 0 1 -1.13 2.25 4.87 4.87 0 0 1 -3 .84 5 5 0 0 1 -3.15-.94 2.87 2.87 0 0 1 -1.2-2.37h1.23a2.14 2.14 0 0 0 .91 1.68 3.69 3.69 0 0 0 2.21.6 3.47 3.47 0 0 0 2.07-.57 1.67 1.67 0 0 0 .8-1.37z"/><path d="m235.84 644.09-1.4 1.35v4.24h-1.23v-15.75h1.23v10.07l1.16-1.26 4.24-4.17h1.55l-4.71 4.68 5.12 6.42h-1.47z"/></g><circle cx="44.75" cy="222" opacity=".8" r="18"/><circle cx="44.75" cy="281.5" opacity=".8" r="18"/><circle cx="44.75" cy="341.5" opacity=".8" r="18"/><circle cx="44.75" cy="402" opacity=".8" r="18"/><circle cx="44.75" cy="461.5" opacity=".8" r="18"/><circle cx="44.75" cy="521.5" opacity=".8" r="18"/><circle cx="44.75" cy="581.5" opacity=".8" r="18"/><circle cx="44.75" cy="642" opacity=".8" r="18"/><g opacity=".8" stroke="#fff" stroke-miterlimit="10" stroke-width=".75"><path d="m83.12 251.99h280.13"/><path d="m83.12 312.99h280.13"/><path d="m83.12 375.99h280.13"/><path d="m83.12 431.99h280.13"/><path d="m83.12 491.99h280.13"/><path d="m83.12 551.99h280.13"/><path d="m83.12 615.99h280.13"/></g><g opacity=".8"><rect height="14.1" rx="1.45" width="4.7" x="315.48" y="36.67"/><rect height="14.1" rx="1.45" width="4.7" x="322.53" y="36.67"/><rect height="14.1" rx="1.45" width="4.7" x="329.59" y="36.67"/><rect height="14.1" rx="1.45" width="4.7" x="336.64" y="36.67"/><rect height="14.1" rx="1.45" width="4.7" x="343.69" y="36.67"/><path d="m346.77 34a4.43 4.43 0 0 1 4.42 4.43v10.57a4.42 4.42 0 0 1 -4.42 4.42h-29.67a4.42 4.42 0 0 1 -4.42-4.42v-10.58a4.43 4.43 0 0 1 4.42-4.42zm0-1.68h-29.67a6.11 6.11 0 0 0 -6.1 6.11v10.57a6.1 6.1 0 0 0 6.1 6.1h29.67a6.1 6.1 0 0 0 6.1-6.1v-10.58a6.11 6.11 0 0 0 -6.1-6.11z"/><path d="m355.65 39v9.4a2.35 2.35 0 0 0 2.35-2.33v-4.7a2.35 2.35 0 0 0 -2.35-2.37z"/></g><g opacity=".8"><path d="m59.8 32.22h6.11v23h-6.11z"/><path d="m49.91 37.53h6.23v17.69h-6.23z"/><path d="m39.9 42.84h6.34v12.38h-6.34z"/><path d="m29.79 48.15h6.45v7.08h-6.45z"/></g><path d="m41.41 123.35 17.35-17.35.83.84-16.51 16.51 16.51 16.52-.83.84z" opacity=".8"/><g opacity=".8"><path d="m163.51 137.09h-2.46l-16.76-24.94v24.94h-2.48v-29.09h2.48l16.78 25v-25h2.44z"/><path d="m170.68 125.94a12.7 12.7 0 0 1 1.21-5.62 9.08 9.08 0 0 1 8.44-5.29 8.87 8.87 0 0 1 7 3 11.67 11.67 0 0 1 2.69 8v.5a13 13 0 0 1 -1.21 5.66 9 9 0 0 1 -3.42 3.87 9.33 9.33 0 0 1 -5 1.36 8.94 8.94 0 0 1 -7-3 11.68 11.68 0 0 1 -2.69-8zm2.4.66a9.84 9.84 0 0 0 2 6.38 6.81 6.81 0 0 0 10.53 0 10.15 10.15 0 0 0 2-6.58v-.46a10.9 10.9 0 0 0 -.92-4.54 7.29 7.29 0 0 0 -2.58-3.19 6.55 6.55 0 0 0 -3.8-1.14 6.4 6.4 0 0 0 -5.23 2.52 10.13 10.13 0 0 0 -2 6.57z"/><path d="m200.33 109.89v5.54h4.48v2h-4.48v14.45a4.48 4.48 0 0 0 .65 2.69 2.5 2.5 0 0 0 2.17.88 13.73 13.73 0 0 0 1.94-.2l.1 1.95a8 8 0 0 1 -2.56.33 4.27 4.27 0 0 1 -3.59-1.43 6.77 6.77 0 0 1 -1.12-4.21v-14.5h-4v-2h4v-5.54z"/><path d="m219.8 137.49a9.37 9.37 0 0 1 -5-1.36 9.25 9.25 0 0 1 -3.48-3.79 11.92 11.92 0 0 1 -1.24-5.46v-.88a12.84 12.84 0 0 1 1.21-5.62 9.72 9.72 0 0 1 3.38-3.94 8.34 8.34 0 0 1 4.68-1.43 7.84 7.84 0 0 1 6.26 2.69 11 11 0 0 1 2.31 7.36v1.34h-15.44v.46a9.05 9.05 0 0 0 2.11 6.14 6.73 6.73 0 0 0 5.31 2.45 7.83 7.83 0 0 0 3.4-.7 7.52 7.52 0 0 0 2.67-2.24l1.5 1.14a8.74 8.74 0 0 1 -7.67 3.84zm-.44-20.42a6 6 0 0 0 -4.55 2 9.05 9.05 0 0 0 -2.25 5.32h13v-.26a8 8 0 0 0 -1.78-5.08 5.53 5.53 0 0 0 -4.42-1.98z"/><path d="m247.21 131.59a3.41 3.41 0 0 0 -1.43-2.86 11 11 0 0 0 -4.32-1.7 19 19 0 0 1 -4.47-1.4 5.88 5.88 0 0 1 -2.36-1.93 4.76 4.76 0 0 1 -.77-2.76 5.16 5.16 0 0 1 2.14-4.24 8.64 8.64 0 0 1 5.48-1.67 8.93 8.93 0 0 1 5.82 1.79 5.77 5.77 0 0 1 2.19 4.68h-2.4a3.87 3.87 0 0 0 -1.59-3.16 7.17 7.17 0 0 0 -7.81-.22 3.25 3.25 0 0 0 -1.43 2.74 2.93 2.93 0 0 0 1.19 2.51 12.56 12.56 0 0 0 4.34 1.63 20.9 20.9 0 0 1 4.73 1.58 6.18 6.18 0 0 1 2.33 2 5.13 5.13 0 0 1 .76 2.86 5.18 5.18 0 0 1 -2.21 4.38 9.43 9.43 0 0 1 -5.78 1.64 9.68 9.68 0 0 1 -6.13-1.83 5.63 5.63 0 0 1 -2.36-4.63h2.41a4.14 4.14 0 0 0 1.77 3.27 7.24 7.24 0 0 0 4.31 1.17 6.79 6.79 0 0 0 4-1.1 3.31 3.31 0 0 0 1.59-2.75z"/></g></g></svg>