<svg id="Layer_1" data-name="Layer 1" xmlns="http://www.w3.org/2000/svg" viewBox="0 0 390 844"><defs><style>.cls-1,.cls-3,.cls-4,.cls-5{opacity:0.8;}.cls-2,.cls-3,.cls-4,.cls-5{fill:#fff;}.cls-3,.cls-4{stroke:#fff;stroke-miterlimit:10;}.cls-3{stroke-width:2px;}.cls-4{stroke-width:0.83px;}</style></defs><g class="cls-1"><path class="cls-2" d="M32.09,237.83a4.37,4.37,0,0,1-1.37,2.93,4.53,4.53,0,0,1-3.08,1,4.33,4.33,0,0,1-2.38-.67,4.44,4.44,0,0,1-1.6-1.91,6.64,6.64,0,0,1-.57-2.82V234.8a6.93,6.93,0,0,1,.56-2.85A4.39,4.39,0,0,1,25.27,230a4.46,4.46,0,0,1,2.44-.68,4.32,4.32,0,0,1,3.07,1.05,4.4,4.4,0,0,1,1.31,2.89h-1c-.26-2-1.37-3.08-3.35-3.08a3.18,3.18,0,0,0-2.62,1.23,5.35,5.35,0,0,0-1,3.4v1.48a5.32,5.32,0,0,0,.95,3.34,3.06,3.06,0,0,0,2.57,1.25,3.4,3.4,0,0,0,2.41-.77,3.71,3.71,0,0,0,1-2.31Z"/><path class="cls-2" d="M42.09,235.81H36.44v4.93h6.5v.86H35.42V229.52H42.9v.86H36.44V235h5.65Z"/><path class="cls-2" d="M54.87,236.22a6.93,6.93,0,0,1-.58,2.93,4.37,4.37,0,0,1-1.65,1.94,4.51,4.51,0,0,1-2.47.68,4.3,4.3,0,0,1-3.42-1.52,6,6,0,0,1-1.3-4.08v-1.25A7,7,0,0,1,46,232a4.49,4.49,0,0,1,1.66-2,4.42,4.42,0,0,1,2.46-.69,4.55,4.55,0,0,1,2.47.67,4.42,4.42,0,0,1,1.64,1.9,6.87,6.87,0,0,1,.61,2.85Zm-1-1.32a5.35,5.35,0,0,0-1-3.42,3.56,3.56,0,0,0-5.39,0,5.36,5.36,0,0,0-1,3.46v1.27a5.35,5.35,0,0,0,1,3.4,3.28,3.28,0,0,0,2.71,1.26,3.24,3.24,0,0,0,2.71-1.24,5.48,5.48,0,0,0,1-3.46Z"/></g><line class="cls-3" x1="22" y1="216.99" x2="369" y2="216.99"/><line class="cls-4" x1="22" y1="253.5" x2="369" y2="253.5"/><g class="cls-1"><path class="cls-2" d="M32.09,272.83a4.37,4.37,0,0,1-1.37,2.93,4.53,4.53,0,0,1-3.08,1,4.33,4.33,0,0,1-2.38-.67,4.44,4.44,0,0,1-1.6-1.91,6.64,6.64,0,0,1-.57-2.82V269.8a6.93,6.93,0,0,1,.56-2.85A4.39,4.39,0,0,1,25.27,265a4.46,4.46,0,0,1,2.44-.68,4.32,4.32,0,0,1,3.07,1,4.4,4.4,0,0,1,1.31,2.89h-1c-.26-2.05-1.37-3.08-3.35-3.08a3.18,3.18,0,0,0-2.62,1.23,5.35,5.35,0,0,0-1,3.4v1.48a5.32,5.32,0,0,0,.95,3.34,3.06,3.06,0,0,0,2.57,1.25,3.4,3.4,0,0,0,2.41-.77,3.71,3.71,0,0,0,1-2.31Z"/><path class="cls-2" d="M42.07,271H36.44v5.65h-1V264.52H42.9v.86H36.44v4.71h5.63Z"/><path class="cls-2" d="M54.76,271.22a6.93,6.93,0,0,1-.58,2.93,4.42,4.42,0,0,1-1.64,1.94,4.57,4.57,0,0,1-2.48.68,4.3,4.3,0,0,1-3.42-1.52,6.09,6.09,0,0,1-1.3-4.08v-1.25a7,7,0,0,1,.59-2.93,4.36,4.36,0,0,1,4.12-2.64,4.58,4.58,0,0,1,2.46.67,4.51,4.51,0,0,1,1.65,1.9,6.87,6.87,0,0,1,.6,2.85Zm-1-1.32a5.35,5.35,0,0,0-1-3.42,3.56,3.56,0,0,0-5.39,0,5.42,5.42,0,0,0-1,3.46v1.27a5.29,5.29,0,0,0,1,3.4,3.55,3.55,0,0,0,5.41,0,5.48,5.48,0,0,0,1-3.46Z"/></g><line class="cls-4" x1="22" y1="288.5" x2="369" y2="288.5"/><g class="cls-1"><path class="cls-2" d="M32.09,308.83a4.37,4.37,0,0,1-1.37,2.93,4.53,4.53,0,0,1-3.08,1,4.33,4.33,0,0,1-2.38-.67,4.44,4.44,0,0,1-1.6-1.91,6.64,6.64,0,0,1-.57-2.82V305.8a6.93,6.93,0,0,1,.56-2.85A4.39,4.39,0,0,1,25.27,301a4.46,4.46,0,0,1,2.44-.68,4.32,4.32,0,0,1,3.07,1,4.4,4.4,0,0,1,1.31,2.89h-1c-.26-2.05-1.37-3.08-3.35-3.08a3.18,3.18,0,0,0-2.62,1.23,5.35,5.35,0,0,0-1,3.4v1.48a5.32,5.32,0,0,0,.95,3.34,3.06,3.06,0,0,0,2.57,1.25,3.4,3.4,0,0,0,2.41-.77,3.71,3.71,0,0,0,1-2.31Z"/><path class="cls-2" d="M36.66,312.6h-1V300.52h1Z"/><path class="cls-2" d="M49.72,307.22a7.09,7.09,0,0,1-.57,2.93A4.34,4.34,0,0,1,45,312.77a4.27,4.27,0,0,1-3.42-1.52,6,6,0,0,1-1.31-4.08v-1.25a7,7,0,0,1,.59-2.93A4.36,4.36,0,0,1,45,300.35a4.58,4.58,0,0,1,2.46.67,4.51,4.51,0,0,1,1.65,1.9,6.87,6.87,0,0,1,.6,2.85Zm-1-1.32a5.35,5.35,0,0,0-1-3.42,3.56,3.56,0,0,0-5.39,0,5.42,5.42,0,0,0-1,3.46v1.27a5.29,5.29,0,0,0,1,3.4,3.55,3.55,0,0,0,5.41,0,5.48,5.48,0,0,0,1-3.46Z"/></g><line class="cls-4" x1="22" y1="324.5" x2="369" y2="324.5"/><g class="cls-1"><path class="cls-2" d="M32.09,344.83a4.37,4.37,0,0,1-1.37,2.93,4.53,4.53,0,0,1-3.08,1,4.33,4.33,0,0,1-2.38-.67,4.44,4.44,0,0,1-1.6-1.91,6.64,6.64,0,0,1-.57-2.82V341.8a6.93,6.93,0,0,1,.56-2.85A4.39,4.39,0,0,1,25.27,337a4.46,4.46,0,0,1,2.44-.68,4.32,4.32,0,0,1,3.07,1,4.4,4.4,0,0,1,1.31,2.89h-1c-.26-2.05-1.37-3.08-3.35-3.08a3.18,3.18,0,0,0-2.62,1.23,5.35,5.35,0,0,0-1,3.4v1.48a5.32,5.32,0,0,0,.95,3.34,3.06,3.06,0,0,0,2.57,1.25,3.4,3.4,0,0,0,2.41-.77,3.71,3.71,0,0,0,1-2.31Z"/><path class="cls-2" d="M36.77,336.52l4.46,10.66,4.47-10.66h1.36V348.6H46v-5.26l.08-5.4L41.63,348.6h-.79L36.36,338l.08,5.32v5.29h-1V336.52Z"/><path class="cls-2" d="M59.91,343.22a6.93,6.93,0,0,1-.58,2.93,4.37,4.37,0,0,1-1.65,1.94,4.53,4.53,0,0,1-2.47.68,4.3,4.3,0,0,1-3.42-1.52,6,6,0,0,1-1.3-4.08v-1.25a7,7,0,0,1,.58-2.93,4.38,4.38,0,0,1,4.12-2.64,4.58,4.58,0,0,1,2.46.67,4.38,4.38,0,0,1,1.65,1.9,6.87,6.87,0,0,1,.61,2.85Zm-1-1.32a5.35,5.35,0,0,0-1-3.42,3.29,3.29,0,0,0-2.71-1.23,3.25,3.25,0,0,0-2.68,1.24,5.36,5.36,0,0,0-1,3.46v1.27a5.35,5.35,0,0,0,1,3.4,3.28,3.28,0,0,0,2.71,1.26,3.24,3.24,0,0,0,2.71-1.24,5.54,5.54,0,0,0,1-3.46Z"/></g><line class="cls-4" x1="22" y1="360.5" x2="369" y2="360.5"/><g class="cls-1"><path class="cls-2" d="M32.09,380.83a4.37,4.37,0,0,1-1.37,2.93,4.53,4.53,0,0,1-3.08,1,4.33,4.33,0,0,1-2.38-.67,4.44,4.44,0,0,1-1.6-1.91,6.64,6.64,0,0,1-.57-2.82V377.8a6.93,6.93,0,0,1,.56-2.85A4.39,4.39,0,0,1,25.27,373a4.46,4.46,0,0,1,2.44-.68,4.32,4.32,0,0,1,3.07,1,4.4,4.4,0,0,1,1.31,2.89h-1c-.26-2.05-1.37-3.08-3.35-3.08a3.18,3.18,0,0,0-2.62,1.23,5.35,5.35,0,0,0-1,3.4v1.48a5.32,5.32,0,0,0,.95,3.34,3.06,3.06,0,0,0,2.57,1.25,3.4,3.4,0,0,0,2.41-.77,3.71,3.71,0,0,0,1-2.31Z"/><path class="cls-2" d="M44.35,379.22a6.93,6.93,0,0,1-.58,2.93,4.37,4.37,0,0,1-1.65,1.94,4.51,4.51,0,0,1-2.47.68,4.3,4.3,0,0,1-3.42-1.52,6,6,0,0,1-1.3-4.08v-1.25a7,7,0,0,1,.58-2.93A4.49,4.49,0,0,1,37.17,373a4.45,4.45,0,0,1,2.46-.69,4.64,4.64,0,0,1,2.47.67,4.42,4.42,0,0,1,1.64,1.9,6.87,6.87,0,0,1,.61,2.85Zm-1-1.32a5.35,5.35,0,0,0-1-3.42,3.56,3.56,0,0,0-5.39,0A5.36,5.36,0,0,0,36,378v1.27a5.29,5.29,0,0,0,1,3.4,3.55,3.55,0,0,0,5.41,0,5.54,5.54,0,0,0,1-3.46Z"/><path class="cls-2" d="M56.7,379.22a7.09,7.09,0,0,1-.57,2.93A4.34,4.34,0,0,1,52,384.77a4.29,4.29,0,0,1-3.42-1.52,6,6,0,0,1-1.31-4.08v-1.25a7,7,0,0,1,.59-2.93A4.36,4.36,0,0,1,52,372.35a4.58,4.58,0,0,1,2.46.67,4.51,4.51,0,0,1,1.65,1.9,6.71,6.71,0,0,1,.6,2.85Zm-1-1.32a5.41,5.41,0,0,0-1-3.42,3.57,3.57,0,0,0-5.4,0,5.42,5.42,0,0,0-1,3.46v1.27a5.35,5.35,0,0,0,1,3.4A3.27,3.27,0,0,0,52,383.88a3.23,3.23,0,0,0,2.7-1.24,5.48,5.48,0,0,0,1-3.46Z"/></g><line class="cls-4" x1="22" y1="396.5" x2="369" y2="396.5"/><g class="cls-1"><path class="cls-2" d="M23.53,420.6V408.52h3.38a5.23,5.23,0,0,1,2.66.67,4.66,4.66,0,0,1,1.84,1.94,6.1,6.1,0,0,1,.66,2.87v1.12a6.07,6.07,0,0,1-.66,2.87,4.63,4.63,0,0,1-1.84,1.93,5.38,5.38,0,0,1-2.74.68Zm1-11.22v10.36h2.29a3.93,3.93,0,0,0,3.06-1.27,4.87,4.87,0,0,0,1.16-3.42V414a4.78,4.78,0,0,0-1.14-3.34,3.92,3.92,0,0,0-3-1.26Z"/><path class="cls-2" d="M41,420.6a4.69,4.69,0,0,1-.2-1.25,3.46,3.46,0,0,1-1.33,1,4,4,0,0,1-1.71.37,3,3,0,0,1-2.1-.72,2.36,2.36,0,0,1-.8-1.83,2.41,2.41,0,0,1,1.09-2.07,5.25,5.25,0,0,1,3.05-.77h1.8v-1a1.94,1.94,0,0,0-.6-1.51,2.43,2.43,0,0,0-1.73-.56,2.7,2.7,0,0,0-1.72.54A1.58,1.58,0,0,0,36,414.1H35a2.31,2.31,0,0,1,1-1.85,3.86,3.86,0,0,1,2.45-.78,3.51,3.51,0,0,1,2.37.75,2.66,2.66,0,0,1,.89,2.09v4.25A5.29,5.29,0,0,0,42,420.5v.1Zm-3.13-.71a3.38,3.38,0,0,0,1.79-.48,2.85,2.85,0,0,0,1.14-1.29v-2H39a4.44,4.44,0,0,0-2.32.54,1.63,1.63,0,0,0-.84,1.45,1.58,1.58,0,0,0,.56,1.25A2.11,2.11,0,0,0,37.82,419.89Z"/><path class="cls-2" d="M44.83,416a5.4,5.4,0,0,1,.94-3.33,3,3,0,0,1,2.53-1.24,3.12,3.12,0,0,1,2.78,1.43v-5h1V420.6h-.93l0-1.19a3.19,3.19,0,0,1-2.8,1.36,3,3,0,0,1-2.51-1.25,5.46,5.46,0,0,1-1-3.37Zm1,.17a4.67,4.67,0,0,0,.69,2.71,2.21,2.21,0,0,0,1.94,1,2.69,2.69,0,0,0,2.61-1.62v-4.22a2.66,2.66,0,0,0-2.59-1.75,2.25,2.25,0,0,0-2,1A5,5,0,0,0,45.84,416.2Z"/></g><line class="cls-4" x1="22" y1="432.5" x2="369" y2="432.5"/><g class="cls-1"><path class="cls-2" d="M23.53,456.6V444.52h3.38a5.23,5.23,0,0,1,2.66.67,4.66,4.66,0,0,1,1.84,1.94,6.1,6.1,0,0,1,.66,2.87v1.12a6.07,6.07,0,0,1-.66,2.87,4.63,4.63,0,0,1-1.84,1.93,5.38,5.38,0,0,1-2.74.68Zm1-11.22v10.36h2.29a3.93,3.93,0,0,0,3.06-1.27,4.87,4.87,0,0,0,1.16-3.42V450a4.78,4.78,0,0,0-1.14-3.34,3.92,3.92,0,0,0-3-1.26Z"/><path class="cls-2" d="M38.75,456.77a3.87,3.87,0,0,1-3.51-2.14,4.91,4.91,0,0,1-.51-2.26V452a5.35,5.35,0,0,1,.5-2.33,4,4,0,0,1,1.4-1.63,3.43,3.43,0,0,1,1.94-.59,3.27,3.27,0,0,1,2.6,1.11,4.58,4.58,0,0,1,.95,3.05v.56h-6.4v.19a3.75,3.75,0,0,0,.87,2.54,2.8,2.8,0,0,0,2.21,1,3.24,3.24,0,0,0,1.4-.29,3,3,0,0,0,1.11-.93l.62.47A3.62,3.62,0,0,1,38.75,456.77Zm-.18-8.47a2.52,2.52,0,0,0-1.89.82,3.83,3.83,0,0,0-.93,2.21h5.39v-.11a3.32,3.32,0,0,0-.74-2.1A2.29,2.29,0,0,0,38.57,448.3Z"/><path class="cls-2" d="M45.86,447.62l0,1.54a3.57,3.57,0,0,1,1.26-1.27,3.27,3.27,0,0,1,1.67-.43,2.7,2.7,0,0,1,2.15.81,3.63,3.63,0,0,1,.71,2.44v5.89h-1v-5.9a2.67,2.67,0,0,0-.51-1.79,2,2,0,0,0-1.6-.59,2.47,2.47,0,0,0-1.63.58,3.25,3.25,0,0,0-1.05,1.55v6.15h-1v-9Z"/><path class="cls-2" d="M56.64,445.32v2.3H58.5v.81H56.64v6a1.87,1.87,0,0,0,.27,1.11,1.06,1.06,0,0,0,.9.37,5.69,5.69,0,0,0,.81-.09l0,.81a3.35,3.35,0,0,1-1.06.14,1.76,1.76,0,0,1-1.49-.6,2.76,2.76,0,0,1-.47-1.74v-6H54v-.81h1.65v-2.3Z"/><path class="cls-2" d="M61.35,445a.68.68,0,0,1,.18-.48.69.69,0,0,1,1.19.48.64.64,0,0,1-.19.47.75.75,0,0,1-1,0A.67.67,0,0,1,61.35,445Zm1.17,11.57h-1v-9h1Z"/><path class="cls-2" d="M71.45,454.32a1.42,1.42,0,0,0-.6-1.19,4.54,4.54,0,0,0-1.78-.7,8.07,8.07,0,0,1-1.86-.58,2.42,2.42,0,0,1-1-.8,2,2,0,0,1-.32-1.15,2.14,2.14,0,0,1,.89-1.75,3.59,3.59,0,0,1,2.27-.69,3.64,3.64,0,0,1,2.41.74,2.37,2.37,0,0,1,.91,1.94h-1a1.59,1.59,0,0,0-.66-1.31,3,3,0,0,0-3.24-.09,1.36,1.36,0,0,0-.59,1.13,1.21,1.21,0,0,0,.49,1,5.25,5.25,0,0,0,1.8.68,7.86,7.86,0,0,1,2,.66,2.52,2.52,0,0,1,1,.83,2.33,2.33,0,0,1-.6,3,4,4,0,0,1-2.4.68,4,4,0,0,1-2.54-.76,2.35,2.35,0,0,1-1-1.92h1a1.71,1.71,0,0,0,.73,1.35,3,3,0,0,0,1.79.49,2.81,2.81,0,0,0,1.68-.46A1.37,1.37,0,0,0,71.45,454.32Z"/><path class="cls-2" d="M77.07,445.32v2.3h1.86v.81H77.07v6a1.87,1.87,0,0,0,.27,1.11,1.06,1.06,0,0,0,.9.37,5.69,5.69,0,0,0,.81-.09l0,.81a3.35,3.35,0,0,1-1.06.14,1.76,1.76,0,0,1-1.49-.6,2.76,2.76,0,0,1-.47-1.74v-6H74.42v-.81h1.65v-2.3Z"/></g><line class="cls-4" x1="22" y1="468.5" x2="369" y2="468.5"/><g class="cls-1"><path class="cls-2" d="M24.56,527.74h6v.86h-7V516.52h1Z"/><path class="cls-2" d="M38.77,528.6a4.76,4.76,0,0,1-.19-1.25,3.54,3.54,0,0,1-1.33,1,4,4,0,0,1-1.72.37,3,3,0,0,1-2.09-.72,2.33,2.33,0,0,1-.8-1.83,2.38,2.38,0,0,1,1.09-2.07,5.24,5.24,0,0,1,3-.77h1.8v-1a2,2,0,0,0-.59-1.51,2.45,2.45,0,0,0-1.73-.56,2.68,2.68,0,0,0-1.72.54,1.58,1.58,0,0,0-.68,1.27h-1a2.29,2.29,0,0,1,1-1.85,3.84,3.84,0,0,1,2.45-.78,3.51,3.51,0,0,1,2.37.75,2.7,2.7,0,0,1,.89,2.09v4.25a5.33,5.33,0,0,0,.27,2v.1Zm-3.12-.71a3.34,3.34,0,0,0,1.78-.48,2.85,2.85,0,0,0,1.14-1.29v-2H36.79a4.44,4.44,0,0,0-2.32.54,1.67,1.67,0,0,0-.28,2.7A2.14,2.14,0,0,0,35.65,527.89Z"/><path class="cls-2" d="M44,519.62l0,1.54a3.49,3.49,0,0,1,1.26-1.27,3.27,3.27,0,0,1,1.67-.43,2.7,2.7,0,0,1,2.15.81,3.63,3.63,0,0,1,.71,2.44v5.89h-1v-5.9a2.67,2.67,0,0,0-.51-1.79,2,2,0,0,0-1.6-.59,2.47,2.47,0,0,0-1.63.58A3.34,3.34,0,0,0,44,522.45v6.15h-1v-9Z"/><path class="cls-2" d="M52.85,524a5.4,5.4,0,0,1,.93-3.33,3,3,0,0,1,2.54-1.24,3.11,3.11,0,0,1,2.77,1.43v-5h1V528.6h-.93l0-1.19a3.22,3.22,0,0,1-2.81,1.36,3,3,0,0,1-2.5-1.25,5.4,5.4,0,0,1-.95-3.37Zm1,.17a4.67,4.67,0,0,0,.69,2.71,2.22,2.22,0,0,0,1.94,1,2.68,2.68,0,0,0,2.61-1.62v-4.22a2.66,2.66,0,0,0-2.59-1.75,2.25,2.25,0,0,0-2,1A5,5,0,0,0,53.85,524.2Z"/><path class="cls-2" d="M64.65,528.6h-1V515.85h1Z"/><path class="cls-2" d="M67.65,524a5.21,5.21,0,0,1,.51-2.33A3.8,3.8,0,0,1,69.58,520a3.84,3.84,0,0,1,2.08-.57,3.68,3.68,0,0,1,2.9,1.25,4.86,4.86,0,0,1,1.11,3.34v.2a5.29,5.29,0,0,1-.5,2.35,3.74,3.74,0,0,1-1.41,1.6,3.88,3.88,0,0,1-2.09.57,3.7,3.7,0,0,1-2.9-1.26,4.86,4.86,0,0,1-1.12-3.33Zm1,.27a4.12,4.12,0,0,0,.83,2.65,2.83,2.83,0,0,0,4.37,0,4.2,4.2,0,0,0,.84-2.73V524a4.53,4.53,0,0,0-.39-1.89,3.06,3.06,0,0,0-1.07-1.32,2.74,2.74,0,0,0-1.57-.47,2.67,2.67,0,0,0-2.17,1,4.24,4.24,0,0,0-.84,2.73Z"/><path class="cls-2" d="M82.72,520.47a3.55,3.55,0,0,0-.67-.06,2.4,2.4,0,0,0-1.57.52,2.8,2.8,0,0,0-.92,1.51v6.16h-1v-9h1l0,1.43a2.65,2.65,0,0,1,2.53-1.59,1.7,1.7,0,0,1,.66.1Z"/><path class="cls-2" d="M84.59,524a5.4,5.4,0,0,1,.93-3.33,3,3,0,0,1,2.54-1.24,3.11,3.11,0,0,1,2.77,1.43v-5h1V528.6h-.93l0-1.19A3.22,3.22,0,0,1,88,528.77a3,3,0,0,1-2.5-1.25,5.4,5.4,0,0,1-1-3.37Zm1,.17a4.67,4.67,0,0,0,.69,2.71,2.22,2.22,0,0,0,1.94,1,2.68,2.68,0,0,0,2.61-1.62v-4.22a2.66,2.66,0,0,0-2.59-1.75,2.25,2.25,0,0,0-1.95,1A5,5,0,0,0,85.59,524.2Z"/></g><line class="cls-4" x1="22" y1="504.5" x2="369" y2="504.5"/><g class="cls-1"><path class="cls-2" d="M24.88,552.52l4.46,10.66,4.47-10.66h1.36V564.6h-1v-5.26l.09-5.4-4.5,10.66H29L24.46,554l.09,5.32v5.29h-1V552.52Z"/><path class="cls-2" d="M38.31,560a5.21,5.21,0,0,1,.5-2.33,3.75,3.75,0,0,1,3.5-2.19,3.68,3.68,0,0,1,2.9,1.25,4.86,4.86,0,0,1,1.11,3.34v.2a5.29,5.29,0,0,1-.5,2.35,3.67,3.67,0,0,1-1.41,1.6,3.88,3.88,0,0,1-2.09.57,3.7,3.7,0,0,1-2.9-1.26,4.85,4.85,0,0,1-1.11-3.33Zm1,.27a4.06,4.06,0,0,0,.84,2.65,2.82,2.82,0,0,0,4.36,0,4.2,4.2,0,0,0,.84-2.73V560a4.69,4.69,0,0,0-.38-1.89,3.15,3.15,0,0,0-1.08-1.32,2.74,2.74,0,0,0-1.57-.47,2.67,2.67,0,0,0-2.17,1,4.24,4.24,0,0,0-.84,2.73Z"/><path class="cls-2" d="M50.13,555.62l0,1.46a3.39,3.39,0,0,1,1.25-1.22,3.42,3.42,0,0,1,1.66-.4,2.53,2.53,0,0,1,2.7,1.74,3.38,3.38,0,0,1,1.28-1.29,3.59,3.59,0,0,1,1.78-.45c1.92,0,2.91,1,3,3.15v6h-1v-5.92a2.7,2.7,0,0,0-.52-1.78,2.09,2.09,0,0,0-1.66-.58,2.63,2.63,0,0,0-1.81.69,2.44,2.44,0,0,0-.83,1.65v5.94H55v-6a2.51,2.51,0,0,0-.54-1.72,2.17,2.17,0,0,0-1.65-.57,2.53,2.53,0,0,0-1.61.53,3.19,3.19,0,0,0-1,1.59v6.16h-1v-9Z"/></g><line class="cls-4" x1="22" y1="540.5" x2="369" y2="540.5"/><g class="cls-1"><path class="cls-2" d="M28,595.56H24.53v5h-1V588.52h3.93a4.51,4.51,0,0,1,3,.93,3.58,3.58,0,0,1,.41,4.67A3.56,3.56,0,0,1,29,595.35l3,5.15v.1H31Zm-3.51-.86h3.13a2.89,2.89,0,0,0,2.07-.73,2.76,2.76,0,0,0,0-3.88,3.41,3.41,0,0,0-2.29-.71H24.53Z"/><path class="cls-2" d="M38.41,600.77a3.87,3.87,0,0,1-3.51-2.14,4.91,4.91,0,0,1-.51-2.26V596a5.35,5.35,0,0,1,.5-2.33,3.92,3.92,0,0,1,1.4-1.63,3.41,3.41,0,0,1,1.94-.59,3.27,3.27,0,0,1,2.6,1.11,4.58,4.58,0,0,1,1,3v.56h-6.4v.19a3.75,3.75,0,0,0,.87,2.54,2.8,2.8,0,0,0,2.21,1,3.24,3.24,0,0,0,1.4-.29,3,3,0,0,0,1.11-.93l.62.47A3.62,3.62,0,0,1,38.41,600.77Zm-.18-8.47a2.52,2.52,0,0,0-1.89.82,3.83,3.83,0,0,0-.93,2.21H40.8v-.11a3.32,3.32,0,0,0-.74-2.1A2.29,2.29,0,0,0,38.23,592.3Z"/><path class="cls-2" d="M47.89,599.93a2.59,2.59,0,0,0,1.74-.59,2,2,0,0,0,.76-1.51h1a2.87,2.87,0,0,1-.51,1.5,3.35,3.35,0,0,1-1.26,1.06,3.83,3.83,0,0,1-1.68.38,3.46,3.46,0,0,1-2.8-1.23,5,5,0,0,1-1-3.3v-.3a5.6,5.6,0,0,1,.47-2.35A3.57,3.57,0,0,1,45.85,592a3.7,3.7,0,0,1,2-.55,3.49,3.49,0,0,1,2.44.87,3.2,3.2,0,0,1,1,2.32h-1a2.41,2.41,0,0,0-2.51-2.35,2.5,2.5,0,0,0-2.09,1,4.45,4.45,0,0,0-.74,2.73v.29a4.33,4.33,0,0,0,.74,2.68A2.51,2.51,0,0,0,47.89,599.93Z"/><path class="cls-2" d="M57.65,600.77a3.88,3.88,0,0,1-2.07-.57,3.84,3.84,0,0,1-1.44-1.57,4.91,4.91,0,0,1-.51-2.26V596a5.21,5.21,0,0,1,.5-2.33,3.92,3.92,0,0,1,1.4-1.63,3.41,3.41,0,0,1,1.94-.59,3.23,3.23,0,0,1,2.59,1.11,4.53,4.53,0,0,1,1,3v.56h-6.4v.19a3.75,3.75,0,0,0,.87,2.54,2.78,2.78,0,0,0,2.21,1,3.24,3.24,0,0,0,1.4-.29,3,3,0,0,0,1.11-.93l.62.47A3.62,3.62,0,0,1,57.65,600.77Zm-.18-8.47a2.51,2.51,0,0,0-1.89.82,3.83,3.83,0,0,0-.93,2.21H60v-.11a3.32,3.32,0,0,0-.74-2.1A2.29,2.29,0,0,0,57.47,592.3Z"/><path class="cls-2" d="M71,596.2a5.45,5.45,0,0,1-.93,3.34,3,3,0,0,1-2.49,1.23,3.3,3.3,0,0,1-2.82-1.3v4.59h-1V591.62h.92l0,1.27a3.18,3.18,0,0,1,2.81-1.43,3,3,0,0,1,2.53,1.22,5.52,5.52,0,0,1,.92,3.38ZM70,596a4.64,4.64,0,0,0-.7-2.72,2.29,2.29,0,0,0-2-1A2.61,2.61,0,0,0,64.79,594v4.3a2.63,2.63,0,0,0,1,1.18,2.94,2.94,0,0,0,1.57.41,2.25,2.25,0,0,0,2-1A5,5,0,0,0,70,596Z"/><path class="cls-2" d="M75.62,589.32v2.3h1.86v.81H75.62v6a1.87,1.87,0,0,0,.27,1.11,1.06,1.06,0,0,0,.9.37,5.69,5.69,0,0,0,.81-.09l0,.81a3.31,3.31,0,0,1-1.06.14,1.77,1.77,0,0,1-1.49-.6,2.76,2.76,0,0,1-.46-1.74v-6H73v-.81h1.66v-2.3Z"/><path class="cls-2" d="M80.33,589a.65.65,0,0,1,.19-.48.63.63,0,0,1,.49-.19.64.64,0,0,1,.69.67.67.67,0,0,1-.18.47.73.73,0,0,1-.51.19.66.66,0,0,1-.49-.19A.64.64,0,0,1,80.33,589ZM81.5,600.6h-1v-9h1Z"/><path class="cls-2" d="M84.5,596a5.21,5.21,0,0,1,.51-2.33,3.75,3.75,0,0,1,3.49-2.19,3.68,3.68,0,0,1,2.91,1.25,4.86,4.86,0,0,1,1.11,3.34v.2a5.43,5.43,0,0,1-.5,2.35,3.69,3.69,0,0,1-1.42,1.6,3.82,3.82,0,0,1-2.08.57,3.69,3.69,0,0,1-2.9-1.26,4.86,4.86,0,0,1-1.12-3.33Zm1,.27a4.12,4.12,0,0,0,.83,2.65,2.83,2.83,0,0,0,4.37,0,4.2,4.2,0,0,0,.83-2.73V596a4.53,4.53,0,0,0-.38-1.89,3.06,3.06,0,0,0-1.07-1.32,2.75,2.75,0,0,0-1.58-.47,2.66,2.66,0,0,0-2.16,1,4.24,4.24,0,0,0-.84,2.73Z"/><path class="cls-2" d="M96.37,591.62l0,1.54a3.57,3.57,0,0,1,1.26-1.27,3.3,3.3,0,0,1,1.67-.43,2.7,2.7,0,0,1,2.15.81,3.68,3.68,0,0,1,.72,2.44v5.89h-1v-5.9a2.79,2.79,0,0,0-.51-1.79,2,2,0,0,0-1.61-.59,2.49,2.49,0,0,0-1.63.58,3.4,3.4,0,0,0-1,1.55v6.15h-1v-9Z"/><path class="cls-2" d="M105.55,589a.68.68,0,0,1,.18-.48.66.66,0,0,1,.5-.19.64.64,0,0,1,.69.67.67.67,0,0,1-.18.47.73.73,0,0,1-.51.19.7.7,0,0,1-.5-.19A.67.67,0,0,1,105.55,589Zm1.17,11.57h-1v-9h1Z"/><path class="cls-2" d="M115.65,598.32a1.44,1.44,0,0,0-.59-1.19,4.66,4.66,0,0,0-1.79-.7,8.07,8.07,0,0,1-1.86-.58,2.49,2.49,0,0,1-1-.8,2,2,0,0,1-.32-1.15,2.14,2.14,0,0,1,.89-1.75,3.6,3.6,0,0,1,2.28-.69,3.67,3.67,0,0,1,2.41.74,2.39,2.39,0,0,1,.91,1.94h-1a1.59,1.59,0,0,0-.66-1.31,2.58,2.58,0,0,0-1.66-.53,2.62,2.62,0,0,0-1.58.44,1.36,1.36,0,0,0-.59,1.13,1.21,1.21,0,0,0,.49,1,5.25,5.25,0,0,0,1.8.68,7.71,7.71,0,0,1,2,.66,2.52,2.52,0,0,1,1,.83,2.3,2.3,0,0,1-.6,3,4,4,0,0,1-2.4.68,4,4,0,0,1-2.54-.76,2.35,2.35,0,0,1-1-1.92h1a1.71,1.71,0,0,0,.73,1.35,3,3,0,0,0,1.79.49,2.79,2.79,0,0,0,1.68-.46A1.34,1.34,0,0,0,115.65,598.32Z"/><path class="cls-2" d="M121.27,589.32v2.3h1.86v.81h-1.86v6a1.87,1.87,0,0,0,.27,1.11,1.06,1.06,0,0,0,.9.37,5.69,5.69,0,0,0,.81-.09l0,.81a3.31,3.31,0,0,1-1.06.14,1.77,1.77,0,0,1-1.49-.6,2.76,2.76,0,0,1-.46-1.74v-6h-1.66v-.81h1.66v-2.3Z"/></g><g class="cls-1"><path class="cls-2" d="M28,631.56H24.53v5h-1V624.52h3.93a4.51,4.51,0,0,1,3,.93,3.58,3.58,0,0,1,.41,4.67A3.56,3.56,0,0,1,29,631.35l3,5.15v.1H31Zm-3.51-.86h3.13a2.89,2.89,0,0,0,2.07-.73,2.76,2.76,0,0,0,0-3.88,3.41,3.41,0,0,0-2.29-.71H24.53Z"/><path class="cls-2" d="M38.41,636.77a3.87,3.87,0,0,1-3.51-2.14,4.91,4.91,0,0,1-.51-2.26V632a5.35,5.35,0,0,1,.5-2.33,3.92,3.92,0,0,1,1.4-1.63,3.41,3.41,0,0,1,1.94-.59,3.27,3.27,0,0,1,2.6,1.11,4.58,4.58,0,0,1,1,3v.56h-6.4v.19a3.75,3.75,0,0,0,.87,2.54,2.8,2.8,0,0,0,2.21,1,3.24,3.24,0,0,0,1.4-.29,3,3,0,0,0,1.11-.93l.62.47A3.62,3.62,0,0,1,38.41,636.77Zm-.18-8.47a2.52,2.52,0,0,0-1.89.82,3.83,3.83,0,0,0-.93,2.21H40.8v-.11a3.32,3.32,0,0,0-.74-2.1A2.29,2.29,0,0,0,38.23,628.3Z"/><path class="cls-2" d="M51.79,632.2a5.45,5.45,0,0,1-.93,3.34,3,3,0,0,1-2.49,1.23,3.3,3.3,0,0,1-2.82-1.3v4.59h-1V627.62h.92l.05,1.27a3.19,3.19,0,0,1,2.82-1.43,3,3,0,0,1,2.52,1.22,5.52,5.52,0,0,1,.92,3.38Zm-1-.17a4.64,4.64,0,0,0-.7-2.72,2.29,2.29,0,0,0-2-1,2.71,2.71,0,0,0-1.57.44,2.77,2.77,0,0,0-1,1.28v4.3a2.63,2.63,0,0,0,1,1.18,3,3,0,0,0,1.57.41,2.25,2.25,0,0,0,2-1A5,5,0,0,0,50.79,632Z"/><path class="cls-2" d="M60.51,636.6a4.76,4.76,0,0,1-.19-1.25,3.54,3.54,0,0,1-1.33,1,4,4,0,0,1-1.72.37,3,3,0,0,1-2.09-.72,2.33,2.33,0,0,1-.8-1.83,2.38,2.38,0,0,1,1.09-2.07,5.21,5.21,0,0,1,3-.77h1.8v-1a2,2,0,0,0-.59-1.51,2.47,2.47,0,0,0-1.73-.56,2.66,2.66,0,0,0-1.72.54,1.55,1.55,0,0,0-.68,1.27h-1a2.29,2.29,0,0,1,1-1.85,3.84,3.84,0,0,1,2.45-.78,3.46,3.46,0,0,1,2.36.75,2.7,2.7,0,0,1,.9,2.09v4.25a5.33,5.33,0,0,0,.27,2v.1Zm-3.12-.71a3.37,3.37,0,0,0,1.78-.48,2.85,2.85,0,0,0,1.14-1.29v-2H58.53a4.44,4.44,0,0,0-2.32.54,1.67,1.67,0,0,0-.28,2.7A2.12,2.12,0,0,0,57.39,635.89Z"/><path class="cls-2" d="M64.74,625a.68.68,0,0,1,.18-.48.65.65,0,0,1,.5-.19.66.66,0,0,1,.5.19.69.69,0,0,1,0,1,.7.7,0,0,1-.5.19.69.69,0,0,1-.5-.19A.67.67,0,0,1,64.74,625Zm1.17,11.57h-1v-9h1Z"/><path class="cls-2" d="M73.61,628.47a3.66,3.66,0,0,0-.68-.06,2.4,2.4,0,0,0-1.57.52,2.86,2.86,0,0,0-.92,1.51v6.16h-1v-9h1v1.43A2.65,2.65,0,0,1,73,627.46a1.7,1.7,0,0,1,.66.1Z"/><path class="cls-2" d="M80.61,632a5.41,5.41,0,0,1,.93-3.34,3,3,0,0,1,2.54-1.23,3.12,3.12,0,0,1,2.79,1.46l0-1.3h.93v8.8a3.8,3.8,0,0,1-1,2.75,3.5,3.5,0,0,1-2.63,1,4,4,0,0,1-1.79-.42,3.38,3.38,0,0,1-1.34-1.12l.55-.59a3.16,3.16,0,0,0,2.51,1.29,2.53,2.53,0,0,0,1.94-.73,2.88,2.88,0,0,0,.72-2v-1.13a3.19,3.19,0,0,1-2.78,1.33,3,3,0,0,1-2.5-1.25,5.43,5.43,0,0,1-1-3.36Zm1,.17a4.67,4.67,0,0,0,.68,2.71,2.22,2.22,0,0,0,2,1,2.65,2.65,0,0,0,2.59-1.65v-4.17a2.77,2.77,0,0,0-1-1.32,2.72,2.72,0,0,0-1.58-.45,2.28,2.28,0,0,0-2,1A5,5,0,0,0,81.62,632.2Z"/><path class="cls-2" d="M97.07,635.47a3.26,3.26,0,0,1-2.87,1.3,2.76,2.76,0,0,1-2.18-.84,3.66,3.66,0,0,1-.77-2.47v-5.84h1v5.72c0,1.71.69,2.57,2.08,2.57a2.54,2.54,0,0,0,2.73-1.79v-6.5h1v9h-1Z"/><path class="cls-2" d="M104.32,635.17l2.63-7.55H108l-3.84,10.51-.2.46a2.4,2.4,0,0,1-2.28,1.64,2.66,2.66,0,0,1-.76-.12v-.82l.51.05a1.87,1.87,0,0,0,1.19-.36,2.72,2.72,0,0,0,.76-1.24l.44-1.21-3.38-8.91h1.09Z"/></g><line class="cls-4" x1="22" y1="576.5" x2="369" y2="576.5"/><g class="cls-1"><path class="cls-2" d="M25.76,669.34l.37,1.88.46-1.8,2.62-8.9h.92l2.59,8.9.45,1.81.4-1.89,2.18-8.82h1L33.7,672.6h-1L30,663.15l-.31-1.2-.3,1.2-2.81,9.45h-1l-3.08-12.08h1Z"/><path class="cls-2" d="M38.58,668a5.35,5.35,0,0,1,.5-2.33A3.93,3.93,0,0,1,40.5,664a3.87,3.87,0,0,1,2.08-.57,3.7,3.7,0,0,1,2.91,1.25,4.86,4.86,0,0,1,1.11,3.34v.2a5.43,5.43,0,0,1-.5,2.35,3.76,3.76,0,0,1-1.42,1.6,3.84,3.84,0,0,1-2.08.57,3.69,3.69,0,0,1-2.9-1.26,4.81,4.81,0,0,1-1.12-3.33Zm1,.27a4.06,4.06,0,0,0,.83,2.65,2.83,2.83,0,0,0,4.37,0,4.25,4.25,0,0,0,.83-2.73V668a4.69,4.69,0,0,0-.38-1.89,3.13,3.13,0,0,0-1.07-1.32,2.77,2.77,0,0,0-1.58-.47,2.68,2.68,0,0,0-2.17,1,4.29,4.29,0,0,0-.83,2.73Z"/><path class="cls-2" d="M53.65,664.47a3.63,3.63,0,0,0-.67-.06,2.42,2.42,0,0,0-1.58.52,2.79,2.79,0,0,0-.91,1.51v6.16h-1v-9h1l0,1.43A2.64,2.64,0,0,1,53,663.46a1.67,1.67,0,0,1,.65.1Z"/><path class="cls-2" d="M58.2,668.08l-1.14,1.09v3.43h-1V659.85h1V668l.94-1,3.44-3.38h1.25l-3.81,3.79L63,672.6H61.84Z"/><path class="cls-2" d="M73.55,671.93a2.59,2.59,0,0,0,1.74-.59,2.06,2.06,0,0,0,.76-1.51h1a2.87,2.87,0,0,1-.51,1.5,3.35,3.35,0,0,1-1.26,1.06,3.83,3.83,0,0,1-1.68.38,3.46,3.46,0,0,1-2.8-1.23,5,5,0,0,1-1-3.3v-.3a5.6,5.6,0,0,1,.47-2.35A3.57,3.57,0,0,1,71.51,664a3.67,3.67,0,0,1,2-.55,3.51,3.51,0,0,1,2.44.87,3.2,3.2,0,0,1,1,2.32h-1a2.41,2.41,0,0,0-2.51-2.35,2.5,2.5,0,0,0-2.09,1,4.45,4.45,0,0,0-.74,2.73v.29a4.33,4.33,0,0,0,.74,2.68A2.51,2.51,0,0,0,73.55,671.93Z"/><path class="cls-2" d="M79.29,668a5.35,5.35,0,0,1,.5-2.33,3.75,3.75,0,0,1,3.5-2.19,3.68,3.68,0,0,1,2.9,1.25,4.82,4.82,0,0,1,1.12,3.34v.2a5.3,5.3,0,0,1-.51,2.35,3.67,3.67,0,0,1-1.41,1.6,3.88,3.88,0,0,1-2.09.57,3.71,3.71,0,0,1-2.9-1.26,4.85,4.85,0,0,1-1.11-3.33Zm1,.27a4.06,4.06,0,0,0,.84,2.65,2.82,2.82,0,0,0,4.36,0,4.2,4.2,0,0,0,.84-2.73V668a4.69,4.69,0,0,0-.38-1.89,3.21,3.21,0,0,0-1.07-1.32,2.77,2.77,0,0,0-1.58-.47,2.67,2.67,0,0,0-2.17,1,4.24,4.24,0,0,0-.84,2.73Z"/><path class="cls-2" d="M91.32,672.6h-1V659.85h1Z"/><path class="cls-2" d="M96,672.6H95V659.85h1Z"/><path class="cls-2" d="M103,672.77a3.87,3.87,0,0,1-3.51-2.14,4.91,4.91,0,0,1-.51-2.26V668a5.35,5.35,0,0,1,.5-2.33,3.92,3.92,0,0,1,1.4-1.63,3.41,3.41,0,0,1,1.94-.59,3.27,3.27,0,0,1,2.6,1.11,4.58,4.58,0,0,1,1,3v.56H100v.19a3.75,3.75,0,0,0,.87,2.54,2.79,2.79,0,0,0,2.2,1,3.29,3.29,0,0,0,1.41-.29,3,3,0,0,0,1.11-.93l.62.47A3.62,3.62,0,0,1,103,672.77Zm-.18-8.47a2.52,2.52,0,0,0-1.89.82,3.83,3.83,0,0,0-.93,2.21h5.39v-.11a3.32,3.32,0,0,0-.74-2.1A2.29,2.29,0,0,0,102.82,664.3Z"/><path class="cls-2" d="M114.83,672.6a4.37,4.37,0,0,1-.19-1.25,3.57,3.57,0,0,1-1.34,1,4,4,0,0,1-1.71.37,3,3,0,0,1-2.1-.72,2.36,2.36,0,0,1-.8-1.83,2.39,2.39,0,0,1,1.1-2.07,5.21,5.21,0,0,1,3-.77h1.8v-1a2,2,0,0,0-.59-1.51,2.47,2.47,0,0,0-1.74-.56,2.65,2.65,0,0,0-1.71.54,1.55,1.55,0,0,0-.68,1.27h-1a2.29,2.29,0,0,1,1-1.85,3.83,3.83,0,0,1,2.44-.78,3.47,3.47,0,0,1,2.37.75,2.7,2.7,0,0,1,.9,2.09v4.25a5.33,5.33,0,0,0,.27,2v.1Zm-3.12-.71a3.37,3.37,0,0,0,1.78-.48,2.85,2.85,0,0,0,1.14-1.29v-2h-1.78a4.44,4.44,0,0,0-2.32.54,1.67,1.67,0,0,0-.28,2.7A2.12,2.12,0,0,0,111.71,671.89Z"/><path class="cls-2" d="M118.72,668a5.41,5.41,0,0,1,.93-3.34,3,3,0,0,1,2.54-1.23,3.09,3.09,0,0,1,2.78,1.46l0-1.3H126v8.8a3.8,3.8,0,0,1-1,2.75,3.47,3.47,0,0,1-2.63,1,4,4,0,0,1-1.79-.42,3.52,3.52,0,0,1-1.34-1.12l.56-.59a3.15,3.15,0,0,0,2.51,1.29,2.55,2.55,0,0,0,1.94-.73,3,3,0,0,0,.72-2v-1.13a3.2,3.2,0,0,1-2.78,1.33,3,3,0,0,1-2.51-1.25,5.43,5.43,0,0,1-.94-3.36Zm1,.17a4.67,4.67,0,0,0,.69,2.71,2.22,2.22,0,0,0,1.94,1,2.66,2.66,0,0,0,2.6-1.65v-4.17a2.84,2.84,0,0,0-1-1.32,2.74,2.74,0,0,0-1.58-.45,2.25,2.25,0,0,0-2,1A5,5,0,0,0,119.72,668.2Z"/><path class="cls-2" d="M135.17,671.47a3.24,3.24,0,0,1-2.86,1.3,2.78,2.78,0,0,1-2.19-.84,3.66,3.66,0,0,1-.76-2.47v-5.84h1v5.72c0,1.71.69,2.57,2.07,2.57a2.54,2.54,0,0,0,2.73-1.79v-6.5h1v9h-1Z"/><path class="cls-2" d="M143.06,672.77a3.88,3.88,0,0,1-2.07-.57,3.77,3.77,0,0,1-1.44-1.57,4.92,4.92,0,0,1-.52-2.26V668a5.21,5.21,0,0,1,.51-2.33,3.92,3.92,0,0,1,1.4-1.63,3.38,3.38,0,0,1,1.94-.59,3.24,3.24,0,0,1,2.59,1.11,4.53,4.53,0,0,1,1,3v.56H140v.19a3.71,3.71,0,0,0,.88,2.54,2.78,2.78,0,0,0,2.2,1,3.32,3.32,0,0,0,1.41-.29,3,3,0,0,0,1.11-.93l.62.47A3.62,3.62,0,0,1,143.06,672.77Zm-.18-8.47a2.51,2.51,0,0,0-1.89.82,3.9,3.9,0,0,0-.94,2.21h5.39v-.11a3.26,3.26,0,0,0-.74-2.1A2.26,2.26,0,0,0,142.88,664.3Z"/></g><line class="cls-4" x1="22" y1="612.5" x2="369" y2="612.5"/><line class="cls-4" x1="22" y1="648.5" x2="369" y2="648.5"/><g class="cls-1"><path class="cls-2" d="M30.18,487H24.55v5.65h-1V480.52H31v.86H24.55v4.71h5.63Z"/><path class="cls-2" d="M33,488a5.21,5.21,0,0,1,.5-2.33A3.8,3.8,0,0,1,34.91,484a3.84,3.84,0,0,1,2.08-.57,3.68,3.68,0,0,1,2.9,1.25A4.86,4.86,0,0,1,41,488.05v.2a5.29,5.29,0,0,1-.5,2.35,3.67,3.67,0,0,1-1.41,1.6,3.88,3.88,0,0,1-2.09.57,3.7,3.7,0,0,1-2.9-1.26A4.85,4.85,0,0,1,33,488.18Zm1,.27a4.06,4.06,0,0,0,.84,2.65,2.82,2.82,0,0,0,4.36,0,4.2,4.2,0,0,0,.84-2.73V488a4.53,4.53,0,0,0-.39-1.89,3.06,3.06,0,0,0-1.07-1.32A2.74,2.74,0,0,0,37,484.3a2.67,2.67,0,0,0-2.17,1,4.24,4.24,0,0,0-.84,2.73Z"/><path class="cls-2" d="M43.36,488a5.21,5.21,0,0,1,.5-2.33,3.75,3.75,0,0,1,3.5-2.19,3.68,3.68,0,0,1,2.9,1.25,4.87,4.87,0,0,1,1.12,3.34v.2a5.3,5.3,0,0,1-.51,2.35,3.67,3.67,0,0,1-1.41,1.6,3.88,3.88,0,0,1-2.09.57,3.7,3.7,0,0,1-2.9-1.26,4.85,4.85,0,0,1-1.11-3.33Zm1,.27a4.06,4.06,0,0,0,.84,2.65,2.82,2.82,0,0,0,4.36,0,4.2,4.2,0,0,0,.84-2.73V488a4.69,4.69,0,0,0-.38-1.89,3.15,3.15,0,0,0-1.08-1.32,2.74,2.74,0,0,0-1.57-.47,2.67,2.67,0,0,0-2.17,1,4.24,4.24,0,0,0-.84,2.73Z"/><path class="cls-2" d="M53.88,488a5.4,5.4,0,0,1,.93-3.33,3,3,0,0,1,2.54-1.24,3.11,3.11,0,0,1,2.77,1.43v-5h1V492.6h-.93l0-1.19a3.19,3.19,0,0,1-2.8,1.36,3,3,0,0,1-2.5-1.25,5.4,5.4,0,0,1-.95-3.37Zm1,.17a4.67,4.67,0,0,0,.69,2.71,2.22,2.22,0,0,0,1.94,1,2.68,2.68,0,0,0,2.61-1.62v-4.22a2.66,2.66,0,0,0-2.59-1.75,2.25,2.25,0,0,0-2,1A5,5,0,0,0,54.88,488.2Z"/><path class="cls-2" d="M69.16,488a5.4,5.4,0,0,1,.93-3.33,3,3,0,0,1,2.54-1.24,3.11,3.11,0,0,1,2.77,1.43v-5h1V492.6h-.93l0-1.19a3.22,3.22,0,0,1-2.81,1.36,3,3,0,0,1-2.5-1.25,5.4,5.4,0,0,1-1-3.37Zm1,.17a4.67,4.67,0,0,0,.69,2.71,2.22,2.22,0,0,0,1.94,1,2.68,2.68,0,0,0,2.61-1.62v-4.22a2.66,2.66,0,0,0-2.59-1.75,2.25,2.25,0,0,0-2,1A5,5,0,0,0,70.16,488.2Z"/><path class="cls-2" d="M83.33,492.77a3.88,3.88,0,0,1-2.07-.57,3.77,3.77,0,0,1-1.44-1.57,4.79,4.79,0,0,1-.52-2.26V488a5.21,5.21,0,0,1,.51-2.33,3.92,3.92,0,0,1,1.4-1.63,3.38,3.38,0,0,1,1.94-.59,3.24,3.24,0,0,1,2.59,1.11,4.53,4.53,0,0,1,1,3.05v.56H80.29v.19a3.71,3.71,0,0,0,.88,2.54,2.78,2.78,0,0,0,2.2,1,3.32,3.32,0,0,0,1.41-.29,3.17,3.17,0,0,0,1.11-.93l.62.47A3.62,3.62,0,0,1,83.33,492.77Zm-.18-8.47a2.51,2.51,0,0,0-1.89.82,3.9,3.9,0,0,0-.94,2.21h5.39v-.11a3.26,3.26,0,0,0-.74-2.1A2.26,2.26,0,0,0,83.15,484.3Z"/><path class="cls-2" d="M90.6,492.6h-1V479.85h1Z"/><path class="cls-2" d="M94.09,481a.68.68,0,0,1,.18-.48.65.65,0,0,1,.5-.19.66.66,0,0,1,.5.19.69.69,0,0,1,0,.95.7.7,0,0,1-.5.19.69.69,0,0,1-.5-.19A.67.67,0,0,1,94.09,481Zm1.17,11.57h-1v-9h1Z"/><path class="cls-2" d="M101.6,491.23l2.73-7.61h1l-3.35,9h-.81l-3.37-9h1Z"/><path class="cls-2" d="M111.2,492.77a3.88,3.88,0,0,1-2.07-.57,3.77,3.77,0,0,1-1.44-1.57,4.92,4.92,0,0,1-.52-2.26V488a5.21,5.21,0,0,1,.51-2.33,3.92,3.92,0,0,1,1.4-1.63,3.38,3.38,0,0,1,1.94-.59,3.24,3.24,0,0,1,2.59,1.11,4.53,4.53,0,0,1,1,3.05v.56h-6.41v.19a3.71,3.71,0,0,0,.88,2.54,2.78,2.78,0,0,0,2.2,1,3.32,3.32,0,0,0,1.41-.29,3.17,3.17,0,0,0,1.11-.93l.62.47A3.62,3.62,0,0,1,111.2,492.77ZM111,484.3a2.51,2.51,0,0,0-1.89.82,3.83,3.83,0,0,0-.93,2.21h5.38v-.11a3.26,3.26,0,0,0-.74-2.1A2.26,2.26,0,0,0,111,484.3Z"/><path class="cls-2" d="M121.5,484.47a3.55,3.55,0,0,0-.67-.06,2.4,2.4,0,0,0-1.57.52,2.86,2.86,0,0,0-.92,1.51v6.16h-1v-9h1v1.43a2.65,2.65,0,0,1,2.53-1.59,1.7,1.7,0,0,1,.66.1Z"/><path class="cls-2" d="M126.92,491.17l2.62-7.55h1.07l-3.83,10.51-.2.46a2.4,2.4,0,0,1-2.28,1.64,2.73,2.73,0,0,1-.77-.12v-.82l.51,0a1.83,1.83,0,0,0,1.18-.36,2.73,2.73,0,0,0,.77-1.24l.44-1.21L123,483.62h1.09Z"/></g><line class="cls-4" x1="22" y1="684.5" x2="369" y2="684.5"/><g class="cls-1"><path class="cls-2" d="M34.46,191a5.34,5.34,0,0,1-1.69,3.61A5.59,5.59,0,0,1,29,195.81,5.34,5.34,0,0,1,26,195a5.48,5.48,0,0,1-2-2.36,8.47,8.47,0,0,1-.71-3.48V187.2a8.5,8.5,0,0,1,.7-3.52,5.4,5.4,0,0,1,2-2.38,5.56,5.56,0,0,1,3-.83,5,5,0,0,1,5.41,4.87H33.19c-.32-2.54-1.69-3.81-4.14-3.81a3.91,3.91,0,0,0-3.23,1.52,6.64,6.64,0,0,0-1.2,4.2v1.83a6.63,6.63,0,0,0,1.17,4.12A3.77,3.77,0,0,0,29,194.74a4.18,4.18,0,0,0,3-1A4.55,4.55,0,0,0,33.19,191Z"/><path class="cls-2" d="M37.61,189.89a6.55,6.55,0,0,1,.62-2.88,4.68,4.68,0,0,1,4.32-2.71,4.54,4.54,0,0,1,3.59,1.56A5.94,5.94,0,0,1,47.52,190v.26a6.67,6.67,0,0,1-.62,2.9,4.7,4.7,0,0,1-1.75,2,4.78,4.78,0,0,1-2.58.7A4.55,4.55,0,0,1,39,194.25a5.94,5.94,0,0,1-1.38-4.11Zm1.23.34a5,5,0,0,0,1,3.27,3.49,3.49,0,0,0,5.39,0,5.21,5.21,0,0,0,1-3.37v-.24a5.58,5.58,0,0,0-.47-2.33,3.71,3.71,0,0,0-1.32-1.63,3.37,3.37,0,0,0-2-.58,3.27,3.27,0,0,0-2.67,1.29,5.19,5.19,0,0,0-1,3.36Z"/><path class="cls-2" d="M52.27,184.51l0,1.9a4.43,4.43,0,0,1,1.56-1.57,4,4,0,0,1,2.06-.54,3.31,3.31,0,0,1,2.65,1,4.49,4.49,0,0,1,.89,3v7.28H58.25v-7.29a3.41,3.41,0,0,0-.63-2.21,2.48,2.48,0,0,0-2-.73,3.1,3.1,0,0,0-2,.71,4.19,4.19,0,0,0-1.3,1.92v7.6H51.1V184.51Z"/><path class="cls-2" d="M65.59,181.67v2.84h2.3v1h-2.3v7.4a2.34,2.34,0,0,0,.33,1.38,1.32,1.32,0,0,0,1.12.45,7.29,7.29,0,0,0,1-.1l0,1a4.16,4.16,0,0,1-1.31.17,2.17,2.17,0,0,1-1.83-.74,3.36,3.36,0,0,1-.58-2.15v-7.41h-2v-1h2v-2.84Z"/><path class="cls-2" d="M78.48,195.6a5.78,5.78,0,0,1-.23-1.55,4.24,4.24,0,0,1-1.65,1.3,4.92,4.92,0,0,1-2.11.46,3.74,3.74,0,0,1-2.59-.89,2.92,2.92,0,0,1-1-2.26,3,3,0,0,1,1.35-2.56,6.44,6.44,0,0,1,3.75-.95h2.23v-1.26a2.47,2.47,0,0,0-.73-1.87,3.07,3.07,0,0,0-2.14-.68,3.37,3.37,0,0,0-2.12.65,2,2,0,0,0-.85,1.58H71.17a2.86,2.86,0,0,1,1.23-2.29,4.78,4.78,0,0,1,3-1,4.33,4.33,0,0,1,2.93.93,3.34,3.34,0,0,1,1.1,2.59v5.25a6.42,6.42,0,0,0,.34,2.41v.12Zm-3.85-.88a4.19,4.19,0,0,0,2.2-.59,3.55,3.55,0,0,0,1.41-1.59V190.1H76a5.41,5.41,0,0,0-2.87.67,2.08,2.08,0,0,0-.34,3.34A2.6,2.6,0,0,0,74.63,194.72Z"/><path class="cls-2" d="M87.88,194.77a3.25,3.25,0,0,0,2.15-.72,2.55,2.55,0,0,0,.94-1.87h1.18a3.55,3.55,0,0,1-.64,1.85A4,4,0,0,1,90,195.34a4.76,4.76,0,0,1-2.08.47,4.3,4.3,0,0,1-3.46-1.52,6.13,6.13,0,0,1-1.28-4.08v-.37a7,7,0,0,1,.58-2.9A4.44,4.44,0,0,1,85.36,185a4.54,4.54,0,0,1,2.51-.69,4.3,4.3,0,0,1,3,1.09,4,4,0,0,1,1.27,2.86H91a3.2,3.2,0,0,0-5.68-1.7,5.43,5.43,0,0,0-.91,3.36v.36a5.3,5.3,0,0,0,.91,3.31A3.07,3.07,0,0,0,87.88,194.77Z"/><path class="cls-2" d="M97.55,181.67v2.84h2.3v1h-2.3v7.4a2.33,2.33,0,0,0,.34,1.38,1.29,1.29,0,0,0,1.11.45,7.25,7.25,0,0,0,1-.1l0,1a4.23,4.23,0,0,1-1.32.17,2.17,2.17,0,0,1-1.83-.74,3.42,3.42,0,0,1-.58-2.15v-7.41h-2v-1h2v-2.84Z"/><path class="cls-2" d="M110.09,192.78a1.76,1.76,0,0,0-.73-1.46,5.7,5.7,0,0,0-2.21-.87,9.87,9.87,0,0,1-2.29-.72,3.09,3.09,0,0,1-1.22-1,2.48,2.48,0,0,1-.39-1.41,2.64,2.64,0,0,1,1.1-2.17,4.44,4.44,0,0,1,2.81-.86,4.54,4.54,0,0,1,3,.92,2.94,2.94,0,0,1,1.13,2.39H110a2,2,0,0,0-.82-1.62,3.69,3.69,0,0,0-4-.1,1.65,1.65,0,0,0-.73,1.4,1.49,1.49,0,0,0,.61,1.28,6.3,6.3,0,0,0,2.23.84,10.35,10.35,0,0,1,2.42.81,3.15,3.15,0,0,1,1.19,1,2.63,2.63,0,0,1,.39,1.46,2.67,2.67,0,0,1-1.13,2.25,4.85,4.85,0,0,1-3,.84,4.93,4.93,0,0,1-3.14-.94,2.88,2.88,0,0,1-1.21-2.37h1.23a2.13,2.13,0,0,0,.91,1.67,3.71,3.71,0,0,0,2.21.6,3.54,3.54,0,0,0,2.07-.56A1.69,1.69,0,0,0,110.09,192.78Z"/></g><path class="cls-5" d="M352.72,240a1.45,1.45,0,0,0-1.67.27,1.21,1.21,0,0,1-1.79,0,17.88,17.88,0,0,1-3.67-6.4,1.22,1.22,0,0,1,.89-1.56s1.12-.32,1.08-1.31l-.32-3.46a1.51,1.51,0,0,0-1.37-1.4c-2.44-.15-4.26,2.52-4.21,4.75.13,5.88,4.74,12.39,8.17,14.28,2,1.08,5.12,1,6.23-1.21a1.52,1.52,0,0,0-.52-1.9Z"/><path class="cls-5" d="M352.72,275a1.45,1.45,0,0,0-1.67.27,1.21,1.21,0,0,1-1.79,0,17.88,17.88,0,0,1-3.67-6.4,1.22,1.22,0,0,1,.89-1.56s1.12-.32,1.08-1.31l-.32-3.46a1.51,1.51,0,0,0-1.37-1.4c-2.44-.15-4.26,2.52-4.21,4.75.13,5.88,4.74,12.39,8.17,14.28,2,1.08,5.12,1,6.23-1.21a1.52,1.52,0,0,0-.52-1.9Z"/><path class="cls-5" d="M352.72,311a1.45,1.45,0,0,0-1.67.27,1.21,1.21,0,0,1-1.79,0,17.88,17.88,0,0,1-3.67-6.4,1.22,1.22,0,0,1,.89-1.56s1.12-.32,1.08-1.31l-.32-3.46a1.51,1.51,0,0,0-1.37-1.4c-2.44-.15-4.26,2.52-4.21,4.75.13,5.88,4.74,12.39,8.17,14.28,2,1.08,5.12,1,6.23-1.21a1.52,1.52,0,0,0-.52-1.9Z"/><path class="cls-5" d="M352.72,347a1.45,1.45,0,0,0-1.67.27,1.21,1.21,0,0,1-1.79,0,17.88,17.88,0,0,1-3.67-6.4,1.22,1.22,0,0,1,.89-1.56s1.12-.32,1.08-1.31l-.32-3.46a1.51,1.51,0,0,0-1.37-1.4c-2.44-.15-4.26,2.52-4.21,4.75.13,5.88,4.74,12.39,8.17,14.28,2,1.08,5.12,1,6.23-1.21a1.52,1.52,0,0,0-.52-1.9Z"/><path class="cls-5" d="M352.72,383a1.45,1.45,0,0,0-1.67.27,1.21,1.21,0,0,1-1.79,0,17.88,17.88,0,0,1-3.67-6.4,1.22,1.22,0,0,1,.89-1.56s1.12-.32,1.08-1.31l-.32-3.46a1.51,1.51,0,0,0-1.37-1.4c-2.44-.15-4.26,2.52-4.21,4.75.13,5.88,4.74,12.39,8.17,14.28,2,1.08,5.12,1,6.23-1.21a1.52,1.52,0,0,0-.52-1.9Z"/><path class="cls-5" d="M352.72,418a1.45,1.45,0,0,0-1.67.27,1.21,1.21,0,0,1-1.79,0,17.88,17.88,0,0,1-3.67-6.4,1.22,1.22,0,0,1,.89-1.56s1.12-.32,1.08-1.31l-.32-3.46a1.51,1.51,0,0,0-1.37-1.4c-2.44-.15-4.26,2.52-4.21,4.75.13,5.88,4.74,12.39,8.17,14.28,2,1.08,5.12,1,6.23-1.21a1.52,1.52,0,0,0-.52-1.9Z"/><path class="cls-5" d="M352.72,455a1.45,1.45,0,0,0-1.67.27,1.21,1.21,0,0,1-1.79,0,17.88,17.88,0,0,1-3.67-6.4,1.22,1.22,0,0,1,.89-1.56s1.12-.32,1.08-1.31l-.32-3.46a1.51,1.51,0,0,0-1.37-1.4c-2.44-.15-4.26,2.52-4.21,4.75.13,5.88,4.74,12.39,8.17,14.28,2,1.08,5.12,1,6.23-1.21a1.52,1.52,0,0,0-.52-1.9Z"/><path class="cls-5" d="M352.72,490a1.45,1.45,0,0,0-1.67.27,1.21,1.21,0,0,1-1.79,0,17.88,17.88,0,0,1-3.67-6.4,1.22,1.22,0,0,1,.89-1.56s1.12-.32,1.08-1.31l-.32-3.46a1.51,1.51,0,0,0-1.37-1.4c-2.44-.15-4.26,2.52-4.21,4.75.13,5.88,4.74,12.39,8.17,14.28,2,1.08,5.12,1,6.23-1.21a1.52,1.52,0,0,0-.52-1.9Z"/><path class="cls-5" d="M352.72,527a1.45,1.45,0,0,0-1.67.27,1.21,1.21,0,0,1-1.79,0,17.88,17.88,0,0,1-3.67-6.4,1.22,1.22,0,0,1,.89-1.56s1.12-.32,1.08-1.31l-.32-3.46a1.51,1.51,0,0,0-1.37-1.4c-2.44-.15-4.26,2.52-4.21,4.75.13,5.88,4.74,12.39,8.17,14.28,2,1.08,5.12,1,6.23-1.21a1.52,1.52,0,0,0-.52-1.9Z"/><path class="cls-5" d="M352.72,563a1.45,1.45,0,0,0-1.67.27,1.21,1.21,0,0,1-1.79,0,17.88,17.88,0,0,1-3.67-6.4,1.22,1.22,0,0,1,.89-1.56s1.12-.32,1.08-1.31l-.32-3.46a1.51,1.51,0,0,0-1.37-1.4c-2.44-.15-4.26,2.52-4.21,4.75.13,5.88,4.74,12.39,8.17,14.28,2,1.08,5.12,1,6.23-1.21a1.52,1.52,0,0,0-.52-1.9Z"/><path class="cls-5" d="M352.72,598a1.45,1.45,0,0,0-1.67.27,1.21,1.21,0,0,1-1.79,0,17.88,17.88,0,0,1-3.67-6.4,1.22,1.22,0,0,1,.89-1.56s1.12-.32,1.08-1.31l-.32-3.46a1.51,1.51,0,0,0-1.37-1.4c-2.44-.15-4.26,2.52-4.21,4.75.13,5.88,4.74,12.39,8.17,14.28,2,1.08,5.12,1,6.23-1.21a1.52,1.52,0,0,0-.52-1.9Z"/><path class="cls-5" d="M352.72,634a1.45,1.45,0,0,0-1.67.27,1.21,1.21,0,0,1-1.79,0,17.88,17.88,0,0,1-3.67-6.4,1.22,1.22,0,0,1,.89-1.56s1.12-.32,1.08-1.31l-.32-3.46a1.51,1.51,0,0,0-1.37-1.4c-2.44-.15-4.26,2.52-4.21,4.75.13,5.88,4.74,12.39,8.17,14.28,2,1.08,5.12,1,6.23-1.21a1.52,1.52,0,0,0-.52-1.9Z"/><path class="cls-5" d="M352.72,671a1.45,1.45,0,0,0-1.67.27,1.21,1.21,0,0,1-1.79,0,17.88,17.88,0,0,1-3.67-6.4,1.22,1.22,0,0,1,.89-1.56s1.12-.32,1.08-1.31l-.32-3.46a1.51,1.51,0,0,0-1.37-1.4c-2.44-.15-4.26,2.52-4.21,4.75.13,5.88,4.74,12.39,8.17,14.28,2,1.08,5.12,1,6.23-1.21a1.52,1.52,0,0,0-.52-1.9Z"/><g class="cls-1"><rect class="cls-2" x="315.48" y="36.67" width="4.7" height="14.1" rx="1.45"/><rect class="cls-2" x="322.53" y="36.67" width="4.7" height="14.1" rx="1.45"/><rect class="cls-2" x="329.59" y="36.67" width="4.7" height="14.1" rx="1.45"/><rect class="cls-2" x="336.64" y="36.67" width="4.7" height="14.1" rx="1.45"/><rect class="cls-2" x="343.69" y="36.67" width="4.7" height="14.1" rx="1.45"/><path class="cls-2" d="M346.77,34a4.43,4.43,0,0,1,4.42,4.43V49a4.42,4.42,0,0,1-4.42,4.42H317.1A4.42,4.42,0,0,1,312.68,49V38.42A4.43,4.43,0,0,1,317.1,34h29.67m0-1.68H317.1a6.11,6.11,0,0,0-6.1,6.11V49a6.1,6.1,0,0,0,6.1,6.1h29.67a6.1,6.1,0,0,0,6.1-6.1V38.42a6.11,6.11,0,0,0-6.1-6.11Z"/><path class="cls-2" d="M355.65,39v9.4A2.35,2.35,0,0,0,358,46.07v-4.7A2.35,2.35,0,0,0,355.65,39Z"/></g><g class="cls-1"><rect class="cls-2" x="59.8" y="32.22" width="6.11" height="23"/><rect class="cls-2" x="49.91" y="37.53" width="6.23" height="17.69"/><rect class="cls-2" x="39.9" y="42.84" width="6.34" height="12.38"/><rect class="cls-2" x="29.79" y="48.15" width="6.45" height="7.08"/></g><polygon class="cls-5" points="41.41 123.35 58.76 106 59.59 106.84 43.08 123.35 59.59 139.87 58.76 140.71 41.41 123.35"/><g class="cls-1"><path class="cls-2" d="M140.66,125.22v11.87H138.2V108h9.93a10.43,10.43,0,0,1,7.17,2.32,9.1,9.1,0,0,1,.1,12.72c-1.68,1.49-4.13,2.23-7.33,2.23Zm0-2.08h7.47a7.88,7.88,0,0,0,5.46-1.7,6.08,6.08,0,0,0,1.88-4.76,6.37,6.37,0,0,0-1.87-4.82,7.5,7.5,0,0,0-5.31-1.83h-7.63Z"/><path class="cls-2" d="M166.9,119.1a8.48,8.48,0,0,1,3-3,8,8,0,0,1,4-1.06,6.55,6.55,0,0,1,5.19,2q1.7,2,1.72,5.89v14.21h-2.38V122.86a6.6,6.6,0,0,0-1.24-4.32,4.79,4.79,0,0,0-3.87-1.43,6,6,0,0,0-3.93,1.4,8,8,0,0,0-2.54,3.75v14.83h-2.38V106.34h2.38Z"/><path class="cls-2" d="M187.34,125.94a12.84,12.84,0,0,1,1.21-5.62A9.1,9.1,0,0,1,197,115a8.89,8.89,0,0,1,7,3,11.67,11.67,0,0,1,2.68,8v.5a12.84,12.84,0,0,1-1.21,5.66,9.08,9.08,0,0,1-3.41,3.87,9.36,9.36,0,0,1-5,1.36,8.9,8.9,0,0,1-7-3,11.64,11.64,0,0,1-2.7-8Zm2.4.66a9.85,9.85,0,0,0,2,6.38,6.81,6.81,0,0,0,10.53,0,10.15,10.15,0,0,0,2-6.58v-.46a11.06,11.06,0,0,0-.92-4.54,7.38,7.38,0,0,0-2.59-3.19,6.53,6.53,0,0,0-3.8-1.14,6.38,6.38,0,0,0-5.22,2.52,10.13,10.13,0,0,0-2,6.57Z"/><path class="cls-2" d="M215.55,115.43l.08,3.71a8.57,8.57,0,0,1,3-3.06,8,8,0,0,1,4-1,6.51,6.51,0,0,1,5.18,2c1.13,1.31,1.71,3.27,1.72,5.89v14.21h-2.38V122.86a6.55,6.55,0,0,0-1.23-4.32,4.82,4.82,0,0,0-3.87-1.43,6.05,6.05,0,0,0-3.94,1.4,8.1,8.1,0,0,0-2.53,3.75v14.83h-2.38V115.43Z"/><path class="cls-2" d="M245.82,137.49a9.38,9.38,0,0,1-5-1.36,9.23,9.23,0,0,1-3.47-3.79,11.8,11.8,0,0,1-1.24-5.46V126a12.7,12.7,0,0,1,1.21-5.62,9.63,9.63,0,0,1,3.37-3.94,8.35,8.35,0,0,1,4.69-1.43,7.83,7.83,0,0,1,6.25,2.69,11,11,0,0,1,2.31,7.36v1.34H238.49v.46A9.05,9.05,0,0,0,240.6,133a6.74,6.74,0,0,0,5.32,2.45,7.75,7.75,0,0,0,3.39-.7,7.52,7.52,0,0,0,2.67-2.24l1.5,1.14A8.72,8.72,0,0,1,245.82,137.49Zm-.44-20.42a6,6,0,0,0-4.56,2,9.18,9.18,0,0,0-2.25,5.32h13v-.26a7.89,7.89,0,0,0-1.78-5.08A5.52,5.52,0,0,0,245.38,117.07Z"/></g></svg>