# 3ds Max Wavefront OBJ Exporter v0.97b - (c)2007 guruware
# File Created: 18.02.2020 21:27:38

mtllib CARROT.mtl

#
# object CARROT
#

v  -59.0358 2.5486 -0.0035
v  -59.0108 2.5573 -0.0035
v  -59.0061 2.5521 0.0512
v  -59.0362 2.5416 0.0512
v  -58.9992 2.5812 -0.0035
v  -58.9922 2.5808 0.0512
v  -59.0079 2.6063 -0.0035
v  -59.0027 2.6110 0.0512
v  -59.0318 2.6179 -0.0035
v  -59.0314 2.6249 0.0512
v  -59.0569 2.6092 -0.0035
v  -59.0616 2.6144 0.0512
v  -59.0685 2.5853 -0.0035
v  -59.0755 2.5857 0.0512
v  -59.0597 2.5602 -0.0035
v  -59.0650 2.5555 0.0512
v  -59.0135 2.5604 0.0659
v  -59.0246 2.5566 0.0659
v  -59.0356 2.5528 0.0659
v  -59.0033 2.5815 0.0659
v  -59.0084 2.5710 0.0659
v  -59.0110 2.6036 0.0659
v  -59.0072 2.5925 0.0659
v  -59.0321 2.6138 0.0659
v  -59.0215 2.6087 0.0659
v  -59.0541 2.6061 0.0659
v  -59.0431 2.6099 0.0659
v  -59.0643 2.5850 0.0659
v  -59.0592 2.5956 0.0659
v  -59.0566 2.5629 0.0659
v  -59.0605 2.5740 0.0659
v  -59.0461 2.5579 0.0659
v  -59.0134 2.5734 0.0659
v  -59.0260 2.5622 0.0659
v  -59.0124 2.5907 0.0659
v  -59.0239 2.6037 0.0659
v  -59.0413 2.6047 0.0659
v  -59.0543 2.5932 0.0659
v  -59.0553 2.5758 0.0659
v  -59.0437 2.5628 0.0659
v  -59.0310 2.5756 0.0659
v  -59.0264 2.5796 0.0659
v  -59.0260 2.5860 0.0659
v  -59.0302 2.5907 0.0659
v  -59.0366 2.5911 0.0659
v  -59.0413 2.5869 0.0659
v  -59.0417 2.5805 0.0659
v  -59.0374 2.5758 0.0659
v  -58.9789 2.5562 0.1213
v  -59.0133 2.5282 0.1213
v  -58.9772 2.6025 0.1213
v  -59.0064 2.6391 0.1213
v  -59.0650 2.6445 0.1213
v  -59.0942 2.6126 0.1213
v  -59.0911 2.5633 0.1213
v  -59.0592 2.5310 0.1213
v  -59.0236 2.5558 0.1213
v  -59.0058 2.5692 0.1213
v  -59.0054 2.5927 0.1213
v  -59.0194 2.6123 0.1213
v  -59.0436 2.6117 0.1213
v  -59.0673 2.5996 0.1213
v  -59.0629 2.5731 0.1213
v  -59.0462 2.5578 0.1213
v  -59.0194 2.5697 0.1720
v  -59.0174 2.5143 0.1484
v  -58.9977 2.5747 0.1878
v  -58.9870 2.5507 0.1327
v  -58.9846 2.6089 0.1327
v  -58.9980 2.5863 0.1878
v  -59.0088 2.6537 0.1488
v  -59.0170 2.5977 0.1716
v  -59.0699 2.5988 0.1488
v  -59.0688 2.6644 0.1716
v  -59.0754 2.5941 0.1671
v  -59.1226 2.6301 0.1878
v  -59.1681 2.5618 0.1878
v  -59.0703 2.5795 0.1327
v  -59.0569 2.5164 0.1716
v  -59.0486 2.5724 0.1488
v  -58.9938 2.5548 0.4524
v  -59.0430 2.5292 0.3748
v  -58.9309 2.5932 0.3207
v  -58.9241 2.5016 0.3203
v  -58.9167 2.6359 0.4676
v  -58.9980 2.5863 0.4679
v  -59.0098 2.6762 0.3204
v  -58.9634 2.6438 0.3206
v  -59.0978 2.6222 0.2302
v  -59.1222 2.7075 0.2785
v  -59.0754 2.5941 0.3203
v  -59.1371 2.6579 0.3207
v  -59.1861 2.5519 0.2697
v  -59.1307 2.5451 0.2694
v  -59.1197 2.5236 0.3710
v  -59.1490 2.5720 0.3709
# 96 vertices

vn -0.0574 -0.9902 -0.1276
vn 0.6596 -0.7407 -0.1276
vn 0.9902 -0.0574 -0.1276
vn 0.7407 0.6596 -0.1276
vn 0.0574 0.9902 -0.1276
vn -0.6596 0.7407 -0.1276
vn -0.9902 0.0574 -0.1276
vn -0.7407 -0.6596 -0.1276
vn 0.0000 -0.0000 -1.0000
vn 0.0000 0.0000 -1.0000
vn 0.2688 -0.7727 0.5750
vn 0.7366 -0.3564 0.5749
vn 0.7729 0.2689 0.5748
vn 0.3564 0.7367 0.5747
vn -0.2689 0.7729 0.5748
vn -0.7365 0.3563 0.5749
vn -0.7727 -0.2688 0.5750
vn -0.3563 -0.7365 0.5751
vn 0.0000 0.0000 1.0000
vn -0.0579 -0.9983 0.0000
vn 0.9375 0.3480 -0.0017
vn 0.4355 0.9002 0.0077
vn 0.3286 -0.9445 -0.0074
vn 0.9002 -0.4355 -0.0063
vn -0.8373 -0.5456 0.0339
vn -0.9445 -0.3286 0.0021
vn -0.4355 -0.9002 0.0019
vn -0.3286 0.9445 0.0012
vn -0.9002 0.4355 -0.0017
vn 0.9893 0.1459 0.0000
vn 0.7017 0.7125 -0.0000
vn 0.6146 -0.7888 -0.0001
vn 0.9686 -0.2485 -0.0000
vn -0.9299 -0.1102 -0.3510
vn -0.5682 -0.8171 -0.0972
vn -0.3767 0.8045 -0.4592
vn -0.9686 0.2485 -0.0000
vn 0.8642 -0.5032 0.0000
vn 0.8950 0.2958 -0.3340
vn 0.5948 -0.8033 -0.0304
vn 0.9148 0.3372 -0.2224
vn -0.9098 0.0531 -0.4115
vn -0.6714 -0.7401 0.0377
vn 0.0021 0.9800 0.1988
vn -0.9023 -0.2582 -0.3452
# 45 vertex normals

vt 0.8519 0.4015 0.2435
vt 0.8520 0.3515 -0.2435
vt 0.9485 0.3505 -0.2435
vt 0.9483 0.4018 -0.2435
vt 0.8514 0.3014 -0.2435
vt 0.9483 0.2996 -0.2435
vt 0.8502 0.2507 -0.2435
vt 0.9491 0.2473 -0.2435
vt 0.8493 0.1996 0.2435
vt 0.9481 0.1966 -0.2435
vt 0.8492 0.1484 -0.2435
vt 0.9475 0.1465 -0.2435
vt 0.8503 0.0982 -0.2435
vt 0.9477 0.0953 -0.2435
vt 0.8492 0.0511 -0.2435
vt 0.9480 0.0491 -0.2435
vt 0.8519 0.4511 -0.2435
vt 0.9486 0.4492 -0.2435
vt 0.9681 0.7394 -0.0765
vt 0.9501 0.7829 -0.0765
vt 0.9066 0.8010 0.0765
vt 0.9066 0.6779 0.0765
vt 0.8630 0.7829 -0.0765
vt 0.8450 0.7394 -0.0765
vt 0.8630 0.6959 -0.0765
vt 0.9501 0.6959 -0.0765
vt 0.9851 0.3496 -0.2435
vt 0.9851 0.3743 -0.2435
vt 0.9841 0.3986 -0.2435
vt 0.9846 0.2986 -0.2435
vt 0.9846 0.3239 -0.2435
vt 0.9833 0.2470 -0.2435
vt 0.9840 0.2725 -0.2435
vt 0.9822 0.1965 -0.2435
vt 0.9826 0.2214 -0.2435
vt 0.9820 0.1469 -0.2435
vt 0.9817 0.1709 -0.2435
vt 0.9821 0.0965 -0.2435
vt 0.9820 0.1219 -0.2435
vt 0.9826 0.0490 -0.2435
vt 0.9822 0.0725 -0.2435
vt 0.9836 0.4202 -0.2435
vt 0.9832 0.4502 -0.2435
vt 0.7787 0.1858 0.0000
vt 0.7996 0.1842 0.0000
vt 0.8151 0.1983 0.0000
vt 0.8077 0.2056 0.0000
vt 0.8077 0.2047 0.0000
vt 0.8101 0.2067 0.0000
vt 0.7819 0.1948 0.0000
vt 0.7812 0.1937 0.0000
vt 0.7799 0.1914 0.0000
vt 0.8300 0.2134 0.0000
vt 0.8295 0.2345 0.0000
vt 0.8070 0.2044 0.0000
vt 0.8197 0.2342 0.0000
vt 0.8198 0.2339 0.0000
vt 0.8297 0.2558 0.0000
vt 0.8145 0.2707 0.0000
vt 0.8192 0.2342 0.0000
vt 0.8103 0.2668 0.0000
vt 0.8094 0.2656 0.0000
vt 0.8094 0.2651 0.0000
vt 0.8008 0.2868 0.0000
vt 0.7797 0.2881 0.0000
vt 0.8086 0.2655 0.0000
vt 0.7795 0.2823 0.0000
vt 0.7795 0.2808 0.0000
vt 0.7797 0.2802 0.0000
vt 0.7586 0.2905 0.0000
vt 0.7423 0.2770 0.0000
vt 0.7794 0.2803 0.0000
vt 0.7486 0.2694 0.0000
vt 0.7488 0.2695 0.0000
vt 0.7490 0.2693 0.0000
vt 0.7287 0.2613 0.0000
vt 0.7310 0.2407 0.0000
vt 0.7490 0.2689 0.0000
vt 0.7407 0.2442 0.0000
vt 0.7423 0.2480 0.0000
vt 0.7404 0.2507 0.0000
vt 0.7299 0.2197 0.0000
vt 0.7443 0.2044 0.0000
vt 0.7407 0.2419 0.0000
vt 0.7484 0.2082 0.0000
vt 0.7494 0.2097 0.0000
vt 0.7495 0.2106 0.0000
vt 0.7576 0.1878 0.0000
vt 0.7498 0.2091 0.0000
vt 0.7797 0.1937 0.0000
vt 0.7811 0.2218 0.0000
vt 0.7917 0.2265 0.0000
vt 0.7936 0.2334 0.0000
vt 0.7920 0.2298 0.0000
vt 0.7911 0.2282 0.0000
vt 0.7892 0.2474 0.0000
vt 0.7926 0.2383 0.0000
vt 0.7924 0.2379 0.0000
vt 0.7773 0.2529 0.0000
vt 0.7882 0.2482 0.0000
vt 0.7881 0.2480 0.0000
vt 0.7671 0.2492 0.0000
vt 0.7761 0.2520 0.0000
vt 0.7766 0.2525 0.0000
vt 0.7640 0.2420 0.0000
vt 0.7660 0.2453 0.0000
vt 0.7664 0.2470 0.0000
vt 0.7699 0.2281 0.0000
vt 0.7665 0.2375 0.0000
vt 0.7670 0.2378 0.0000
vt 0.7810 0.2210 0.0000
vt 0.7702 0.2274 0.0000
vt 0.7703 0.2267 0.0000
vt 0.7810 0.2206 0.0000
vt 0.7650 0.2388 0.0000
vt 0.7919 0.2273 0.0000
vt 0.7933 0.2365 0.0000
vt 0.7665 0.2470 0.0000
vt 0.4773 0.2411 0.0697
vt 0.4053 0.3367 -0.7749
vt 0.1225 0.2357 -0.0588
vt 0.2341 0.2719 0.0588
vt 0.4832 0.0214 -0.0588
vt 0.3651 0.0200 0.0588
vt 0.1621 0.0215 -0.0588
vt 0.0416 0.0200 0.0588
vt 0.8690 0.4837 0.1533
vt 0.7794 0.5753 -0.8579
vt 0.5039 0.6361 0.0905
vt 0.5825 0.5375 -1.0063
vt 0.2033 0.0209 -0.0588
vt 0.3223 0.0200 0.0588
vt 0.5269 0.0200 -0.0588
vt 0.6434 0.0220 0.0588
vt 0.1349 0.8431 -2.2742
vt 0.0837 0.9489 -0.2678
vt 0.0587 0.9522 -2.2742
vt 0.0831 0.8499 -2.2742
vt 0.5029 0.2421 -0.7749
vt 0.4582 0.3387 -0.7749
vt 0.5029 0.2421 0.0697
vt 0.6578 0.0691 -2.4020
vt 0.7512 0.0200 -2.4020
vt 0.7541 0.0454 -0.3293
vt 0.6637 0.1218 -2.4020
vt 0.2548 0.2305 -0.0588
vt 0.1494 0.2303 0.0588
vt 0.2216 0.9095 -1.2444
vt 0.1323 0.9689 -1.2444
vt 0.1278 0.9437 0.1121
vt 0.2123 0.8574 -1.2444
vt 0.1448 0.2627 -0.0588
vt 0.1440 0.3697 0.0588
vt 0.8487 0.5808 -0.8579
vt 0.8946 0.4857 -0.8579
vt 0.8946 0.4857 0.1533
vt 0.5298 0.5378 -1.0063
vt 0.4783 0.6361 -1.0063
vt 0.4783 0.6361 0.0905
vt 0.7236 0.4186 -0.9482
vt 0.7928 0.3381 -0.9482
vt 0.8045 0.3609 0.1887
vt 0.7478 0.4657 -0.9482
vt 0.1440 0.4136 -0.0588
vt 0.1447 0.5196 0.0588
vt 0.2366 0.6479 -1.6257
vt 0.2347 0.7524 -1.6257
vt 0.2108 0.7432 -0.0002
vt 0.1872 0.6290 -1.6257
vt 0.1888 0.3004 -0.0588
vt 0.1872 0.4047 0.0588
vt 0.4596 0.9800 -0.0588
vt 0.3597 0.9475 0.0588
vt 0.0509 0.7620 -2.2742
vt 0.1536 0.7919 -2.2742
vt 0.4638 0.4577 -0.7749
vt 0.4129 0.3621 -0.7749
vt 0.6378 0.1160 -2.4020
vt 0.5387 0.0722 -2.4020
vt 0.2588 0.8273 -1.2444
vt 0.3140 0.9205 -1.2444
vt 0.8618 0.6509 -0.8579
vt 0.7390 0.6626 -0.8579
vt 0.5347 0.4553 -1.0063
vt 0.6406 0.4186 -1.0063
vt 0.6957 0.6384 -0.9482
vt 0.7045 0.4370 -0.9482
vt 0.1994 0.5368 -1.6257
vt 0.2781 0.6112 -1.6257
vt 0.0200 0.2627 2.2742
vt 0.1346 0.3871 -2.2742
vt 0.4568 0.7236 0.7749
vt 0.2950 0.7042 -0.7749
vt 0.0432 0.2441 -2.4020
vt 0.0416 0.0751 2.4020
vt 0.5540 0.7426 -1.2444
vt 0.5937 0.8348 1.2444
vt 0.7915 0.7927 -0.8579
vt 0.6239 0.8563 0.8579
vt 0.5340 0.1828 -1.0063
vt 0.6908 0.1818 1.0063
vt 0.5804 0.7343 0.9482
vt 0.5323 0.6478 -0.9482
vt 0.3384 0.1926 1.6257
vt 0.4375 0.2091 -1.6257
# 205 texture coords

g CARROT
usemtl wire_027177027
s 8
f 1/1/1 2/2/2 3/3/2 4/4/1 
f 2/2/2 5/5/3 6/6/3 3/3/2 
f 5/5/3 7/7/4 8/8/4 6/6/3 
f 7/7/4 9/9/5 10/10/5 8/8/4 
f 9/9/5 11/11/6 12/12/6 10/10/5 
f 11/11/6 13/13/7 14/14/7 12/12/6 
f 13/13/7 15/15/8 16/16/8 14/14/7 
f 15/17/8 1/1/1 4/4/1 16/18/8 
s 1
f 13/19/9 11/20/10 9/21/10 1/22/9 
f 9/21/10 7/23/10 5/24/9 1/22/9 
f 5/24/9 2/25/9 1/22/9 
f 15/26/10 13/19/9 1/22/9 
s off
f 4/4/11 3/3/11 17/27/11 18/28/11 
f 4/4/11 18/28/11 19/29/11 
f 3/3/12 6/6/12 20/30/12 21/31/12 
f 3/3/12 21/31/12 17/27/12 
f 6/6/13 8/8/13 22/32/13 23/33/13 
f 6/6/13 23/33/13 20/30/13 
f 8/8/14 10/10/14 24/34/14 25/35/14 
f 8/8/14 25/35/14 22/32/14 
f 10/10/15 12/12/15 26/36/15 27/37/15 
f 10/10/15 27/37/15 24/34/15 
f 12/12/16 14/14/16 28/38/16 29/39/16 
f 12/12/16 29/39/16 26/36/16 
f 14/14/17 16/16/17 30/40/17 31/41/17 
f 14/14/17 31/41/17 28/38/17 
f 16/18/18 4/4/18 19/29/18 32/42/18 
f 16/18/18 32/42/18 30/43/18 
s 1
f 18/44/19 17/45/19 21/46/19 33/47/19 
f 21/46/19 33/48/20 33/47/19 
f 33/47/19 33/49/19 34/50/19 34/51/19 
f 18/44/19 33/47/19 34/51/19 34/52/20 
f 21/46/19 20/53/19 23/54/19 33/55/19 
f 23/54/19 35/56/20 35/56/19 33/55/19 
f 35/56/19 35/57/19 33/55/19 
f 21/46/19 33/55/19 33/48/20 
f 23/54/19 22/58/19 25/59/19 35/60/19 
f 25/59/19 36/61/20 36/62/19 35/60/19 
f 36/62/19 36/63/19 35/60/19 
f 23/54/19 35/60/19 35/56/20 
f 25/59/19 24/64/19 27/65/19 36/66/19 
f 27/65/19 37/67/20 37/68/19 36/66/19 
f 37/68/19 37/69/19 36/66/19 
f 25/59/19 36/66/19 36/61/20 
f 27/65/19 26/70/19 29/71/19 37/72/19 
f 29/71/19 38/73/20 38/74/19 37/72/19 
f 38/74/19 38/75/19 37/72/19 
f 27/65/19 37/72/19 37/67/20 
f 29/71/19 28/76/19 31/77/19 38/78/19 
f 31/77/19 39/79/20 39/80/19 38/78/19 
f 39/80/19 39/81/19 38/78/19 
f 29/71/19 38/78/19 38/73/20 
f 31/77/19 30/82/19 32/83/19 39/84/19 
f 32/83/19 40/85/20 40/86/19 39/84/19 
f 40/86/19 40/87/19 39/84/19 
f 31/77/19 39/84/19 39/79/20 
f 32/83/19 19/88/19 18/44/19 40/89/19 
f 18/44/19 34/52/20 34/90/19 40/89/19 
f 32/83/19 40/89/19 40/85/20 
f 41/91/19 34/50/19 33/49/19 42/92/19 
f 43/93/19 42/94/20 42/95/19 33/55/19 
f 43/93/19 33/55/19 35/57/19 
f 44/96/19 43/97/20 43/98/19 35/60/19 
f 44/96/19 35/60/19 36/63/19 
f 45/99/19 44/100/20 44/101/19 36/66/19 
f 45/99/19 36/66/19 37/69/19 
f 46/102/19 45/103/20 45/104/19 37/72/19 
f 46/102/19 37/72/19 38/75/19 
f 47/105/19 46/106/20 46/107/19 38/78/19 
f 47/105/19 38/78/19 39/81/19 
f 48/108/19 47/109/20 47/110/19 39/84/19 
f 48/108/19 39/84/19 40/87/19 
f 41/111/19 48/112/20 48/113/19 40/89/19 
f 41/111/19 40/89/19 34/90/19 41/114/20 
s 2
f 47/115/19 42/116/20 42/94/19 46/106/19 
f 42/94/19 43/93/20 43/117/19 46/106/19 
f 43/117/19 46/118/20 46/106/19 
f 47/115/19 46/106/19 47/105/20 
s off
f 42/116/19 47/115/19 47/109/19 41/91/19 
f 47/109/19 48/108/19 48/112/19 41/91/19 
f 48/112/19 41/111/19 41/91/19 
f 42/116/19 41/91/19 42/92/19 
f 45/103/19 46/102/19 46/118/19 44/100/19 
f 46/118/19 43/117/19 43/97/19 44/100/19 
f 43/97/19 44/96/19 44/100/19 
f 45/103/19 44/100/19 45/99/19 
f 33/119/20 49/120/20 33/119/20 
f 34/121/20 50/122/20 34/121/20 
f 35/123/20 51/124/20 35/123/20 
f 36/125/20 52/126/20 36/125/20 
f 37/127/20 53/128/20 37/127/20 
f 38/129/20 54/130/20 38/129/20 
f 39/131/20 55/132/20 39/131/20 
f 40/133/20 56/134/20 40/133/20 
f 50/135/21 34/136/21 41/137/21 57/138/21 
f 33/119/22 42/139/22 58/140/22 
f 58/140/22 49/120/22 33/119/22 
f 42/141/20 58/140/20 42/141/20 
f 59/142/23 43/143/23 35/144/23 51/145/23 
f 43/146/20 59/147/20 43/146/20 
f 60/148/24 44/149/24 36/150/24 52/151/24 
f 44/152/20 60/153/20 44/152/20 
f 61/154/25 53/128/25 37/127/25 
f 37/127/26 45/155/26 61/154/26 
f 45/156/20 61/154/20 45/156/20 
f 62/157/27 54/130/27 38/129/27 
f 38/129/27 46/158/27 62/157/27 
f 46/159/20 62/157/20 46/159/20 
f 63/160/28 47/161/28 39/162/28 55/163/28 
f 47/164/20 63/165/20 47/164/20 
f 64/166/29 48/167/29 40/168/29 56/169/29 
f 48/170/20 64/171/20 48/170/20 
f 41/172/20 57/173/20 41/172/20 
f 42/141/20 58/140/20 42/141/20 
f 43/146/20 59/147/20 43/146/20 
f 46/159/20 62/157/20 46/159/20 
f 47/164/20 63/165/20 47/164/20 
f 47/164/20 63/165/20 47/164/20 
f 48/170/20 64/171/20 48/170/20 
f 41/172/20 57/173/20 41/172/20 
f 42/139/20 58/140/20 42/141/20 
f 46/158/20 62/157/20 46/159/20 
f 43/146/20 59/147/20 43/146/20 
f 44/152/20 60/153/20 44/152/20 
f 45/155/20 61/154/20 45/156/20 
f 50/135/30 57/138/30 65/174/30 66/175/30 
f 58/140/31 67/176/31 68/177/31 49/120/31 
f 59/142/32 51/145/32 69/178/32 70/179/32 
f 60/148/33 52/151/33 71/180/33 72/181/33 
f 61/154/34 73/182/34 74/183/34 53/128/34 
f 62/157/35 75/184/35 76/185/35 54/130/35 
f 63/160/36 55/163/36 77/186/36 78/187/36 
f 64/166/37 56/169/37 79/188/37 80/189/37 
f 66/175/38 65/174/38 81/190/38 82/191/38 
f 67/176/39 83/192/39 84/193/39 68/177/39 
f 70/179/40 69/178/40 85/194/40 86/195/40 
f 72/181/41 71/180/41 87/196/41 88/197/41 
f 73/182/42 89/198/42 90/199/42 74/183/42 
f 75/184/43 91/200/43 92/201/43 76/185/43 
f 78/187/44 77/186/44 93/202/44 94/203/44 
f 80/189/45 79/188/45 95/204/45 96/205/45 
# 71 polygons - 70 triangles

