<svg viewBox="0 0 390 844" xmlns="http://www.w3.org/2000/svg"><g fill="#fff"><g opacity=".8"><rect height="14.09" rx="1.45" width="4.7" x="316.51" y="36.64"/><rect height="14.09" rx="1.45" width="4.7" x="323.56" y="36.64"/><rect height="14.09" rx="1.45" width="4.7" x="330.6" y="36.64"/><rect height="14.09" rx="1.45" width="4.7" x="337.65" y="36.64"/><rect height="14.09" rx="1.45" width="4.7" x="344.69" y="36.64"/></g><g opacity=".8"><path d="m347.77 33.96c2.44 0 4.42 1.98 4.42 4.42v10.6c0 2.44-1.98 4.42-4.42 4.42h-29.64c-2.44 0-4.42-1.98-4.42-4.42v-10.6c0-2.44 1.98-4.42 4.42-4.42zm0-1.68h-29.64c-3.37 0-6.1 2.73-6.1 6.1v10.6c0 3.37 2.73 6.1 6.1 6.1h29.64c3.37 0 6.1-2.73 6.1-6.1v-10.6c0-3.37-2.73-6.1-6.1-6.1z"/><path d="m356.65 38.99v9.39c1.3 0 2.35-1.05 2.35-2.35v-4.7c0-1.3-1.05-2.35-2.35-2.35z"/></g><g opacity=".8"><path d="m61 32.19h6.11v22.99h-6.11z"/><path d="m51.11 37.49h6.22v17.68h-6.22z"/><path d="m41.11 42.8h6.33v12.38h-6.33z"/><path d="m31 48.1h6.44v7.07h-6.44z"/></g><path d="m302.37 275.28h-60.77c-20.35 0-36.91-16.56-36.91-36.91v-60.77c0-20.35 16.56-36.91 36.91-36.91h60.77c20.35 0 36.91 16.56 36.91 36.91v60.77c0 20.35-16.56 36.91-36.91 36.91zm-60.77-133.39c-19.69 0-35.71 16.02-35.71 35.71v60.77c0 19.69 16.02 35.71 35.71 35.71h60.77c19.69 0 35.71-16.02 35.71-35.71v-60.77c0-19.69-16.02-35.71-35.71-35.71z" opacity=".8"/><path d="m148.4 272.69h-60.77c-20.35 0-36.91-16.56-36.91-36.91v-60.77c0-20.35 16.56-36.91 36.91-36.91h60.77c20.35 0 36.91 16.56 36.91 36.91v60.77c0 20.35-16.56 36.91-36.91 36.91zm-60.77-133.39c-19.69 0-35.71 16.02-35.71 35.71v60.77c0 19.69 16.02 35.71 35.71 35.71h60.77c19.69 0 35.71-16.02 35.71-35.71v-60.77c0-19.69-16.02-35.71-35.71-35.71z" opacity=".8"/><path d="m302.37 467.92h-60.77c-20.35 0-36.91-16.56-36.91-36.91v-60.77c0-20.35 16.56-36.91 36.91-36.91h60.77c20.35 0 36.91 16.56 36.91 36.91v60.77c0 20.35-16.56 36.91-36.91 36.91zm-60.77-133.39c-19.69 0-35.71 16.02-35.71 35.71v60.77c0 19.69 16.02 35.71 35.71 35.71h60.77c19.69 0 35.71-16.02 35.71-35.71v-60.77c0-19.69-16.02-35.71-35.71-35.71z" opacity=".8"/><path d="m148.4 467.92h-60.77c-20.35 0-36.91-16.56-36.91-36.91v-60.77c0-20.35 16.56-36.91 36.91-36.91h60.77c20.35 0 36.91 16.56 36.91 36.91v60.77c0 20.35-16.56 36.91-36.91 36.91zm-60.77-133.39c-19.69 0-35.71 16.02-35.71 35.71v60.77c0 19.69 16.02 35.71 35.71 35.71h60.77c19.69 0 35.71-16.02 35.71-35.71v-60.77c0-19.69-16.02-35.71-35.71-35.71z" opacity=".8"/><path d="m302.37 660.56h-60.77c-20.35 0-36.91-16.56-36.91-36.91v-60.77c0-20.35 16.56-36.91 36.91-36.91h60.77c20.35 0 36.91 16.56 36.91 36.91v60.77c0 20.35-16.56 36.91-36.91 36.91zm-60.77-133.39c-19.69 0-35.71 16.02-35.71 35.71v60.77c0 19.69 16.02 35.71 35.71 35.71h60.77c19.69 0 35.71-16.02 35.71-35.71v-60.77c0-19.69-16.02-35.71-35.71-35.71z" opacity=".8"/><path d="m148.4 660.56h-60.77c-20.35 0-36.91-16.56-36.91-36.91v-60.77c0-20.35 16.56-36.91 36.91-36.91h60.77c20.35 0 36.91 16.56 36.91 36.91v60.77c0 20.35-16.56 36.91-36.91 36.91zm-60.77-133.39c-19.69 0-35.71 16.02-35.71 35.71v60.77c0 19.69 16.02 35.71 35.71 35.71h60.77c19.69 0 35.71-16.02 35.71-35.71v-60.77c0-19.69-16.02-35.71-35.71-35.71z" opacity=".8"/><g opacity=".8"><path d="m114.25 192.91h21.14v1.19h-21.14z"/><path d="m114.25 205.39h21.14v1.19h-21.14z"/><path d="m114.25 217.87h21.14v1.19h-21.14z"/><path d="m105.19 188.63c-2.48 0-4.5 2.02-4.5 4.5s2.02 4.5 4.5 4.5 4.5-2.02 4.5-4.5-2.02-4.5-4.5-4.5zm0 7.99c-1.93 0-3.49-1.57-3.49-3.49s1.57-3.49 3.49-3.49 3.49 1.57 3.49 3.49-1.57 3.49-3.49 3.49z"/><path d="m105.19 201.11c-2.48 0-4.5 2.02-4.5 4.5s2.02 4.5 4.5 4.5 4.5-2.02 4.5-4.5-2.02-4.5-4.5-4.5zm0 7.99c-1.93 0-3.49-1.57-3.49-3.49s1.57-3.49 3.49-3.49 3.49 1.57 3.49 3.49-1.57 3.49-3.49 3.49z"/><path d="m105.19 213.59c-2.48 0-4.5 2.02-4.5 4.5s2.02 4.5 4.5 4.5 4.5-2.02 4.5-4.5-2.02-4.5-4.5-4.5zm0 7.99c-1.93 0-3.49-1.57-3.49-3.49s1.57-3.49 3.49-3.49 3.49 1.57 3.49 3.49-1.57 3.49-3.49 3.49z"/><path d="m138.55 170.22h-4.85v-2.09c0-.33-.27-.59-.59-.59s-.59.27-.59.59v2.09h-8.87v-2.09c0-.33-.27-.59-.59-.59s-.59.27-.59.59v2.09h-8.87v-2.09c0-.33-.27-.59-.59-.59s-.59.27-.59.59v2.09h-8.87v-2.09c0-.33-.27-.59-.59-.59s-.59.27-.59.59v2.09h-4.85c-3.63 0-6.58 2.95-6.58 6.58v55.88c0 3.63 2.95 6.58 6.58 6.58h41.06c3.63 0 6.58-2.95 6.58-6.58v-55.88c0-3.63-2.95-6.58-6.58-6.58zm5.39 62.46c0 2.97-2.42 5.39-5.39 5.39h-41.06c-2.97 0-5.39-2.42-5.39-5.39v-55.88c0-2.97 2.42-5.39 5.39-5.39h4.85v4.04c0 .33.27.59.59.59s.59-.27.59-.59v-4.04h8.87v4.04c0 .33.27.59.59.59s.59-.27.59-.59v-4.04h8.87v4.04c0 .33.27.59.59.59s.59-.27.59-.59v-4.04h8.87v4.04c0 .33.27.59.59.59s.59-.27.59-.59v-4.04h4.85c2.97 0 5.39 2.42 5.39 5.39v55.88z"/></g><g opacity=".9"><path d="m101.92 299.75h-1.14l-7.76-11.55v11.55h-1.15v-13.5h1.15l7.77 11.56v-11.56h1.13z"/><path d="m105.99 294.58c0-.96.19-1.83.56-2.61.37-.77.9-1.37 1.59-1.8.68-.43 1.46-.64 2.32-.64 1.33 0 2.42.47 3.25 1.4.83.94 1.24 2.18 1.24 3.72v.23c0 .97-.19 1.84-.56 2.62s-.9 1.37-1.58 1.79-1.46.63-2.33.63c-1.33 0-2.41-.47-3.24-1.4-.83-.94-1.25-2.18-1.25-3.72zm1.11.31c0 1.2.31 2.18.93 2.95s1.44 1.15 2.44 1.15 1.81-.38 2.43-1.15.93-1.79.93-3.05v-.21c0-.77-.14-1.47-.43-2.1s-.68-1.13-1.2-1.48c-.51-.35-1.1-.52-1.76-.52-.99 0-1.8.39-2.42 1.16-.62.78-.94 1.79-.94 3.04v.2z"/><path d="m120.48 287.15v2.57h2.08v.91h-2.08v6.69c0 .56.1.97.3 1.24s.54.41 1.01.41c.19 0 .49-.03.9-.09l.05.9c-.29.1-.69.16-1.19.16-.76 0-1.31-.22-1.66-.66s-.52-1.09-.52-1.95v-6.69h-1.84v-.91h1.84v-2.57h1.11z"/><path d="m130.26 299.93c-.85 0-1.62-.21-2.31-.63s-1.23-1.01-1.61-1.76-.57-1.59-.57-2.53v-.4c0-.96.19-1.83.56-2.61.37-.77.89-1.38 1.56-1.82s1.39-.66 2.17-.66c1.22 0 2.18.42 2.9 1.25s1.07 1.97 1.07 3.41v.62h-7.16v.21c0 1.14.33 2.08.98 2.84s1.47 1.14 2.46 1.14c.59 0 1.12-.11 1.57-.32.45-.22.87-.56 1.24-1.04l.7.53c-.82 1.18-2 1.77-3.55 1.77zm-.2-9.46c-.83 0-1.54.31-2.11.92s-.92 1.43-1.04 2.47h6.02v-.12c-.03-.96-.31-1.75-.83-2.35-.52-.61-1.2-.91-2.04-.91z"/><path d="m143.71 297.2c0-.55-.22-.99-.66-1.33-.44-.33-1.11-.6-2-.78-.89-.19-1.58-.4-2.07-.65s-.86-.54-1.09-.89c-.24-.35-.36-.78-.36-1.28 0-.79.33-1.44.99-1.96s1.51-.77 2.54-.77c1.12 0 2.02.28 2.69.83.68.55 1.02 1.27 1.02 2.16h-1.11c0-.59-.25-1.08-.74-1.46-.49-.39-1.11-.58-1.86-.58s-1.32.16-1.76.49c-.44.32-.66.75-.66 1.27s.18.89.55 1.16c.37.28 1.04.53 2.01.76s1.7.47 2.19.73.85.57 1.08.94c.23.36.35.81.35 1.33 0 .85-.34 1.52-1.02 2.03s-1.57.76-2.67.76c-1.17 0-2.12-.28-2.84-.85-.73-.57-1.09-1.28-1.09-2.15h1.11c.04.65.32 1.15.82 1.52.5.36 1.17.54 2 .54.77 0 1.4-.17 1.87-.51s.71-.77.71-1.29z"/></g><path d="m286.36 189.03c-3.29-3.82-7.86-6.51-13.63-6.89v22.16l3.74.82c8.84 2.02 13.63 5.32 13.63 12.73 0 7.79-5.76 13.7-17.22 13.78h-.15v7.19h-1.57v-7.26c-8.98-.52-14.82-5.47-17.3-10.26l1.35-1.27c2.4 5.09 8.01 9.43 15.95 10.03v-24.48l-1.65-.37c-6.96-1.5-13.78-3.74-13.85-11.98 0-7.64 6.44-12.5 15.5-12.65v-7.41h1.57v7.49c6.66.37 11.91 3.67 14.6 6.96l-.97 1.42zm-16.4 14.68 1.2.3v-21.94c-8.09.07-13.78 4.34-13.78 10.93s4.87 9.06 12.58 10.71zm2.77 2.25v24.18h.3c10.03-.08 15.42-5.02 15.42-12.28 0-6.29-4.57-9.43-12.28-11.08z" opacity=".8"/><g opacity=".9"><path d="m235.76 299.75v-13.5h3.99c1.45 0 2.54.3 3.29.9s1.12 1.48 1.12 2.64c0 .7-.19 1.31-.57 1.82-.38.52-.9.89-1.56 1.11.79.17 1.42.56 1.9 1.16s.72 1.29.72 2.08c0 1.19-.38 2.12-1.15 2.79s-1.84 1-3.21 1h-4.52zm1.14-7.45h3.12c.95-.02 1.69-.24 2.21-.67s.78-1.06.78-1.88c0-.87-.27-1.51-.81-1.92s-1.36-.62-2.45-.62h-2.85zm0 .96v5.52h3.42c.98 0 1.75-.25 2.32-.75s.86-1.19.86-2.07c0-.83-.27-1.49-.82-1.98s-1.3-.73-2.27-.73h-3.51z"/><path d="m254.98 299.75c-.11-.32-.18-.78-.21-1.4-.39.51-.89.9-1.49 1.17-.6.28-1.24.41-1.91.41-.96 0-1.74-.27-2.34-.81s-.89-1.22-.89-2.04c0-.98.41-1.75 1.22-2.32s1.95-.85 3.4-.85h2.01v-1.14c0-.72-.22-1.28-.66-1.69s-1.09-.62-1.93-.62c-.77 0-1.41.2-1.92.59s-.76.87-.76 1.43h-1.11c0-.81.37-1.5 1.11-2.08s1.65-.88 2.73-.88 2 .28 2.65.84.98 1.34 1 2.34v4.75c0 .97.1 1.7.31 2.18v.11h-1.19zm-3.49-.8c.74 0 1.4-.18 1.99-.54s1.01-.84 1.27-1.44v-2.21h-1.98c-1.11.01-1.97.21-2.6.61-.62.39-.94.93-.94 1.62 0 .56.21 1.03.63 1.4s.96.56 1.63.56z"/><path d="m261.4 289.72.04 1.71c.38-.62.85-1.09 1.41-1.41s1.18-.49 1.86-.49c1.08 0 1.88.3 2.4.91.53.61.79 1.51.8 2.73v6.58h-1.1v-6.59c0-.9-.2-1.56-.57-2s-.97-.66-1.79-.66c-.69 0-1.29.21-1.82.64s-.92 1.01-1.17 1.74v6.87h-1.1v-10.03h1.06z"/><path d="m274.67 294.69-1.27 1.22v3.83h-1.11v-14.24h1.11v9.11l1.05-1.13 3.84-3.77h1.4l-4.26 4.23 4.63 5.8h-1.33z"/><path d="m283.04 286.82c0-.21.07-.39.2-.53.14-.14.32-.22.56-.22s.42.07.56.22c.14.14.21.32.21.53s-.07.38-.21.53c-.14.14-.33.21-.56.21s-.42-.07-.56-.21-.2-.32-.2-.53zm1.31 12.93h-1.11v-10.03h1.11z"/><path d="m289.94 289.72.04 1.71c.38-.62.85-1.09 1.41-1.41s1.18-.49 1.86-.49c1.08 0 1.88.3 2.4.91.53.61.79 1.51.8 2.73v6.58h-1.1v-6.59c0-.9-.2-1.56-.57-2s-.97-.66-1.79-.66c-.69 0-1.29.21-1.82.64s-.92 1.01-1.17 1.74v6.87h-1.1v-10.03h1.06z"/><path d="m300.39 294.64c0-1.57.35-2.81 1.04-3.73s1.64-1.38 2.83-1.38c1.37 0 2.4.54 3.11 1.63l.06-1.45h1.04v9.83c0 1.29-.36 2.31-1.08 3.07-.72.75-1.7 1.13-2.94 1.13-.7 0-1.36-.16-2-.47-.63-.31-1.13-.73-1.5-1.25l.62-.67c.79.96 1.72 1.45 2.8 1.45.93 0 1.65-.27 2.17-.82s.79-1.31.81-2.28v-1.26c-.71.99-1.75 1.48-3.11 1.48-1.16 0-2.1-.46-2.8-1.39s-1.06-2.18-1.06-3.75v-.15zm1.12.19c0 1.28.26 2.29.77 3.03s1.24 1.11 2.17 1.11c1.37 0 2.33-.61 2.9-1.84v-4.66c-.26-.64-.63-1.13-1.12-1.47s-1.08-.51-1.76-.51c-.93 0-1.66.37-2.18 1.1s-.78 1.81-.78 3.24z"/></g><g opacity=".9"><path d="m95.59 479.42 4.98 11.91 5-11.91h1.52v13.5h-1.14v-5.88l.09-6.03-5.03 11.9h-.88l-5.01-11.86.09 5.94v5.92h-1.14v-13.5h1.51z"/><path d="m118.1 492.92c-.11-.32-.18-.78-.21-1.4-.39.51-.89.9-1.49 1.17-.6.28-1.24.41-1.91.41-.96 0-1.74-.27-2.34-.81s-.89-1.22-.89-2.04c0-.98.41-1.75 1.22-2.32s1.95-.85 3.4-.85h2.01v-1.14c0-.72-.22-1.28-.66-1.69s-1.09-.62-1.93-.62c-.77 0-1.41.2-1.92.59s-.76.87-.76 1.43h-1.11c0-.81.37-1.5 1.11-2.08s1.65-.88 2.73-.88 2 .28 2.65.84.98 1.34 1 2.34v4.75c0 .97.1 1.7.31 2.18v.11h-1.19zm-3.49-.8c.74 0 1.4-.18 1.99-.54s1.01-.84 1.27-1.44v-2.21h-1.98c-1.11.01-1.97.21-2.6.61-.62.39-.94.93-.94 1.62 0 .56.21 1.03.63 1.4s.96.56 1.63.56z"/><path d="m131.52 488c0 1.56-.35 2.8-1.04 3.72s-1.62 1.38-2.78 1.38c-1.37 0-2.42-.48-3.15-1.45v5.12h-1.1v-13.89h1.03l.06 1.42c.72-1.07 1.77-1.6 3.14-1.6 1.2 0 2.14.45 2.82 1.36s1.02 2.17 1.02 3.78zm-1.11-.19c0-1.28-.26-2.29-.79-3.03s-1.26-1.11-2.2-1.11c-.68 0-1.26.16-1.75.49s-.86.8-1.12 1.43v4.81c.27.57.65 1.01 1.14 1.32s1.08.45 1.75.45c.93 0 1.66-.37 2.18-1.12s.78-1.83.78-3.24z"/><path d="m141.5 490.37c0-.55-.22-.99-.66-1.33-.44-.33-1.11-.6-2-.78-.89-.19-1.58-.4-2.07-.65s-.86-.54-1.09-.89c-.24-.35-.36-.78-.36-1.28 0-.79.33-1.44.99-1.96s1.51-.77 2.54-.77c1.12 0 2.02.28 2.69.83.68.55 1.02 1.27 1.02 2.16h-1.11c0-.59-.25-1.08-.74-1.46-.49-.39-1.11-.58-1.86-.58s-1.32.16-1.76.49c-.44.32-.66.75-.66 1.27s.18.89.55 1.16c.37.28 1.04.53 2.01.76s1.7.47 2.19.73.85.57 1.08.94c.23.36.35.81.35 1.33 0 .85-.34 1.52-1.02 2.03s-1.57.76-2.67.76c-1.17 0-2.12-.28-2.84-.85-.73-.57-1.09-1.28-1.09-2.15h1.11c.04.65.32 1.15.82 1.52.5.36 1.17.54 2 .54.77 0 1.4-.17 1.87-.51s.71-.77.71-1.29z"/></g><g opacity=".9"><path d="m237.7 492.92h-1.14v-13.5h1.14z"/><path d="m243.68 482.89.04 1.71c.38-.62.85-1.09 1.41-1.41s1.18-.49 1.86-.49c1.08 0 1.88.3 2.4.91.53.61.79 1.51.8 2.73v6.58h-1.1v-6.59c0-.9-.2-1.56-.57-2s-.97-.66-1.79-.66c-.69 0-1.29.21-1.82.64s-.92 1.01-1.17 1.74v6.87h-1.1v-10.03h1.06z"/><path d="m256.3 480.32v2.57h2.08v.91h-2.08v6.69c0 .56.1.97.3 1.24s.54.41 1.01.41c.19 0 .49-.03.9-.09l.05.9c-.29.1-.69.16-1.19.16-.76 0-1.31-.22-1.66-.66s-.52-1.09-.52-1.95v-6.69h-1.84v-.91h1.84v-2.57h1.11z"/><path d="m266.08 493.1c-.85 0-1.62-.21-2.31-.63s-1.23-1.01-1.61-1.76-.57-1.59-.57-2.53v-.4c0-.96.19-1.83.56-2.61.37-.77.89-1.38 1.56-1.82s1.39-.66 2.17-.66c1.22 0 2.18.42 2.9 1.25s1.07 1.97 1.07 3.41v.62h-7.16v.21c0 1.14.33 2.08.98 2.84s1.47 1.14 2.46 1.14c.59 0 1.12-.11 1.57-.32.45-.22.87-.56 1.24-1.04l.7.53c-.82 1.18-2 1.77-3.55 1.77zm-.2-9.46c-.83 0-1.54.31-2.11.92s-.92 1.43-1.04 2.47h6.02v-.12c-.03-.96-.31-1.75-.83-2.35-.52-.61-1.2-.91-2.04-.91z"/><path d="m278.16 483.83c-.23-.04-.49-.06-.75-.06-.69 0-1.28.19-1.76.58s-.82.95-1.02 1.68v6.89h-1.1v-10.03h1.08l.02 1.59c.59-1.19 1.53-1.78 2.83-1.78.31 0 .55.04.73.12z"/><path d="m282.49 482.89.04 1.71c.38-.62.85-1.09 1.41-1.41s1.18-.49 1.86-.49c1.08 0 1.88.3 2.4.91.53.61.79 1.51.8 2.73v6.58h-1.1v-6.59c0-.9-.2-1.56-.57-2s-.97-.66-1.79-.66c-.69 0-1.29.21-1.82.64s-.92 1.01-1.17 1.74v6.87h-1.1v-10.03h1.06z"/><path d="m297.26 493.1c-.85 0-1.62-.21-2.31-.63s-1.23-1.01-1.61-1.76-.57-1.59-.57-2.53v-.4c0-.96.19-1.83.56-2.61.37-.77.89-1.38 1.56-1.82s1.39-.66 2.17-.66c1.22 0 2.18.42 2.9 1.25s1.07 1.97 1.07 3.41v.62h-7.16v.21c0 1.14.33 2.08.98 2.84s1.47 1.14 2.46 1.14c.59 0 1.12-.11 1.57-.32.45-.22.87-.56 1.24-1.04l.7.53c-.82 1.18-2 1.77-3.55 1.77zm-.2-9.46c-.83 0-1.54.31-2.11.92s-.92 1.43-1.04 2.47h6.02v-.12c-.03-.96-.31-1.75-.83-2.35-.52-.61-1.2-.91-2.04-.91z"/><path d="m306.43 480.32v2.57h2.08v.91h-2.08v6.69c0 .56.1.97.3 1.24s.54.41 1.01.41c.19 0 .49-.03.9-.09l.05.9c-.29.1-.69.16-1.19.16-.76 0-1.31-.22-1.66-.66s-.52-1.09-.52-1.95v-6.69h-1.84v-.91h1.84v-2.57h1.11z"/></g><g opacity=".9"><path d="m91.33 680.29v5.5h-1.14v-13.5h4.6c1.4 0 2.51.36 3.32 1.08s1.22 1.7 1.22 2.96-.39 2.25-1.17 2.93c-.78.69-1.91 1.03-3.4 1.03zm0-.96h3.46c1.11 0 1.95-.26 2.53-.79s.87-1.26.87-2.2-.29-1.68-.87-2.23-1.4-.84-2.46-.85h-3.53z"/><path d="m104.25 677.46c.36-.6.83-1.06 1.4-1.39s1.19-.49 1.86-.49c1.08 0 1.88.3 2.4.91.53.61.79 1.51.8 2.73v6.58h-1.1v-6.59c0-.9-.2-1.56-.57-2s-.97-.66-1.79-.66c-.69 0-1.29.21-1.82.64s-.92 1.01-1.17 1.74v6.87h-1.1v-14.24h1.1v5.91z"/><path d="m114.47 680.63c0-.96.19-1.83.56-2.61.37-.77.9-1.37 1.59-1.8.68-.43 1.46-.64 2.32-.64 1.33 0 2.42.47 3.25 1.4.83.94 1.24 2.18 1.24 3.72v.23c0 .97-.19 1.84-.56 2.62s-.9 1.37-1.58 1.79-1.46.63-2.33.63c-1.33 0-2.41-.47-3.24-1.4-.83-.94-1.25-2.18-1.25-3.72zm1.11.31c0 1.2.31 2.18.93 2.95s1.44 1.15 2.44 1.15 1.81-.38 2.43-1.15.93-1.79.93-3.05v-.21c0-.77-.14-1.47-.43-2.1s-.68-1.13-1.2-1.48c-.51-.35-1.1-.52-1.76-.52-.99 0-1.8.39-2.42 1.16-.62.78-.94 1.79-.94 3.04v.2z"/><path d="m128.29 675.76.04 1.71c.38-.62.85-1.09 1.41-1.41s1.18-.49 1.86-.49c1.08 0 1.88.3 2.4.91.53.61.79 1.51.8 2.73v6.58h-1.1v-6.59c0-.9-.2-1.56-.57-2s-.97-.66-1.79-.66c-.69 0-1.29.21-1.82.64s-.92 1.01-1.17 1.74v6.87h-1.1v-10.03h1.06z"/><path d="m143.07 685.98c-.85 0-1.62-.21-2.31-.63s-1.23-1.01-1.61-1.76-.57-1.59-.57-2.53v-.4c0-.96.19-1.83.56-2.61.37-.77.89-1.38 1.56-1.82s1.39-.66 2.17-.66c1.22 0 2.18.42 2.9 1.25s1.07 1.97 1.07 3.41v.62h-7.16v.21c0 1.14.33 2.08.98 2.84s1.47 1.14 2.46 1.14c.59 0 1.12-.11 1.57-.32.45-.22.87-.56 1.24-1.04l.7.53c-.82 1.18-2 1.77-3.55 1.77zm-.2-9.46c-.83 0-1.54.31-2.11.92s-.92 1.43-1.04 2.47h6.02v-.12c-.03-.96-.31-1.75-.83-2.35-.52-.61-1.2-.91-2.04-.91z"/></g><g opacity=".9"><path d="m254.95 679.32h-6.31v5.51h7.26v.96h-8.4v-13.5h8.35v.96h-7.21v5.1h6.31v.96z"/><path d="m260.57 675.76.04 1.63c.37-.61.83-1.06 1.39-1.36s1.17-.45 1.85-.45c1.58 0 2.59.65 3.01 1.95.36-.62.84-1.11 1.44-1.44s1.26-.5 1.98-.5c2.15 0 3.25 1.17 3.29 3.52v6.69h-1.11v-6.61c0-.9-.2-1.56-.58-1.99s-1-.65-1.86-.65c-.8.01-1.47.27-2.02.77s-.86 1.12-.92 1.84v6.64h-1.11v-6.69c0-.86-.21-1.5-.61-1.92s-1.01-.63-1.84-.63c-.7 0-1.3.2-1.8.6s-.87.99-1.11 1.78v6.88h-1.11v-10.03h1.07z"/><path d="m284.24 685.79c-.11-.32-.18-.78-.21-1.4-.39.51-.89.9-1.49 1.17-.6.28-1.24.41-1.91.41-.96 0-1.74-.27-2.34-.81s-.89-1.22-.89-2.04c0-.98.41-1.75 1.22-2.32s1.95-.85 3.4-.85h2.01v-1.14c0-.72-.22-1.28-.66-1.69s-1.09-.62-1.93-.62c-.77 0-1.41.2-1.92.59s-.76.87-.76 1.43h-1.11c0-.81.37-1.5 1.11-2.08s1.65-.88 2.73-.88 2 .28 2.65.84.98 1.34 1 2.34v4.75c0 .97.1 1.7.31 2.18v.11h-1.19zm-3.49-.8c.74 0 1.4-.18 1.99-.54s1.01-.84 1.27-1.44v-2.21h-1.98c-1.11.01-1.97.21-2.6.61-.62.39-.94.93-.94 1.62 0 .56.21 1.03.63 1.4s.96.56 1.63.56z"/><path d="m289.53 672.86c0-.21.07-.39.2-.53.14-.14.32-.22.56-.22s.42.07.56.22c.14.14.21.32.21.53s-.07.38-.21.53c-.14.14-.33.21-.56.21s-.42-.07-.56-.21-.2-.32-.2-.53zm1.31 12.93h-1.11v-10.03h1.11z"/><path d="m296.61 685.79h-1.11v-14.24h1.11z"/></g><path d="m234.28 568.91v44.71h75.4v-44.71zm73.34 1.06-35.64 28.12-35.64-28.12zm-72.28 42.59v-42.02l36.64 28.91 36.64-28.91v42.02z" opacity=".8"/><g opacity=".8"><path d="m118.79 434.83h-1.55l-.04-.51c-1.57-18.58-7.83-26.91-12.85-33.61-3.94-5.25-7.34-9.79-7.34-17.53 0-11.44 9.31-20.75 20.75-20.75h.52c11.44 0 20.75 9.31 20.75 20.75 0 7.74-3.4 12.28-7.34 17.53-5.03 6.7-11.28 15.03-12.85 33.61l-.04.51zm-1.04-71.28c-10.82 0-19.63 8.81-19.63 19.63 0 7.37 3.14 11.56 7.12 16.86 4.84 6.45 10.79 14.38 12.77 31.24 1.98-16.85 7.94-24.79 12.77-31.24 3.98-5.3 7.12-9.49 7.12-16.86 0-10.82-8.81-19.63-19.63-19.63z"/><path d="m118.02 394.29c-6.37 0-11.55-5.18-11.55-11.55s5.18-11.55 11.55-11.55 11.55 5.18 11.55 11.55-5.18 11.55-11.55 11.55zm0-21.99c-5.75 0-10.43 4.68-10.43 10.43s4.68 10.43 10.43 10.43 10.43-4.68 10.43-10.43-4.68-10.43-10.43-10.43z"/></g><path d="m141.9 612.52-10.07-7.25-.02-.02c-2.65-1.7-5.51-.08-6.67 1.03-.01.01-1.2 1.21-2.78 1.23-1-.03-1.93-.44-2.83-1.33-4.76-4.71-11.29-16.12-12.93-22.61-.31-1.23-.21-2.27.29-3.11.82-1.36 2.45-1.77 2.49-1.78 1.53-.43 4.38-2.07 4.25-5.25l-1.14-12.35c0-.05-.47-5.23-5.41-5.52-3.55-.21-6.95 1.14-9.83 3.91-3.61 3.47-5.88 8.82-5.78 13.63.46 21.77 17.75 45.01 29.44 51.45 2.9 1.59 6.42 2.43 9.83 2.43 1.88 0 3.74-.25 5.43-.78 3.54-1.09 6.22-3.24 7.74-6.23 2.25-4.41-1.98-7.44-2.01-7.46zm1.01 6.95c-1.38 2.71-3.82 4.67-7.07 5.67-4.5 1.38-10.15.77-14.4-1.57-11.47-6.31-28.41-29.12-28.86-50.49-.1-4.51 2.04-9.54 5.43-12.8 1.75-1.68 4.57-3.62 8.32-3.62.22 0 .44 0 .66.02 3.96.24 4.35 4.32 4.36 4.5l1.14 12.33c.12 3.04-3.29 4.05-3.41 4.09-.08.02-2.1.52-3.16 2.28-.67 1.11-.81 2.45-.42 3.98 1.72 6.76 8.27 18.22 13.23 23.13 1.11 1.1 2.31 1.65 3.59 1.65h.06c2.06-.03 3.5-1.51 3.55-1.55.11-.1 2.7-2.52 5.26-.89l10.06 7.24c.14.1 3.46 2.5 1.66 6.04z" opacity=".8"/><path d="m288.72 405.83v-16.2c8.06-.3 14.54-6.93 14.54-15.07s-6.77-15.1-15.1-15.1-15.1 6.77-15.1 15.1 6.47 14.77 14.54 15.07v16.2c-5.33.2-9.96 3.17-12.49 7.52l-14.31-7.59c1.67-3.44 1.98-7.32.85-11-1.18-3.85-3.8-7.02-7.36-8.91s-7.65-2.27-11.5-1.09-7.02 3.8-8.91 7.36-2.28 7.65-1.09 11.5c1.18 3.85 3.8 7.02 7.36 8.91 2.21 1.17 4.62 1.77 7.05 1.77 1.49 0 2.99-.22 4.45-.67 3.67-1.13 6.71-3.57 8.62-6.88l14.32 7.59c-.96 1.99-1.52 4.21-1.52 6.56 0 8.33 6.77 15.1 15.1 15.1s15.1-6.77 15.1-15.1-6.47-14.77-14.54-15.07zm-37.4 6.73c-3.57 1.1-7.35.74-10.65-1.01s-5.72-4.68-6.81-8.24c-1.1-3.57-.74-7.35 1.01-10.65s4.68-5.72 8.24-6.81c1.36-.42 2.74-.62 4.12-.62 2.25 0 4.48.55 6.53 1.63 3.3 1.75 5.72 4.68 6.81 8.24s.74 7.35-1.01 10.65-4.68 5.72-8.24 6.81zm22.87-37.99c0-7.71 6.27-13.98 13.98-13.98s13.98 6.27 13.98 13.98-6.27 13.98-13.98 13.98-13.98-6.27-13.98-13.98zm13.98 60.31c-7.71 0-13.98-6.27-13.98-13.98s6.27-13.98 13.98-13.98 13.98 6.27 13.98 13.98-6.27 13.98-13.98 13.98z" opacity=".8"/></g></svg>